<svg width="655" height="1383" viewBox="0 0 655 1383" fill="none" xmlns="http://www.w3.org/2000/svg">
<g style="mix-blend-mode:multiply" opacity="0.3">
<path d="M654.819 764.198V848.624L582.178 890.94V806.115L654.819 764.198Z" fill="#E6E7E8"/>
<path d="M654.819 509.53V593.956L582.178 636.211V551.446L654.819 509.53Z" fill="#E6E7E8"/>
<path d="M654.819 255.2V339.626L630.609 353.731L582.178 381.905V297.117L654.819 255.2Z" fill="#E6E7E8"/>
<path d="M582.178 806.115V890.939L527.691 859.151V859.2L522.191 855.997L509.524 848.551V764.089L582.178 806.115Z" fill="#F1F2F2"/>
<path d="M545.603 614.938L527.691 604.483V604.532L520.705 600.458L509.524 593.883V509.433L582.178 551.446V636.211V636.247V636.283L582.093 636.235V636.223L581.936 636.138L571.505 630.047L545.603 614.938Z" fill="#F1F2F2"/>
<path d="M581.948 381.821L545.628 360.621L527.691 350.154V350.214L522.566 347.229L509.524 339.554V255.103L582.178 297.117V381.906V381.942V381.954L581.948 381.821Z" fill="#F1F2F2"/>
<path d="M582.081 678.817V721.241L545.724 742.429V699.993V699.956L582.081 678.817Z" fill="#E6E7E8"/>
<path d="M582.081 169.831V212.244L545.724 233.432V191.007V190.971L582.081 169.831Z" fill="#E6E7E8"/>
<path d="M545.724 657.447V699.703L509.354 720.891V678.43L545.724 657.447Z" fill="#E6E7E8"/>
<path d="M545.724 148.45V190.705L509.354 211.893V169.432L545.724 148.45Z" fill="#E6E7E8"/>
<path d="M473.01 615.023L472.986 615.035L436.786 636.09V551.483L509.44 509.566V593.895L509.355 593.847L473.095 614.938L473.131 614.951L473.01 615.023Z" fill="#E6E7E8"/>
<path d="M472.998 106.025L472.986 106.037L436.786 127.092V42.497L509.44 0.580109V84.8974L509.355 84.849L473.095 105.94L473.131 105.953L472.998 106.025Z" fill="#E6E7E8"/>
<path d="M509.356 764.198V848.624L436.702 890.94V806.115L509.356 764.198Z" fill="#E6E7E8"/>
<path d="M509.355 721.145V763.617L472.986 742.393V699.956V699.92L509.355 721.145Z" fill="#F1F2F2"/>
<path d="M509.355 466.839V508.937L472.986 487.749V445.651V445.615L509.355 466.839Z" fill="#F1F2F2"/>
<path d="M473.011 360.717L472.987 360.729L436.726 381.821L436.702 381.796V297.117L509.356 255.2V339.541L473.095 360.633L473.132 360.645L473.011 360.717Z" fill="#E6E7E8"/>
<path d="M509.355 212.159V254.62L472.986 233.395V190.971V190.935L509.355 212.159Z" fill="#F1F2F2"/>
<path d="M472.986 657.411V699.703L436.786 678.611V636.936V636.416V636.356L436.617 636.259V636.223L436.786 636.32L436.811 636.308L472.986 657.242V657.375V657.387V657.411Z" fill="#F1F2F2"/>
<path d="M472.986 403.106V445.397L436.786 424.306V382.631V382.111V382.05L436.617 381.954V381.917L436.629 381.905L436.702 381.954H436.714L472.986 402.936V403.069V403.081V403.106Z" fill="#F1F2F2"/>
<path d="M472.986 148.413V190.705L436.786 169.613V127.938V127.431V127.358L436.617 127.261V127.225L436.786 127.322H436.798L472.986 148.244V148.377V148.389V148.413Z" fill="#F1F2F2"/>
<path d="M436.726 636.126L436.617 636.187V636.199V636.223L436.605 636.211L364.229 593.98V551.543V551.422V509.53L436.786 551.483V636.09L436.726 636.126Z" fill="#F1F2F2"/>
<path d="M436.726 127.129L436.617 127.189V127.213V127.225L436.605 127.213L364.229 84.982V42.5574V42.4245V0.531738L436.786 42.497V127.092L436.726 127.129Z" fill="#F1F2F2"/>
<path d="M436.702 806.115V890.94L382.215 859.151V859.2L376.715 855.997L364.229 848.66V848.636V806.199V806.066V764.198L436.702 806.115Z" fill="#F1F2F2"/>
<path d="M436.702 381.797V381.833L436.617 381.881V381.893V381.905L436.605 381.893L382.215 350.153V350.214L377.09 347.228L364.229 339.662V339.65V297.201V297.08V255.212L436.702 297.117V381.797Z" fill="#F1F2F2"/>
<path d="M364.133 254.487V169.855L436.617 128.035V169.517V169.674V169.686V169.746V169.783V212.207V212.243L436.702 212.292L364.133 254.499V254.487Z" fill="#E6E7E8"/>
<path d="M436.702 721.29L364.217 763.436L364.133 763.485V678.853L436.617 637.033V678.515V678.672V678.684V678.732V678.768V721.205V721.241L436.702 721.29Z" fill="#E6E7E8"/>
<path d="M364.133 508.841V424.547L436.617 382.727V424.209V424.366V424.378V424.427V424.463V466.754L364.145 508.913H364.133V508.901V508.841Z" fill="#E6E7E8"/>
<path d="M364.133 593.992L364.169 594.016L364.133 594.028L327.86 615.132V572.731V572.695L364.133 551.604V593.919V593.992Z" fill="#E6E7E8"/>
<path d="M327.715 742.333L291.491 721.229V636.827L364.133 678.853V763.484L364.072 763.521L327.86 742.417L327.715 742.333Z" fill="#F1F2F2"/>
<path d="M327.715 487.689L291.491 466.585V382.522L364.133 424.547V508.84L364.072 508.877L327.86 487.773L327.715 487.689Z" fill="#F1F2F2"/>
<path d="M327.727 233.347L291.491 212.244V127.842L364.133 169.855V254.487L364.084 254.523H364.072L327.86 233.42L327.727 233.347Z" fill="#F1F2F2"/>
<path d="M364.133 339.674L327.86 360.814V318.389V318.353L364.048 297.31V339.553V339.626L364.133 339.674Z" fill="#E6E7E8"/>
<path d="M364.133 848.672L327.86 869.812V827.387V827.351L364.048 806.308V848.551V848.624L364.133 848.672Z" fill="#E6E7E8"/>
<path d="M327.86 784.83V827.085L291.491 848.273V805.812L327.86 784.83Z" fill="#E6E7E8"/>
<path d="M327.86 530.186V572.441L291.491 593.629V551.168L327.86 530.186Z" fill="#E6E7E8"/>
<path d="M327.86 275.832V318.099L291.491 339.288V296.815L327.86 275.832Z" fill="#E6E7E8"/>
<path d="M291.491 848.539V891L255.122 869.776V827.351V827.315L291.491 848.539Z" fill="#F1F2F2"/>
<path d="M291.491 381.978V382.002L291.419 381.954L255.122 360.778V318.353V318.317L291.491 339.541V381.978Z" fill="#F1F2F2"/>
<path d="M255.231 742.321L255.267 742.333L255.134 742.405V742.417H255.122L218.862 763.509L218.753 763.436V678.78L291.406 636.864V721.278L255.231 742.321Z" fill="#E6E7E8"/>
<path d="M255.146 487.761L255.122 487.773L218.862 508.865L218.753 508.792V424.475L291.406 382.558V466.634L255.231 487.677L255.267 487.689L255.146 487.761Z" fill="#E6E7E8"/>
<path d="M255.231 233.323L255.255 233.347L255.134 233.408V233.42H255.122L218.862 254.511L218.753 254.438V169.783L291.406 127.866V212.292L288.759 213.839L255.231 233.323Z" fill="#E6E7E8"/>
<path d="M255.122 784.793V827.085L218.753 805.897V764.198V763.678V763.617L218.777 763.605L255.122 784.624V784.757V784.781V784.793Z" fill="#F1F2F2"/>
<path d="M255.122 275.796V318.099L218.753 296.911V255.2V254.692V254.62L218.777 254.608L255.122 275.626V275.759V275.784V275.796Z" fill="#F1F2F2"/>
<path d="M218.753 848.588V848.624L146.1 890.94V806.115L218.753 764.198V805.897V806.054V806.066V806.127V806.163V848.588Z" fill="#E6E7E8"/>
<path d="M218.753 763.605V763.617L164.266 731.817V731.878L159.141 728.892L146.1 721.217V636.767L218.753 678.78V763.436V763.569V763.593V763.605Z" fill="#F1F2F2"/>
<path d="M218.753 593.944V593.956L146.1 636.211V551.446L218.753 509.53V551.253V551.41V551.422V551.483V551.507V593.944Z" fill="#E6E7E8"/>
<path d="M218.753 508.937V508.949L146.1 466.621V382.461L218.753 424.475V508.792V508.925V508.937Z" fill="#F1F2F2"/>
<path d="M218.753 339.589V339.626L194.531 353.731L146.1 381.905V297.117L218.753 255.2V296.911V297.056V297.08V297.129V297.165V339.589Z" fill="#E6E7E8"/>
<path d="M218.753 254.607V254.62L164.266 222.819V222.88L157.751 219.084L146.1 212.219V127.769L218.753 169.783V254.438V254.571V254.595V254.607Z" fill="#F1F2F2"/>
<path d="M218.753 84.9456V84.9576L146.1 127.213V42.4606L218.753 0.543701V42.2551V42.4123V42.4243V42.4848V42.521V84.9456Z" fill="#E6E7E8"/>
<path d="M146.099 806.115V890.939L91.6123 859.151V859.2L85.5085 855.646L73.458 848.551V764.089L146.099 806.115Z" fill="#F1F2F2"/>
<path d="M109.525 614.938L91.6123 604.483V604.519L85.8469 601.171L84.2636 600.241L73.458 593.883V509.433L146.099 551.446V636.211V636.247V636.283L146.015 636.235V636.223L145.87 636.138H145.858L135.427 630.047L109.525 614.938Z" fill="#F1F2F2"/>
<path d="M109.549 360.621L91.6123 350.154V350.202L85.8469 346.842L73.458 339.554V255.103L146.099 297.117V381.906V381.942V381.954L145.882 381.821L109.549 360.621Z" fill="#F1F2F2"/>
<path d="M109.525 105.94L91.6123 95.4855V95.5217L84.5778 91.4364L83.1516 90.5903L73.458 84.8854V0.43515L146.099 42.4608V127.213V127.249V127.286L146.015 127.237V127.225L145.87 127.141H145.858L135.427 121.049L109.525 105.94Z" fill="#F1F2F2"/>
<path d="M146.015 678.805V721.242L109.658 742.418V699.993V699.945L146.015 678.805Z" fill="#E6E7E8"/>
<path d="M146.015 424.499V466.67L109.658 487.822V445.687V445.639L146.015 424.499Z" fill="#E6E7E8"/>
<path d="M146.015 169.819V212.244L109.658 233.42V191.007V190.959L146.015 169.819Z" fill="#E6E7E8"/>
<path d="M109.646 657.447V699.703L73.2891 720.891V678.43L109.646 657.447Z" fill="#E6E7E8"/>
<path d="M109.646 403.142V445.397L73.2891 466.586V424.125L109.646 403.142Z" fill="#E6E7E8"/>
<path d="M109.646 148.45V190.705L73.2891 211.893V169.432L109.646 148.45Z" fill="#E6E7E8"/>
<path d="M36.9437 615.023L36.9196 615.035L0.719727 636.09V551.483L73.3732 509.566V593.895L73.2886 593.847L37.0283 614.938L37.0646 614.951L36.9437 615.023Z" fill="#E6E7E8"/>
<path d="M36.9317 106.025L36.9196 106.037L0.719727 127.092V42.497L73.3732 0.580109V84.8974L73.2886 84.849L37.0283 105.94L37.0646 105.953L36.9317 106.025Z" fill="#E6E7E8"/>
<path d="M73.2883 764.198V848.624L0.634766 890.94V806.115L73.2883 764.198Z" fill="#E6E7E8"/>
<path d="M73.289 721.145V763.617L36.9199 742.393V699.956V699.92L73.289 721.145Z" fill="#F1F2F2"/>
<path d="M73.289 466.839V508.937L36.9199 487.749V445.651V445.615L73.289 466.839Z" fill="#F1F2F2"/>
<path d="M36.9434 360.717L36.9192 360.729L0.658926 381.821L0.634766 381.796V297.117L73.2883 255.2V339.541L37.028 360.633L37.0643 360.645L36.9434 360.717Z" fill="#E6E7E8"/>
<path d="M73.289 212.159V254.62L36.9199 233.395V190.971V190.935L73.289 212.159Z" fill="#F1F2F2"/>
<path d="M36.9198 657.411V699.703L0.720014 678.611V636.936V636.416V636.356L0.550781 636.259V636.223L0.720014 636.32L0.744174 636.308L36.9198 657.242V657.375V657.387V657.411Z" fill="#F1F2F2"/>
<path d="M36.9198 403.106V445.397L0.720014 424.306V382.631V382.111V382.05L0.550781 381.954V381.917L0.56288 381.905L0.635397 381.954H0.647459L36.9198 402.936V403.069V403.081V403.106Z" fill="#F1F2F2"/>
<path d="M36.9198 148.413V190.705L0.720014 169.613V127.938V127.431V127.358L0.550781 127.261V127.225L0.720014 127.322H0.732075L36.9198 148.244V148.377V148.389V148.413Z" fill="#F1F2F2"/>
<path d="M0.659851 636.126L0.551071 636.187V636.199V636.223L0.538971 636.211L-71.8486 593.968V551.543V551.507V551.459V551.422V551.253V509.518L0.720306 551.483V636.09L0.659851 636.126Z" fill="#F1F2F2"/>
<path d="M0.659851 127.129L0.551071 127.189V127.213V127.225L0.538971 127.213L-71.8486 84.97V42.5575V42.5213V42.4609V42.4246V42.2554V0.519775L0.720306 42.4971V127.092L0.659851 127.129Z" fill="#F1F2F2"/>
<path d="M0.635689 806.115V890.939L-53.8515 859.151V859.2L-59.3509 855.997L-71.8486 848.66V848.648V848.636V848.624V806.199V806.163V806.102V806.066V805.897V764.186L0.635689 806.115Z" fill="#F1F2F2"/>
<path d="M0.635689 381.797V381.833L0.551071 381.881V381.893V381.905L0.538971 381.893L-53.8515 350.153V350.214L-58.9762 347.228L-71.8486 339.662V339.65V339.626V297.201V297.165V297.117V297.08V296.911V255.2L0.635689 297.117V381.797Z" fill="#F1F2F2"/>
<path d="M-71.9336 254.487V169.855L0.550728 128.035V169.517V169.674V169.686V169.746V169.783V212.207V212.243L0.635345 212.292L-71.9336 254.499V254.487Z" fill="#E6E7E8"/>
<path d="M0.635345 721.29L-71.849 763.436L-71.9336 763.485V678.853L0.550728 637.033V678.515V678.672V678.684V678.732V678.768V721.205V721.241L0.635345 721.29Z" fill="#E6E7E8"/>
<path d="M-71.9336 508.841V424.547L0.550728 382.727V424.209V424.366V424.378V424.427V424.463V466.754L-71.9336 508.913V508.841Z" fill="#E6E7E8"/>
</g>
<g style="mix-blend-mode:multiply" opacity="0.3">
<path d="M654.819 1272.53V1356.96L582.178 1399.21V1314.45L654.819 1272.53Z" fill="#E6E7E8"/>
<path d="M654.819 1018.2V1102.63L630.609 1116.73L582.178 1144.91V1060.12L654.819 1018.2Z" fill="#E6E7E8"/>
<path d="M545.603 1377.94L527.691 1367.48V1367.53L520.705 1363.46L509.524 1356.88V1272.43L582.178 1314.45V1399.21V1399.25V1399.28L582.093 1399.24V1399.22L581.936 1399.14L571.505 1393.05L545.603 1377.94Z" fill="#F1F2F2"/>
<path d="M581.948 1144.82L545.628 1123.62L527.691 1113.15V1113.21L522.566 1110.23L509.524 1102.55V1018.1L582.178 1060.12V1144.91V1144.94V1144.95L581.948 1144.82Z" fill="#F1F2F2"/>
<path d="M582.081 932.831V975.244L545.724 996.432V954.007V953.971L582.081 932.831Z" fill="#E6E7E8"/>
<path d="M545.724 911.45V953.705L509.354 974.893V932.432L545.724 911.45Z" fill="#E6E7E8"/>
<path d="M473.01 1378.02L472.986 1378.04L436.786 1399.09V1314.48L509.44 1272.57V1356.9L509.355 1356.85L473.095 1377.94L473.131 1377.95L473.01 1378.02Z" fill="#E6E7E8"/>
<path d="M509.355 1229.84V1271.94L472.986 1250.75V1208.65V1208.61L509.355 1229.84Z" fill="#F1F2F2"/>
<path d="M473.011 1123.72L472.987 1123.73L436.726 1144.82L436.702 1144.8V1060.12L509.356 1018.2V1102.54L473.095 1123.63L473.132 1123.64L473.011 1123.72Z" fill="#E6E7E8"/>
<path d="M509.355 975.159V1017.62L472.986 996.395V953.971V953.935L509.355 975.159Z" fill="#F1F2F2"/>
<path d="M472.986 1166.11V1208.4L436.786 1187.31V1145.63V1145.11V1145.05L436.617 1144.95V1144.92L436.629 1144.91L436.702 1144.95H436.714L472.986 1165.94V1166.07V1166.08V1166.11Z" fill="#F1F2F2"/>
<path d="M472.986 911.413V953.705L436.786 932.613V890.938V890.431V890.358L436.617 890.261V890.225L436.786 890.322H436.798L472.986 911.244V911.377V911.389V911.413Z" fill="#F1F2F2"/>
<path d="M436.726 1399.13L436.617 1399.19V1399.2V1399.22L436.605 1399.21L364.229 1356.98V1314.54V1314.42V1272.53L436.786 1314.48V1399.09L436.726 1399.13Z" fill="#F1F2F2"/>
<path d="M436.702 1144.8V1144.83L436.617 1144.88V1144.89V1144.91L436.605 1144.89L382.215 1113.15V1113.21L377.09 1110.23L364.229 1102.66V1102.65V1060.2V1060.08V1018.21L436.702 1060.12V1144.8Z" fill="#F1F2F2"/>
<path d="M364.133 1017.49V932.855L436.617 891.035V932.517V932.674V932.686V932.746V932.783V975.207V975.243L436.702 975.292L364.133 1017.5V1017.49Z" fill="#E6E7E8"/>
<path d="M364.133 1271.84V1187.55L436.617 1145.73V1187.21V1187.37V1187.38V1187.43V1187.46V1229.75L364.145 1271.91H364.133V1271.9V1271.84Z" fill="#E6E7E8"/>
<path d="M364.133 1356.99L364.169 1357.02L364.133 1357.03L327.86 1378.13V1335.73V1335.69L364.133 1314.6V1356.92V1356.99Z" fill="#E6E7E8"/>
<path d="M327.715 1250.69L291.491 1229.59V1145.52L364.133 1187.55V1271.84L364.072 1271.88L327.86 1250.77L327.715 1250.69Z" fill="#F1F2F2"/>
<path d="M327.727 996.347L291.491 975.244V890.842L364.133 932.855V1017.49L364.084 1017.52H364.072L327.86 996.42L327.727 996.347Z" fill="#F1F2F2"/>
<path d="M364.133 1102.67L327.86 1123.81V1081.39V1081.35L364.048 1060.31V1102.55V1102.63L364.133 1102.67Z" fill="#E6E7E8"/>
<path d="M327.86 1293.19V1335.44L291.491 1356.63V1314.17L327.86 1293.19Z" fill="#E6E7E8"/>
<path d="M327.86 1038.83V1081.1L291.491 1102.29V1059.81L327.86 1038.83Z" fill="#E6E7E8"/>
<path d="M291.491 1144.98V1145L291.419 1144.95L255.122 1123.78V1081.35V1081.32L291.491 1102.54V1144.98Z" fill="#F1F2F2"/>
<path d="M255.146 1250.76L255.122 1250.77L218.862 1271.86L218.753 1271.79V1187.48L291.406 1145.56V1229.63L255.231 1250.68L255.267 1250.69L255.146 1250.76Z" fill="#E6E7E8"/>
<path d="M255.231 996.323L255.255 996.347L255.134 996.407V996.42H255.122L218.862 1017.51L218.753 1017.44V932.783L291.406 890.866V975.292L288.759 976.839L255.231 996.323Z" fill="#E6E7E8"/>
<path d="M255.122 1038.8V1081.1L218.753 1059.91V1018.2V1017.69V1017.62L218.777 1017.61L255.122 1038.63V1038.76V1038.78V1038.8Z" fill="#F1F2F2"/>
<path d="M218.753 1356.94V1356.96L146.1 1399.21V1314.45L218.753 1272.53V1314.25V1314.41V1314.42V1314.48V1314.51V1356.94Z" fill="#E6E7E8"/>
<path d="M218.753 1271.94V1271.95L146.1 1229.62V1145.46L218.753 1187.47V1271.79V1271.93V1271.94Z" fill="#F1F2F2"/>
<path d="M218.753 1102.59V1102.63L194.531 1116.73L146.1 1144.91V1060.12L218.753 1018.2V1059.91V1060.06V1060.08V1060.13V1060.16V1102.59Z" fill="#E6E7E8"/>
<path d="M218.753 1017.61V1017.62L164.266 985.819V985.88L157.751 982.085L146.1 975.219V890.769L218.753 932.783V1017.44V1017.57V1017.6V1017.61Z" fill="#F1F2F2"/>
<path d="M109.525 1377.94L91.6123 1367.48V1367.52L85.8469 1364.17L84.2636 1363.24L73.458 1356.88V1272.43L146.099 1314.45V1399.21V1399.25V1399.28L146.015 1399.24V1399.22L145.87 1399.14H145.858L135.427 1393.05L109.525 1377.94Z" fill="#F1F2F2"/>
<path d="M109.549 1123.62L91.6123 1113.15V1113.2L85.8469 1109.84L73.458 1102.55V1018.1L146.099 1060.12V1144.91V1144.94V1144.95L145.882 1144.82L109.549 1123.62Z" fill="#F1F2F2"/>
<path d="M146.015 1187.5V1229.67L109.658 1250.82V1208.69V1208.64L146.015 1187.5Z" fill="#E6E7E8"/>
<path d="M146.015 932.819V975.244L109.658 996.42V954.007V953.959L146.015 932.819Z" fill="#E6E7E8"/>
<path d="M109.646 1166.14V1208.4L73.2891 1229.59V1187.12L109.646 1166.14Z" fill="#E6E7E8"/>
<path d="M109.646 911.45V953.705L73.2891 974.893V932.432L109.646 911.45Z" fill="#E6E7E8"/>
<path d="M36.9437 1378.02L36.9196 1378.04L0.719727 1399.09V1314.48L73.3732 1272.57V1356.9L73.2886 1356.85L37.0283 1377.94L37.0646 1377.95L36.9437 1378.02Z" fill="#E6E7E8"/>
<path d="M73.289 1229.84V1271.94L36.9199 1250.75V1208.65V1208.61L73.289 1229.84Z" fill="#F1F2F2"/>
<path d="M36.9434 1123.72L36.9192 1123.73L0.658926 1144.82L0.634766 1144.8V1060.12L73.2883 1018.2V1102.54L37.028 1123.63L37.0643 1123.64L36.9434 1123.72Z" fill="#E6E7E8"/>
<path d="M73.289 975.159V1017.62L36.9199 996.395V953.971V953.935L73.289 975.159Z" fill="#F1F2F2"/>
<path d="M36.9198 1166.11V1208.4L0.720014 1187.31V1145.63V1145.11V1145.05L0.550781 1144.95V1144.92L0.56288 1144.91L0.635397 1144.95H0.647459L36.9198 1165.94V1166.07V1166.08V1166.11Z" fill="#F1F2F2"/>
<path d="M36.9198 911.413V953.705L0.720014 932.613V890.938V890.431V890.358L0.550781 890.261V890.225L0.720014 890.322H0.732075L36.9198 911.244V911.377V911.389V911.413Z" fill="#F1F2F2"/>
<path d="M0.659851 1399.13L0.551071 1399.19V1399.2V1399.22L0.538971 1399.21L-71.8486 1356.97V1314.54V1314.51V1314.46V1314.42V1314.25V1272.52L0.720306 1314.48V1399.09L0.659851 1399.13Z" fill="#F1F2F2"/>
<path d="M0.659851 890.129L0.551071 890.189V890.213V890.225L0.538971 890.213L-71.8486 847.97V805.558V805.521V805.461V805.425V805.255V763.52L0.720306 805.497V890.092L0.659851 890.129Z" fill="#F1F2F2"/>
<path d="M0.635689 1144.8V1144.83L0.551071 1144.88V1144.89V1144.91L0.538971 1144.89L-53.8515 1113.15V1113.21L-58.9762 1110.23L-71.8486 1102.66V1102.65V1102.63V1060.2V1060.16V1060.12V1060.08V1059.91V1018.2L0.635689 1060.12V1144.8Z" fill="#F1F2F2"/>
<path d="M-71.9336 1017.49V932.855L0.550728 891.035V932.517V932.674V932.686V932.746V932.783V975.207V975.243L0.635345 975.292L-71.9336 1017.5V1017.49Z" fill="#E6E7E8"/>
<path d="M-71.9336 1271.84V1187.55L0.550728 1145.73V1187.21V1187.37V1187.38V1187.43V1187.46V1229.75L-71.9336 1271.91V1271.84Z" fill="#E6E7E8"/>
</g>
</svg>
