<svg width="60" height="60" viewBox="0 0 60 60" fill="none" xmlns="http://www.w3.org/2000/svg">
<circle cx="30" cy="30" r="30" fill="#73FF9A" fill-opacity="0.35"/>
<path d="M35.7141 18.5714H38.5713C39.3291 18.5714 40.0558 18.8724 40.5916 19.4082C41.1274 19.9441 41.4284 20.6708 41.4284 21.4286V41.4286C41.4284 42.1863 41.1274 42.913 40.5916 43.4489C40.0558 43.9847 39.3291 44.2857 38.5713 44.2857H21.4284C20.6707 44.2857 19.9439 43.9847 19.4081 43.4489C18.8723 42.913 18.5713 42.1863 18.5713 41.4286V21.4286C18.5713 20.6708 18.8723 19.9441 19.4081 19.4082C19.9439 18.8724 20.6707 18.5714 21.4284 18.5714H24.2856" fill="#5FD791"/>
<path fill-rule="evenodd" clip-rule="evenodd" d="M36.5873 25.2982C37.2116 25.7807 37.3267 26.6778 36.8442 27.3021L30.7728 35.1593C30.3004 35.7706 29.4276 35.8956 28.8026 35.4414L24.874 32.5864C24.2358 32.1226 24.0944 31.2292 24.5582 30.5909C25.022 29.9527 25.9154 29.8113 26.5537 30.2751L29.3601 32.3147L34.5834 25.5551C35.0658 24.9308 35.963 24.8158 36.5873 25.2982Z" fill="white"/>
<path d="M34.2856 15.7144H25.7142C24.9252 15.7144 24.2856 16.3539 24.2856 17.1429V20.0001C24.2856 20.789 24.9252 21.4286 25.7142 21.4286H34.2856C35.0746 21.4286 35.7142 20.789 35.7142 20.0001V17.1429C35.7142 16.3539 35.0746 15.7144 34.2856 15.7144Z" fill="#27AE60"/>
</svg>
