<svg width="468" height="104" viewBox="0 0 468 104" fill="none" xmlns="http://www.w3.org/2000/svg">
<rect x="21.8623" y="57.996" width="415.886" height="2.97415" rx="1.48708" fill="#EFF0F6"/>
<circle cx="27.3152" cy="60.4745" r="9.91385" fill="#7456FD"/>
<path d="M32.5926 57.4866L26.14 63.9391L23.207 61.0062" stroke="#F2F2F2" stroke-width="2" stroke-linecap="round" stroke-linejoin="round"/>
<path d="M139.836 60.4745C139.836 65.9498 135.398 70.3883 129.923 70.3883C124.447 70.3883 120.009 65.9498 120.009 60.4745C120.009 54.9992 124.447 50.5606 129.923 50.5606C135.398 50.5606 139.836 54.9992 139.836 60.4745Z" fill="#EFF0F6"/>
<path d="M126.936 63.6328C126.936 63.2408 126.969 62.8768 127.034 62.5408C127.099 62.2048 127.216 61.8921 127.384 61.6028C127.552 61.3041 127.781 61.0241 128.07 60.7628C128.359 60.4921 128.733 60.2308 129.19 59.9788C129.517 59.8015 129.825 59.6381 130.114 59.4888C130.403 59.3395 130.655 59.1948 130.87 59.0548C131.094 58.9055 131.271 58.7515 131.402 58.5928C131.533 58.4248 131.598 58.2335 131.598 58.0188C131.598 57.7201 131.467 57.4541 131.206 57.2208C130.954 56.9781 130.585 56.8568 130.1 56.8568C129.848 56.8568 129.615 56.8941 129.4 56.9688C129.195 57.0341 129.003 57.1228 128.826 57.2348C128.658 57.3375 128.509 57.4541 128.378 57.5848C128.247 57.7155 128.131 57.8415 128.028 57.9628L127.048 56.8288C127.141 56.7261 127.286 56.6001 127.482 56.4508C127.687 56.2921 127.93 56.1428 128.21 56.0028C128.499 55.8628 128.826 55.7461 129.19 55.6528C129.554 55.5501 129.951 55.4988 130.38 55.4988C130.828 55.4988 131.229 55.5595 131.584 55.6808C131.948 55.7928 132.251 55.9515 132.494 56.1568C132.746 56.3621 132.937 56.6095 133.068 56.8988C133.199 57.1788 133.264 57.4821 133.264 57.8088C133.264 58.1541 133.194 58.4621 133.054 58.7328C132.914 59.0035 132.741 59.2415 132.536 59.4468C132.331 59.6521 132.107 59.8295 131.864 59.9788C131.621 60.1188 131.397 60.2401 131.192 60.3428C130.996 60.4361 130.772 60.5481 130.52 60.6788C130.277 60.8001 130.039 60.9448 129.806 61.1128C129.573 61.2715 129.363 61.4441 129.176 61.6308C128.989 61.8175 128.859 62.0228 128.784 62.2468H133.418V63.6328H126.936Z" fill="#3F3F3F"/>
<circle cx="232.531" cy="60.4745" r="9.91385" fill="#EFF0F6"/>
<path d="M233.654 60.3288C233.944 60.3848 234.21 60.4875 234.452 60.6368C234.695 60.7768 234.9 60.9541 235.068 61.1688C235.236 61.3835 235.367 61.6308 235.46 61.9108C235.554 62.1908 235.6 62.4941 235.6 62.8208C235.6 63.2595 235.516 63.6515 235.348 63.9968C235.19 64.3515 234.956 64.6548 234.648 64.9068C234.35 65.1588 233.986 65.3501 233.556 65.4808C233.127 65.6208 232.646 65.6908 232.114 65.6908C231.405 65.6908 230.78 65.5648 230.238 65.3128C229.697 65.0701 229.263 64.7155 228.936 64.2488L229.874 63.1848C230.098 63.5301 230.388 63.8008 230.742 63.9968C231.097 64.1928 231.545 64.2908 232.086 64.2908C232.702 64.2908 233.174 64.1601 233.5 63.8988C233.836 63.6375 234.004 63.2455 234.004 62.7228C234.004 62.1815 233.818 61.7568 233.444 61.4488C233.071 61.1408 232.52 60.9868 231.792 60.9868H231.414V59.7828H231.834C232.46 59.7828 232.94 59.6381 233.276 59.3488C233.612 59.0501 233.78 58.6768 233.78 58.2288C233.78 57.7808 233.631 57.4541 233.332 57.2488C233.034 57.0341 232.646 56.9268 232.17 56.9268C231.694 56.9268 231.274 57.0295 230.91 57.2348C230.546 57.4401 230.257 57.7341 230.042 58.1168L229.076 57.0668C229.207 56.8428 229.384 56.6421 229.608 56.4648C229.832 56.2781 230.084 56.1195 230.364 55.9888C230.654 55.8488 230.962 55.7461 231.288 55.6808C231.624 55.6061 231.97 55.5688 232.324 55.5688C232.782 55.5688 233.197 55.6295 233.57 55.7508C233.953 55.8721 234.28 56.0401 234.55 56.2548C234.83 56.4695 235.045 56.7308 235.194 57.0388C235.344 57.3468 235.418 57.6875 235.418 58.0608C235.418 58.3408 235.376 58.6068 235.292 58.8588C235.208 59.1108 235.087 59.3395 234.928 59.5448C234.779 59.7501 234.597 59.9228 234.382 60.0628C234.168 60.1935 233.925 60.2821 233.654 60.3288Z" fill="#3F3F3F"/>
<circle cx="335.139" cy="60.4745" r="9.91385" fill="#EFF0F6"/>
<path d="M335.208 65.4108V63.1848H330.91V61.8128L335.698 55.6388H336.748V61.7848H337.98V63.1848H336.748V65.4108H335.208ZM332.478 61.7848H335.376V57.9908L332.478 61.7848Z" fill="#3F3F3F"/>
<circle cx="437.748" cy="60.4745" r="9.91385" fill="#EFF0F6"/>
<path d="M437.695 59.1948C438.162 59.1948 438.591 59.2741 438.983 59.4328C439.384 59.5915 439.73 59.8108 440.019 60.0908C440.318 60.3708 440.546 60.7068 440.705 61.0988C440.873 61.4908 440.957 61.9201 440.957 62.3868C440.957 62.8815 440.864 63.3341 440.677 63.7448C440.5 64.1555 440.248 64.5055 439.921 64.7948C439.604 65.0935 439.226 65.3221 438.787 65.4808C438.348 65.6395 437.877 65.7188 437.373 65.7188C436.654 65.7188 436.01 65.5555 435.441 65.2288C434.872 64.9115 434.438 64.4775 434.139 63.9268L435.063 63.0448C435.324 63.4368 435.66 63.7541 436.071 63.9968C436.482 64.2395 436.92 64.3608 437.387 64.3608C437.966 64.3608 438.442 64.1835 438.815 63.8288C439.188 63.4741 439.375 63.0028 439.375 62.4148C439.375 62.1348 439.324 61.8828 439.221 61.6588C439.128 61.4255 438.997 61.2295 438.829 61.0708C438.661 60.9028 438.46 60.7721 438.227 60.6788C438.003 60.5855 437.756 60.5388 437.485 60.5388C437.13 60.5388 436.799 60.6181 436.491 60.7768C436.183 60.9261 435.931 61.1501 435.735 61.4488H434.377C434.386 61.4115 434.405 61.2995 434.433 61.1128C434.47 60.9261 434.517 60.6928 434.573 60.4128C434.629 60.1328 434.69 59.8201 434.755 59.4748C434.82 59.1295 434.89 58.7795 434.965 58.4248C435.133 57.5941 435.315 56.6655 435.511 55.6388H440.369V57.0528H436.631L436.127 59.7688C436.286 59.5915 436.496 59.4515 436.757 59.3488C437.028 59.2461 437.34 59.1948 437.695 59.1948Z" fill="#3F3F3F"/>
<path d="M5.26016 84V76.9H7.72016C8.28682 76.9 8.78349 76.9933 9.21016 77.18C9.64349 77.3667 10.0035 77.62 10.2902 77.94C10.5768 78.26 10.7902 78.6367 10.9302 79.07C11.0768 79.4967 11.1502 79.9533 11.1502 80.44C11.1502 80.98 11.0702 81.47 10.9102 81.91C10.7502 82.3433 10.5202 82.7167 10.2202 83.03C9.92016 83.3367 9.55682 83.5767 9.13016 83.75C8.71016 83.9167 8.24016 84 7.72016 84H5.26016ZM10.2402 80.44C10.2402 80.04 10.1835 79.6733 10.0702 79.34C9.96349 79 9.80016 78.71 9.58016 78.47C9.36682 78.23 9.10349 78.0433 8.79016 77.91C8.47682 77.77 8.12016 77.7 7.72016 77.7H6.16016V83.2H7.72016C8.12682 83.2 8.48682 83.13 8.80016 82.99C9.12016 82.85 9.38349 82.6567 9.59016 82.41C9.80349 82.1633 9.96349 81.8733 10.0702 81.54C10.1835 81.2 10.2402 80.8333 10.2402 80.44ZM15.3384 84.1C14.945 84.1 14.585 84.03 14.2584 83.89C13.9317 83.7433 13.6517 83.5467 13.4184 83.3C13.185 83.0533 13.0017 82.7667 12.8684 82.44C12.7417 82.1067 12.6784 81.7567 12.6784 81.39C12.6784 81.0233 12.7417 80.6767 12.8684 80.35C13.0017 80.0233 13.185 79.7367 13.4184 79.49C13.6584 79.2433 13.9417 79.05 14.2684 78.91C14.595 78.7633 14.955 78.69 15.3484 78.69C15.7417 78.69 16.0984 78.7633 16.4184 78.91C16.745 79.0567 17.0217 79.2533 17.2484 79.5C17.475 79.74 17.6484 80.0233 17.7684 80.35C17.895 80.67 17.9584 81.0033 17.9584 81.35C17.9584 81.4233 17.955 81.49 17.9484 81.55C17.9484 81.61 17.945 81.6567 17.9384 81.69H13.6084C13.6284 81.95 13.6884 82.1867 13.7884 82.4C13.8884 82.6133 14.0184 82.7967 14.1784 82.95C14.3384 83.1033 14.5184 83.2233 14.7184 83.31C14.925 83.3967 15.1417 83.44 15.3684 83.44C15.5284 83.44 15.685 83.42 15.8384 83.38C15.9917 83.3333 16.135 83.2733 16.2684 83.2C16.4017 83.1267 16.5184 83.0367 16.6184 82.93C16.725 82.8233 16.805 82.7033 16.8584 82.57L17.6184 82.78C17.5317 82.9733 17.4117 83.15 17.2584 83.31C17.1117 83.47 16.9384 83.61 16.7384 83.73C16.545 83.8433 16.3284 83.9333 16.0884 84C15.8484 84.0667 15.5984 84.1 15.3384 84.1ZM17.1284 81.04C17.1084 80.7933 17.045 80.5667 16.9384 80.36C16.8384 80.1467 16.7084 79.9667 16.5484 79.82C16.395 79.6733 16.215 79.56 16.0084 79.48C15.8017 79.3933 15.5817 79.35 15.3484 79.35C15.115 79.35 14.895 79.3933 14.6884 79.48C14.4817 79.56 14.2984 79.6767 14.1384 79.83C13.985 79.9767 13.8584 80.1533 13.7584 80.36C13.665 80.5667 13.6084 80.7933 13.5884 81.04H17.1284ZM19.7066 76.7H20.5866V82.65C20.5866 82.8433 20.6366 82.9967 20.7366 83.11C20.8432 83.2167 20.9899 83.27 21.1766 83.27C21.2499 83.27 21.3366 83.26 21.4366 83.24C21.5366 83.2133 21.6299 83.1833 21.7166 83.15L21.8566 83.86C21.7099 83.92 21.5366 83.97 21.3366 84.01C21.1366 84.05 20.9599 84.07 20.8066 84.07C20.4666 84.07 20.1966 83.9733 19.9966 83.78C19.8032 83.5867 19.7066 83.3167 19.7066 82.97V76.7ZM25.6079 84.1C25.2146 84.1 24.8546 84.03 24.5279 83.89C24.2012 83.7433 23.9212 83.5467 23.6879 83.3C23.4546 83.0533 23.2712 82.7667 23.1379 82.44C23.0112 82.1067 22.9479 81.7567 22.9479 81.39C22.9479 81.0233 23.0112 80.6767 23.1379 80.35C23.2712 80.0233 23.4546 79.7367 23.6879 79.49C23.9279 79.2433 24.2112 79.05 24.5379 78.91C24.8646 78.7633 25.2246 78.69 25.6179 78.69C26.0112 78.69 26.3679 78.7633 26.6879 78.91C27.0146 79.0567 27.2912 79.2533 27.5179 79.5C27.7446 79.74 27.9179 80.0233 28.0379 80.35C28.1646 80.67 28.2279 81.0033 28.2279 81.35C28.2279 81.4233 28.2246 81.49 28.2179 81.55C28.2179 81.61 28.2146 81.6567 28.2079 81.69H23.8779C23.8979 81.95 23.9579 82.1867 24.0579 82.4C24.1579 82.6133 24.2879 82.7967 24.4479 82.95C24.6079 83.1033 24.7879 83.2233 24.9879 83.31C25.1946 83.3967 25.4112 83.44 25.6379 83.44C25.7979 83.44 25.9546 83.42 26.1079 83.38C26.2612 83.3333 26.4046 83.2733 26.5379 83.2C26.6712 83.1267 26.7879 83.0367 26.8879 82.93C26.9946 82.8233 27.0746 82.7033 27.1279 82.57L27.8879 82.78C27.8012 82.9733 27.6812 83.15 27.5279 83.31C27.3812 83.47 27.2079 83.61 27.0079 83.73C26.8146 83.8433 26.5979 83.9333 26.3579 84C26.1179 84.0667 25.8679 84.1 25.6079 84.1ZM27.3979 81.04C27.3779 80.7933 27.3146 80.5667 27.2079 80.36C27.1079 80.1467 26.9779 79.9667 26.8179 79.82C26.6646 79.6733 26.4846 79.56 26.2779 79.48C26.0712 79.3933 25.8512 79.35 25.6179 79.35C25.3846 79.35 25.1646 79.3933 24.9579 79.48C24.7512 79.56 24.5679 79.6767 24.4079 79.83C24.2546 79.9767 24.1279 80.1533 24.0279 80.36C23.9346 80.5667 23.8779 80.7933 23.8579 81.04H27.3979ZM32.0361 84.06C31.6828 84.06 31.3561 83.9867 31.0561 83.84C30.7628 83.6933 30.5094 83.4967 30.2961 83.25C30.0828 83.0033 29.9161 82.72 29.7961 82.4C29.6828 82.08 29.6261 81.7467 29.6261 81.4C29.6261 81.0333 29.6828 80.6867 29.7961 80.36C29.9161 80.0267 30.0828 79.7367 30.2961 79.49C30.5094 79.2433 30.7628 79.05 31.0561 78.91C31.3561 78.7633 31.6861 78.69 32.0461 78.69C32.4861 78.69 32.8661 78.7967 33.1861 79.01C33.5061 79.2233 33.7761 79.4933 33.9961 79.82V78.78H34.7761V83.94C34.7761 84.3133 34.7061 84.64 34.5661 84.92C34.4261 85.2067 34.2361 85.4467 33.9961 85.64C33.7561 85.8333 33.4728 85.98 33.1461 86.08C32.8261 86.18 32.4828 86.23 32.1161 86.23C31.5228 86.23 31.0394 86.1267 30.6661 85.92C30.2994 85.72 29.9928 85.44 29.7461 85.08L30.2561 84.63C30.4628 84.9367 30.7294 85.1667 31.0561 85.32C31.3828 85.4733 31.7361 85.55 32.1161 85.55C32.3561 85.55 32.5828 85.5167 32.7961 85.45C33.0161 85.3833 33.2061 85.2833 33.3661 85.15C33.5261 85.0167 33.6528 84.85 33.7461 84.65C33.8461 84.45 33.8961 84.2133 33.8961 83.94V83.02C33.7961 83.18 33.6761 83.3267 33.5361 83.46C33.4028 83.5867 33.2561 83.6967 33.0961 83.79C32.9361 83.8767 32.7661 83.9433 32.5861 83.99C32.4061 84.0367 32.2228 84.06 32.0361 84.06ZM32.3061 83.34C32.4928 83.34 32.6728 83.3067 32.8461 83.24C33.0194 83.1733 33.1794 83.0867 33.3261 82.98C33.4728 82.8667 33.5961 82.74 33.6961 82.6C33.7961 82.46 33.8628 82.3167 33.8961 82.17V80.67C33.8228 80.49 33.7261 80.3267 33.6061 80.18C33.4928 80.0333 33.3628 79.9067 33.2161 79.8C33.0694 79.6867 32.9094 79.6 32.7361 79.54C32.5694 79.48 32.3994 79.45 32.2261 79.45C31.9594 79.45 31.7194 79.5067 31.5061 79.62C31.2994 79.7333 31.1228 79.8833 30.9761 80.07C30.8294 80.2567 30.7161 80.47 30.6361 80.71C30.5561 80.9433 30.5161 81.18 30.5161 81.42C30.5161 81.68 30.5628 81.9267 30.6561 82.16C30.7494 82.3933 30.8761 82.5967 31.0361 82.77C31.1961 82.9433 31.3828 83.0833 31.5961 83.19C31.8161 83.29 32.0528 83.34 32.3061 83.34ZM38.2863 84.1C38.0397 84.1 37.8097 84.06 37.5963 83.98C37.383 83.8933 37.1963 83.7767 37.0363 83.63C36.883 83.4833 36.7597 83.3133 36.6663 83.12C36.5797 82.92 36.5363 82.7033 36.5363 82.47C36.5363 82.23 36.5897 82.0133 36.6963 81.82C36.803 81.62 36.953 81.45 37.1463 81.31C37.3463 81.17 37.5797 81.06 37.8463 80.98C38.1197 80.9 38.4163 80.86 38.7363 80.86C38.9897 80.86 39.2463 80.8833 39.5063 80.93C39.7663 80.9767 39.9963 81.04 40.1963 81.12V80.7C40.1963 80.2733 40.0763 79.94 39.8363 79.7C39.5963 79.4533 39.2563 79.33 38.8163 79.33C38.2897 79.33 37.7363 79.5333 37.1563 79.94L36.8663 79.37C37.5397 78.9167 38.2163 78.69 38.8963 78.69C39.583 78.69 40.1163 78.8733 40.4963 79.24C40.883 79.6067 41.0763 80.1233 41.0763 80.79V82.92C41.0763 83.1267 41.1697 83.2333 41.3563 83.24V84C41.263 84.0133 41.1863 84.0233 41.1263 84.03C41.0663 84.0367 41.003 84.04 40.9363 84.04C40.763 84.04 40.623 83.99 40.5163 83.89C40.4163 83.7833 40.3563 83.6567 40.3363 83.51L40.3163 83.14C40.083 83.4533 39.7863 83.6933 39.4263 83.86C39.073 84.02 38.693 84.1 38.2863 84.1ZM38.5163 83.44C38.8297 83.44 39.1197 83.3833 39.3863 83.27C39.6597 83.15 39.8663 82.9933 40.0063 82.8C40.133 82.6733 40.1963 82.5433 40.1963 82.41V81.64C39.7697 81.4733 39.3263 81.39 38.8663 81.39C38.4263 81.39 38.0663 81.4833 37.7863 81.67C37.513 81.8567 37.3763 82.1 37.3763 82.4C37.3763 82.5467 37.403 82.6833 37.4563 82.81C37.5163 82.9367 37.5963 83.0467 37.6963 83.14C37.803 83.2333 37.9263 83.3067 38.0663 83.36C38.2063 83.4133 38.3563 83.44 38.5163 83.44ZM45.8944 83.74C45.841 83.7667 45.771 83.8 45.6844 83.84C45.5977 83.8733 45.4977 83.91 45.3844 83.95C45.2777 83.9833 45.1577 84.01 45.0244 84.03C44.8977 84.0567 44.7644 84.07 44.6244 84.07C44.3044 84.07 44.0277 83.9833 43.7944 83.81C43.561 83.63 43.4444 83.3533 43.4444 82.98V79.47H42.7344V78.78H43.4444V77.04H44.3244V78.78H45.4944V79.47H44.3244V82.71C44.3377 82.9033 44.401 83.0433 44.5144 83.13C44.6277 83.2167 44.761 83.26 44.9144 83.26C45.0877 83.26 45.2444 83.2333 45.3844 83.18C45.531 83.12 45.631 83.0733 45.6844 83.04L45.8944 83.74ZM49.7016 84.1C49.3083 84.1 48.9483 84.03 48.6216 83.89C48.295 83.7433 48.015 83.5467 47.7816 83.3C47.5483 83.0533 47.365 82.7667 47.2316 82.44C47.105 82.1067 47.0416 81.7567 47.0416 81.39C47.0416 81.0233 47.105 80.6767 47.2316 80.35C47.365 80.0233 47.5483 79.7367 47.7816 79.49C48.0216 79.2433 48.305 79.05 48.6316 78.91C48.9583 78.7633 49.3183 78.69 49.7116 78.69C50.105 78.69 50.4616 78.7633 50.7816 78.91C51.1083 79.0567 51.385 79.2533 51.6116 79.5C51.8383 79.74 52.0116 80.0233 52.1316 80.35C52.2583 80.67 52.3216 81.0033 52.3216 81.35C52.3216 81.4233 52.3183 81.49 52.3116 81.55C52.3116 81.61 52.3083 81.6567 52.3016 81.69H47.9716C47.9916 81.95 48.0516 82.1867 48.1516 82.4C48.2516 82.6133 48.3816 82.7967 48.5416 82.95C48.7016 83.1033 48.8816 83.2233 49.0816 83.31C49.2883 83.3967 49.505 83.44 49.7316 83.44C49.8916 83.44 50.0483 83.42 50.2016 83.38C50.355 83.3333 50.4983 83.2733 50.6316 83.2C50.765 83.1267 50.8816 83.0367 50.9816 82.93C51.0883 82.8233 51.1683 82.7033 51.2216 82.57L51.9816 82.78C51.895 82.9733 51.775 83.15 51.6216 83.31C51.475 83.47 51.3016 83.61 51.1016 83.73C50.9083 83.8433 50.6916 83.9333 50.4516 84C50.2116 84.0667 49.9616 84.1 49.7016 84.1ZM51.4916 81.04C51.4716 80.7933 51.4083 80.5667 51.3016 80.36C51.2016 80.1467 51.0716 79.9667 50.9116 79.82C50.7583 79.6733 50.5783 79.56 50.3716 79.48C50.165 79.3933 49.945 79.35 49.7116 79.35C49.4783 79.35 49.2583 79.3933 49.0516 79.48C48.845 79.56 48.6616 79.6767 48.5016 79.83C48.3483 79.9767 48.2216 80.1533 48.1216 80.36C48.0283 80.5667 47.9716 80.7933 47.9516 81.04H51.4916Z" fill="#222151"/>
<path d="M96.39 80.8858C96.39 80.4592 96.4633 80.0358 96.61 79.6158C96.7633 79.1892 96.9833 78.8092 97.27 78.4758C97.5633 78.1358 97.92 77.8625 98.34 77.6558C98.76 77.4492 99.2367 77.3458 99.77 77.3458C100.403 77.3458 100.947 77.4892 101.4 77.7758C101.853 78.0625 102.19 78.4358 102.41 78.8958L101.7 79.3558C101.593 79.1292 101.463 78.9392 101.31 78.7858C101.163 78.6325 101 78.5092 100.82 78.4158C100.647 78.3225 100.467 78.2558 100.28 78.2158C100.093 78.1758 99.91 78.1558 99.73 78.1558C99.3367 78.1558 98.9867 78.2392 98.68 78.4058C98.38 78.5658 98.1267 78.7792 97.92 79.0458C97.7133 79.3058 97.5567 79.6025 97.45 79.9358C97.35 80.2625 97.3 80.5925 97.3 80.9258C97.3 81.2992 97.36 81.6558 97.48 81.9958C97.6067 82.3292 97.78 82.6258 98 82.8858C98.22 83.1458 98.48 83.3525 98.78 83.5058C99.08 83.6592 99.4067 83.7358 99.76 83.7358C99.9467 83.7358 100.137 83.7125 100.33 83.6658C100.53 83.6192 100.72 83.5458 100.9 83.4458C101.08 83.3392 101.247 83.2092 101.4 83.0558C101.56 82.8958 101.69 82.7058 101.79 82.4858L102.54 82.8958C102.427 83.1625 102.267 83.3992 102.06 83.6058C101.86 83.8058 101.63 83.9758 101.37 84.1158C101.117 84.2558 100.847 84.3625 100.56 84.4358C100.273 84.5092 99.9933 84.5458 99.72 84.5458C99.2333 84.5458 98.7867 84.4392 98.38 84.2258C97.9733 84.0125 97.62 83.7358 97.32 83.3958C97.0267 83.0492 96.7967 82.6592 96.63 82.2258C96.47 81.7858 96.39 81.3392 96.39 80.8858ZM106.556 84.5858C106.163 84.5858 105.803 84.5125 105.476 84.3658C105.156 84.2192 104.88 84.0225 104.646 83.7758C104.42 83.5292 104.243 83.2425 104.116 82.9158C103.99 82.5892 103.926 82.2458 103.926 81.8858C103.926 81.5192 103.99 81.1725 104.116 80.8458C104.25 80.5192 104.43 80.2325 104.656 79.9858C104.89 79.7392 105.166 79.5425 105.486 79.3958C105.813 79.2492 106.17 79.1758 106.556 79.1758C106.943 79.1758 107.3 79.2492 107.626 79.3958C107.953 79.5425 108.23 79.7392 108.456 79.9858C108.69 80.2325 108.87 80.5192 108.996 80.8458C109.13 81.1725 109.196 81.5192 109.196 81.8858C109.196 82.2458 109.133 82.5892 109.006 82.9158C108.88 83.2425 108.7 83.5292 108.466 83.7758C108.233 84.0225 107.953 84.2192 107.626 84.3658C107.306 84.5125 106.95 84.5858 106.556 84.5858ZM104.826 81.8958C104.826 82.1692 104.87 82.4225 104.956 82.6558C105.05 82.8892 105.173 83.0925 105.326 83.2658C105.486 83.4392 105.67 83.5758 105.876 83.6758C106.09 83.7758 106.316 83.8258 106.556 83.8258C106.796 83.8258 107.02 83.7758 107.226 83.6758C107.44 83.5758 107.626 83.4392 107.786 83.2658C107.946 83.0858 108.07 82.8792 108.156 82.6458C108.25 82.4058 108.296 82.1492 108.296 81.8758C108.296 81.6092 108.25 81.3592 108.156 81.1258C108.07 80.8858 107.946 80.6792 107.786 80.5058C107.626 80.3258 107.44 80.1858 107.226 80.0858C107.02 79.9858 106.796 79.9358 106.556 79.9358C106.316 79.9358 106.09 79.9892 105.876 80.0958C105.67 80.1958 105.486 80.3358 105.326 80.5158C105.173 80.6892 105.05 80.8958 104.956 81.1358C104.87 81.3692 104.826 81.6225 104.826 81.8958ZM115.543 84.4858H114.663V81.5658C114.663 81.0058 114.576 80.5992 114.403 80.3458C114.236 80.0925 113.979 79.9658 113.633 79.9658C113.453 79.9658 113.273 80.0025 113.093 80.0758C112.913 80.1425 112.743 80.2358 112.583 80.3558C112.423 80.4758 112.283 80.6192 112.163 80.7858C112.043 80.9525 111.953 81.1358 111.893 81.3358V84.4858H111.013V79.2658H111.813V80.3858C112.019 80.0192 112.316 79.7258 112.703 79.5058C113.096 79.2858 113.523 79.1758 113.983 79.1758C114.283 79.1758 114.533 79.2325 114.733 79.3458C114.933 79.4525 115.093 79.6058 115.213 79.8058C115.333 79.9992 115.416 80.2292 115.463 80.4958C115.516 80.7625 115.543 81.0525 115.543 81.3658V84.4858ZM117.892 84.4858V79.9558H117.182V79.2658H117.892V79.1558C117.892 78.5092 118.036 78.0025 118.322 77.6358C118.609 77.2692 118.999 77.0858 119.492 77.0858C119.699 77.0858 119.902 77.1158 120.102 77.1758C120.302 77.2292 120.482 77.3058 120.642 77.4058L120.422 78.0558C120.329 77.9892 120.212 77.9358 120.072 77.8958C119.939 77.8558 119.806 77.8358 119.672 77.8358C119.379 77.8358 119.156 77.9458 119.002 78.1658C118.849 78.3858 118.772 78.7058 118.772 79.1258V79.2658H120.162V79.9558H118.772V84.4858H117.892ZM121.79 84.4858V79.2658H122.67V84.4858H121.79ZM121.79 78.2858V77.1858H122.67V78.2858H121.79ZM127.605 80.0358C127.165 80.0492 126.775 80.1625 126.435 80.3758C126.101 80.5892 125.865 80.8858 125.725 81.2658V84.4858H124.845V79.2658H125.665V80.4758C125.845 80.1158 126.081 79.8258 126.375 79.6058C126.668 79.3792 126.981 79.2525 127.315 79.2258C127.381 79.2258 127.438 79.2258 127.485 79.2258C127.531 79.2258 127.571 79.2292 127.605 79.2358V80.0358ZM137.098 84.4858H136.218V81.5658C136.218 81.0192 136.128 80.6158 135.948 80.3558C135.774 80.0958 135.514 79.9658 135.168 79.9658C134.808 79.9658 134.484 80.0958 134.198 80.3558C133.918 80.6092 133.718 80.9392 133.598 81.3458V84.4858H132.718V81.5658C132.718 81.0058 132.631 80.5992 132.458 80.3458C132.284 80.0925 132.024 79.9658 131.678 79.9658C131.324 79.9658 131.004 80.0925 130.718 80.3458C130.431 80.5925 130.228 80.9225 130.108 81.3358V84.4858H129.228V79.2658H130.028V80.3858C130.241 79.9992 130.518 79.7025 130.858 79.4958C131.198 79.2825 131.581 79.1758 132.008 79.1758C132.448 79.1758 132.794 79.2958 133.048 79.5358C133.308 79.7692 133.468 80.0725 133.528 80.4458C133.994 79.5992 134.658 79.1758 135.518 79.1758C135.818 79.1758 136.068 79.2325 136.268 79.3458C136.474 79.4525 136.638 79.6058 136.758 79.8058C136.878 79.9992 136.964 80.2292 137.018 80.4958C137.071 80.7625 137.098 81.0525 137.098 81.3658V84.4858ZM140.556 84.5858C140.309 84.5858 140.079 84.5458 139.866 84.4658C139.653 84.3792 139.466 84.2625 139.306 84.1158C139.153 83.9692 139.029 83.7992 138.936 83.6058C138.849 83.4058 138.806 83.1892 138.806 82.9558C138.806 82.7158 138.859 82.4992 138.966 82.3058C139.073 82.1058 139.223 81.9358 139.416 81.7958C139.616 81.6558 139.849 81.5458 140.116 81.4658C140.389 81.3858 140.686 81.3458 141.006 81.3458C141.259 81.3458 141.516 81.3692 141.776 81.4158C142.036 81.4625 142.266 81.5258 142.466 81.6058V81.1858C142.466 80.7592 142.346 80.4258 142.106 80.1858C141.866 79.9392 141.526 79.8158 141.086 79.8158C140.559 79.8158 140.006 80.0192 139.426 80.4258L139.136 79.8558C139.809 79.4025 140.486 79.1758 141.166 79.1758C141.853 79.1758 142.386 79.3592 142.766 79.7258C143.153 80.0925 143.346 80.6092 143.346 81.2758V83.4058C143.346 83.6125 143.439 83.7192 143.626 83.7258V84.4858C143.533 84.4992 143.456 84.5092 143.396 84.5158C143.336 84.5225 143.273 84.5258 143.206 84.5258C143.033 84.5258 142.893 84.4758 142.786 84.3758C142.686 84.2692 142.626 84.1425 142.606 83.9958L142.586 83.6258C142.353 83.9392 142.056 84.1792 141.696 84.3458C141.343 84.5058 140.963 84.5858 140.556 84.5858ZM140.786 83.9258C141.099 83.9258 141.389 83.8692 141.656 83.7558C141.929 83.6358 142.136 83.4792 142.276 83.2858C142.403 83.1592 142.466 83.0292 142.466 82.8958V82.1258C142.039 81.9592 141.596 81.8758 141.136 81.8758C140.696 81.8758 140.336 81.9692 140.056 82.1558C139.783 82.3425 139.646 82.5858 139.646 82.8858C139.646 83.0325 139.673 83.1692 139.726 83.2958C139.786 83.4225 139.866 83.5325 139.966 83.6258C140.073 83.7192 140.196 83.7925 140.336 83.8458C140.476 83.8992 140.626 83.9258 140.786 83.9258ZM148.164 84.2258C148.111 84.2525 148.041 84.2858 147.954 84.3258C147.867 84.3592 147.767 84.3958 147.654 84.4358C147.547 84.4692 147.427 84.4958 147.294 84.5158C147.167 84.5425 147.034 84.5558 146.894 84.5558C146.574 84.5558 146.297 84.4692 146.064 84.2958C145.831 84.1158 145.714 83.8392 145.714 83.4658V79.9558H145.004V79.2658H145.714V77.5258H146.594V79.2658H147.764V79.9558H146.594V83.1958C146.607 83.3892 146.671 83.5292 146.784 83.6158C146.897 83.7025 147.031 83.7458 147.184 83.7458C147.357 83.7458 147.514 83.7192 147.654 83.6658C147.801 83.6058 147.901 83.5592 147.954 83.5258L148.164 84.2258ZM149.73 84.4858V79.2658H150.61V84.4858H149.73ZM149.73 78.2858V77.1858H150.61V78.2858H149.73ZM155.064 84.5858C154.671 84.5858 154.311 84.5125 153.984 84.3658C153.664 84.2192 153.388 84.0225 153.154 83.7758C152.928 83.5292 152.751 83.2425 152.624 82.9158C152.498 82.5892 152.434 82.2458 152.434 81.8858C152.434 81.5192 152.498 81.1725 152.624 80.8458C152.758 80.5192 152.938 80.2325 153.164 79.9858C153.398 79.7392 153.674 79.5425 153.994 79.3958C154.321 79.2492 154.678 79.1758 155.064 79.1758C155.451 79.1758 155.808 79.2492 156.134 79.3958C156.461 79.5425 156.738 79.7392 156.964 79.9858C157.198 80.2325 157.378 80.5192 157.504 80.8458C157.638 81.1725 157.704 81.5192 157.704 81.8858C157.704 82.2458 157.641 82.5892 157.514 82.9158C157.388 83.2425 157.208 83.5292 156.974 83.7758C156.741 84.0225 156.461 84.2192 156.134 84.3658C155.814 84.5125 155.458 84.5858 155.064 84.5858ZM153.334 81.8958C153.334 82.1692 153.378 82.4225 153.464 82.6558C153.558 82.8892 153.681 83.0925 153.834 83.2658C153.994 83.4392 154.178 83.5758 154.384 83.6758C154.598 83.7758 154.824 83.8258 155.064 83.8258C155.304 83.8258 155.528 83.7758 155.734 83.6758C155.948 83.5758 156.134 83.4392 156.294 83.2658C156.454 83.0858 156.578 82.8792 156.664 82.6458C156.758 82.4058 156.804 82.1492 156.804 81.8758C156.804 81.6092 156.758 81.3592 156.664 81.1258C156.578 80.8858 156.454 80.6792 156.294 80.5058C156.134 80.3258 155.948 80.1858 155.734 80.0858C155.528 79.9858 155.304 79.9358 155.064 79.9358C154.824 79.9358 154.598 79.9892 154.384 80.0958C154.178 80.1958 153.994 80.3358 153.834 80.5158C153.681 80.6892 153.558 80.8958 153.464 81.1358C153.378 81.3692 153.334 81.6225 153.334 81.8958ZM164.051 84.4858H163.171V81.5658C163.171 81.0058 163.084 80.5992 162.911 80.3458C162.744 80.0925 162.487 79.9658 162.141 79.9658C161.961 79.9658 161.781 80.0025 161.601 80.0758C161.421 80.1425 161.251 80.2358 161.091 80.3558C160.931 80.4758 160.791 80.6192 160.671 80.7858C160.551 80.9525 160.461 81.1358 160.401 81.3358V84.4858H159.521V79.2658H160.321V80.3858C160.527 80.0192 160.824 79.7258 161.211 79.5058C161.604 79.2858 162.031 79.1758 162.491 79.1758C162.791 79.1758 163.041 79.2325 163.241 79.3458C163.441 79.4525 163.601 79.6058 163.721 79.8058C163.841 79.9992 163.924 80.2292 163.971 80.4958C164.024 80.7625 164.051 81.0525 164.051 81.3658V84.4858Z" fill="#222151"/>
<path d="M209.175 84V76.9H212.135C212.449 76.9 212.735 76.9667 212.995 77.1C213.262 77.2267 213.489 77.4 213.675 77.62C213.869 77.8333 214.019 78.0767 214.125 78.35C214.232 78.6167 214.285 78.89 214.285 79.17C214.285 79.4633 214.235 79.7467 214.135 80.02C214.035 80.2933 213.892 80.5367 213.705 80.75C213.525 80.9633 213.305 81.1333 213.045 81.26C212.792 81.3867 212.509 81.45 212.195 81.45H210.075V84H209.175ZM210.075 80.65H212.145C212.332 80.65 212.499 80.6133 212.645 80.54C212.799 80.46 212.929 80.3533 213.035 80.22C213.142 80.08 213.225 79.92 213.285 79.74C213.345 79.56 213.375 79.37 213.375 79.17C213.375 78.9633 213.339 78.77 213.265 78.59C213.199 78.41 213.105 78.2533 212.985 78.12C212.872 77.9867 212.735 77.8833 212.575 77.81C212.422 77.7367 212.259 77.7 212.085 77.7H210.075V80.65ZM218.776 79.55C218.336 79.5633 217.946 79.6767 217.606 79.89C217.272 80.1033 217.036 80.4 216.896 80.78V84H216.016V78.78H216.836V79.99C217.016 79.63 217.252 79.34 217.546 79.12C217.839 78.8933 218.152 78.7667 218.486 78.74C218.552 78.74 218.609 78.74 218.656 78.74C218.702 78.74 218.742 78.7433 218.776 78.75V79.55ZM222.561 84.1C222.168 84.1 221.808 84.0267 221.481 83.88C221.161 83.7333 220.885 83.5367 220.651 83.29C220.425 83.0433 220.248 82.7567 220.121 82.43C219.995 82.1033 219.931 81.76 219.931 81.4C219.931 81.0333 219.995 80.6867 220.121 80.36C220.255 80.0333 220.435 79.7467 220.661 79.5C220.895 79.2533 221.171 79.0567 221.491 78.91C221.818 78.7633 222.175 78.69 222.561 78.69C222.948 78.69 223.305 78.7633 223.631 78.91C223.958 79.0567 224.235 79.2533 224.461 79.5C224.695 79.7467 224.875 80.0333 225.001 80.36C225.135 80.6867 225.201 81.0333 225.201 81.4C225.201 81.76 225.138 82.1033 225.011 82.43C224.885 82.7567 224.705 83.0433 224.471 83.29C224.238 83.5367 223.958 83.7333 223.631 83.88C223.311 84.0267 222.955 84.1 222.561 84.1ZM220.831 81.41C220.831 81.6833 220.875 81.9367 220.961 82.17C221.055 82.4033 221.178 82.6067 221.331 82.78C221.491 82.9533 221.675 83.09 221.881 83.19C222.095 83.29 222.321 83.34 222.561 83.34C222.801 83.34 223.025 83.29 223.231 83.19C223.445 83.09 223.631 82.9533 223.791 82.78C223.951 82.6 224.075 82.3933 224.161 82.16C224.255 81.92 224.301 81.6633 224.301 81.39C224.301 81.1233 224.255 80.8733 224.161 80.64C224.075 80.4 223.951 80.1933 223.791 80.02C223.631 79.84 223.445 79.7 223.231 79.6C223.025 79.5 222.801 79.45 222.561 79.45C222.321 79.45 222.095 79.5033 221.881 79.61C221.675 79.71 221.491 79.85 221.331 80.03C221.178 80.2033 221.055 80.41 220.961 80.65C220.875 80.8833 220.831 81.1367 220.831 81.41ZM227.21 84V79.47H226.5V78.78H227.21V78.67C227.21 78.0233 227.353 77.5167 227.64 77.15C227.926 76.7833 228.316 76.6 228.81 76.6C229.016 76.6 229.22 76.63 229.42 76.69C229.62 76.7433 229.8 76.82 229.96 76.92L229.74 77.57C229.646 77.5033 229.53 77.45 229.39 77.41C229.256 77.37 229.123 77.35 228.99 77.35C228.696 77.35 228.473 77.46 228.32 77.68C228.166 77.9 228.09 78.22 228.09 78.64V78.78H229.48V79.47H228.09V84H227.21ZM233.27 84.1C232.877 84.1 232.517 84.0267 232.19 83.88C231.87 83.7333 231.594 83.5367 231.36 83.29C231.134 83.0433 230.957 82.7567 230.83 82.43C230.704 82.1033 230.64 81.76 230.64 81.4C230.64 81.0333 230.704 80.6867 230.83 80.36C230.964 80.0333 231.144 79.7467 231.37 79.5C231.604 79.2533 231.88 79.0567 232.2 78.91C232.527 78.7633 232.884 78.69 233.27 78.69C233.657 78.69 234.014 78.7633 234.34 78.91C234.667 79.0567 234.944 79.2533 235.17 79.5C235.404 79.7467 235.584 80.0333 235.71 80.36C235.844 80.6867 235.91 81.0333 235.91 81.4C235.91 81.76 235.847 82.1033 235.72 82.43C235.594 82.7567 235.414 83.0433 235.18 83.29C234.947 83.5367 234.667 83.7333 234.34 83.88C234.02 84.0267 233.664 84.1 233.27 84.1ZM231.54 81.41C231.54 81.6833 231.584 81.9367 231.67 82.17C231.764 82.4033 231.887 82.6067 232.04 82.78C232.2 82.9533 232.384 83.09 232.59 83.19C232.804 83.29 233.03 83.34 233.27 83.34C233.51 83.34 233.734 83.29 233.94 83.19C234.154 83.09 234.34 82.9533 234.5 82.78C234.66 82.6 234.784 82.3933 234.87 82.16C234.964 81.92 235.01 81.6633 235.01 81.39C235.01 81.1233 234.964 80.8733 234.87 80.64C234.784 80.4 234.66 80.1933 234.5 80.02C234.34 79.84 234.154 79.7 233.94 79.6C233.734 79.5 233.51 79.45 233.27 79.45C233.03 79.45 232.804 79.5033 232.59 79.61C232.384 79.71 232.2 79.85 232.04 80.03C231.887 80.2033 231.764 80.41 231.67 80.65C231.584 80.8833 231.54 81.1367 231.54 81.41ZM240.487 79.55C240.047 79.5633 239.657 79.6767 239.317 79.89C238.983 80.1033 238.747 80.4 238.607 80.78V84H237.727V78.78H238.547V79.99C238.727 79.63 238.963 79.34 239.257 79.12C239.55 78.8933 239.863 78.7667 240.197 78.74C240.263 78.74 240.32 78.74 240.367 78.74C240.413 78.74 240.453 78.7433 240.487 78.75V79.55ZM249.979 84H249.099V81.08C249.099 80.5333 249.009 80.13 248.829 79.87C248.656 79.61 248.396 79.48 248.049 79.48C247.689 79.48 247.366 79.61 247.079 79.87C246.799 80.1233 246.599 80.4533 246.479 80.86V84H245.599V81.08C245.599 80.52 245.513 80.1133 245.339 79.86C245.166 79.6067 244.906 79.48 244.559 79.48C244.206 79.48 243.886 79.6067 243.599 79.86C243.313 80.1067 243.109 80.4367 242.989 80.85V84H242.109V78.78H242.909V79.9C243.123 79.5133 243.399 79.2167 243.739 79.01C244.079 78.7967 244.463 78.69 244.889 78.69C245.329 78.69 245.676 78.81 245.929 79.05C246.189 79.2833 246.349 79.5867 246.409 79.96C246.876 79.1133 247.539 78.69 248.399 78.69C248.699 78.69 248.949 78.7467 249.149 78.86C249.356 78.9667 249.519 79.12 249.639 79.32C249.759 79.5133 249.846 79.7433 249.899 80.01C249.953 80.2767 249.979 80.5667 249.979 80.88V84ZM253.438 84.1C253.191 84.1 252.961 84.06 252.748 83.98C252.534 83.8933 252.348 83.7767 252.188 83.63C252.034 83.4833 251.911 83.3133 251.818 83.12C251.731 82.92 251.688 82.7033 251.688 82.47C251.688 82.23 251.741 82.0133 251.848 81.82C251.954 81.62 252.104 81.45 252.298 81.31C252.498 81.17 252.731 81.06 252.998 80.98C253.271 80.9 253.568 80.86 253.888 80.86C254.141 80.86 254.398 80.8833 254.658 80.93C254.918 80.9767 255.148 81.04 255.348 81.12V80.7C255.348 80.2733 255.228 79.94 254.988 79.7C254.748 79.4533 254.408 79.33 253.968 79.33C253.441 79.33 252.888 79.5333 252.308 79.94L252.018 79.37C252.691 78.9167 253.368 78.69 254.048 78.69C254.734 78.69 255.268 78.8733 255.648 79.24C256.034 79.6067 256.228 80.1233 256.228 80.79V82.92C256.228 83.1267 256.321 83.2333 256.508 83.24V84C256.414 84.0133 256.338 84.0233 256.278 84.03C256.218 84.0367 256.154 84.04 256.088 84.04C255.914 84.04 255.774 83.99 255.668 83.89C255.568 83.7833 255.508 83.6567 255.488 83.51L255.468 83.14C255.234 83.4533 254.938 83.6933 254.578 83.86C254.224 84.02 253.844 84.1 253.438 84.1ZM253.668 83.44C253.981 83.44 254.271 83.3833 254.538 83.27C254.811 83.15 255.018 82.9933 255.158 82.8C255.284 82.6733 255.348 82.5433 255.348 82.41V81.64C254.921 81.4733 254.478 81.39 254.018 81.39C253.578 81.39 253.218 81.4833 252.938 81.67C252.664 81.8567 252.528 82.1 252.528 82.4C252.528 82.5467 252.554 82.6833 252.608 82.81C252.668 82.9367 252.748 83.0467 252.848 83.14C252.954 83.2333 253.078 83.3067 253.218 83.36C253.358 83.4133 253.508 83.44 253.668 83.44ZM214.959 100V92.9H215.859V100H214.959ZM222.697 100H221.817V97.08C221.817 96.52 221.73 96.1133 221.557 95.86C221.39 95.6067 221.134 95.48 220.787 95.48C220.607 95.48 220.427 95.5167 220.247 95.59C220.067 95.6567 219.897 95.75 219.737 95.87C219.577 95.99 219.437 96.1333 219.317 96.3C219.197 96.4667 219.107 96.65 219.047 96.85V100H218.167V94.78H218.967V95.9C219.174 95.5333 219.47 95.24 219.857 95.02C220.25 94.8 220.677 94.69 221.137 94.69C221.437 94.69 221.687 94.7467 221.887 94.86C222.087 94.9667 222.247 95.12 222.367 95.32C222.487 95.5133 222.57 95.7433 222.617 96.01C222.67 96.2767 222.697 96.5667 222.697 96.88V100ZM226.218 100L224.158 94.78H225.068L226.718 99.23L228.378 94.78H229.218L227.158 100H226.218ZM232.943 100.1C232.55 100.1 232.19 100.027 231.863 99.88C231.543 99.7333 231.266 99.5367 231.033 99.29C230.806 99.0433 230.63 98.7567 230.503 98.43C230.376 98.1033 230.313 97.76 230.313 97.4C230.313 97.0333 230.376 96.6867 230.503 96.36C230.636 96.0333 230.816 95.7467 231.043 95.5C231.276 95.2533 231.553 95.0567 231.873 94.91C232.2 94.7633 232.556 94.69 232.943 94.69C233.33 94.69 233.686 94.7633 234.013 94.91C234.34 95.0567 234.616 95.2533 234.843 95.5C235.076 95.7467 235.256 96.0333 235.383 96.36C235.516 96.6867 235.583 97.0333 235.583 97.4C235.583 97.76 235.52 98.1033 235.393 98.43C235.266 98.7567 235.086 99.0433 234.853 99.29C234.62 99.5367 234.34 99.7333 234.013 99.88C233.693 100.027 233.336 100.1 232.943 100.1ZM231.213 97.41C231.213 97.6833 231.256 97.9367 231.343 98.17C231.436 98.4033 231.56 98.6067 231.713 98.78C231.873 98.9533 232.056 99.09 232.263 99.19C232.476 99.29 232.703 99.34 232.943 99.34C233.183 99.34 233.406 99.29 233.613 99.19C233.826 99.09 234.013 98.9533 234.173 98.78C234.333 98.6 234.456 98.3933 234.543 98.16C234.636 97.92 234.683 97.6633 234.683 97.39C234.683 97.1233 234.636 96.8733 234.543 96.64C234.456 96.4 234.333 96.1933 234.173 96.02C234.013 95.84 233.826 95.7 233.613 95.6C233.406 95.5 233.183 95.45 232.943 95.45C232.703 95.45 232.476 95.5033 232.263 95.61C232.056 95.71 231.873 95.85 231.713 96.03C231.56 96.2033 231.436 96.41 231.343 96.65C231.256 96.8833 231.213 97.1367 231.213 97.41ZM237.399 100V94.78H238.279V100H237.399ZM237.399 93.8V92.7H238.279V93.8H237.399ZM240.104 97.38C240.104 97.0133 240.167 96.6667 240.294 96.34C240.421 96.0133 240.601 95.73 240.834 95.49C241.067 95.2433 241.344 95.05 241.664 94.91C241.991 94.7633 242.354 94.69 242.754 94.69C243.274 94.69 243.721 94.8067 244.094 95.04C244.474 95.2667 244.761 95.5733 244.954 95.96L244.094 96.23C243.961 95.9833 243.774 95.7933 243.534 95.66C243.294 95.52 243.027 95.45 242.734 95.45C242.494 95.45 242.267 95.5 242.054 95.6C241.841 95.6933 241.657 95.8267 241.504 96C241.351 96.1733 241.227 96.3767 241.134 96.61C241.047 96.8433 241.004 97.1 241.004 97.38C241.004 97.6533 241.051 97.91 241.144 98.15C241.237 98.39 241.361 98.6 241.514 98.78C241.674 98.9533 241.857 99.09 242.064 99.19C242.277 99.29 242.504 99.34 242.744 99.34C242.897 99.34 243.047 99.32 243.194 99.28C243.347 99.2333 243.484 99.1733 243.604 99.1C243.731 99.0267 243.841 98.9433 243.934 98.85C244.027 98.75 244.094 98.6433 244.134 98.53L244.994 98.79C244.914 98.9833 244.801 99.16 244.654 99.32C244.514 99.48 244.347 99.6167 244.154 99.73C243.961 99.8433 243.744 99.9333 243.504 100C243.271 100.067 243.024 100.1 242.764 100.1C242.371 100.1 242.011 100.027 241.684 99.88C241.357 99.7333 241.077 99.5367 240.844 99.29C240.611 99.0433 240.427 98.7567 240.294 98.43C240.167 98.0967 240.104 97.7467 240.104 97.38ZM249.002 100.1C248.609 100.1 248.249 100.03 247.922 99.89C247.596 99.7433 247.316 99.5467 247.082 99.3C246.849 99.0533 246.666 98.7667 246.532 98.44C246.406 98.1067 246.342 97.7567 246.342 97.39C246.342 97.0233 246.406 96.6767 246.532 96.35C246.666 96.0233 246.849 95.7367 247.082 95.49C247.322 95.2433 247.606 95.05 247.932 94.91C248.259 94.7633 248.619 94.69 249.012 94.69C249.406 94.69 249.762 94.7633 250.082 94.91C250.409 95.0567 250.686 95.2533 250.912 95.5C251.139 95.74 251.312 96.0233 251.432 96.35C251.559 96.67 251.622 97.0033 251.622 97.35C251.622 97.4233 251.619 97.49 251.612 97.55C251.612 97.61 251.609 97.6567 251.602 97.69H247.272C247.292 97.95 247.352 98.1867 247.452 98.4C247.552 98.6133 247.682 98.7967 247.842 98.95C248.002 99.1033 248.182 99.2233 248.382 99.31C248.589 99.3967 248.806 99.44 249.032 99.44C249.192 99.44 249.349 99.42 249.502 99.38C249.656 99.3333 249.799 99.2733 249.932 99.2C250.066 99.1267 250.182 99.0367 250.282 98.93C250.389 98.8233 250.469 98.7033 250.522 98.57L251.282 98.78C251.196 98.9733 251.076 99.15 250.922 99.31C250.776 99.47 250.602 99.61 250.402 99.73C250.209 99.8433 249.992 99.9333 249.752 100C249.512 100.067 249.262 100.1 249.002 100.1ZM250.792 97.04C250.772 96.7933 250.709 96.5667 250.602 96.36C250.502 96.1467 250.372 95.9667 250.212 95.82C250.059 95.6733 249.879 95.56 249.672 95.48C249.466 95.3933 249.246 95.35 249.012 95.35C248.779 95.35 248.559 95.3933 248.352 95.48C248.146 95.56 247.962 95.6767 247.802 95.83C247.649 95.9767 247.522 96.1533 247.422 96.36C247.329 96.5667 247.272 96.7933 247.252 97.04H250.792Z" fill="#222151"/>
<path d="M313.473 84V76.9H316.433C316.746 76.9 317.033 76.9667 317.293 77.1C317.56 77.2267 317.786 77.4 317.973 77.62C318.166 77.8333 318.316 78.0767 318.423 78.35C318.53 78.6167 318.583 78.89 318.583 79.17C318.583 79.4633 318.533 79.7467 318.433 80.02C318.333 80.2933 318.19 80.5367 318.003 80.75C317.823 80.9633 317.603 81.1333 317.343 81.26C317.09 81.3867 316.806 81.45 316.493 81.45H314.373V84H313.473ZM314.373 80.65H316.443C316.63 80.65 316.796 80.6133 316.943 80.54C317.096 80.46 317.226 80.3533 317.333 80.22C317.44 80.08 317.523 79.92 317.583 79.74C317.643 79.56 317.673 79.37 317.673 79.17C317.673 78.9633 317.636 78.77 317.563 78.59C317.496 78.41 317.403 78.2533 317.283 78.12C317.17 77.9867 317.033 77.8833 316.873 77.81C316.72 77.7367 316.556 77.7 316.383 77.7H314.373V80.65ZM321.595 84.1C321.348 84.1 321.118 84.06 320.905 83.98C320.692 83.8933 320.505 83.7767 320.345 83.63C320.192 83.4833 320.068 83.3133 319.975 83.12C319.888 82.92 319.845 82.7033 319.845 82.47C319.845 82.23 319.898 82.0133 320.005 81.82C320.112 81.62 320.262 81.45 320.455 81.31C320.655 81.17 320.888 81.06 321.155 80.98C321.428 80.9 321.725 80.86 322.045 80.86C322.298 80.86 322.555 80.8833 322.815 80.93C323.075 80.9767 323.305 81.04 323.505 81.12V80.7C323.505 80.2733 323.385 79.94 323.145 79.7C322.905 79.4533 322.565 79.33 322.125 79.33C321.598 79.33 321.045 79.5333 320.465 79.94L320.175 79.37C320.848 78.9167 321.525 78.69 322.205 78.69C322.892 78.69 323.425 78.8733 323.805 79.24C324.192 79.6067 324.385 80.1233 324.385 80.79V82.92C324.385 83.1267 324.478 83.2333 324.665 83.24V84C324.572 84.0133 324.495 84.0233 324.435 84.03C324.375 84.0367 324.312 84.04 324.245 84.04C324.072 84.04 323.932 83.99 323.825 83.89C323.725 83.7833 323.665 83.6567 323.645 83.51L323.625 83.14C323.392 83.4533 323.095 83.6933 322.735 83.86C322.382 84.02 322.002 84.1 321.595 84.1ZM321.825 83.44C322.138 83.44 322.428 83.3833 322.695 83.27C322.968 83.15 323.175 82.9933 323.315 82.8C323.442 82.6733 323.505 82.5433 323.505 82.41V81.64C323.078 81.4733 322.635 81.39 322.175 81.39C321.735 81.39 321.375 81.4833 321.095 81.67C320.822 81.8567 320.685 82.1 320.685 82.4C320.685 82.5467 320.712 82.6833 320.765 82.81C320.825 82.9367 320.905 83.0467 321.005 83.14C321.112 83.2333 321.235 83.3067 321.375 83.36C321.515 83.4133 321.665 83.44 321.825 83.44ZM326.616 85.42C326.703 85.4333 326.789 85.4433 326.876 85.45C326.963 85.4567 327.029 85.46 327.076 85.46C327.156 85.46 327.226 85.44 327.286 85.4C327.353 85.3667 327.416 85.2967 327.476 85.19C327.543 85.0833 327.616 84.9333 327.696 84.74C327.776 84.5533 327.876 84.3067 327.996 84L325.786 78.78H326.696L328.476 83.21L330.096 78.78H330.936L328.396 85.37C328.303 85.6033 328.146 85.8067 327.926 85.98C327.713 86.16 327.416 86.25 327.036 86.25C326.976 86.25 326.913 86.2467 326.846 86.24C326.786 86.2333 326.709 86.22 326.616 86.2V85.42ZM340.445 84H339.565V81.08C339.565 80.5333 339.475 80.13 339.295 79.87C339.122 79.61 338.862 79.48 338.515 79.48C338.155 79.48 337.832 79.61 337.545 79.87C337.265 80.1233 337.065 80.4533 336.945 80.86V84H336.065V81.08C336.065 80.52 335.979 80.1133 335.805 79.86C335.632 79.6067 335.372 79.48 335.025 79.48C334.672 79.48 334.352 79.6067 334.065 79.86C333.779 80.1067 333.575 80.4367 333.455 80.85V84H332.575V78.78H333.375V79.9C333.589 79.5133 333.865 79.2167 334.205 79.01C334.545 78.7967 334.929 78.69 335.355 78.69C335.795 78.69 336.142 78.81 336.395 79.05C336.655 79.2833 336.815 79.5867 336.875 79.96C337.342 79.1133 338.005 78.69 338.865 78.69C339.165 78.69 339.415 78.7467 339.615 78.86C339.822 78.9667 339.985 79.12 340.105 79.32C340.225 79.5133 340.312 79.7433 340.365 80.01C340.419 80.2767 340.445 80.5667 340.445 80.88V84ZM344.874 84.1C344.48 84.1 344.12 84.03 343.794 83.89C343.467 83.7433 343.187 83.5467 342.954 83.3C342.72 83.0533 342.537 82.7667 342.404 82.44C342.277 82.1067 342.214 81.7567 342.214 81.39C342.214 81.0233 342.277 80.6767 342.404 80.35C342.537 80.0233 342.72 79.7367 342.954 79.49C343.194 79.2433 343.477 79.05 343.804 78.91C344.13 78.7633 344.49 78.69 344.884 78.69C345.277 78.69 345.634 78.7633 345.954 78.91C346.28 79.0567 346.557 79.2533 346.784 79.5C347.01 79.74 347.184 80.0233 347.304 80.35C347.43 80.67 347.494 81.0033 347.494 81.35C347.494 81.4233 347.49 81.49 347.484 81.55C347.484 81.61 347.48 81.6567 347.474 81.69H343.144C343.164 81.95 343.224 82.1867 343.324 82.4C343.424 82.6133 343.554 82.7967 343.714 82.95C343.874 83.1033 344.054 83.2233 344.254 83.31C344.46 83.3967 344.677 83.44 344.904 83.44C345.064 83.44 345.22 83.42 345.374 83.38C345.527 83.3333 345.67 83.2733 345.804 83.2C345.937 83.1267 346.054 83.0367 346.154 82.93C346.26 82.8233 346.34 82.7033 346.394 82.57L347.154 82.78C347.067 82.9733 346.947 83.15 346.794 83.31C346.647 83.47 346.474 83.61 346.274 83.73C346.08 83.8433 345.864 83.9333 345.624 84C345.384 84.0667 345.134 84.1 344.874 84.1ZM346.664 81.04C346.644 80.7933 346.58 80.5667 346.474 80.36C346.374 80.1467 346.244 79.9667 346.084 79.82C345.93 79.6733 345.75 79.56 345.544 79.48C345.337 79.3933 345.117 79.35 344.884 79.35C344.65 79.35 344.43 79.3933 344.224 79.48C344.017 79.56 343.834 79.6767 343.674 79.83C343.52 79.9767 343.394 80.1533 343.294 80.36C343.2 80.5667 343.144 80.7933 343.124 81.04H346.664ZM353.752 84H352.872V81.08C352.872 80.52 352.785 80.1133 352.612 79.86C352.445 79.6067 352.188 79.48 351.842 79.48C351.662 79.48 351.482 79.5167 351.302 79.59C351.122 79.6567 350.952 79.75 350.792 79.87C350.632 79.99 350.492 80.1333 350.372 80.3C350.252 80.4667 350.162 80.65 350.102 80.85V84H349.222V78.78H350.022V79.9C350.228 79.5333 350.525 79.24 350.912 79.02C351.305 78.8 351.732 78.69 352.192 78.69C352.492 78.69 352.742 78.7467 352.942 78.86C353.142 78.9667 353.302 79.12 353.422 79.32C353.542 79.5133 353.625 79.7433 353.672 80.01C353.725 80.2767 353.752 80.5667 353.752 80.88V84ZM358.521 83.74C358.468 83.7667 358.398 83.8 358.311 83.84C358.225 83.8733 358.125 83.91 358.011 83.95C357.905 83.9833 357.785 84.01 357.651 84.03C357.525 84.0567 357.391 84.07 357.251 84.07C356.931 84.07 356.655 83.9833 356.421 83.81C356.188 83.63 356.071 83.3533 356.071 82.98V79.47H355.361V78.78H356.071V77.04H356.951V78.78H358.121V79.47H356.951V82.71C356.965 82.9033 357.028 83.0433 357.141 83.13C357.255 83.2167 357.388 83.26 357.541 83.26C357.715 83.26 357.871 83.2333 358.011 83.18C358.158 83.12 358.258 83.0733 358.311 83.04L358.521 83.74ZM302.036 96.4C302.036 95.9733 302.109 95.55 302.256 95.13C302.409 94.7033 302.629 94.3233 302.916 93.99C303.209 93.65 303.566 93.3767 303.986 93.17C304.406 92.9633 304.882 92.86 305.416 92.86C306.049 92.86 306.592 93.0033 307.046 93.29C307.499 93.5767 307.836 93.95 308.056 94.41L307.346 94.87C307.239 94.6433 307.109 94.4533 306.956 94.3C306.809 94.1467 306.646 94.0233 306.466 93.93C306.292 93.8367 306.112 93.77 305.926 93.73C305.739 93.69 305.556 93.67 305.376 93.67C304.982 93.67 304.632 93.7533 304.326 93.92C304.026 94.08 303.772 94.2933 303.566 94.56C303.359 94.82 303.202 95.1167 303.096 95.45C302.996 95.7767 302.946 96.1067 302.946 96.44C302.946 96.8133 303.006 97.17 303.126 97.51C303.252 97.8433 303.426 98.14 303.646 98.4C303.866 98.66 304.126 98.8667 304.426 99.02C304.726 99.1733 305.052 99.25 305.406 99.25C305.592 99.25 305.782 99.2267 305.976 99.18C306.176 99.1333 306.366 99.06 306.546 98.96C306.726 98.8533 306.892 98.7233 307.046 98.57C307.206 98.41 307.336 98.22 307.436 98L308.186 98.41C308.072 98.6767 307.912 98.9133 307.706 99.12C307.506 99.32 307.276 99.49 307.016 99.63C306.762 99.77 306.492 99.8767 306.206 99.95C305.919 100.023 305.639 100.06 305.366 100.06C304.879 100.06 304.432 99.9533 304.026 99.74C303.619 99.5267 303.266 99.25 302.966 98.91C302.672 98.5633 302.442 98.1733 302.276 97.74C302.116 97.3 302.036 96.8533 302.036 96.4ZM312.202 100.1C311.809 100.1 311.449 100.027 311.122 99.88C310.802 99.7333 310.525 99.5367 310.292 99.29C310.065 99.0433 309.889 98.7567 309.762 98.43C309.635 98.1033 309.572 97.76 309.572 97.4C309.572 97.0333 309.635 96.6867 309.762 96.36C309.895 96.0333 310.075 95.7467 310.302 95.5C310.535 95.2533 310.812 95.0567 311.132 94.91C311.459 94.7633 311.815 94.69 312.202 94.69C312.589 94.69 312.945 94.7633 313.272 94.91C313.599 95.0567 313.875 95.2533 314.102 95.5C314.335 95.7467 314.515 96.0333 314.642 96.36C314.775 96.6867 314.842 97.0333 314.842 97.4C314.842 97.76 314.779 98.1033 314.652 98.43C314.525 98.7567 314.345 99.0433 314.112 99.29C313.879 99.5367 313.599 99.7333 313.272 99.88C312.952 100.027 312.595 100.1 312.202 100.1ZM310.472 97.41C310.472 97.6833 310.515 97.9367 310.602 98.17C310.695 98.4033 310.819 98.6067 310.972 98.78C311.132 98.9533 311.315 99.09 311.522 99.19C311.735 99.29 311.962 99.34 312.202 99.34C312.442 99.34 312.665 99.29 312.872 99.19C313.085 99.09 313.272 98.9533 313.432 98.78C313.592 98.6 313.715 98.3933 313.802 98.16C313.895 97.92 313.942 97.6633 313.942 97.39C313.942 97.1233 313.895 96.8733 313.802 96.64C313.715 96.4 313.592 96.1933 313.432 96.02C313.272 95.84 313.085 95.7 312.872 95.6C312.665 95.5 312.442 95.45 312.202 95.45C311.962 95.45 311.735 95.5033 311.522 95.61C311.315 95.71 311.132 95.85 310.972 96.03C310.819 96.2033 310.695 96.41 310.602 96.65C310.515 96.8833 310.472 97.1367 310.472 97.41ZM321.188 100H320.308V97.08C320.308 96.52 320.222 96.1133 320.048 95.86C319.882 95.6067 319.625 95.48 319.278 95.48C319.098 95.48 318.918 95.5167 318.738 95.59C318.558 95.6567 318.388 95.75 318.228 95.87C318.068 95.99 317.928 96.1333 317.808 96.3C317.688 96.4667 317.598 96.65 317.538 96.85V100H316.658V94.78H317.458V95.9C317.665 95.5333 317.962 95.24 318.348 95.02C318.742 94.8 319.168 94.69 319.628 94.69C319.928 94.69 320.178 94.7467 320.378 94.86C320.578 94.9667 320.738 95.12 320.858 95.32C320.978 95.5133 321.062 95.7433 321.108 96.01C321.162 96.2767 321.188 96.5667 321.188 96.88V100ZM323.538 100V95.47H322.828V94.78H323.538V94.67C323.538 94.0233 323.681 93.5167 323.968 93.15C324.255 92.7833 324.645 92.6 325.138 92.6C325.345 92.6 325.548 92.63 325.748 92.69C325.948 92.7433 326.128 92.82 326.288 92.92L326.068 93.57C325.975 93.5033 325.858 93.45 325.718 93.41C325.585 93.37 325.451 93.35 325.318 93.35C325.025 93.35 324.801 93.46 324.648 93.68C324.495 93.9 324.418 94.22 324.418 94.64V94.78H325.808V95.47H324.418V100H323.538ZM327.436 100V94.78H328.316V100H327.436ZM327.436 93.8V92.7H328.316V93.8H327.436ZM333.25 95.55C332.81 95.5633 332.42 95.6767 332.08 95.89C331.747 96.1033 331.51 96.4 331.37 96.78V100H330.49V94.78H331.31V95.99C331.49 95.63 331.727 95.34 332.02 95.12C332.314 94.8933 332.627 94.7667 332.96 94.74C333.027 94.74 333.084 94.74 333.13 94.74C333.177 94.74 333.217 94.7433 333.25 94.75V95.55ZM342.743 100H341.863V97.08C341.863 96.5333 341.773 96.13 341.593 95.87C341.42 95.61 341.16 95.48 340.813 95.48C340.453 95.48 340.13 95.61 339.843 95.87C339.563 96.1233 339.363 96.4533 339.243 96.86V100H338.363V97.08C338.363 96.52 338.276 96.1133 338.103 95.86C337.93 95.6067 337.67 95.48 337.323 95.48C336.97 95.48 336.65 95.6067 336.363 95.86C336.076 96.1067 335.873 96.4367 335.753 96.85V100H334.873V94.78H335.673V95.9C335.886 95.5133 336.163 95.2167 336.503 95.01C336.843 94.7967 337.226 94.69 337.653 94.69C338.093 94.69 338.44 94.81 338.693 95.05C338.953 95.2833 339.113 95.5867 339.173 95.96C339.64 95.1133 340.303 94.69 341.163 94.69C341.463 94.69 341.713 94.7467 341.913 94.86C342.12 94.9667 342.283 95.12 342.403 95.32C342.523 95.5133 342.61 95.7433 342.663 96.01C342.716 96.2767 342.743 96.5667 342.743 96.88V100ZM346.201 100.1C345.955 100.1 345.725 100.06 345.511 99.98C345.298 99.8933 345.111 99.7767 344.951 99.63C344.798 99.4833 344.675 99.3133 344.581 99.12C344.495 98.92 344.451 98.7033 344.451 98.47C344.451 98.23 344.505 98.0133 344.611 97.82C344.718 97.62 344.868 97.45 345.061 97.31C345.261 97.17 345.495 97.06 345.761 96.98C346.035 96.9 346.331 96.86 346.651 96.86C346.905 96.86 347.161 96.8833 347.421 96.93C347.681 96.9767 347.911 97.04 348.111 97.12V96.7C348.111 96.2733 347.991 95.94 347.751 95.7C347.511 95.4533 347.171 95.33 346.731 95.33C346.205 95.33 345.651 95.5333 345.071 95.94L344.781 95.37C345.455 94.9167 346.131 94.69 346.811 94.69C347.498 94.69 348.031 94.8733 348.411 95.24C348.798 95.6067 348.991 96.1233 348.991 96.79V98.92C348.991 99.1267 349.085 99.2333 349.271 99.24V100C349.178 100.013 349.101 100.023 349.041 100.03C348.981 100.037 348.918 100.04 348.851 100.04C348.678 100.04 348.538 99.99 348.431 99.89C348.331 99.7833 348.271 99.6567 348.251 99.51L348.231 99.14C347.998 99.4533 347.701 99.6933 347.341 99.86C346.988 100.02 346.608 100.1 346.201 100.1ZM346.431 99.44C346.745 99.44 347.035 99.3833 347.301 99.27C347.575 99.15 347.781 98.9933 347.921 98.8C348.048 98.6733 348.111 98.5433 348.111 98.41V97.64C347.685 97.4733 347.241 97.39 346.781 97.39C346.341 97.39 345.981 97.4833 345.701 97.67C345.428 97.8567 345.291 98.1 345.291 98.4C345.291 98.5467 345.318 98.6833 345.371 98.81C345.431 98.9367 345.511 99.0467 345.611 99.14C345.718 99.2333 345.841 99.3067 345.981 99.36C346.121 99.4133 346.271 99.44 346.431 99.44ZM353.809 99.74C353.756 99.7667 353.686 99.8 353.599 99.84C353.513 99.8733 353.413 99.91 353.299 99.95C353.193 99.9833 353.073 100.01 352.939 100.03C352.813 100.057 352.679 100.07 352.539 100.07C352.219 100.07 351.943 99.9833 351.709 99.81C351.476 99.63 351.359 99.3533 351.359 98.98V95.47H350.649V94.78H351.359V93.04H352.239V94.78H353.409V95.47H352.239V98.71C352.253 98.9033 352.316 99.0433 352.429 99.13C352.543 99.2167 352.676 99.26 352.829 99.26C353.003 99.26 353.159 99.2333 353.299 99.18C353.446 99.12 353.546 99.0733 353.599 99.04L353.809 99.74ZM355.375 100V94.78H356.255V100H355.375ZM355.375 93.8V92.7H356.255V93.8H355.375ZM360.71 100.1C360.316 100.1 359.956 100.027 359.63 99.88C359.31 99.7333 359.033 99.5367 358.8 99.29C358.573 99.0433 358.396 98.7567 358.27 98.43C358.143 98.1033 358.08 97.76 358.08 97.4C358.08 97.0333 358.143 96.6867 358.27 96.36C358.403 96.0333 358.583 95.7467 358.81 95.5C359.043 95.2533 359.32 95.0567 359.64 94.91C359.966 94.7633 360.323 94.69 360.71 94.69C361.096 94.69 361.453 94.7633 361.78 94.91C362.106 95.0567 362.383 95.2533 362.61 95.5C362.843 95.7467 363.023 96.0333 363.15 96.36C363.283 96.6867 363.35 97.0333 363.35 97.4C363.35 97.76 363.286 98.1033 363.16 98.43C363.033 98.7567 362.853 99.0433 362.62 99.29C362.386 99.5367 362.106 99.7333 361.78 99.88C361.46 100.027 361.103 100.1 360.71 100.1ZM358.98 97.41C358.98 97.6833 359.023 97.9367 359.11 98.17C359.203 98.4033 359.326 98.6067 359.48 98.78C359.64 98.9533 359.823 99.09 360.03 99.19C360.243 99.29 360.47 99.34 360.71 99.34C360.95 99.34 361.173 99.29 361.38 99.19C361.593 99.09 361.78 98.9533 361.94 98.78C362.1 98.6 362.223 98.3933 362.31 98.16C362.403 97.92 362.45 97.6633 362.45 97.39C362.45 97.1233 362.403 96.8733 362.31 96.64C362.223 96.4 362.1 96.1933 361.94 96.02C361.78 95.84 361.593 95.7 361.38 95.6C361.173 95.5 360.95 95.45 360.71 95.45C360.47 95.45 360.243 95.5033 360.03 95.61C359.823 95.71 359.64 95.85 359.48 96.03C359.326 96.2033 359.203 96.41 359.11 96.65C359.023 96.8833 358.98 97.1367 358.98 97.41ZM369.696 100H368.816V97.08C368.816 96.52 368.729 96.1133 368.556 95.86C368.389 95.6067 368.133 95.48 367.786 95.48C367.606 95.48 367.426 95.5167 367.246 95.59C367.066 95.6567 366.896 95.75 366.736 95.87C366.576 95.99 366.436 96.1333 366.316 96.3C366.196 96.4667 366.106 96.65 366.046 96.85V100H365.166V94.78H365.966V95.9C366.173 95.5333 366.469 95.24 366.856 95.02C367.249 94.8 367.676 94.69 368.136 94.69C368.436 94.69 368.686 94.7467 368.886 94.86C369.086 94.9667 369.246 95.12 369.366 95.32C369.486 95.5133 369.569 95.7433 369.616 96.01C369.669 96.2767 369.696 96.5667 369.696 96.88V100Z" fill="#222151"/>
<path d="M406.678 84.4859V77.3859H409.138C409.705 77.3859 410.201 77.4792 410.628 77.6659C411.061 77.8526 411.421 78.1059 411.708 78.4259C411.995 78.7459 412.208 79.1226 412.348 79.5559C412.495 79.9826 412.568 80.4392 412.568 80.9259C412.568 81.4659 412.488 81.9559 412.328 82.3959C412.168 82.8292 411.938 83.2026 411.638 83.5159C411.338 83.8226 410.975 84.0626 410.548 84.2359C410.128 84.4026 409.658 84.4859 409.138 84.4859H406.678ZM411.658 80.9259C411.658 80.5259 411.601 80.1592 411.488 79.8259C411.381 79.4859 411.218 79.1959 410.998 78.9559C410.785 78.7159 410.521 78.5292 410.208 78.3959C409.895 78.2559 409.538 78.1859 409.138 78.1859H407.578V83.6859H409.138C409.545 83.6859 409.905 83.6159 410.218 83.4759C410.538 83.3359 410.801 83.1426 411.008 82.8959C411.221 82.6492 411.381 82.3592 411.488 82.0259C411.601 81.6859 411.658 81.3192 411.658 80.9259ZM417.466 84.5359C416.966 84.5359 416.51 84.4359 416.096 84.2359C415.69 84.0292 415.34 83.7592 415.046 83.4259C414.753 83.0859 414.526 82.6992 414.366 82.2659C414.206 81.8326 414.126 81.3892 414.126 80.9359C414.126 80.4626 414.21 80.0092 414.376 79.5759C414.55 79.1426 414.786 78.7592 415.086 78.4259C415.386 78.0926 415.74 77.8292 416.146 77.6359C416.56 77.4359 417.006 77.3359 417.486 77.3359C417.986 77.3359 418.44 77.4426 418.846 77.6559C419.253 77.8626 419.603 78.1359 419.896 78.4759C420.19 78.8159 420.416 79.2026 420.576 79.6359C420.736 80.0626 420.816 80.4992 420.816 80.9459C420.816 81.4192 420.73 81.8726 420.556 82.3059C420.39 82.7392 420.156 83.1226 419.856 83.4559C419.563 83.7826 419.21 84.0459 418.796 84.2459C418.39 84.4392 417.946 84.5359 417.466 84.5359ZM415.036 80.9359C415.036 81.2959 415.093 81.6459 415.206 81.9859C415.326 82.3192 415.493 82.6159 415.706 82.8759C415.92 83.1359 416.176 83.3426 416.476 83.4959C416.776 83.6492 417.11 83.7259 417.476 83.7259C417.856 83.7259 418.196 83.6459 418.496 83.4859C418.796 83.3192 419.05 83.1059 419.256 82.8459C419.47 82.5792 419.63 82.2792 419.736 81.9459C419.85 81.6126 419.906 81.2759 419.906 80.9359C419.906 80.5759 419.846 80.2292 419.726 79.8959C419.613 79.5559 419.446 79.2592 419.226 79.0059C419.013 78.7459 418.756 78.5392 418.456 78.3859C418.163 78.2326 417.836 78.1559 417.476 78.1559C417.096 78.1559 416.756 78.2359 416.456 78.3959C416.156 78.5559 415.9 78.7659 415.686 79.0259C415.48 79.2859 415.32 79.5826 415.206 79.9159C415.093 80.2492 415.036 80.5892 415.036 80.9359ZM426.096 84.4859V77.3859H429.136C429.449 77.3859 429.736 77.4526 429.996 77.5859C430.263 77.7126 430.489 77.8859 430.676 78.1059C430.869 78.3192 431.019 78.5626 431.126 78.8359C431.233 79.1026 431.286 79.3759 431.286 79.6559C431.286 79.9026 431.249 80.1426 431.176 80.3759C431.109 80.6026 431.009 80.8092 430.876 80.9959C430.749 81.1826 430.593 81.3426 430.406 81.4759C430.226 81.6092 430.023 81.7059 429.796 81.7659L431.516 84.4859H430.496L428.876 81.9359H426.996V84.4859H426.096ZM426.996 81.1359H429.146C429.333 81.1359 429.499 81.0959 429.646 81.0159C429.799 80.9359 429.929 80.8292 430.036 80.6959C430.143 80.5559 430.226 80.3959 430.286 80.2159C430.346 80.0359 430.376 79.8492 430.376 79.6559C430.376 79.4559 430.339 79.2692 430.266 79.0959C430.199 78.9159 430.106 78.7592 429.986 78.6259C429.873 78.4859 429.736 78.3792 429.576 78.3059C429.423 78.2259 429.259 78.1859 429.086 78.1859H426.996V81.1359ZM435.422 84.5859C435.029 84.5859 434.669 84.5159 434.342 84.3759C434.016 84.2292 433.736 84.0326 433.502 83.7859C433.269 83.5392 433.086 83.2526 432.952 82.9259C432.826 82.5926 432.762 82.2426 432.762 81.8759C432.762 81.5092 432.826 81.1626 432.952 80.8359C433.086 80.5092 433.269 80.2226 433.502 79.9759C433.742 79.7292 434.026 79.5359 434.352 79.3959C434.679 79.2492 435.039 79.1759 435.432 79.1759C435.826 79.1759 436.182 79.2492 436.502 79.3959C436.829 79.5426 437.106 79.7392 437.332 79.9859C437.559 80.2259 437.732 80.5092 437.852 80.8359C437.979 81.1559 438.042 81.4892 438.042 81.8359C438.042 81.9092 438.039 81.9759 438.032 82.0359C438.032 82.0959 438.029 82.1426 438.022 82.1759H433.692C433.712 82.4359 433.772 82.6726 433.872 82.8859C433.972 83.0992 434.102 83.2826 434.262 83.4359C434.422 83.5892 434.602 83.7092 434.802 83.7959C435.009 83.8826 435.226 83.9259 435.452 83.9259C435.612 83.9259 435.769 83.9059 435.922 83.8659C436.076 83.8192 436.219 83.7592 436.352 83.6859C436.486 83.6126 436.602 83.5226 436.702 83.4159C436.809 83.3092 436.889 83.1892 436.942 83.0559L437.702 83.2659C437.616 83.4592 437.496 83.6359 437.342 83.7959C437.196 83.9559 437.022 84.0959 436.822 84.2159C436.629 84.3292 436.412 84.4192 436.172 84.4859C435.932 84.5526 435.682 84.5859 435.422 84.5859ZM437.212 81.5259C437.192 81.2792 437.129 81.0526 437.022 80.8459C436.922 80.6326 436.792 80.4526 436.632 80.3059C436.479 80.1592 436.299 80.0459 436.092 79.9659C435.886 79.8792 435.666 79.8359 435.432 79.8359C435.199 79.8359 434.979 79.8792 434.772 79.9659C434.566 80.0459 434.382 80.1626 434.222 80.3159C434.069 80.4626 433.942 80.6392 433.842 80.8459C433.749 81.0526 433.692 81.2792 433.672 81.5259H437.212ZM439.791 77.1859H440.671V83.1359C440.671 83.3292 440.721 83.4826 440.821 83.5959C440.927 83.7026 441.074 83.7559 441.261 83.7559C441.334 83.7559 441.421 83.7459 441.521 83.7259C441.621 83.6992 441.714 83.6692 441.801 83.6359L441.941 84.3459C441.794 84.4059 441.621 84.4559 441.421 84.4959C441.221 84.5359 441.044 84.5559 440.891 84.5559C440.551 84.5559 440.281 84.4592 440.081 84.2659C439.887 84.0726 439.791 83.8026 439.791 83.4559V77.1859ZM445.692 84.5859C445.299 84.5859 444.939 84.5159 444.612 84.3759C444.285 84.2292 444.005 84.0326 443.772 83.7859C443.539 83.5392 443.355 83.2526 443.222 82.9259C443.095 82.5926 443.032 82.2426 443.032 81.8759C443.032 81.5092 443.095 81.1626 443.222 80.8359C443.355 80.5092 443.539 80.2226 443.772 79.9759C444.012 79.7292 444.295 79.5359 444.622 79.3959C444.949 79.2492 445.309 79.1759 445.702 79.1759C446.095 79.1759 446.452 79.2492 446.772 79.3959C447.099 79.5426 447.375 79.7392 447.602 79.9859C447.829 80.2259 448.002 80.5092 448.122 80.8359C448.249 81.1559 448.312 81.4892 448.312 81.8359C448.312 81.9092 448.309 81.9759 448.302 82.0359C448.302 82.0959 448.299 82.1426 448.292 82.1759H443.962C443.982 82.4359 444.042 82.6726 444.142 82.8859C444.242 83.0992 444.372 83.2826 444.532 83.4359C444.692 83.5892 444.872 83.7092 445.072 83.7959C445.279 83.8826 445.495 83.9259 445.722 83.9259C445.882 83.9259 446.039 83.9059 446.192 83.8659C446.345 83.8192 446.489 83.7592 446.622 83.6859C446.755 83.6126 446.872 83.5226 446.972 83.4159C447.079 83.3092 447.159 83.1892 447.212 83.0559L447.972 83.2659C447.885 83.4592 447.765 83.6359 447.612 83.7959C447.465 83.9559 447.292 84.0959 447.092 84.2159C446.899 84.3292 446.682 84.4192 446.442 84.4859C446.202 84.5526 445.952 84.5859 445.692 84.5859ZM447.482 81.5259C447.462 81.2792 447.399 81.0526 447.292 80.8459C447.192 80.6326 447.062 80.4526 446.902 80.3059C446.749 80.1592 446.569 80.0459 446.362 79.9659C446.155 79.8792 445.935 79.8359 445.702 79.8359C445.469 79.8359 445.249 79.8792 445.042 79.9659C444.835 80.0459 444.652 80.1626 444.492 80.3159C444.339 80.4626 444.212 80.6392 444.112 80.8459C444.019 81.0526 443.962 81.2792 443.942 81.5259H447.482ZM451.38 84.5859C451.133 84.5859 450.903 84.5459 450.69 84.4659C450.477 84.3792 450.29 84.2626 450.13 84.1159C449.977 83.9692 449.853 83.7992 449.76 83.6059C449.673 83.4059 449.63 83.1892 449.63 82.9559C449.63 82.7159 449.683 82.4992 449.79 82.3059C449.897 82.1059 450.047 81.9359 450.24 81.7959C450.44 81.6559 450.673 81.5459 450.94 81.4659C451.213 81.3859 451.51 81.3459 451.83 81.3459C452.083 81.3459 452.34 81.3692 452.6 81.4159C452.86 81.4626 453.09 81.5259 453.29 81.6059V81.1859C453.29 80.7592 453.17 80.4259 452.93 80.1859C452.69 79.9392 452.35 79.8159 451.91 79.8159C451.383 79.8159 450.83 80.0192 450.25 80.4259L449.96 79.8559C450.633 79.4026 451.31 79.1759 451.99 79.1759C452.677 79.1759 453.21 79.3592 453.59 79.7259C453.977 80.0926 454.17 80.6092 454.17 81.2759V83.4059C454.17 83.6126 454.263 83.7192 454.45 83.7259V84.4859C454.357 84.4992 454.28 84.5092 454.22 84.5159C454.16 84.5226 454.097 84.5259 454.03 84.5259C453.857 84.5259 453.717 84.4759 453.61 84.3759C453.51 84.2692 453.45 84.1426 453.43 83.9959L453.41 83.6259C453.177 83.9392 452.88 84.1792 452.52 84.3459C452.167 84.5059 451.787 84.5859 451.38 84.5859ZM451.61 83.9259C451.923 83.9259 452.213 83.8692 452.48 83.7559C452.753 83.6359 452.96 83.4792 453.1 83.2859C453.227 83.1592 453.29 83.0292 453.29 82.8959V82.1259C452.863 81.9592 452.42 81.8759 451.96 81.8759C451.52 81.8759 451.16 81.9692 450.88 82.1559C450.607 82.3426 450.47 82.5859 450.47 82.8859C450.47 83.0326 450.497 83.1692 450.55 83.2959C450.61 83.4226 450.69 83.5326 450.79 83.6259C450.897 83.7192 451.02 83.7926 451.16 83.8459C451.3 83.8992 451.45 83.9259 451.61 83.9259ZM458.157 84.5859C457.737 84.5859 457.324 84.5226 456.917 84.3959C456.511 84.2626 456.161 84.0726 455.867 83.8259L456.247 83.2359C456.554 83.4692 456.861 83.6459 457.167 83.7659C457.474 83.8792 457.797 83.9359 458.137 83.9359C458.517 83.9359 458.817 83.8626 459.037 83.7159C459.264 83.5626 459.377 83.3492 459.377 83.0759C459.377 82.9492 459.347 82.8426 459.287 82.7559C459.227 82.6626 459.137 82.5826 459.017 82.5159C458.897 82.4492 458.744 82.3892 458.557 82.3359C458.371 82.2826 458.154 82.2259 457.907 82.1659C457.594 82.0859 457.324 82.0092 457.097 81.9359C456.871 81.8626 456.684 81.7759 456.537 81.6759C456.391 81.5759 456.284 81.4559 456.217 81.3159C456.151 81.1759 456.117 81.0026 456.117 80.7959C456.117 80.5359 456.167 80.3059 456.267 80.1059C456.374 79.8992 456.517 79.7292 456.697 79.5959C456.877 79.4559 457.087 79.3526 457.327 79.2859C457.574 79.2126 457.837 79.1759 458.117 79.1759C458.511 79.1759 458.877 79.2392 459.217 79.3659C459.557 79.4926 459.844 79.6592 460.077 79.8659L459.677 80.3959C459.457 80.2026 459.211 80.0592 458.937 79.9659C458.664 79.8659 458.384 79.8159 458.097 79.8159C457.777 79.8159 457.504 79.8859 457.277 80.0259C457.057 80.1592 456.947 80.3759 456.947 80.6759C456.947 80.7959 456.967 80.8959 457.007 80.9759C457.054 81.0559 457.127 81.1259 457.227 81.1859C457.327 81.2459 457.454 81.2992 457.607 81.3459C457.767 81.3926 457.957 81.4426 458.177 81.4959C458.524 81.5759 458.824 81.6592 459.077 81.7459C459.337 81.8259 459.551 81.9226 459.717 82.0359C459.891 82.1492 460.017 82.2826 460.097 82.4359C460.184 82.5892 460.227 82.7759 460.227 82.9959C460.227 83.4826 460.041 83.8692 459.667 84.1559C459.294 84.4426 458.791 84.5859 458.157 84.5859ZM464.329 84.5859C463.935 84.5859 463.575 84.5159 463.249 84.3759C462.922 84.2292 462.642 84.0326 462.409 83.7859C462.175 83.5392 461.992 83.2526 461.859 82.9259C461.732 82.5926 461.669 82.2426 461.669 81.8759C461.669 81.5092 461.732 81.1626 461.859 80.8359C461.992 80.5092 462.175 80.2226 462.409 79.9759C462.649 79.7292 462.932 79.5359 463.259 79.3959C463.585 79.2492 463.945 79.1759 464.339 79.1759C464.732 79.1759 465.089 79.2492 465.409 79.3959C465.735 79.5426 466.012 79.7392 466.239 79.9859C466.465 80.2259 466.639 80.5092 466.759 80.8359C466.885 81.1559 466.949 81.4892 466.949 81.8359C466.949 81.9092 466.945 81.9759 466.939 82.0359C466.939 82.0959 466.935 82.1426 466.929 82.1759H462.599C462.619 82.4359 462.679 82.6726 462.779 82.8859C462.879 83.0992 463.009 83.2826 463.169 83.4359C463.329 83.5892 463.509 83.7092 463.709 83.7959C463.915 83.8826 464.132 83.9259 464.359 83.9259C464.519 83.9259 464.675 83.9059 464.829 83.8659C464.982 83.8192 465.125 83.7592 465.259 83.6859C465.392 83.6126 465.509 83.5226 465.609 83.4159C465.715 83.3092 465.795 83.1892 465.849 83.0559L466.609 83.2659C466.522 83.4592 466.402 83.6359 466.249 83.7959C466.102 83.9559 465.929 84.0959 465.729 84.2159C465.535 84.3292 465.319 84.4192 465.079 84.4859C464.839 84.5526 464.589 84.5859 464.329 84.5859ZM466.119 81.5259C466.099 81.2792 466.035 81.0526 465.929 80.8459C465.829 80.6326 465.699 80.4526 465.539 80.3059C465.385 80.1592 465.205 80.0459 464.999 79.9659C464.792 79.8792 464.572 79.8359 464.339 79.8359C464.105 79.8359 463.885 79.8792 463.679 79.9659C463.472 80.0459 463.289 80.1626 463.129 80.3159C462.975 80.4626 462.849 80.6392 462.749 80.8459C462.655 81.0526 462.599 81.2792 462.579 81.5259H466.119Z" fill="#222151"/>
<g clip-path="url(#clip0)">
<path d="M12.2093 31.2261C11.897 31.593 11.3263 31.5657 11.0503 31.1707C8.80461 27.9567 7.4873 24.046 7.4873 19.8277C7.4873 8.87715 16.3645 0 27.315 0C38.2655 0 47.1427 8.87715 47.1427 19.8277C47.1427 24.0396 45.8293 27.9448 43.5899 31.1561C43.3091 31.5587 42.7276 31.5861 42.4091 31.2126C38.7724 26.9472 33.3596 24.2425 27.315 24.2425C21.2641 24.2425 15.8461 26.953 12.2093 31.2261Z" fill="#F29500"/>
<path d="M43.5796 9.60402V31.1704C42.4729 32.7545 41.1407 34.1693 39.6296 35.3683C36.2471 38.0523 17.7174 37.7926 14.2253 34.7211C13.0306 33.6703 11.9634 32.478 11.0498 31.1704V9.60402C11.0498 9.17625 11.3966 8.8295 11.8243 8.8295H42.8051C43.2329 8.8295 43.5796 9.17625 43.5796 9.60402Z" fill="#E9F3FE"/>
<path d="M14.1479 8.8295C13.7201 8.8295 13.3734 9.0665 13.3734 9.35888V33.9264C12.5186 33.0811 11.7403 32.1587 11.0498 31.1704V9.35888C11.0498 9.0665 11.3966 8.8295 11.8243 8.8295H14.1479Z" fill="#C8E2FD"/>
<path d="M43.5796 5.73144V9.60404H11.0498V5.73144C11.0498 4.87591 11.7433 4.1824 12.5988 4.1824H42.0306C42.8861 4.1824 43.5796 4.87591 43.5796 5.73144Z" fill="#76B6FA"/>
<path d="M14.9224 4.1824C14.0669 4.1824 13.3734 4.87591 13.3734 5.73144V9.60404H11.0498V5.73144C11.0498 4.87591 11.7433 4.1824 12.5988 4.1824H14.9224Z" fill="#55A4F9"/>
<path d="M13.6838 6.8932C13.6838 7.32097 13.3371 7.66772 12.9093 7.66772C12.4815 7.66772 12.1348 7.32097 12.1348 6.8932C12.1348 6.46544 12.4815 6.11868 12.9093 6.11868C13.3371 6.11868 13.6838 6.46544 13.6838 6.8932ZM18.3309 6.11868C17.9032 6.11868 17.5564 6.46544 17.5564 6.8932C17.5564 7.32097 17.9032 7.66772 18.3309 7.66772C18.7587 7.66772 19.1054 7.32097 19.1054 6.8932C19.1054 6.46544 18.7587 6.11868 18.3309 6.11868ZM15.6201 6.11868C15.1923 6.11868 14.8456 6.46544 14.8456 6.8932C14.8456 7.32097 15.1923 7.66772 15.6201 7.66772C16.0479 7.66772 16.3946 7.32097 16.3946 6.8932C16.3946 6.46544 16.0479 6.11868 15.6201 6.11868Z" fill="#1380E2"/>
<path d="M42.3408 6.8932C42.3408 7.32097 41.9941 7.66772 41.5663 7.66772H21.4288C21.001 7.66772 20.6543 7.32097 20.6543 6.8932C20.6543 6.46544 21.001 6.11868 21.4288 6.11868H41.5663C41.9941 6.11868 42.3408 6.46544 42.3408 6.8932Z" fill="#FFF5F5"/>
<path d="M16.9368 19.7503H37.694C38.9773 19.7503 40.0175 20.7905 40.0175 22.0738C40.0175 23.3571 38.9773 24.3974 37.694 24.3974H16.9368C15.6535 24.3974 14.6133 23.3571 14.6133 22.0738C14.6133 20.7905 15.6535 19.7503 16.9368 19.7503ZM14.6133 14.0963C14.6133 15.3796 15.6535 16.4198 16.9368 16.4198H37.694C38.9773 16.4198 40.0175 15.3796 40.0175 14.0963C40.0175 12.813 38.9773 11.7727 37.694 11.7727H16.9368C15.6535 11.7727 14.6133 12.813 14.6133 14.0963ZM37.694 27.1082H16.9368C15.6535 27.1082 14.6133 28.1484 14.6133 29.4317V34.5873C14.6133 34.8861 14.7496 35.1688 14.9834 35.3548C18.3686 38.0469 22.6542 39.6554 27.3154 39.6554C32.1482 39.6554 36.5773 37.9264 40.0175 35.0531V29.4317C40.0175 28.1484 38.9773 27.1082 37.694 27.1082Z" fill="#C8E2FD"/>
<path d="M16.9364 19.363H37.6935C39.1883 19.363 40.4043 20.5791 40.4043 22.0738C40.4043 23.5685 39.1883 24.7846 37.6935 24.7846H16.9364C15.4417 24.7846 14.2256 23.5685 14.2256 22.0738C14.2256 20.5791 15.4417 19.363 16.9364 19.363ZM37.6935 24.0101C38.7612 24.0101 39.6298 23.1415 39.6298 22.0738C39.6298 21.0061 38.7612 20.1375 37.6935 20.1375H16.9364C15.8687 20.1375 15.0001 21.0061 15.0001 22.0738C15.0001 23.1415 15.8687 24.0101 16.9364 24.0101H37.6935ZM37.6935 16.8071H16.9364C15.4417 16.8071 14.2256 15.591 14.2256 14.0963C14.2256 12.6015 15.4417 11.3854 16.9364 11.3854H37.6935C39.1883 11.3854 40.4043 12.6015 40.4043 14.0963C40.4043 15.591 39.1883 16.8071 37.6935 16.8071ZM16.9364 12.16C15.8687 12.16 15.0001 13.0286 15.0001 14.0963C15.0001 15.1639 15.8687 16.0326 16.9364 16.0326H37.6935C38.7612 16.0326 39.6298 15.1639 39.6298 14.0963C39.6298 13.0286 38.7612 12.16 37.6935 12.16H16.9364ZM37.6935 26.7209H16.9364C15.4417 26.7209 14.2256 27.937 14.2256 29.4317V34.7212C14.4782 34.9433 14.7364 35.1591 15.0001 35.3683V29.4317C15.0001 28.3641 15.8687 27.4954 16.9364 27.4954H37.6935C38.7612 27.4954 39.6298 28.3641 39.6298 29.4317V35.3683C39.8935 35.1591 40.1518 34.9433 40.4043 34.7212V29.4317C40.4043 27.937 39.1883 26.7209 37.6935 26.7209Z" fill="white"/>
<path d="M26.2691 30.3708H17.3621C17.0413 30.3708 16.7812 30.1107 16.7812 29.7899C16.7812 29.4691 17.0413 29.209 17.3621 29.209H26.2691C26.5899 29.209 26.85 29.4691 26.85 29.7899C26.85 30.1107 26.5899 30.3708 26.2691 30.3708ZM21.4284 31.9198C21.4284 31.599 21.1683 31.3389 20.8475 31.3389H17.3621C17.0413 31.3389 16.7812 31.599 16.7812 31.9198C16.7812 32.2406 17.0413 32.5007 17.3621 32.5007H20.8475C21.1683 32.5007 21.4284 32.2406 21.4284 31.9198ZM26.85 22.0738C26.85 21.753 26.5899 21.4929 26.2691 21.4929H17.3621C17.0413 21.4929 16.7812 21.753 16.7812 22.0738C16.7812 22.3946 17.0413 22.6546 17.3621 22.6546H26.2691C26.5899 22.6546 26.85 22.3946 26.85 22.0738ZM23.7519 14.1349C23.7519 13.8141 23.4918 13.554 23.171 13.554H17.3621C17.0413 13.554 16.7812 13.8141 16.7812 14.1349C16.7812 14.4557 17.0413 14.7158 17.3621 14.7158H23.171C23.4918 14.7158 23.7519 14.4557 23.7519 14.1349Z" fill="#A7D0FC"/>
<path d="M17.9861 34.7156C17.9861 35.0483 17.7164 35.318 17.3837 35.318C17.0509 35.318 16.7812 35.0483 16.7812 34.7156C16.7812 34.3829 17.0509 34.1132 17.3837 34.1132C17.7163 34.1132 17.9861 34.383 17.9861 34.7156ZM19.4921 34.1132C19.1594 34.1132 18.8896 34.3829 18.8896 34.7156C18.8896 35.0483 19.1593 35.318 19.4921 35.318C19.8248 35.318 20.0945 35.0483 20.0945 34.7156C20.0945 34.383 19.8247 34.1132 19.4921 34.1132ZM21.6005 34.1132C21.2678 34.1132 20.998 34.3829 20.998 34.7156C20.998 35.0483 21.2677 35.318 21.6005 35.318C21.9332 35.318 22.2029 35.0483 22.2029 34.7156C22.2029 34.383 21.9332 34.1132 21.6005 34.1132Z" fill="#76B6FA"/>
<path d="M35.692 16.7164L32.5209 28.551C32.451 28.8119 32.1829 28.9666 31.9221 28.8968C31.6613 28.8269 31.5065 28.5588 31.5763 28.2979L34.7475 16.4633C34.8173 16.2024 35.0854 16.0476 35.3462 16.1175C35.607 16.1875 35.7618 16.4556 35.692 16.7164Z" fill="#958FCA"/>
<path d="M34.8185 24.1324L34.2161 26.3809C34.1054 26.7942 33.6806 27.0393 33.2675 26.9286L31.7412 26.5197C31.328 26.409 31.0829 25.9842 31.1936 25.5711L31.7961 23.3225C31.9067 22.9093 32.3315 22.6642 32.7447 22.7749L34.271 23.1838C34.6841 23.2945 34.9292 23.7192 34.8185 24.1324Z" fill="#8078BF"/>
<path d="M41.6367 2.46459L39.612 10.021L39.5265 10.3401L34.6387 8.93508L34.7415 8.55123L36.7251 1.14845C36.9465 0.322115 37.7959 -0.168311 38.6222 0.0531243L40.5413 0.567328C41.3678 0.78884 41.8582 1.63818 41.6367 2.46459Z" fill="#453D83"/>
<path d="M41.6364 2.46474L39.6117 10.0211L36.5088 8.97883L38.4808 1.6192C38.7022 0.792863 39.5516 0.302438 40.378 0.523873L40.541 0.567556C41.3674 0.788991 41.8578 1.63833 41.6364 2.46474Z" fill="#51489A"/>
<path d="M39.6121 10.021L35.8672 23.997C35.6458 24.8233 34.7963 25.3137 33.97 25.0923L32.0508 24.5781C31.2245 24.3567 30.7341 23.5073 30.9555 22.6809L34.7004 8.70489C34.9218 7.87856 35.7712 7.38813 36.5976 7.60957L38.5167 8.12377C39.3431 8.3452 39.8334 9.19462 39.6121 10.021Z" fill="#5F55AF"/>
<path d="M39.6118 10.021L35.8669 23.9971C35.6455 24.8234 34.7961 25.3139 33.9697 25.0924L33.8067 25.0487C32.9804 24.8273 32.4899 23.9779 32.7114 23.1516L36.8571 7.67929L38.5164 8.12386C39.3428 8.3453 39.8331 9.19471 39.6118 10.021Z" fill="#6A61B4"/>
<path d="M34.0737 32.5353H38.2754C39.9864 32.5353 41.3735 33.9224 41.3735 35.6334C41.3735 37.3444 39.9864 38.7315 38.2754 38.7315H34.0737C32.3627 38.7315 30.9756 37.3444 30.9756 35.6334C30.9756 33.9224 32.3627 32.5353 34.0737 32.5353Z" fill="#5DB33A"/>
<path d="M36.4555 32.5353H39.5258C41.2368 32.5353 42.6238 33.9224 42.6238 35.6334C42.6238 37.3444 41.2368 38.7315 39.5258 38.7315H36.4555C34.7445 38.7315 33.3574 37.3444 33.3574 35.6334C33.3574 33.9224 34.7444 32.5353 36.4555 32.5353Z" fill="#6DC54A"/>
<path d="M40.5486 35.6336C40.5486 35.7363 40.5078 35.8348 40.4351 35.9074L39.124 37.2185C39.0484 37.2941 38.9493 37.3319 38.8502 37.3319C38.7512 37.3319 38.6519 37.2941 38.5764 37.2185C38.4252 37.0672 38.4252 36.822 38.5764 36.6708L39.2264 36.0208H33.438C33.2241 36.0208 33.0508 35.8474 33.0508 35.6336C33.0508 35.4197 33.2241 35.2463 33.438 35.2463H39.2265L38.5765 34.5963C38.4252 34.4451 38.4252 34.1998 38.5765 34.0487C38.7276 33.8975 38.973 33.8975 39.1241 34.0487L40.4352 35.3598C40.5078 35.4323 40.5486 35.5309 40.5486 35.6336Z" fill="white"/>
</g>
<g clip-path="url(#clip1)">
<path d="M114.818 31.2261C114.505 31.593 113.935 31.5657 113.659 31.1707C111.413 27.9567 110.096 24.046 110.096 19.8277C110.096 8.87715 118.973 0 129.923 0C140.874 0 149.751 8.87715 149.751 19.8277C149.751 24.0396 148.438 27.9448 146.198 31.1561C145.918 31.5587 145.336 31.5861 145.018 31.2126C141.381 26.9472 135.968 24.2425 129.923 24.2425C123.872 24.2425 118.455 26.953 114.818 31.2261Z" fill="#EB5757"/>
<path d="M146.188 9.60402V31.1704C145.081 32.7545 143.749 34.1693 142.238 35.3683C138.855 38.0523 120.326 37.7926 116.834 34.7211C115.639 33.6703 114.572 32.478 113.658 31.1704V9.60402C113.658 9.17625 114.005 8.8295 114.433 8.8295H145.413C145.841 8.8295 146.188 9.17625 146.188 9.60402Z" fill="#E9F3FE"/>
<path d="M116.756 8.8295C116.329 8.8295 115.982 9.0665 115.982 9.35888V33.9264C115.127 33.0811 114.349 32.1587 113.658 31.1704V9.35888C113.658 9.0665 114.005 8.8295 114.433 8.8295H116.756Z" fill="#C8E2FD"/>
<path d="M146.188 5.73144V9.60404H113.658V5.73144C113.658 4.87591 114.352 4.1824 115.207 4.1824H144.639C145.495 4.1824 146.188 4.87591 146.188 5.73144Z" fill="#76B6FA"/>
<path d="M117.531 4.1824C116.675 4.1824 115.982 4.87591 115.982 5.73144V9.60404H113.658V5.73144C113.658 4.87591 114.352 4.1824 115.207 4.1824H117.531Z" fill="#55A4F9"/>
<path d="M116.292 6.8932C116.292 7.32097 115.945 7.66772 115.518 7.66772C115.09 7.66772 114.743 7.32097 114.743 6.8932C114.743 6.46544 115.09 6.11868 115.518 6.11868C115.945 6.11868 116.292 6.46544 116.292 6.8932ZM120.939 6.11868C120.512 6.11868 120.165 6.46544 120.165 6.8932C120.165 7.32097 120.512 7.66772 120.939 7.66772C121.367 7.66772 121.714 7.32097 121.714 6.8932C121.714 6.46544 121.367 6.11868 120.939 6.11868ZM118.229 6.11868C117.801 6.11868 117.454 6.46544 117.454 6.8932C117.454 7.32097 117.801 7.66772 118.229 7.66772C118.656 7.66772 119.003 7.32097 119.003 6.8932C119.003 6.46544 118.656 6.11868 118.229 6.11868Z" fill="#1380E2"/>
<path d="M144.949 6.8932C144.949 7.32097 144.602 7.66772 144.175 7.66772H124.037C123.609 7.66772 123.263 7.32097 123.263 6.8932C123.263 6.46544 123.609 6.11868 124.037 6.11868H144.175C144.602 6.11868 144.949 6.46544 144.949 6.8932Z" fill="#FFF5F5"/>
<path d="M119.545 19.7503H140.302C141.586 19.7503 142.626 20.7905 142.626 22.0738C142.626 23.3571 141.586 24.3974 140.302 24.3974H119.545C118.262 24.3974 117.222 23.3571 117.222 22.0738C117.222 20.7905 118.262 19.7503 119.545 19.7503ZM117.222 14.0963C117.222 15.3796 118.262 16.4198 119.545 16.4198H140.302C141.586 16.4198 142.626 15.3796 142.626 14.0963C142.626 12.813 141.586 11.7727 140.302 11.7727H119.545C118.262 11.7727 117.222 12.813 117.222 14.0963ZM140.302 27.1082H119.545C118.262 27.1082 117.222 28.1484 117.222 29.4317V34.5873C117.222 34.8861 117.358 35.1688 117.592 35.3548C120.977 38.0469 125.263 39.6554 129.924 39.6554C134.757 39.6554 139.186 37.9264 142.626 35.0531V29.4317C142.626 28.1484 141.586 27.1082 140.302 27.1082Z" fill="#C8E2FD"/>
<path d="M119.545 19.363H140.302C141.797 19.363 143.013 20.5791 143.013 22.0738C143.013 23.5685 141.797 24.7846 140.302 24.7846H119.545C118.05 24.7846 116.834 23.5685 116.834 22.0738C116.834 20.5791 118.05 19.363 119.545 19.363ZM140.302 24.0101C141.37 24.0101 142.238 23.1415 142.238 22.0738C142.238 21.0061 141.37 20.1375 140.302 20.1375H119.545C118.477 20.1375 117.609 21.0061 117.609 22.0738C117.609 23.1415 118.477 24.0101 119.545 24.0101H140.302ZM140.302 16.8071H119.545C118.05 16.8071 116.834 15.591 116.834 14.0963C116.834 12.6015 118.05 11.3854 119.545 11.3854H140.302C141.797 11.3854 143.013 12.6015 143.013 14.0963C143.013 15.591 141.797 16.8071 140.302 16.8071ZM119.545 12.16C118.477 12.16 117.609 13.0286 117.609 14.0963C117.609 15.1639 118.477 16.0326 119.545 16.0326H140.302C141.37 16.0326 142.238 15.1639 142.238 14.0963C142.238 13.0286 141.37 12.16 140.302 12.16H119.545ZM140.302 26.7209H119.545C118.05 26.7209 116.834 27.937 116.834 29.4317V34.7212C117.087 34.9433 117.345 35.1591 117.609 35.3683V29.4317C117.609 28.3641 118.477 27.4954 119.545 27.4954H140.302C141.37 27.4954 142.238 28.3641 142.238 29.4317V35.3683C142.502 35.1591 142.76 34.9433 143.013 34.7212V29.4317C143.013 27.937 141.797 26.7209 140.302 26.7209Z" fill="white"/>
<path d="M128.878 30.3708H119.971C119.65 30.3708 119.39 30.1107 119.39 29.7899C119.39 29.4691 119.65 29.209 119.971 29.209H128.878C129.198 29.209 129.458 29.4691 129.458 29.7899C129.458 30.1107 129.198 30.3708 128.878 30.3708ZM124.037 31.9198C124.037 31.599 123.777 31.3389 123.456 31.3389H119.971C119.65 31.3389 119.39 31.599 119.39 31.9198C119.39 32.2406 119.65 32.5007 119.971 32.5007H123.456C123.777 32.5007 124.037 32.2406 124.037 31.9198ZM129.458 22.0738C129.458 21.753 129.198 21.4929 128.878 21.4929H119.971C119.65 21.4929 119.39 21.753 119.39 22.0738C119.39 22.3946 119.65 22.6546 119.971 22.6546H128.878C129.198 22.6546 129.458 22.3946 129.458 22.0738ZM126.36 14.1349C126.36 13.8141 126.1 13.554 125.779 13.554H119.971C119.65 13.554 119.39 13.8141 119.39 14.1349C119.39 14.4557 119.65 14.7158 119.971 14.7158H125.779C126.1 14.7158 126.36 14.4557 126.36 14.1349Z" fill="#A7D0FC"/>
<path d="M120.594 34.7156C120.594 35.0483 120.325 35.318 119.992 35.318C119.659 35.318 119.39 35.0483 119.39 34.7156C119.39 34.3829 119.659 34.1132 119.992 34.1132C120.325 34.1132 120.594 34.383 120.594 34.7156ZM122.1 34.1132C121.768 34.1132 121.498 34.3829 121.498 34.7156C121.498 35.0483 121.768 35.318 122.1 35.318C122.433 35.318 122.703 35.0483 122.703 34.7156C122.703 34.383 122.433 34.1132 122.1 34.1132ZM124.209 34.1132C123.876 34.1132 123.606 34.3829 123.606 34.7156C123.606 35.0483 123.876 35.318 124.209 35.318C124.542 35.318 124.811 35.0483 124.811 34.7156C124.811 34.383 124.542 34.1132 124.209 34.1132Z" fill="#76B6FA"/>
<path d="M146.498 33.5676C146.498 36.7758 143.897 39.3765 140.689 39.3765C137.481 39.3765 134.88 36.7758 134.88 33.5676C134.88 30.3595 137.481 27.7587 140.689 27.7587C143.897 27.7587 146.498 30.3595 146.498 33.5676Z" fill="#5DB33A"/>
<path d="M146.498 33.5676C146.498 34.6956 146.177 35.7486 145.62 36.6397C144.729 37.1962 143.676 37.5177 142.548 37.5177C139.34 37.5177 136.739 34.9169 136.739 31.7088C136.739 30.5808 137.061 29.5278 137.617 28.6366C138.508 28.0802 139.561 27.7587 140.689 27.7587C143.897 27.7587 146.498 30.3595 146.498 33.5676Z" fill="#6DC54A"/>
</g>
<g clip-path="url(#clip2)">
<path d="M422.983 34.5232C422.538 34.63 422.073 34.4594 421.801 34.0914C419.362 30.7969 417.92 26.72 417.92 22.3062C417.92 11.3557 426.797 2.47852 437.748 2.47852C448.698 2.47852 457.575 11.3557 457.575 22.3062C457.575 26.7392 456.121 30.8323 453.662 34.1344C453.408 34.4755 452.977 34.6352 452.564 34.5357C448.035 33.4454 443.022 32.8397 437.748 32.8397C432.494 32.8397 427.499 33.4409 422.983 34.5232Z" fill="#7456FD"/>
<path d="M453.703 23.4432V23.9433C453.703 25.0379 452.816 25.9253 451.721 25.9253H423.775C422.68 25.9253 421.793 25.0379 421.793 23.9433V23.4432C421.793 22.3486 422.68 21.4612 423.775 21.4612H451.721C452.816 21.4612 453.703 22.3486 453.703 23.4432Z" fill="#F29500"/>
<path d="M452.154 13.3218V27.039C452.154 31.8681 448.239 35.7829 443.41 35.7829H432.086C427.257 35.7829 423.342 31.8681 423.342 27.039V4.80209H440.381L452.154 13.3218Z" fill="#C8E2FD"/>
<path d="M430.899 35.7029C426.631 35.1239 423.342 31.4656 423.342 27.039V4.80209H425.82V27.438C425.82 31.0478 427.886 34.1751 430.899 35.7029Z" fill="#A7D0FC"/>
<path d="M437.283 9.13945C437.283 9.35329 437.109 9.52671 436.896 9.52671H435.347C435.133 9.52671 434.959 9.35329 434.959 9.13945C434.959 8.92561 435.133 8.75219 435.347 8.75219H436.896C437.109 8.75219 437.283 8.92561 437.283 9.13945ZM435.847 6.99574C435.999 6.84447 435.999 6.59934 435.847 6.44807C435.696 6.29681 435.451 6.29681 435.3 6.44807L434.204 7.5434C434.053 7.69466 434.053 7.9398 434.204 8.09106C434.356 8.24232 434.601 8.24232 434.752 8.09106L435.847 6.99574ZM435.3 10.2818C435.148 10.1305 434.903 10.1305 434.752 10.2818C434.601 10.4331 434.601 10.6782 434.752 10.8295L435.847 11.9248C435.999 12.076 436.244 12.076 436.395 11.9248C436.546 11.7735 436.546 11.5284 436.395 11.3771L435.3 10.2818Z" fill="white"/>
<path d="M452.153 13.3218L440.111 11.9216C439.427 11.842 438.962 11.1879 439.111 10.5155L440.381 4.80209L452.153 13.3218Z" fill="#E9F3FE"/>
<path d="M433.422 15.4517C433.422 15.1309 433.682 14.8708 434.003 14.8708H441.493C441.814 14.8708 442.074 15.1309 442.074 15.4517C442.074 15.7725 441.814 16.0326 441.493 16.0326H434.003C433.682 16.0326 433.422 15.7725 433.422 15.4517ZM429.345 19.2082H446.152C446.472 19.2082 446.733 18.9481 446.733 18.6273C446.733 18.3065 446.472 18.0464 446.152 18.0464H429.345C429.024 18.0464 428.764 18.3065 428.764 18.6273C428.764 18.9481 429.024 19.2082 429.345 19.2082ZM446.152 22.9001H429.345C429.024 22.9001 428.764 23.1601 428.764 23.4809C428.764 23.8018 429.024 24.0618 429.345 24.0618H446.152C446.472 24.0618 446.733 23.8018 446.733 23.4809C446.733 23.1601 446.472 22.9001 446.152 22.9001ZM431.208 20.4732C430.887 20.4732 430.627 20.7333 430.627 21.0541C430.627 21.3749 430.887 21.635 431.208 21.635H444.288C444.609 21.635 444.869 21.3749 444.869 21.0541C444.869 20.7333 444.609 20.4732 444.288 20.4732H431.208ZM442.425 25.3269H433.071C432.751 25.3269 432.491 25.5869 432.491 25.9077C432.491 26.2286 432.751 26.4886 433.071 26.4886H442.425C442.746 26.4886 443.006 26.2286 443.006 25.9077C443.006 25.5869 442.746 25.3269 442.425 25.3269Z" fill="#86BEFB"/>
<path d="M433.411 8.28741C433.411 11.4955 430.81 14.0963 427.602 14.0963C424.394 14.0963 421.793 11.4955 421.793 8.28741C421.793 5.07927 424.394 2.47852 427.602 2.47852C430.81 2.47852 433.411 5.07927 433.411 8.28741Z" fill="#27AE60"/>
<path d="M433.41 8.28741C433.41 9.41542 433.089 10.4684 432.532 11.3595C431.641 11.916 430.588 12.2375 429.46 12.2375C426.252 12.2375 423.651 9.6367 423.651 6.42856C423.651 5.30055 423.973 4.24759 424.529 3.35643C425.42 2.80002 426.473 2.47852 427.601 2.47852C430.81 2.47852 433.41 5.07927 433.41 8.28741Z" fill="#28E176"/>
<path d="M425.184 37.6462C423.912 36.603 422.772 35.4047 421.793 34.0801V23.4434C421.793 23.4421 421.793 23.4407 421.793 23.4394L436.768 34.425C437.351 34.8532 438.145 34.8532 438.729 34.425L453.703 23.4394V23.4434V34.0801C452.724 35.4047 451.584 36.603 450.312 37.6462C446.891 40.4508 428.605 40.4508 425.184 37.6462Z" fill="#FFC14F"/>
<path d="M425.82 26.3941V37.3448C425.82 37.6702 425.442 37.8562 425.19 37.6506C425.188 37.6492 425.186 37.6477 425.184 37.6463C423.912 36.603 422.772 35.4047 421.793 34.0801V23.4434C421.794 23.4426 421.795 23.4425 421.796 23.4418L425.82 26.3941Z" fill="#FFB52D"/>
<path d="M450.311 37.646C446.891 40.4506 442.516 42.1338 437.747 42.1338C432.979 42.1338 428.604 40.4506 425.184 37.646L436.767 29.1483C437.35 28.7201 438.144 28.7201 438.728 29.1483L450.311 37.646Z" fill="#FFF04A"/>
<path d="M439.768 29.9113L427.224 39.1137C426.512 38.6671 425.831 38.1766 425.184 37.646L436.767 29.1483C437.35 28.7201 438.144 28.7201 438.728 29.1483L439.768 29.9113Z" fill="#FFEA06"/>
</g>
<g clip-path="url(#clip3)">
<path d="M315.705 18.3531C317.537 9.29653 325.542 2.47852 335.139 2.47852C344.46 2.47852 352.28 8.91121 354.399 17.5797C354.496 17.9735 354.195 18.3531 353.79 18.3531H315.705Z" fill="#5DB33A"/>
<path d="M315.897 17.5042H354.381C354.761 19.0311 354.964 20.6279 354.967 22.2717C354.985 33.123 346.191 42.0252 335.34 42.1329C330.046 42.1854 325.224 40.1627 321.639 36.8283C321.188 36.409 320.931 35.822 320.931 35.2064V25.889C320.931 22.8373 318.457 20.3634 315.405 20.3634C315.5 19.3879 315.666 18.4331 315.897 17.5042Z" fill="#5CA33B"/>
<path d="M347.841 13.0746V36.0926C347.841 36.5204 347.495 36.8672 347.067 36.8672H321.681C317.764 33.245 315.312 28.062 315.312 22.3062C315.312 21.2345 315.312 18.8133 315.312 18.5885V13.0746C315.312 11.0723 316.935 9.44919 318.937 9.44919H344.216C346.218 9.44919 347.841 11.0723 347.841 13.0746Z" fill="#C8E2FD"/>
<path d="M318.41 12.3923C317.982 12.3923 317.635 12.7391 317.635 13.1669V31.6281C316.152 28.8492 315.312 25.6759 315.312 22.3062C315.312 22.0468 315.312 13.1669 315.312 13.1669C315.312 12.7391 315.658 12.3923 316.086 12.3923H318.41Z" fill="#A7D0FC"/>
<path d="M319.727 18.1722C319.727 17.8514 319.987 17.5913 320.307 17.5913H335.112C335.433 17.5913 335.693 17.8514 335.693 18.1722C335.693 18.493 335.433 18.7531 335.112 18.7531H320.307C319.987 18.7531 319.727 18.493 319.727 18.1722ZM344.937 17.5913H338.73C338.409 17.5913 338.149 17.8514 338.149 18.1722C338.149 18.493 338.409 18.7531 338.73 18.7531H344.937C345.258 18.7531 345.518 18.493 345.518 18.1722C345.518 17.8514 345.258 17.5913 344.937 17.5913ZM320.307 20.9443H326.515C326.835 20.9443 327.096 20.6842 327.096 20.3634C327.096 20.0426 326.835 19.7825 326.515 19.7825H320.307C319.987 19.7825 319.727 20.0426 319.727 20.3634C319.727 20.6842 319.987 20.9443 320.307 20.9443ZM331.77 21.9738H320.307C319.987 21.9738 319.727 22.2339 319.727 22.5547C319.727 22.8755 319.987 23.1356 320.307 23.1356H331.77C332.091 23.1356 332.351 22.8755 332.351 22.5547C332.351 22.2339 332.091 21.9738 331.77 21.9738ZM326.397 24.1651H320.307C319.987 24.1651 319.727 24.4252 319.727 24.746C319.727 25.0668 319.987 25.3268 320.307 25.3268H326.397C326.718 25.3268 326.978 25.0668 326.978 24.746C326.978 24.4252 326.718 24.1651 326.397 24.1651ZM338.796 19.7825H330.133C329.812 19.7825 329.552 20.0426 329.552 20.3634C329.552 20.6842 329.812 20.9443 330.133 20.9443H338.796C339.117 20.9443 339.377 20.6842 339.377 20.3634C339.377 20.0426 339.117 19.7825 338.796 19.7825ZM320.329 31.4025C319.996 31.4025 319.727 31.6722 319.727 32.0049C319.727 32.3376 319.996 32.6073 320.329 32.6073C320.662 32.6073 320.931 32.3376 320.931 32.0049C320.931 31.6722 320.662 31.4025 320.329 31.4025ZM322.437 31.4025C322.105 31.4025 321.835 31.6722 321.835 32.0049C321.835 32.3376 322.105 32.6073 322.437 32.6073C322.77 32.6073 323.04 32.3376 323.04 32.0049C323.04 31.6722 322.77 31.4025 322.437 31.4025ZM324.546 31.4025C324.213 31.4025 323.943 31.6722 323.943 32.0049C323.943 32.3376 324.213 32.6073 324.546 32.6073C324.879 32.6073 325.148 32.3376 325.148 32.0049C325.148 31.6722 324.879 31.4025 324.546 31.4025Z" fill="#86BEFB"/>
<path d="M347.841 9.29428V13.1669H315.312V9.29428C315.312 8.43874 316.005 7.74524 316.861 7.74524H346.292C347.148 7.74524 347.841 8.43874 347.841 9.29428Z" fill="#76B6FA"/>
<path d="M319.184 7.74524C318.329 7.74524 317.635 8.43874 317.635 9.29428V13.1669H315.312V9.29428C315.312 8.43874 316.005 7.74524 316.861 7.74524H319.184Z" fill="#55A4F9"/>
<path d="M324.916 10.4576V10.4546C324.916 10.0277 325.262 9.68164 325.689 9.68164H345.83C346.256 9.68164 346.603 10.0277 346.603 10.4546V10.4576C346.603 10.8845 346.256 11.2306 345.83 11.2306H325.689C325.262 11.2306 324.916 10.8845 324.916 10.4576Z" fill="#FFF5F5"/>
<path d="M317.945 10.4561C317.945 10.8838 317.598 11.2306 317.17 11.2306C316.742 11.2306 316.396 10.8838 316.396 10.4561C316.396 10.0283 316.742 9.68155 317.17 9.68155C317.598 9.68155 317.945 10.0283 317.945 10.4561ZM319.881 9.68155C319.453 9.68155 319.106 10.0283 319.106 10.4561C319.106 10.8838 319.453 11.2306 319.881 11.2306C320.309 11.2306 320.655 10.8838 320.655 10.4561C320.655 10.0283 320.309 9.68155 319.881 9.68155ZM322.592 9.68155C322.164 9.68155 321.817 10.0283 321.817 10.4561C321.817 10.8838 322.164 11.2306 322.592 11.2306C323.019 11.2306 323.366 10.8838 323.366 10.4561C323.366 10.0283 323.019 9.68155 322.592 9.68155Z" fill="#1380E2"/>
<path d="M351.869 38.895H330.028C329.172 38.895 328.479 38.2015 328.479 37.346V22.3062C328.479 21.4507 329.172 20.7572 330.028 20.7572H351.869C352.725 20.7572 353.418 21.4507 353.418 22.3062V37.346C353.418 38.2014 352.725 38.895 351.869 38.895Z" fill="#7456FD"/>
<path d="M332.351 38.895H330.028C329.172 38.895 328.479 38.2015 328.479 37.346V22.3062C328.479 21.4507 329.172 20.7572 330.028 20.7572H332.351C331.496 20.7572 330.802 21.4507 330.802 22.3062V37.346C330.802 38.2014 331.496 38.895 332.351 38.895Z" fill="#684BEC"/>
<g style="mix-blend-mode:multiply">
<ellipse cx="343.566" cy="34.2028" rx="2.97416" ry="2.97415" fill="#B9B9B9"/>
</g>
<g style="mix-blend-mode:multiply">
<circle cx="348.027" cy="34.2028" r="2.97415" fill="#949494"/>
</g>
<rect x="329.687" y="24.289" width="22.8018" height="2.97416" fill="#3D019F"/>
</g>
<g clip-path="url(#clip4)">
<path d="M217.307 32.1259C217.016 32.4752 216.471 32.4569 216.212 32.0826C214 28.8837 212.704 25.0027 212.704 20.8191C212.704 9.86856 221.581 0.991409 232.532 0.991409C243.482 0.991409 252.359 9.86856 252.359 20.8191C252.359 25.0047 251.063 28.8873 248.849 32.0871C248.591 32.4591 248.05 32.4773 247.76 32.1301C244.123 27.7734 238.651 25.0015 232.532 25.0015C226.415 25.0015 220.944 27.7716 217.307 32.1259Z" fill="#FFB52D"/>
<path d="M248.487 19.1152C248.487 27.9269 241.344 35.0703 232.532 35.0703C223.72 35.0703 216.577 27.9269 216.577 19.1152C216.577 10.3034 223.72 3.16006 232.532 3.16006C241.344 3.16006 248.487 10.3034 248.487 19.1152Z" fill="#FFC14F"/>
<path d="M218.574 15.7073H217.025C216.811 15.7073 216.638 15.5339 216.638 15.32C216.638 15.1062 216.811 14.9328 217.025 14.9328H218.574C218.788 14.9328 218.961 15.1062 218.961 15.32C218.961 15.5339 218.788 15.7073 218.574 15.7073ZM219.716 14.2716C219.868 14.1204 219.868 13.8752 219.716 13.724L218.621 12.6286C218.47 12.4774 218.225 12.4774 218.073 12.6286C217.922 12.7799 217.922 13.025 218.073 13.1763L219.169 14.2716C219.32 14.4229 219.565 14.4229 219.716 14.2716ZM219.169 16.4624C219.017 16.3111 218.772 16.3111 218.621 16.4624L217.526 17.5577C217.374 17.7089 217.374 17.9541 217.526 18.1053C217.677 18.2566 217.922 18.2566 218.073 18.1053L219.169 17.01C219.32 16.8588 219.32 16.6135 219.169 16.4624ZM246.551 15.7073H248.1C248.314 15.7073 248.487 15.5339 248.487 15.32C248.487 15.1062 248.314 14.9328 248.1 14.9328H246.551C246.337 14.9328 246.163 15.1062 246.163 15.32C246.163 15.5339 246.337 15.7073 246.551 15.7073ZM245.956 14.2716L247.051 13.1763C247.203 13.025 247.203 12.7799 247.051 12.6286C246.9 12.4774 246.655 12.4774 246.504 12.6286L245.408 13.724C245.257 13.8752 245.257 14.1204 245.408 14.2716C245.56 14.4229 245.805 14.4229 245.956 14.2716ZM245.956 17.01L247.051 18.1053C247.203 18.2566 247.448 18.2566 247.599 18.1053C247.75 17.9541 247.75 17.7089 247.599 17.5577L246.504 16.4624C246.352 16.3111 246.107 16.3111 245.956 16.4624C245.805 16.6135 245.805 16.8588 245.956 17.01Z" fill="#FFF5F5"/>
<path d="M219.487 35.752C218.223 34.647 217.101 33.3839 216.15 31.9937V23.0652C216.15 22.4236 216.671 21.9034 217.312 21.9034H226.645V32.4826C226.645 36.1888 222.277 38.1914 219.487 35.752Z" fill="#51489A"/>
<path d="M248.913 23.1699V31.9938C248.014 33.3102 246.959 34.5127 245.777 35.5749C242.266 38.7284 225.004 36.2179 224.763 34.4205C224.626 33.3936 224.555 32.3434 224.555 31.2751C224.555 27.9173 225.257 24.7385 226.51 21.9034H247.752C248.393 21.9034 248.913 22.4704 248.913 23.1699Z" fill="#6A61B4"/>
<path d="M245.776 34.683V35.5749C245.248 36.0491 244.694 36.4953 244.118 36.9113C243.96 37.0248 243.77 37.0841 243.576 37.0841H221.507C221.295 37.0841 221.089 37.0156 220.918 36.8915C220.351 36.481 219.807 36.0415 219.287 35.5749V34.683C219.287 34.0414 219.807 33.5212 220.449 33.5212H244.614C245.256 33.5212 245.776 34.0414 245.776 34.683Z" fill="#0A3575"/>
<path d="M245.776 24.6142V26.1633C245.776 26.8049 245.256 27.3251 244.614 27.3251H220.449C219.807 27.3251 219.287 26.8049 219.287 26.1633V24.6142C219.287 23.9726 219.807 23.4525 220.449 23.4525H244.614C245.256 23.4525 245.776 23.9726 245.776 24.6142Z" fill="#0A3575"/>
<path d="M244.15 36.8883C240.885 39.2528 236.871 40.6468 232.532 40.6468C228.193 40.6468 224.179 39.2528 220.914 36.8883C220.914 36.1582 221.506 35.5662 222.236 35.5662H242.828C243.558 35.5662 244.15 36.1582 244.15 36.8883Z" fill="#A7D0FC"/>
<path d="M244.15 35.0703V36.8884C243.91 37.0622 243.666 37.2306 243.418 37.3938H221.646C221.398 37.2307 221.154 37.0622 220.914 36.8884V35.0703H244.15Z" fill="#76B6FA"/>
<path d="M228.659 29.3001C228.659 28.9793 228.919 28.7192 229.24 28.7192H235.823C236.144 28.7192 236.404 28.9793 236.404 29.3001C236.404 29.6209 236.144 29.881 235.823 29.881H229.24C228.919 29.881 228.659 29.6209 228.659 29.3001ZM235.823 31.0427H229.24C228.919 31.0427 228.659 31.3028 228.659 31.6236C228.659 31.9444 228.919 32.2045 229.24 32.2045H235.823C236.144 32.2045 236.404 31.9444 236.404 31.6236C236.404 31.3028 236.144 31.0427 235.823 31.0427Z" fill="#453D83"/>
<path d="M239.469 29.3216C239.469 29.6543 239.199 29.924 238.866 29.924C238.533 29.924 238.264 29.6543 238.264 29.3216C238.264 28.9889 238.533 28.7192 238.866 28.7192C239.199 28.7192 239.469 28.9889 239.469 29.3216Z" fill="#C8E2FD"/>
<path d="M241.577 29.3216C241.577 29.6543 241.307 29.924 240.974 29.924C240.642 29.924 240.372 29.6543 240.372 29.3216C240.372 28.9889 240.642 28.7192 240.974 28.7192C241.307 28.7192 241.577 28.9889 241.577 29.3216ZM243.083 28.7192C242.75 28.7192 242.48 28.9889 242.48 29.3216C242.48 29.6543 242.75 29.924 243.083 29.924C243.416 29.924 243.685 29.6543 243.685 29.3216C243.685 28.9889 243.416 28.7192 243.083 28.7192Z" fill="#FFF5F5"/>
<path d="M244.149 3.70226V25.3888C244.149 25.6026 243.976 25.7761 243.762 25.7761H222.385C222.171 25.7761 221.998 25.6026 221.998 25.3888V3.70226C221.998 3.48842 222.171 3.315 222.385 3.315H243.762C243.976 3.315 244.149 3.48842 244.149 3.70226Z" fill="#E9F3FE"/>
<path d="M223.16 25.7761H221.301C221.087 25.7761 220.914 25.5898 220.914 25.3601V3.73092C220.914 3.5012 221.087 3.315 221.301 3.315H223.16V25.7761Z" fill="#C8E2FD"/>
<path d="M225.019 13.2675C225.019 12.9467 225.279 12.6866 225.599 12.6866H239.463C239.784 12.6866 240.044 12.9467 240.044 13.2675C240.044 13.5883 239.784 13.8484 239.463 13.8484H225.599C225.279 13.8484 225.019 13.5883 225.019 13.2675ZM230.258 10.6729H234.805C235.126 10.6729 235.386 10.4128 235.386 10.092C235.386 9.77119 235.126 9.51111 234.805 9.51111H230.258C229.937 9.51111 229.677 9.77119 229.677 10.092C229.677 10.4128 229.937 10.6729 230.258 10.6729ZM235.736 19.9671H229.326C229.005 19.9671 228.745 20.2272 228.745 20.548C228.745 20.8688 229.005 21.1289 229.326 21.1289H235.736C236.057 21.1289 236.317 20.8688 236.317 20.548C236.317 20.2272 236.057 19.9671 235.736 19.9671ZM239.463 17.5403H225.599C225.279 17.5403 225.019 17.8004 225.019 18.1212C225.019 18.442 225.279 18.7021 225.599 18.7021H239.463C239.784 18.7021 240.044 18.442 240.044 18.1212C240.044 17.8004 239.784 17.5403 239.463 17.5403ZM227.463 15.1134C227.142 15.1134 226.882 15.3735 226.882 15.6943C226.882 16.0151 227.142 16.2752 227.463 16.2752H237.6C237.921 16.2752 238.181 16.0151 238.181 15.6943C238.181 15.3735 237.921 15.1134 237.6 15.1134H227.463Z" fill="#A7D0FC"/>
</g>
<defs>
<clipPath id="clip0">
<rect width="39.6554" height="39.6554" fill="white" transform="translate(7.4873)"/>
</clipPath>
<clipPath id="clip1">
<rect width="39.6554" height="39.6554" fill="white" transform="translate(110.096)"/>
</clipPath>
<clipPath id="clip2">
<rect width="39.6554" height="39.6554" fill="white" transform="translate(417.92 2.47852)"/>
</clipPath>
<clipPath id="clip3">
<rect width="39.6554" height="39.6554" fill="white" transform="translate(315.312 2.47852)"/>
</clipPath>
<clipPath id="clip4">
<rect width="39.6554" height="39.6554" fill="white" transform="translate(212.704 0.991409)"/>
</clipPath>
</defs>
</svg>
