<svg width="303" height="241" viewBox="0 0 303 241" fill="none" xmlns="http://www.w3.org/2000/svg">
<path d="M303 0H0V241H303V0Z" fill="white"/>
<path d="M265.589 135.304C263.456 139.341 260.774 142.548 258.031 145.853C257.153 146.902 256.251 147.926 255.301 148.914C254.874 149.353 254.459 149.792 254.033 150.231C248.608 155.841 242.135 160.231 235.065 162.914C234.833 162.999 234.614 163.085 234.382 163.17C227.714 165.56 220.973 167.329 213.927 167.719C206.759 168.414 199.542 168.39 192.106 168.243C191.156 168.219 190.205 168.231 189.242 168.28C186.182 168.402 183.317 168.548 180.453 169.073C169.018 170.634 159.51 176.548 151.05 184.231C146.82 188.073 142.846 192.353 139.018 196.719C127.84 212.316 112.712 226.597 94.5481 229.56C90.9154 230.158 87.1609 230.292 83.2966 229.89C61.3298 229.06 42.0692 213.695 34.7551 193.207C29.1476 177.719 35.4865 162.231 38.4122 146.499C38.8998 143.816 39.1436 141.134 38.0587 138.573C37.0347 135.621 35.8278 132.694 34.6088 129.78C30.9396 121.024 27.0753 112.292 27.8067 102.597C28.9038 90.1579 33.7799 77.8408 43.7759 69.6701C59.6232 56.4994 80.1027 60.5238 98.7538 58.8165C109.115 57.8408 117.283 51.7433 124.597 45.1823C127.145 43.1213 129.668 41.0604 132.204 38.9994C134.837 36.6701 137.58 34.4384 140.396 32.3408C143.211 30.2311 146.113 28.2555 149.087 26.4384C167.043 15.475 187.864 7.51157 207.295 10.3164C281.9 21.0847 279.73 108.512 265.589 135.304Z" fill="#BEEAF0"/>
<path d="M126.388 26.0727C126.815 30.9264 124.718 35.5484 121 39.0849C117.27 42.6337 111.906 45.1703 105.762 45.9874C99.6184 46.8288 93.8525 46.0118 89.5371 43.963C85.234 41.9142 82.3327 38.1215 81.8695 32.8045C81.6379 30.1459 82.0523 27.4264 83.0154 24.8776C83.9784 22.3288 85.4778 19.9996 87.3795 17.9874C91.1828 13.9874 96.5831 11.2313 102.715 10.5849C108.846 9.9386 114.551 11.402 118.83 14.2191C123.097 17.0484 125.961 21.2191 126.388 26.0727Z" fill="#BEEAF0"/>
<path d="M165.877 215.945C170.557 214.066 173.132 209.507 171.63 205.763C170.127 202.019 165.116 200.508 160.436 202.388C155.756 204.267 153.181 208.826 154.684 212.57C156.186 216.314 161.198 217.825 165.877 215.945Z" fill="#BEEAF0"/>
<path d="M150.993 221.894C153.526 220.37 154.497 217.334 153.162 215.111C151.826 212.889 148.69 212.322 146.157 213.845C143.624 215.369 142.653 218.405 143.988 220.628C145.324 222.85 148.46 223.417 150.993 221.894Z" fill="#BEEAF0"/>
<path d="M159.461 207.573C217.831 207.573 265.15 205.678 265.15 203.341C265.15 201.004 217.831 199.109 159.461 199.109C101.09 199.109 53.7715 201.004 53.7715 203.341C53.7715 205.678 101.09 207.573 159.461 207.573Z" fill="#9BD5DB"/>
<path d="M175.819 201.341H127.168L133.909 163.219H169.09L175.819 201.341Z" fill="#CFCFCF"/>
<path opacity="0.74" d="M174.21 192.89H128.789L134.47 163.707H168.529L174.21 192.89Z" fill="#CFCFCF"/>
<path d="M163.531 194.499H139.468C137.615 194.499 136.201 192.816 136.53 190.999L140.224 170.072H162.776L166.469 190.999C166.798 192.816 165.384 194.499 163.531 194.499Z" fill="white"/>
<path d="M188.192 202.268H114.795C114.795 200.524 116.209 199.109 117.952 199.109H185.023C186.778 199.097 188.192 200.512 188.192 202.268Z" fill="#48404E"/>
<path d="M55.2819 182.707H247.729C250.606 182.707 252.946 180.366 252.946 177.488V62.7195C252.946 59.8415 250.606 57.5 247.729 57.5H55.2819C52.405 57.5 50.0645 59.8415 50.0645 62.7195V177.488C50.0645 180.378 52.3928 182.707 55.2819 182.707Z" fill="#48404E"/>
<path opacity="0.14" d="M126.766 174.146H176.233" stroke="white" stroke-width="11" stroke-miterlimit="10" stroke-linecap="round"/>
<path d="M253.677 50.7446L253.604 43.6836" stroke="#A16CF0" stroke-width="2" stroke-miterlimit="10" stroke-linecap="square"/>
<path d="M257.809 52.3784L265.147 44.8906" stroke="#A16CF0" stroke-width="2" stroke-miterlimit="10" stroke-linecap="square"/>
<path d="M259.783 56.8789H266.829" stroke="#A16CF0" stroke-width="2" stroke-miterlimit="10" stroke-linecap="square"/>
<path opacity="0.29" d="M237.672 57.5117H78.6016V172.756H237.672V57.5117Z" fill="#0B6770"/>
<path d="M230.613 42.9863H72.3965V166.596H230.613V42.9863Z" fill="#F7F7F7"/>
<path d="M230.564 38.1211H72.3477V53.7308H230.564V38.1211Z" fill="#7181BF"/>
<g opacity="0.33">
<path opacity="0.33" d="M81.7832 45.8416C81.7832 46.805 81.003 47.5855 80.04 47.5855C79.077 47.5855 78.2969 46.805 78.2969 45.8416C78.2969 44.8781 79.077 44.0977 80.04 44.0977C81.003 44.0977 81.7832 44.8781 81.7832 45.8416Z" fill="white"/>
<path opacity="0.33" d="M87.1719 45.8298C87.1719 46.7932 86.3918 47.5737 85.4287 47.5737C84.4657 47.5737 83.6855 46.7932 83.6855 45.8298C83.6855 44.8664 84.4657 44.0859 85.4287 44.0859C86.3918 44.0859 87.1719 44.8664 87.1719 45.8298Z" fill="white"/>
<path opacity="0.33" d="M92.516 46.1914C92.7192 45.25 92.1209 44.322 91.1799 44.1188C90.2388 43.9156 89.3112 44.514 89.1081 45.4555C88.9049 46.397 89.5031 47.3249 90.4442 47.5281C91.3853 47.7313 92.3129 47.1329 92.516 46.1914Z" fill="white"/>
</g>
<path opacity="0.33" d="M123.486 45.6206L179.513 45.584" stroke="white" stroke-width="14.0928" stroke-miterlimit="10" stroke-linecap="square"/>
<path opacity="0.33" d="M168.578 63.5483L219.692 63.5117" stroke="#C1A8DB" stroke-width="21.5495" stroke-miterlimit="10" stroke-linecap="square"/>
<path opacity="0.33" d="M195.506 69.9263L219.691 69.9141" stroke="#C1A8DB" stroke-width="21.5495" stroke-miterlimit="10" stroke-linecap="square"/>
<path opacity="0.33" d="M83.3066 63.622L105.005 63.5977" stroke="#C1A8DB" stroke-width="21.5495" stroke-miterlimit="10" stroke-linecap="square"/>
<path d="M120.145 155.986L85.1472 156.011C83.5137 156.011 82.1972 154.694 82.1972 153.059L82.1484 82.4619C82.1484 80.8278 83.465 79.5107 85.0985 79.5107L120.097 79.4863C121.73 79.4863 123.047 80.8034 123.047 82.4375L123.095 153.035C123.095 154.657 121.779 155.986 120.145 155.986Z" fill="#E7E1ED"/>
<path d="M169.028 155.951L134.03 155.976C132.397 155.976 131.08 154.659 131.08 153.024L131.031 82.4268C131.031 80.7926 132.348 79.4756 133.981 79.4756L168.979 79.4512C170.613 79.4512 171.929 80.7682 171.929 82.4024L171.978 153C171.978 154.622 170.649 155.951 169.028 155.951Z" fill="#E7E1ED"/>
<path d="M217.899 155.914L182.901 155.938C181.268 155.938 179.951 154.621 179.951 152.987L179.902 82.3897C179.902 80.7555 181.219 79.4385 182.852 79.4385L217.851 79.4141C219.484 79.4141 220.801 80.7311 220.801 82.3653L220.849 152.963C220.849 154.585 219.533 155.914 217.899 155.914Z" fill="#E7E1ED"/>
<path opacity="0.11" d="M210.122 155.866L108.797 155.891L109.004 29.7811L210.329 29.6348L210.122 155.866Z" fill="#363636"/>
<path d="M202.658 17.7049L100.541 17.5391L100.329 147.99L202.447 148.156L202.658 17.7049Z" fill="#F7F7F7"/>
<path d="M114.83 51L135.31 51.0244" stroke="#D4D4D4" stroke-width="2" stroke-miterlimit="10" stroke-linecap="square"/>
<path d="M141.076 51.0371L160.593 51.0737" stroke="#D4D4D4" stroke-width="2" stroke-miterlimit="10" stroke-linecap="square"/>
<path d="M160.594 51.0723L188.29 51.1089" stroke="#D4D4D4" stroke-width="2" stroke-miterlimit="10" stroke-linecap="square"/>
<path d="M114.818 59.9141L143.746 59.9628" stroke="#D4D4D4" stroke-width="2" stroke-miterlimit="10" stroke-linecap="square"/>
<path d="M149.549 59.9766L176.501 60.0131" stroke="#D4D4D4" stroke-width="2" stroke-miterlimit="10" stroke-linecap="square"/>
<path d="M181.219 60.0234L188.277 60.0356" stroke="#D4D4D4" stroke-width="2" stroke-miterlimit="10" stroke-linecap="square"/>
<path d="M114.807 68.8418L142.478 68.8906" stroke="#D4D4D4" stroke-width="2" stroke-miterlimit="10" stroke-linecap="square"/>
<path d="M148.549 68.8906L154.985 68.9028" stroke="#D4D4D4" stroke-width="2" stroke-miterlimit="10" stroke-linecap="square"/>
<path d="M152.986 68.9023L188.265 68.9633" stroke="#D4D4D4" stroke-width="2" stroke-miterlimit="10" stroke-linecap="square"/>
<path d="M114.795 77.7676L135.262 77.792" stroke="#D4D4D4" stroke-width="2" stroke-miterlimit="10" stroke-linecap="square"/>
<path d="M126.996 77.7812L154.973 77.83" stroke="#D4D4D4" stroke-width="2" stroke-miterlimit="10" stroke-linecap="square"/>
<path d="M160.557 77.8418L188.253 77.8784" stroke="#D4D4D4" stroke-width="2" stroke-miterlimit="10" stroke-linecap="square"/>
<path d="M114.781 86.6836L125.009 86.708" stroke="#D4D4D4" stroke-width="2" stroke-miterlimit="10" stroke-linecap="square"/>
<path d="M131.629 86.7188L148.512 86.7431" stroke="#D4D4D4" stroke-width="2" stroke-miterlimit="10" stroke-linecap="square"/>
<path d="M154.01 86.7559L188.228 86.8046" stroke="#D4D4D4" stroke-width="2" stroke-miterlimit="10" stroke-linecap="square"/>
<path d="M114.77 95.6094L135.237 95.646" stroke="#D4D4D4" stroke-width="2" stroke-miterlimit="10" stroke-linecap="square"/>
<path d="M141.004 95.6465L164.129 95.6953" stroke="#D4D4D4" stroke-width="2" stroke-miterlimit="10" stroke-linecap="square"/>
<path d="M160.52 95.6836L188.216 95.7324" stroke="#D4D4D4" stroke-width="2" stroke-miterlimit="10" stroke-linecap="square"/>
<path d="M114.746 104.537L135.226 104.561" stroke="#D4D4D4" stroke-width="2" stroke-miterlimit="10" stroke-linecap="square"/>
<path d="M126.24 104.549L144.27 104.585" stroke="#D4D4D4" stroke-width="2" stroke-miterlimit="10" stroke-linecap="square"/>
<path d="M149.049 104.586L188.204 104.647" stroke="#D4D4D4" stroke-width="2" stroke-miterlimit="10" stroke-linecap="square"/>
<path d="M114.734 113.451L135.214 113.488" stroke="#D4D4D4" stroke-width="2" stroke-miterlimit="10" stroke-linecap="square"/>
<path d="M140.979 113.5L162.945 113.537" stroke="#D4D4D4" stroke-width="2" stroke-miterlimit="10" stroke-linecap="square"/>
<path d="M160.496 113.523L188.192 113.572" stroke="#D4D4D4" stroke-width="2" stroke-miterlimit="10" stroke-linecap="square"/>
<path d="M114.721 122.379L135.2 122.415" stroke="#D4D4D4" stroke-width="2" stroke-miterlimit="10" stroke-linecap="square"/>
<path d="M128.021 122.402L154.901 122.439" stroke="#D4D4D4" stroke-width="2" stroke-miterlimit="10" stroke-linecap="square"/>
<path d="M160.484 122.451L188.18 122.5" stroke="#D4D4D4" stroke-width="2" stroke-miterlimit="10" stroke-linecap="square"/>
<path d="M114.709 131.305L135.176 131.329" stroke="#D4D4D4" stroke-width="2" stroke-miterlimit="10" stroke-linecap="square"/>
<path d="M140.941 131.342L162.908 131.378" stroke="#D4D4D4" stroke-width="2" stroke-miterlimit="10" stroke-linecap="square"/>
<path d="M114.28 42V30.64H118.312C119.229 30.64 120.029 30.7893 120.712 31.088C121.405 31.3867 121.981 31.792 122.44 32.304C122.909 32.816 123.261 33.4187 123.496 34.112C123.731 34.7947 123.848 35.5253 123.848 36.304C123.848 37.168 123.715 37.952 123.448 38.656C123.192 39.3493 122.824 39.9467 122.344 40.448C121.864 40.9387 121.283 41.3227 120.6 41.6C119.917 41.8667 119.155 42 118.312 42H114.28ZM122.024 36.304C122.024 35.7067 121.939 35.1573 121.768 34.656C121.608 34.1547 121.368 33.728 121.048 33.376C120.728 33.0133 120.339 32.7307 119.88 32.528C119.421 32.3253 118.899 32.224 118.312 32.224H116.072V40.416H118.312C118.909 40.416 119.437 40.3147 119.896 40.112C120.365 39.8987 120.755 39.6107 121.064 39.248C121.384 38.8747 121.624 38.4373 121.784 37.936C121.944 37.4347 122.024 36.8907 122.024 36.304ZM131.203 42.08C130.392 42.08 129.651 41.92 128.979 41.6C128.318 41.2693 127.747 40.8373 127.267 40.304C126.787 39.76 126.414 39.1413 126.147 38.448C125.891 37.7547 125.763 37.0453 125.763 36.32C125.763 35.5627 125.902 34.8373 126.179 34.144C126.456 33.4507 126.835 32.8373 127.315 32.304C127.806 31.7707 128.382 31.3493 129.043 31.04C129.715 30.72 130.446 30.56 131.235 30.56C132.046 30.56 132.782 30.7307 133.443 31.072C134.115 31.4027 134.686 31.84 135.155 32.384C135.635 32.928 136.003 33.5467 136.259 34.24C136.526 34.9227 136.659 35.6213 136.659 36.336C136.659 37.0933 136.52 37.8187 136.243 38.512C135.976 39.2053 135.598 39.8187 135.107 40.352C134.616 40.8747 134.035 41.296 133.363 41.616C132.702 41.9253 131.982 42.08 131.203 42.08ZM127.587 36.32C127.587 36.8533 127.672 37.3707 127.843 37.872C128.014 38.3733 128.254 38.816 128.563 39.2C128.883 39.584 129.267 39.8933 129.715 40.128C130.163 40.352 130.664 40.464 131.219 40.464C131.795 40.464 132.302 40.3467 132.739 40.112C133.187 39.8667 133.566 39.5467 133.875 39.152C134.184 38.7573 134.419 38.3147 134.579 37.824C134.739 37.3333 134.819 36.832 134.819 36.32C134.819 35.776 134.734 35.2587 134.563 34.768C134.392 34.2667 134.147 33.8293 133.827 33.456C133.518 33.072 133.139 32.768 132.691 32.544C132.254 32.3093 131.763 32.192 131.219 32.192C130.643 32.192 130.131 32.3147 129.683 32.56C129.235 32.7947 128.856 33.104 128.547 33.488C128.238 33.872 127.998 34.3147 127.827 34.816C127.667 35.3067 127.587 35.808 127.587 36.32Z" fill="#D4D4D4"/>
<g clip-path="url(#clip0)">
<path d="M262.789 190.757C267.956 182.232 270.93 172.23 270.93 161.534C270.93 130.349 245.65 105.068 214.465 105.068C203.271 105.068 192.838 108.326 184.061 113.945L174.293 190.757H262.789Z" fill="#FFDD40"/>
<path d="M173.963 193.35L173.119 199.984C174.759 201.747 176.508 203.405 178.359 204.946L183.582 208.809C192.458 214.618 203.066 217.999 214.465 217.999C233.848 217.999 250.948 208.231 261.116 193.35H173.963Z" fill="#56E28F"/>
<path d="M223.838 149.665V139.832H241.341C243.879 139.832 246.284 140.965 247.899 142.923L253.464 149.665H223.838Z" fill="#D3DCFB"/>
<path d="M234.269 149.042C230.984 144.486 233.243 141.244 234.196 140.196C234.291 140.092 234.345 139.964 234.362 139.832H223.838V149.665H234.35C234.426 149.459 234.401 149.225 234.269 149.042Z" fill="#BEC8F7"/>
<path d="M275.188 193.349V180.897C275.188 180.18 275.062 179.47 274.815 178.797C274.458 177.826 273.843 176.237 272.96 174.244C272.79 175.015 272.103 175.593 271.282 175.593H263.946C262.998 175.593 262.227 174.822 262.227 173.874V171.861H243.49C242.688 171.861 241.907 171.579 241.29 171.067L233.898 164.926C233.558 164.644 233.364 164.229 233.364 163.788V157.078C233.364 156.262 234.027 155.599 234.843 155.599H261.614C260.287 154.004 258.86 152.448 257.326 150.977C256.289 149.981 254.902 149.434 253.464 149.434H223.838V193.348H275.188V193.349Z" fill="#E9EFFF"/>
<path d="M243.389 186.075C240.115 182.801 242.417 180.177 243.173 179.47C243.31 179.341 243.389 179.163 243.389 178.976V176.091C243.389 175.929 243.332 175.77 243.223 175.65C241.896 174.181 242.632 173.034 243.138 172.514C243.31 172.337 243.367 172.084 243.297 171.855C242.563 171.813 241.857 171.54 241.29 171.068L233.898 164.928C233.559 164.646 233.364 164.231 233.364 163.79V157.08C233.364 156.264 234.028 155.601 234.843 155.601H235.019L234.888 155.343C234.858 155.285 234.818 155.23 234.772 155.183C232.576 152.917 233.689 150.679 234.277 149.812C234.354 149.698 234.392 149.567 234.393 149.436H223.838V193.35H243.498C244.307 189.942 244.483 187.169 243.389 186.075Z" fill="#D3DCFB"/>
<path d="M246.385 179.281H243.389C242.434 179.281 241.66 178.508 241.66 177.553C241.66 176.598 242.434 175.824 243.389 175.824H246.385C247.339 175.824 248.113 176.598 248.113 177.553C248.113 178.508 247.339 179.281 246.385 179.281Z" fill="#BEC8F7"/>
<path d="M223.838 192.889V199.984H268.989C270.186 199.984 271.336 199.522 272.201 198.695L274.028 196.946C274.769 196.237 275.188 195.256 275.188 194.23V192.889H223.838Z" fill="#D3DCFB"/>
<path d="M243.603 192.889H223.836V199.984H241.477C242.351 197.521 243.116 195.062 243.603 192.889Z" fill="#BEC8F7"/>
<path d="M244.888 214.541C252.928 214.541 259.446 208.024 259.446 199.984C259.446 191.944 252.928 185.426 244.888 185.426C236.848 185.426 230.33 191.944 230.33 199.984C230.33 208.024 236.848 214.541 244.888 214.541Z" fill="#2A428C"/>
<path d="M250.899 186.727C250.8 186.774 246.355 188.955 248.474 193.863C250.618 198.826 251.982 199.984 251.982 199.984C251.982 199.984 255.557 203.87 259.444 199.984C259.444 194.089 255.938 189.016 250.899 186.727Z" fill="#4B6BB2"/>
<path d="M250.449 205.439C250.383 204.864 249.943 204.403 249.369 204.323C241.996 203.303 241.478 197.148 241.573 194.684C241.595 194.114 241.223 193.611 240.681 193.43C237.804 192.468 237.575 189.688 237.671 188.214C237.688 187.939 237.614 187.677 237.474 187.457C233.198 189.993 230.33 194.653 230.33 199.985C230.33 208.025 236.848 214.543 244.888 214.543C249.155 214.543 252.993 212.707 255.656 209.782C251.526 209.781 250.629 206.99 250.449 205.439Z" fill="#1C2E7A"/>
<path d="M244.887 207.08C248.806 207.08 251.982 203.903 251.982 199.984C251.982 196.066 248.806 192.889 244.887 192.889C240.968 192.889 237.791 196.066 237.791 199.984C237.791 203.903 240.968 207.08 244.887 207.08Z" fill="#E9EFFF"/>
<path d="M250.144 204.75C249.95 204.524 249.68 204.366 249.368 204.322C241.995 203.302 241.477 197.147 241.572 194.683C241.584 194.377 241.479 194.092 241.298 193.863C239.2 195.096 237.791 197.375 237.791 199.984C237.791 203.903 240.968 207.08 244.887 207.08C246.971 207.08 248.846 206.181 250.144 204.75Z" fill="#D3DCFB"/>
<path d="M274.149 195.011H270.361C269.343 195.011 268.51 194.178 268.51 193.159V183.553C268.51 182.534 269.343 181.701 270.361 181.701H274.149C275.167 181.701 276 182.534 276 183.553V193.159C276 194.178 275.167 195.011 274.149 195.011Z" fill="#FFDD40"/>
<path d="M274.149 188.355H270.361C269.343 188.355 268.51 187.522 268.51 186.504V193.159C268.51 194.177 269.343 195.01 270.361 195.01H274.149C275.167 195.01 276 194.177 276 193.159V186.504C276 187.522 275.167 188.355 274.149 188.355Z" fill="#FFB332"/>
<path d="M263.945 168.821H270.334C268.125 164.624 265.138 159.767 261.326 155.254H234.842C233.835 155.254 233.018 156.071 233.018 157.079V163.789C233.018 164.332 233.259 164.846 233.676 165.193L241.068 171.333C241.749 171.898 242.605 172.208 243.489 172.208H262.226V170.54C262.226 169.592 262.997 168.821 263.945 168.821Z" fill="#73C3F9"/>
<path d="M258.52 158.763C259.673 161.702 262.554 168.962 262.554 168.962C262.554 168.962 262.863 169.791 263.608 170.611V170.54C263.608 169.593 264.38 168.821 265.327 168.821H270.333C268.125 164.624 265.138 159.767 261.325 155.254H260.355C260.352 155.254 257.368 155.826 258.52 158.763Z" fill="#9BD8F9"/>
<path d="M271.282 175.941H263.946C262.81 175.941 261.881 175.012 261.881 173.876V170.542C261.881 169.406 262.81 168.477 263.946 168.477H271.282C272.417 168.477 273.347 169.406 273.347 170.542V173.876C273.347 175.012 272.417 175.941 271.282 175.941Z" fill="#4B6BB2"/>
<path d="M267.614 173.874V170.54C267.614 169.404 268.543 168.475 269.679 168.475H263.946C262.81 168.475 261.881 169.404 261.881 170.54V173.874C261.881 175.01 262.81 175.939 263.946 175.939H269.679C268.543 175.939 267.614 175.01 267.614 173.874Z" fill="#2A428C"/>
<path d="M173.119 199.984H224.067V185.195H163.186C165.708 190.652 169.074 195.636 173.119 199.984Z" fill="#3C58A0"/>
<path d="M173.119 199.985H181.062V198.594C176.059 189.855 184.061 185.428 184.061 185.428C183.984 185.35 183.914 185.274 183.843 185.197H163.186C165.708 190.653 169.074 195.638 173.119 199.985Z" fill="#2A428C"/>
<path d="M184.062 113.945C181.199 115.778 178.514 117.863 176.035 120.167L176.037 120.168L160.826 179.196C161.529 181.331 162.352 183.413 163.294 185.427H224.068V113.945H184.062Z" fill="#73C3F9"/>
<path d="M180.458 124.517C180.458 121.291 184.062 120.168 184.062 120.168C180.386 116.492 184.062 113.945 184.062 113.945C181.199 115.778 178.514 117.863 176.035 120.167L176.037 120.168L160.826 179.196C161.529 181.331 162.352 183.413 163.294 185.427H184.062C180.548 181.913 184.062 179.204 184.062 179.204C180.329 177.657 180.458 173.684 180.458 173.684C180.458 173.684 180.458 127.744 180.458 124.517Z" fill="#4FABF7"/>
<path d="M215.962 120.168H176.037C164.943 130.479 158 145.194 158 161.534C158 167.706 158.994 173.645 160.824 179.204H215.962C217.002 179.204 217.845 178.361 217.845 177.321V122.051C217.845 121.011 217.002 120.168 215.962 120.168Z" fill="#4FABF7"/>
<path d="M180.458 173.684C180.458 173.684 180.458 127.744 180.458 124.517C180.458 121.291 184.062 120.168 184.062 120.168H176.037C164.943 130.479 158 145.194 158 161.534C158 167.706 158.994 173.645 160.824 179.204H184.062C180.329 177.657 180.458 173.684 180.458 173.684Z" fill="#1886EA"/>
<path d="M218.614 198.254C217.659 198.254 216.885 199.028 216.885 199.982V204.314C216.885 204.876 216.41 205.351 215.848 205.351H182.805C182.243 205.351 181.768 204.876 181.768 204.314V199.982C181.768 199.028 180.994 198.254 180.039 198.254C179.084 198.254 178.311 199.028 178.311 199.982V204.314C178.311 204.529 178.331 204.738 178.36 204.945C180.023 206.33 181.767 207.619 183.584 208.808H215.848C218.327 208.808 220.343 206.792 220.343 204.314V199.982C220.343 199.028 219.569 198.254 218.614 198.254Z" fill="#4B6BB2"/>
<path d="M199.326 208.808C198.372 208.808 197.598 208.035 197.598 207.08V199.982C197.598 199.028 198.372 198.254 199.326 198.254C200.281 198.254 201.055 199.028 201.055 199.982V207.08C201.055 208.034 200.281 208.808 199.326 208.808Z" fill="#4B6BB2"/>
<path d="M248.113 155.254H234.842C233.835 155.254 233.018 156.071 233.018 157.079V163.789C233.018 164.332 233.259 164.846 233.676 165.193L241.068 171.333C241.749 171.898 242.605 172.208 243.489 172.208H254.919C251.521 172.207 250.311 168.962 250.311 168.962C250.311 168.962 247.431 161.702 246.278 158.763C245.126 155.825 248.113 155.254 248.113 155.254Z" fill="#4FABF7"/>
<path d="M218.56 198.255C217.614 198.283 216.884 199.108 216.884 200.055V204.314C216.884 204.885 216.418 205.351 215.847 205.351H209.766C208.811 205.351 208.037 206.125 208.037 207.08C208.037 208.034 208.811 208.808 209.766 208.808H215.847C218.329 208.808 220.341 206.796 220.341 204.314V199.983C220.341 199.01 219.539 198.225 218.56 198.255Z" fill="#638ACE"/>
</g>
<path d="M193 107.5C193 122.688 180.688 135 165.5 135C150.312 135 138 122.688 138 107.5C138 92.3123 150.312 80 165.5 80C180.688 80 193 92.3123 193 107.5Z" fill="#27AE60"/>
<path d="M193 107.381C193 112.698 191.485 117.661 188.862 121.862C184.661 124.485 179.698 126 174.381 126C159.259 126 147 113.741 147 98.619C147 93.302 148.515 88.3388 151.138 84.1382C155.339 81.5154 160.302 80 165.619 80C180.741 80 193 92.259 193 107.381Z" fill="#28E176"/>
<path d="M178 97L161.5 113.5L154 106" stroke="white" stroke-width="6" stroke-linecap="round" stroke-linejoin="round"/>
<defs>
<clipPath id="clip0">
<rect width="118" height="118" fill="white" transform="translate(158 100)"/>
</clipPath>
</defs>
</svg>
