<svg width="60" height="60" viewBox="0 0 60 60" fill="none" xmlns="http://www.w3.org/2000/svg">
<circle cx="30" cy="30" r="30" fill="#FFF2AE"/>
<path fill-rule="evenodd" clip-rule="evenodd" d="M41.4286 29.9999C41.4286 23.6881 36.3118 18.5714 30 18.5714V14.2856C38.6788 14.2856 45.7143 21.3212 45.7143 29.9999C45.7143 38.6787 38.6788 45.7142 30 45.7142V41.4285C36.3118 41.4285 41.4286 36.3118 41.4286 29.9999Z" fill="#FFB45D"/>
<path fill-rule="evenodd" clip-rule="evenodd" d="M28.4547 14.3608C28.9636 14.3111 29.4791 14.2856 29.9999 14.2856V18.5714C29.6186 18.5714 29.2423 18.59 28.8717 18.6262L28.4547 14.3608ZM22.5581 16.1565C23.4613 15.6701 24.4181 15.2692 25.4173 14.9649L26.6656 19.0648C25.9409 19.2855 25.2465 19.5764 24.5902 19.9298L22.5581 16.1565ZM18.8479 18.9288C19.2115 18.5625 19.5931 18.214 19.9912 17.8848L22.7224 21.1875C22.4324 21.4274 22.1543 21.6813 21.8893 21.9482C21.6268 22.2127 21.3771 22.4899 21.1413 22.7787L17.8213 20.0686C18.145 19.672 18.4876 19.2916 18.8479 18.9288ZM14.9525 25.4584C15.2512 24.4676 15.6449 23.5183 16.1227 22.6211L19.9053 24.636C19.5581 25.2878 19.2724 25.9768 19.0558 26.6954L14.9525 25.4584ZM14.2856 29.9999C14.2856 29.484 14.3106 28.9732 14.3594 28.4689L18.6252 28.8821C18.5896 29.2493 18.5714 29.6222 18.5714 29.9999C18.5714 30.3723 18.5891 30.74 18.6237 31.1022L14.3574 31.5095C14.3099 31.0121 14.2856 30.5086 14.2856 29.9999ZM16.0714 37.2815C15.6066 36.394 15.2239 35.4562 14.9336 34.4783L19.0421 33.2587C19.2526 33.9679 19.5303 34.6485 19.868 35.2932L16.0714 37.2815ZM19.8288 41.9789C19.0602 41.3257 18.3553 40.5998 17.7247 39.8118L21.0709 37.1341C21.5303 37.7082 22.044 38.2372 22.6041 38.7131L19.8288 41.9789ZM23.6627 44.3834C23.199 44.1789 22.7472 43.9526 22.3085 43.706L24.4088 39.9702C24.7277 40.1495 25.0559 40.3138 25.3925 40.4623C25.752 40.6209 26.1211 40.7615 26.4988 40.8829L25.1874 44.963C24.6667 44.7957 24.158 44.6019 23.6627 44.3834ZM29.9999 45.7142C29.4519 45.7142 28.9098 45.6861 28.375 45.6311L28.8137 41.3679C29.203 41.4079 29.5987 41.4285 29.9999 41.4285V45.7142Z" fill="#FFB45D"/>
<path fill-rule="evenodd" clip-rule="evenodd" d="M35.8735 23.8696C36.4978 24.3521 36.6128 25.2492 36.1304 25.8735L30.0589 33.7307C29.5865 34.342 28.7137 34.467 28.0887 34.0128L24.1601 31.1578C23.5219 30.694 23.3805 29.8006 23.8443 29.1624C24.3082 28.5241 25.2016 28.3827 25.8398 28.8466L28.6463 30.8861L33.8696 24.1266C34.352 23.5022 35.2492 23.3872 35.8735 23.8696Z" fill="#FFB45D"/>
</svg>
