<svg width="213" height="64" viewBox="0 0 213 64" fill="none" xmlns="http://www.w3.org/2000/svg">
<path fill-rule="evenodd" clip-rule="evenodd" d="M0.223802 43.9808C0.223802 40.8034 0.167852 38.1369 0 35.7593H5.82333L6.09637 39.844H6.25974C7.57962 37.6855 9.99332 35.1328 14.4957 35.1328C18.0099 35.1328 20.7548 37.1792 21.9057 40.2405H22.0188C22.9537 38.7096 24.0481 37.5763 25.3098 36.7793C26.7936 35.7032 28.4962 35.1328 30.6922 35.1328C35.138 35.1328 39.637 38.2513 39.637 47.0993V63.373H33.05V48.1216C33.05 43.5289 31.5152 40.8034 28.2779 40.8034C25.9683 40.8034 24.2646 42.5077 23.5557 44.4934C23.389 45.1719 23.2245 46.0232 23.2245 46.8115V63.373H16.6352V47.3819C16.6352 43.5289 15.1553 40.8034 12.0254 40.8034C9.49984 40.8034 7.80006 42.8481 7.19468 44.772C6.91828 45.4568 6.8075 46.2486 6.8075 47.0409V63.373H0.223802V43.9808Z" fill="#003D79"/>
<path fill-rule="evenodd" clip-rule="evenodd" d="M65.3007 56.739C65.3007 59.2328 65.4104 61.667 65.6851 63.373H59.5893L59.1518 60.3118H58.9851C57.339 62.4686 54.5392 63.9972 51.0809 63.9972C45.6996 63.9972 42.6816 59.9742 42.6816 55.7756C42.6816 48.7984 48.6633 45.2858 58.5458 45.3418V44.8864C58.5458 43.0712 57.8314 40.0677 53.1108 40.0677C50.4744 40.0677 47.7284 40.919 45.9178 42.1078L44.5985 37.5751C46.5786 36.3251 50.0403 35.1328 54.264 35.1328C62.8317 35.1328 65.3007 40.7502 65.3007 46.7583V56.739ZM58.7103 49.8785C53.935 49.7641 49.3795 50.8413 49.3795 55.0382C49.3795 57.7573 51.0809 59.0074 53.2227 59.0074C55.9095 59.0074 57.889 57.1921 58.491 55.2081C58.6544 54.6978 58.7103 54.1286 58.7103 53.6766V49.8785Z" fill="#003D79"/>
<path fill-rule="evenodd" clip-rule="evenodd" d="M69.9685 43.9808C69.9685 40.8034 69.9081 38.1369 69.748 35.7593H75.6721L76.0033 39.8984H76.1656C77.3198 37.7462 80.2293 35.1328 84.6751 35.1328C89.343 35.1328 94.1738 38.2513 94.1738 46.986V63.373H87.4223V47.7818C87.4223 43.8097 85.995 40.8034 82.3162 40.8034C79.6261 40.8034 77.7602 42.7886 77.0446 44.8876C76.8286 45.5129 76.7715 46.3653 76.7715 47.1536V63.373H69.9685V43.9808Z" fill="#003D79"/>
<path fill-rule="evenodd" clip-rule="evenodd" d="M123.454 24.6641V55.6032C123.454 58.4379 123.562 61.5055 123.672 63.3745H117.632L117.362 59.0089H117.25C115.657 62.0724 112.413 63.9986 108.52 63.9986C102.154 63.9986 97.102 58.3859 97.102 49.88C97.046 40.6361 102.646 35.1343 109.068 35.1343C112.745 35.1343 115.383 36.7242 116.588 38.7671H116.7V24.6641H123.454ZM116.7 47.2672C116.7 46.706 116.643 46.0224 116.538 45.4571C115.933 42.7351 113.79 40.5223 110.716 40.5223C106.379 40.5223 103.963 44.4937 103.963 49.654C103.963 54.6993 106.379 58.3859 110.661 58.3859C113.405 58.3859 115.822 56.4585 116.48 53.4539C116.643 52.8274 116.7 52.1478 116.7 51.408V47.2672Z" fill="#003D79"/>
<path fill-rule="evenodd" clip-rule="evenodd" d="M128.223 63.3776H135.037V35.7656H128.223V63.3776Z" fill="#003D79"/>
<path fill-rule="evenodd" clip-rule="evenodd" d="M139.811 44.6649C139.811 40.924 139.754 38.2551 139.59 35.7626H145.465L145.68 41.0344H145.908C147.223 37.1218 150.353 35.7626 153.207 35.7626C153.864 35.7626 154.248 35.6464 154.798 35.7626V41.8885C154.248 41.7753 153.645 41.662 152.822 41.662C149.583 41.662 147.385 43.8148 146.782 46.9315C146.675 47.5557 146.565 48.296 146.565 49.0935V63.378H139.811V44.6649Z" fill="#003D79"/>
<path fill-rule="evenodd" clip-rule="evenodd" d="M157.92 63.3776H164.724V35.7656H157.92V63.3776Z" fill="#003D79"/>
<path fill-rule="evenodd" clip-rule="evenodd" d="M156.317 2.37873C152.229 4.82334 142.589 10.5344 138.99 12.6611C136.797 13.8152 131.717 14.3192 128.844 10.3177C128.793 10.2454 125.023 5.37988 124.869 5.19668C124.761 5.06723 122.324 1.33327 116.893 1.21653C116.091 1.19688 112.102 1.17492 108.209 3.46002C103.035 6.51319 91.0028 13.6187 91.0028 13.6187C90.9994 13.6187 90.9994 13.6251 90.9933 13.6251C86.0472 16.5482 82.1934 18.8241 82.1934 18.8241L86.7466 24.6004C88.8766 27.3323 93.68 29.4457 97.8455 26.9757C97.8455 26.9757 113.237 17.7694 113.293 17.7428C119.95 13.9719 125.086 13.9719 128.495 15.3751C131.555 16.7106 134.217 20.0383 134.217 20.0383C134.217 20.0383 137.696 24.4918 138.31 25.2708C140.29 27.7877 143.566 26.7989 143.566 26.7989C143.566 26.7989 144.78 26.6567 146.61 25.5344C146.61 25.5344 161.519 16.6055 161.528 16.6026C166.262 13.7338 170.604 13.198 172.823 13.409C179.773 14.0614 181.932 19.0767 184.946 22.5754C186.721 24.6334 188.322 25.8019 190.771 25.743C192.38 25.7077 194.198 24.6998 194.466 24.5178L212.319 13.8759C212.319 13.8759 210.487 11.0262 206.735 6.59236C203.378 2.63648 199.811 4.42631 196.968 5.88094C195.773 6.49123 191.445 9.46522 187.157 11.54C184.102 13.0177 179.713 12.5733 177.308 9.50336C177.164 9.31669 173.272 4.45058 172.863 3.85185C171.293 1.81988 168.228 0 164.301 0C161.913 0 159.204 0.672702 156.317 2.37873Z" fill="url(#paint0_linear)"/>
<defs>
<linearGradient id="paint0_linear" x1="82.1934" y1="14.0348" x2="212.319" y2="14.0348" gradientUnits="userSpaceOnUse">
<stop stop-color="#FFCA06"/>
<stop offset="0.330844" stop-color="#FBAA18"/>
<stop offset="0.694742" stop-color="#FFC907"/>
<stop offset="1" stop-color="#FAA619"/>
</linearGradient>
</defs>
</svg>
