<svg width="60" height="60" viewBox="0 0 60 60" fill="none" xmlns="http://www.w3.org/2000/svg">
<circle cx="30" cy="30" r="30" fill="#EB5757" fill-opacity="0.25"/>
<path fill-rule="evenodd" clip-rule="evenodd" d="M37.5531 22.4469C36.9572 21.851 35.991 21.851 35.3951 22.4469L30 27.842L24.605 22.447C24.009 21.851 23.0429 21.851 22.4469 22.447C21.851 23.0429 21.851 24.0091 22.4469 24.605L27.842 30L22.447 35.395C21.8511 35.9909 21.8511 36.9571 22.447 37.553C23.0429 38.149 24.0091 38.149 24.605 37.553L30 32.158L35.395 37.5531C35.9909 38.149 36.9571 38.149 37.553 37.5531C38.149 36.9571 38.149 35.991 37.553 35.395L32.158 30L37.5531 24.605C38.149 24.009 38.149 23.0429 37.5531 22.4469Z" fill="#EB5757"/>
</svg>
