<svg width="66" height="32" viewBox="0 0 66 32" fill="none" xmlns="http://www.w3.org/2000/svg">
<path fill-rule="evenodd" clip-rule="evenodd" d="M0.0695696 14.3051C0.0695696 13.3174 0.0521772 12.4885 0 11.7494H1.8102L1.89508 13.0192H1.94586C2.35615 12.3482 3.10646 11.5547 4.50602 11.5547C5.59844 11.5547 6.45171 12.1908 6.80948 13.1424H6.84461C7.13523 12.6665 7.47543 12.3142 7.86763 12.0665C8.32888 11.732 8.85813 11.5547 9.54078 11.5547C10.9228 11.5547 12.3213 12.5241 12.3213 15.2745V20.3332H10.2737V15.5923C10.2737 14.1646 9.79662 13.3174 8.7903 13.3174C8.07234 13.3174 7.54274 13.8472 7.32238 14.4645C7.27055 14.6754 7.21941 14.94 7.21941 15.185V20.3332H5.17111V15.3624C5.17111 14.1646 4.71108 13.3174 3.73815 13.3174C2.95306 13.3174 2.42468 13.953 2.23649 14.5511C2.15057 14.7639 2.11613 15.0101 2.11613 15.2564V20.3332H0.0695696V14.3051Z" fill="#003D79"/>
<path fill-rule="evenodd" clip-rule="evenodd" d="M20.2988 18.2711C20.2988 19.0462 20.3329 19.8029 20.4183 20.3333H18.5234L18.3874 19.3816H18.3356C17.8239 20.0521 16.9536 20.5273 15.8785 20.5273C14.2057 20.5273 13.2676 19.2767 13.2676 17.9716C13.2676 15.8027 15.127 14.7108 18.199 14.7282V14.5866C18.199 14.0224 17.9769 13.0887 16.5095 13.0887C15.69 13.0887 14.8364 13.3533 14.2736 13.7229L13.8634 12.3139C14.479 11.9253 15.555 11.5547 16.868 11.5547C19.5313 11.5547 20.2988 13.3009 20.2988 15.1685V18.2711ZM18.2502 16.1384C16.7657 16.1029 15.3496 16.4377 15.3496 17.7423C15.3496 18.5876 15.8785 18.9762 16.5443 18.9762C17.3795 18.9762 17.9948 18.4119 18.182 17.7952C18.2328 17.6365 18.2502 17.4596 18.2502 17.3191V16.1384Z" fill="#003D79"/>
<path fill-rule="evenodd" clip-rule="evenodd" d="M21.7502 14.3051C21.7502 13.3174 21.7314 12.4885 21.6816 11.7494H23.5231L23.6261 13.0361H23.6765C24.0354 12.3671 24.9398 11.5547 26.3218 11.5547C27.7728 11.5547 29.2745 12.5241 29.2745 15.2393V20.3332H27.1757V15.4867C27.1757 14.2519 26.732 13.3174 25.5885 13.3174C24.7523 13.3174 24.1722 13.9345 23.9498 14.587C23.8826 14.7814 23.8649 15.0464 23.8649 15.2914V20.3332H21.7502V14.3051Z" fill="#003D79"/>
<path fill-rule="evenodd" clip-rule="evenodd" d="M38.3752 8.30078V17.9183C38.3752 18.7995 38.4088 19.7531 38.443 20.334H36.5657L36.4817 18.977H36.4469C35.9517 19.9293 34.9433 20.5281 33.733 20.5281C31.7543 20.5281 30.1837 18.7833 30.1837 16.1392C30.1663 13.2657 31.907 11.5555 33.9034 11.5555C35.0465 11.5555 35.8663 12.0497 36.2411 12.6848H36.2758V8.30078H38.3752ZM36.2758 15.327C36.2758 15.1526 36.2582 14.9401 36.2253 14.7644C36.0373 13.9182 35.3714 13.2304 34.4156 13.2304C33.0676 13.2304 32.3166 14.4649 32.3166 16.069C32.3166 17.6373 33.0676 18.7833 34.3986 18.7833C35.2515 18.7833 36.0029 18.1842 36.2074 17.2502C36.2582 17.0554 36.2758 16.8442 36.2758 16.6142V15.327Z" fill="#003D79"/>
<path fill-rule="evenodd" clip-rule="evenodd" d="M39.8594 20.3333H41.9776V11.75H39.8594V20.3333Z" fill="#003D79"/>
<path fill-rule="evenodd" clip-rule="evenodd" d="M43.4613 14.5177C43.4613 13.3549 43.4435 12.5253 43.3926 11.7504H45.219L45.2857 13.3892H45.3565C45.7654 12.173 46.7384 11.7504 47.6254 11.7504C47.8297 11.7504 47.949 11.7143 48.1202 11.7504V13.6547C47.949 13.6195 47.7617 13.5843 47.5057 13.5843C46.499 13.5843 45.8159 14.2535 45.6284 15.2223C45.5952 15.4163 45.5607 15.6465 45.5607 15.8944V20.3348H43.4613V14.5177Z" fill="#003D79"/>
<path fill-rule="evenodd" clip-rule="evenodd" d="M49.0898 20.3333H51.2049V11.75H49.0898V20.3333Z" fill="#003D79"/>
<path fill-rule="evenodd" clip-rule="evenodd" d="M48.5922 1.37225C47.3217 2.13217 44.325 3.90746 43.2063 4.56857C42.5246 4.92733 40.9455 5.08398 40.0524 3.84009C40.0364 3.81763 38.8645 2.30517 38.8167 2.24822C38.7831 2.20798 38.0255 1.04726 36.3374 1.01097C36.088 1.00487 34.8479 0.99804 33.6379 1.70837C32.0296 2.65746 28.2892 4.86625 28.2892 4.86625C28.2882 4.86625 28.2882 4.86822 28.2863 4.86822C26.7488 5.77689 25.5508 6.48435 25.5508 6.48435L26.9662 8.27994C27.6283 9.12915 29.1214 9.78612 30.4163 9.0183C30.4163 9.0183 35.2008 6.15649 35.2184 6.14823C37.2875 4.97601 38.8841 4.97601 39.9439 5.4122C40.8951 5.82737 41.7226 6.86179 41.7226 6.86179C41.7226 6.86179 42.804 8.24617 42.9948 8.48834C43.6102 9.27071 44.6287 8.96333 44.6287 8.96333C44.6287 8.96333 45.0061 8.91914 45.575 8.57026C45.575 8.57026 50.2094 5.79468 50.2123 5.79378C51.6839 4.902 53.0336 4.73546 53.7233 4.80103C55.8838 5.00386 56.555 6.56286 57.4918 7.65045C58.0434 8.29018 58.5412 8.65343 59.3025 8.63511C59.8027 8.62415 60.3678 8.31084 60.4511 8.25425L66.0006 4.94619C66.0006 4.94619 65.4312 4.06034 64.2651 2.68207C63.2213 1.45237 62.1127 2.00875 61.2289 2.46092C60.8575 2.65063 59.5121 3.57511 58.1791 4.22005C57.2293 4.67941 55.8651 4.54126 55.1174 3.58697C55.0727 3.52894 53.863 2.01629 53.7359 1.83017C53.2477 1.19853 52.2951 0.632812 51.0743 0.632812C50.332 0.632812 49.4897 0.841924 48.5922 1.37225Z" fill="url(#paint0_linear)"/>
<path d="M3.22677 24.3672H4.34813L7.55202 31.3672H6.20181L5.34362 29.4644H2.20839L1.36165 31.3672H0L3.22677 24.3672ZM5.09189 28.6461L3.78745 25.639L2.43724 28.6461H5.09189Z" fill="#FCB114"/>
<path d="M14.2501 25.3432H11.5496V31.3672H10.2566V25.3432H7.54477V24.3672H14.2501V25.3432Z" fill="#FCB114"/>
<path d="M22.707 31.3672V26.3292L20.2926 30.1447H19.5832L17.1574 26.3292V31.3672H15.8759V24.3672H17.249L19.9379 28.6461L22.6269 24.3672H24V31.3672H22.707Z" fill="#FCB114"/>
<defs>
<linearGradient id="paint0_linear" x1="25.5508" y1="4.99557" x2="66.0006" y2="4.99557" gradientUnits="userSpaceOnUse">
<stop stop-color="#FFCA06"/>
<stop offset="0.330844" stop-color="#FBAA18"/>
<stop offset="0.694742" stop-color="#FFC907"/>
<stop offset="1" stop-color="#FAA619"/>
</linearGradient>
</defs>
</svg>
