<svg width="60" height="60" viewBox="0 0 60 60" fill="none" xmlns="http://www.w3.org/2000/svg">
<circle cx="30" cy="30" r="30" fill="#DCE7FF"/>
<path d="M18.8254 20.9184C19.087 18.3679 21.2354 16.4286 23.7993 16.4286L36.2011 16.4286C38.765 16.4286 40.9134 18.3679 41.175 20.9184L43.0065 38.7756C43.3088 41.7233 40.9957 44.2857 38.0326 44.2857H21.9678C19.0046 44.2857 16.6916 41.7233 16.9939 38.7756L18.8254 20.9184Z" fill="#3D7AFF"/>
<path fill-rule="evenodd" clip-rule="evenodd" d="M24.2858 20.3571C24.8775 20.3571 25.3572 20.8368 25.3572 21.4285C25.3572 23.9927 27.4359 26.0713 30.0001 26.0713C32.5642 26.0713 34.6429 23.9927 34.6429 21.4285C34.6429 20.8368 35.1226 20.3571 35.7144 20.3571C36.3061 20.3571 36.7858 20.8368 36.7858 21.4285C36.7858 25.1761 33.7477 28.2142 30.0001 28.2142C26.2524 28.2142 23.2144 25.1761 23.2144 21.4285C23.2144 20.8368 23.6941 20.3571 24.2858 20.3571Z" fill="white"/>
</svg>
