<svg width="219" height="51" viewBox="0 0 219 51" fill="none" xmlns="http://www.w3.org/2000/svg">
<path d="M43.7141 38.2896L25.5483 27.6561V19.1557L43.7141 29.8262V38.2896Z" fill="#DFDFDF"/>
<path d="M14.5728 25.5868V34.0349L25.5482 27.6561V19.1557L14.5728 25.5868Z" fill="#BDBDBD"/>
<path d="M7.28593 17.0085L21.8335 8.52467L36.4067 16.9869L43.7143 12.7373L21.8578 0L0 12.7373L7.28593 17.0085Z" fill="white"/>
<path d="M7.28593 34.2082V17.0084L0 12.7371V30.7338V38.2525L21.8578 50.9999V42.562L7.28593 34.2082Z" fill="#DFDFDF"/>
<path d="M32.7767 44.7036L14.5728 34.0305V25.5977L32.7767 36.3064V44.7036Z" fill="#DFDFDF"/>
<path d="M21.8574 51L43.7139 38.2959V29.8145L21.8574 42.562V51Z" fill="#BDBDBD"/>
<path d="M36.459 21.374L36.4067 16.9867L43.7144 12.7371V17.0964L36.459 21.374Z" fill="#BDBDBD"/>
<path d="M67.5983 39.7796C65.9652 39.7879 64.3497 39.4402 62.8635 38.7606C61.3856 38.0876 60.0543 37.1287 58.9458 35.9389C57.8097 34.7185 56.9169 33.2909 56.3158 31.7333C55.6758 30.073 55.3556 28.3058 55.3722 26.5257C55.3612 24.8114 55.6816 23.1112 56.3158 21.5195C56.9251 19.9837 57.8244 18.5805 58.9641 17.3871C60.0985 16.1993 61.4544 15.2468 62.9547 14.5838C64.5207 13.8947 66.2144 13.5469 67.9242 13.5634C70.3431 13.5634 72.417 14.0793 74.1461 15.1109C75.8094 16.0743 77.1627 17.4962 78.0455 19.208L74.309 21.9747C73.7071 20.7406 72.7548 19.7129 71.5721 19.0209C70.4099 18.3438 69.0881 17.9914 67.7443 18.0006C66.7119 17.9879 65.6917 18.2252 64.7702 18.6926C63.8737 19.1568 63.0832 19.8032 62.4491 20.5907C61.7842 21.4141 61.2742 22.352 60.9438 23.3587C60.5908 24.4272 60.4147 25.5465 60.4224 26.6722C60.4102 27.837 60.6008 28.9951 60.9855 30.0942C61.3365 31.0992 61.8777 32.0267 62.5794 32.8256C63.2544 33.5924 64.0744 34.2171 64.9918 34.6635C65.9423 35.1203 66.9851 35.3508 68.0389 35.3372C69.3579 35.3341 70.6528 34.9826 71.7936 34.3182C72.99 33.6388 74.1083 32.6438 75.1483 31.333V36.2882C72.9935 38.6167 70.4769 39.7805 67.5983 39.7796ZM74.7808 29.9857H69.5937V26.3072H78.9161V39.5978H74.7808V29.9857Z" fill="white"/>
<path d="M94.1884 39.779C92.3022 39.779 90.5914 39.4149 89.0561 38.6867C87.5491 37.9807 86.2031 36.9708 85.1019 35.7199C84.005 34.4763 83.1385 33.0458 82.5436 31.4959C81.9446 29.9585 81.6374 28.3223 81.6378 26.6715C81.6312 24.9794 81.9576 23.3025 82.5983 21.7373C83.2252 20.1945 84.1221 18.7768 85.2466 17.5513C86.3719 16.325 87.7283 15.3349 89.2373 14.6381C90.825 13.911 92.5529 13.5443 94.2979 13.5641C96.0608 13.5422 97.8051 13.9285 99.3951 14.693C100.898 15.4215 102.237 16.4496 103.331 17.7148C104.412 18.9665 105.271 20.3952 105.87 21.9387C106.472 23.4691 106.781 25.0995 106.782 26.7448C106.786 28.4233 106.466 30.0866 105.839 31.6424C105.223 33.1869 104.332 34.6055 103.208 35.8284C102.086 37.0531 100.729 38.0377 99.2178 38.7233C97.6375 39.4371 95.9213 39.7973 94.1884 39.779ZM86.7154 26.6715C86.7129 27.7718 86.8845 28.8655 87.2237 29.9118C87.5435 30.9208 88.041 31.864 88.6925 32.6968C89.3462 33.5388 90.1868 34.2159 91.1473 34.6742C92.1078 35.1325 93.1617 35.3593 94.2249 35.3366C95.3456 35.3575 96.4543 35.1014 97.4532 34.5909C98.3787 34.1086 99.1847 33.4243 99.8121 32.5882C100.446 31.7425 100.93 30.7945 101.246 29.7849C101.569 28.7788 101.734 27.7285 101.736 26.6715C101.741 25.5756 101.564 24.4864 101.214 23.4483C100.879 22.4472 100.375 21.5113 99.7235 20.6816C99.0864 19.875 98.2807 19.2186 97.3632 18.7587C96.3882 18.2751 95.3124 18.0316 94.2249 18.0484C92.992 18.0484 91.9099 18.2974 90.9785 18.7953C90.0671 19.2769 89.271 19.9518 88.6456 20.7732C88.0128 21.6058 87.5278 22.5418 87.212 23.5399C86.8846 24.5514 86.7171 25.608 86.7154 26.6715Z" fill="white"/>
<path d="M110.042 31.8047V27.399H121.033V31.8047H110.042Z" fill="white"/>
<path d="M125.789 39.5957V13.7445H130.796V35.1899H143.928V39.5957H125.789Z" fill="white"/>
<path d="M157.383 39.779C155.496 39.779 153.785 39.4149 152.249 38.6867C150.742 37.9805 149.396 36.9706 148.295 35.7199C147.199 34.4762 146.333 33.0457 145.738 31.4959C145.137 29.959 144.827 28.3227 144.826 26.6715C144.82 24.9793 145.146 23.3024 145.788 21.7373C146.414 20.1946 147.31 18.7769 148.435 17.5513C149.56 16.3253 150.916 15.3352 152.425 14.6381C154.013 13.9112 155.741 13.5445 157.486 13.5641C159.249 13.5422 160.993 13.9285 162.583 14.693C164.086 15.4215 165.425 16.4496 166.519 17.7148C167.6 18.9664 168.46 20.3952 169.059 21.9387C169.661 23.4692 169.97 25.0996 169.971 26.7448C169.976 28.4231 169.656 30.0863 169.029 31.6424C168.413 33.1866 167.522 34.6051 166.399 35.8284C165.277 37.0525 163.921 38.0371 162.411 38.7233C160.831 39.4367 159.115 39.7969 157.383 39.779ZM149.91 26.6715C149.907 27.7717 150.078 28.8654 150.417 29.9118C150.737 30.9208 151.235 31.8641 151.887 32.6968C152.54 33.5391 153.381 34.2165 154.342 34.6748C155.302 35.1331 156.356 35.3597 157.419 35.3366C158.54 35.3571 159.649 35.1011 160.648 34.591C161.573 34.1086 162.378 33.4242 163.005 32.5882C163.638 31.7423 164.123 30.7943 164.439 29.7849C164.761 28.7786 164.926 27.7284 164.928 26.6715C164.933 25.5756 164.756 24.4864 164.406 23.4483C164.072 22.4477 163.569 21.5119 162.919 20.6816C162.283 19.8729 161.478 19.2143 160.56 18.7521C159.586 18.2685 158.51 18.025 157.423 18.0418C156.189 18.0418 155.106 18.2908 154.176 18.7888C153.259 19.271 152.458 19.9483 151.83 20.7732C151.196 21.6055 150.711 22.5415 150.396 23.5399C150.072 24.5518 149.908 25.6086 149.91 26.6715Z" fill="white"/>
<path d="M184.517 39.7792C182.884 39.7873 181.269 39.4397 179.783 38.7602C178.305 38.0878 176.974 37.1289 175.866 35.9385C174.73 34.7181 173.837 33.2905 173.236 31.7329C172.596 30.0726 172.275 28.3055 172.292 26.5253C172.281 24.811 172.602 23.1109 173.236 21.5191C173.845 19.983 174.744 18.5798 175.884 17.3867C177.018 16.1984 178.374 15.2459 179.875 14.5834C181.441 13.8942 183.135 13.5464 184.845 13.5631C187.263 13.5631 189.336 14.0789 191.066 15.1106C192.73 16.0734 194.084 17.4954 194.967 19.2076L191.23 21.9743C190.628 20.742 189.675 19.7161 188.493 19.0258C187.332 18.3486 186.01 17.9963 184.667 18.0055C183.634 17.9926 182.613 18.23 181.691 18.6975C180.794 19.1595 180.002 19.8042 179.366 20.5903C178.701 21.4137 178.191 22.3516 177.86 23.3583C177.507 24.4268 177.331 25.5461 177.338 26.6718C177.326 27.8366 177.516 28.9947 177.9 30.0938C178.252 31.0988 178.795 32.0262 179.497 32.8252C180.172 33.5915 180.992 34.2161 181.909 34.6631C182.86 35.1199 183.902 35.3504 184.956 35.3368C186.275 35.3337 187.57 34.9823 188.711 34.3178C189.909 33.6384 191.028 32.6434 192.067 31.3326V36.2878C189.911 38.6163 187.395 39.7801 184.517 39.7792ZM191.699 29.9853H186.512V26.3068H195.836V39.5974H191.699V29.9853Z" fill="white"/>
<path d="M215.461 20.518C215.174 20.2591 214.864 20.0275 214.535 19.826C214.018 19.4982 213.471 19.218 212.904 18.9888C212.224 18.7088 211.527 18.4715 210.818 18.2785C210.074 18.0725 209.306 17.9682 208.534 17.9684C207.178 17.9684 206.156 18.2222 205.468 18.7298C204.78 19.2373 204.435 19.9498 204.433 20.8672C204.433 21.5649 204.651 22.1204 205.085 22.5338C205.52 22.9472 206.171 23.296 207.04 23.5803C207.909 23.8707 208.995 24.1847 210.298 24.5222C211.815 24.8719 213.291 25.376 214.706 26.0265C215.952 26.6178 216.908 27.3904 217.573 28.3445C218.239 29.2986 218.572 30.5605 218.572 32.1302C218.572 33.5072 218.317 34.6845 217.809 35.6622C217.323 36.6203 216.602 37.4387 215.715 38.0403C214.785 38.6596 213.754 39.1074 212.668 39.3629C211.479 39.6462 210.261 39.7858 209.039 39.7788C207.747 39.7778 206.459 39.6437 205.195 39.3785C203.927 39.1166 202.688 38.7324 201.495 38.2313C200.343 37.7533 199.248 37.1488 198.229 36.4287L200.444 32.0962C200.802 32.4197 201.191 32.7063 201.605 32.9517C202.256 33.3536 202.935 33.7064 203.637 34.0074C204.48 34.3762 205.352 34.6746 206.244 34.8995C207.18 35.142 208.144 35.2647 209.111 35.2645C210.466 35.2645 211.493 35.0364 212.195 34.5803C212.526 34.3794 212.799 34.0932 212.984 33.7512C213.169 33.4093 213.259 33.024 213.246 32.6352C213.246 31.8616 212.968 31.2577 212.412 30.8234C211.856 30.3891 211.082 30.008 210.09 29.6801C209.098 29.3539 207.925 28.9977 206.571 28.6114C204.951 28.1518 203.597 27.6381 202.509 27.0704C201.42 26.5027 200.609 25.7814 200.075 24.9067C199.544 24.0347 199.278 22.9472 199.278 21.6443C199.278 19.8792 199.695 18.3966 200.529 17.1966C201.38 15.9869 202.554 15.0439 203.917 14.477C205.421 13.8453 207.039 13.5305 208.669 13.5522C209.824 13.5462 210.975 13.681 212.097 13.9538C213.138 14.2081 214.152 14.5616 215.126 15.0095C216.011 15.416 216.862 15.8942 217.67 16.4392L215.461 20.518Z" fill="white"/>
</svg>
