<svg width="25" height="24" viewBox="0 0 25 24" fill="none" xmlns="http://www.w3.org/2000/svg">
<rect x="0.5" width="24" height="24" rx="6" fill="#7456FD"/>
<path fill-rule="evenodd" clip-rule="evenodd" d="M12.5 7.19995C13.1628 7.19995 13.7001 7.73721 13.7001 8.39995V15.5999C13.7001 16.2627 13.1628 16.7999 12.5 16.7999C11.8373 16.7999 11.3 16.2627 11.3 15.5999V8.39995C11.3 7.73721 11.8373 7.19995 12.5 7.19995Z" fill="white"/>
<path fill-rule="evenodd" clip-rule="evenodd" d="M7.69995 12C7.69995 11.3373 8.23721 10.8 8.89995 10.8H16.0999C16.7627 10.8 17.2999 11.3373 17.2999 12C17.2999 12.6628 16.7627 13.2001 16.0999 13.2001H8.89995C8.23721 13.2001 7.69995 12.6628 7.69995 12Z" fill="white"/>
</svg>
