<svg width="56" height="54" viewBox="0 0 56 54" fill="none" xmlns="http://www.w3.org/2000/svg">
<path d="M49.7306 41.0714C52.1825 37.0255 53.5942 32.279 53.5942 27.2027C53.5942 12.4031 41.5968 0.40564 26.7971 0.40564C21.4847 0.40564 16.5334 1.95176 12.3683 4.61822L7.73242 41.0714H49.7306Z" fill="#FFDD40"/>
<path d="M7.5762 42.3018L7.17578 45.4505C7.95388 46.2867 8.78403 47.0737 9.66242 47.805L12.1414 49.6382C16.3533 52.3953 21.3876 53.9999 26.7974 53.9999C35.9964 53.9999 44.1117 49.3639 48.9372 42.3018H7.5762Z" fill="#56E28F"/>
<path d="M31.2451 21.5704V16.9037H39.5516C40.756 16.9037 41.8975 17.4416 42.6641 18.3705L45.3052 21.5704H31.2451Z" fill="#D3DCFB"/>
<path d="M36.1953 21.2744C34.6366 19.1123 35.7086 17.5737 36.161 17.0765C36.2059 17.0271 36.2315 16.9665 36.2394 16.9037H31.2451V21.5704H36.2338C36.2701 21.4726 36.2582 21.3616 36.1953 21.2744Z" fill="#BEC8F7"/>
<path d="M55.6147 42.3018V36.3924C55.6147 36.0521 55.5548 35.7154 55.4374 35.3961C55.2681 34.9353 54.9763 34.1811 54.5573 33.2352C54.4767 33.601 54.1504 33.8755 53.7609 33.8755H50.2794C49.8296 33.8755 49.4635 33.5094 49.4635 33.0595V32.1043H40.5715C40.191 32.1043 39.8202 31.9703 39.5274 31.7273L36.0192 28.8129C35.8582 28.6791 35.7659 28.4824 35.7659 28.273V25.0883C35.7659 24.7014 36.0808 24.3865 36.4678 24.3865H49.1726C48.5428 23.6298 47.8659 22.8914 47.138 22.193C46.6457 21.7207 45.9873 21.4607 45.3052 21.4607H31.2451V42.3016H55.6147V42.3018Z" fill="#E9EFFF"/>
<path d="M40.5237 38.8493C38.9697 37.2954 40.0622 36.05 40.4209 35.7145C40.486 35.6535 40.5237 35.5691 40.5237 35.48V34.1111C40.5237 34.0341 40.4966 33.9588 40.445 33.9017C39.8149 33.2047 40.1643 32.6604 40.4046 32.4134C40.4861 32.3296 40.513 32.2095 40.4799 32.1005C40.1318 32.0808 39.7967 31.951 39.5275 31.7274L36.0193 28.8131C35.8583 28.6794 35.766 28.4826 35.766 28.2733V25.0886C35.766 24.7016 36.0809 24.3867 36.4679 24.3867H36.5516L36.4893 24.2647C36.4751 24.2369 36.4562 24.2111 36.4343 24.1886C35.3918 23.1132 35.92 22.0509 36.1991 21.6394C36.2358 21.5854 36.2541 21.5232 36.2545 21.4609H31.2451V42.3018H40.5756C40.9595 40.6843 41.0426 39.3681 40.5237 38.8493Z" fill="#D3DCFB"/>
<path d="M41.9453 35.625H40.5234C40.0704 35.625 39.7031 35.2578 39.7031 34.8047C39.7031 34.3515 40.0704 33.9844 40.5234 33.9844H41.9453C42.3983 33.9844 42.7656 34.3515 42.7656 34.8047C42.7656 35.2578 42.3983 35.625 41.9453 35.625Z" fill="#BEC8F7"/>
<path d="M31.2451 42.083V45.4505H52.6727C53.2407 45.4505 53.7867 45.2313 54.197 44.8385L55.0642 44.0087C55.4159 43.672 55.6149 43.2063 55.6149 42.7195V42.083H31.2451Z" fill="#D3DCFB"/>
<path d="M40.6259 42.083H31.2451V45.4505H39.6173C40.0318 44.2813 40.3949 43.1142 40.6259 42.083Z" fill="#BEC8F7"/>
<path d="M41.234 52.3593C45.0496 52.3593 48.1428 49.2661 48.1428 45.4505C48.1428 41.6349 45.0496 38.5417 41.234 38.5417C37.4184 38.5417 34.3252 41.6349 34.3252 45.4505C34.3252 49.2661 37.4184 52.3593 41.234 52.3593Z" fill="#2A428C"/>
<path d="M44.088 39.1589C44.0411 39.1817 41.9316 40.2165 42.9375 42.5457C43.9547 44.9012 44.6019 45.4504 44.6019 45.4504C44.6019 45.4504 46.2987 47.2949 48.1432 45.4504C48.1432 42.6528 46.4793 40.2455 44.088 39.1589Z" fill="#4B6BB2"/>
<path d="M43.8733 48.039C43.8417 47.7658 43.6332 47.5471 43.3608 47.5094C39.8615 47.0251 39.6158 44.1041 39.6607 42.9349C39.6711 42.6641 39.4947 42.4253 39.2377 42.3395C37.8721 41.8833 37.7635 40.5635 37.8088 39.8642C37.8172 39.7339 37.7821 39.6096 37.7157 39.505C35.6864 40.7085 34.3252 42.92 34.3252 45.4504C34.3252 49.2662 37.4184 52.3593 41.234 52.3593C43.2591 52.3593 45.0806 51.4879 46.3443 50.0997C44.3841 50.0996 43.9585 48.775 43.8733 48.039Z" fill="#1C2E7A"/>
<path d="M41.2346 48.8179C43.0944 48.8179 44.6021 47.3102 44.6021 45.4504C44.6021 43.5907 43.0944 42.083 41.2346 42.083C39.3748 42.083 37.8672 43.5907 37.8672 45.4504C37.8672 47.3102 39.3748 48.8179 41.2346 48.8179Z" fill="#E9EFFF"/>
<path d="M43.7296 47.7123C43.6374 47.6053 43.5095 47.53 43.3615 47.5096C39.8623 47.0252 39.6165 44.1043 39.6615 42.9351C39.6671 42.7895 39.6174 42.6543 39.5315 42.5459C38.536 43.1309 37.8672 44.2123 37.8672 45.4506C37.8672 47.3104 39.3748 48.8181 41.2346 48.8181C42.2239 48.8181 43.1135 48.3914 43.7296 47.7123Z" fill="#D3DCFB"/>
<path d="M55.1214 43.0898H53.3239C52.8407 43.0898 52.4453 42.6945 52.4453 42.2112V37.652C52.4453 37.1688 52.8407 36.7734 53.3239 36.7734H55.1214C55.6046 36.7734 56 37.1688 56 37.652V42.2112C56 42.6945 55.6046 43.0898 55.1214 43.0898Z" fill="#FFDD40"/>
<path d="M55.1214 39.9316H53.3239C52.8407 39.9316 52.4453 39.5362 52.4453 39.053V42.2112C52.4453 42.6944 52.8407 43.0898 53.3239 43.0898H55.1214C55.6046 43.0898 56 42.6944 56 42.2112V39.053C56 39.5363 55.6046 39.9316 55.1214 39.9316Z" fill="#FFB332"/>
<path d="M50.2791 30.6613H53.311C52.2629 28.6695 50.8454 26.3644 49.0359 24.2227H36.4675C35.9893 24.2227 35.6016 24.6103 35.6016 25.0886V28.2733C35.6016 28.5307 35.7161 28.7748 35.9142 28.9393L39.4222 31.8535C39.7451 32.1217 40.1516 32.2685 40.5712 32.2685H49.4632V31.4773C49.4632 31.0273 49.8293 30.6613 50.2791 30.6613Z" fill="#73C3F9"/>
<path d="M47.7046 25.8882C48.2515 27.2828 49.6187 30.7281 49.6187 30.7281C49.6187 30.7281 49.7657 31.1216 50.1192 31.5109V31.4773C50.1192 31.0274 50.4853 30.6613 50.9351 30.6613H53.3107C52.2626 28.6695 50.8451 26.3644 49.0356 24.2227H48.5752C48.5738 24.2229 47.158 24.4943 47.7046 25.8882Z" fill="#9BD8F9"/>
<path d="M53.7602 34.0398H50.2788C49.7398 34.0398 49.2988 33.5988 49.2988 33.0598V31.4774C49.2988 30.9384 49.7398 30.4974 50.2788 30.4974H53.7602C54.2992 30.4974 54.7402 30.9384 54.7402 31.4774V33.0598C54.7402 33.5988 54.2992 34.0398 53.7602 34.0398Z" fill="#4B6BB2"/>
<path d="M52.0196 33.0597V31.4773C52.0196 30.9383 52.4606 30.4972 52.9996 30.4972H50.2788C49.7398 30.4972 49.2988 30.9382 49.2988 31.4773V33.0597C49.2988 33.5987 49.7398 34.0397 50.2788 34.0397H52.9996C52.4606 34.0397 52.0196 33.5987 52.0196 33.0597Z" fill="#2A428C"/>
<path d="M7.17511 45.4505H31.3539V38.4324H2.46094C3.65783 41.0218 5.25569 43.3875 7.17511 45.4505Z" fill="#3C58A0"/>
<path d="M7.17511 45.4505H10.9447V44.7902C8.57019 40.643 12.368 38.5419 12.368 38.5419C12.3313 38.5051 12.2981 38.4688 12.2645 38.4325H2.46094C3.65783 41.0218 5.25569 43.3875 7.17511 45.4505Z" fill="#2A428C"/>
<path d="M12.368 4.61829C11.0095 5.48804 9.73502 6.47755 8.55859 7.57097L8.55957 7.57152L1.34082 35.5848C1.67452 36.5981 2.06488 37.5858 2.51201 38.5418H31.3539V4.61829H12.368Z" fill="#73C3F9"/>
<path d="M10.6578 9.63543C10.6578 8.10418 12.368 7.57141 12.368 7.57141C10.6234 5.82677 12.368 4.61829 12.368 4.61829C11.0095 5.48804 9.73502 6.47755 8.55859 7.57097L8.55957 7.57152L1.34082 35.5848C1.67452 36.5981 2.06477 37.5858 2.51201 38.5418H12.3679C10.7003 36.8742 12.3679 35.5887 12.3679 35.5887C10.5964 34.8545 10.6577 32.9688 10.6577 32.9688C10.6577 32.9688 10.6578 11.1667 10.6578 9.63543Z" fill="#4FABF7"/>
<path d="M27.5075 7.57141H8.5598C3.29503 12.4646 0 19.4483 0 27.2028C0 30.1319 0.471625 32.9505 1.34017 35.5887H27.5075C28.001 35.5887 28.4011 35.1886 28.4011 34.6951V8.465C28.4011 7.9715 28.001 7.57141 27.5075 7.57141Z" fill="#4FABF7"/>
<path d="M10.6582 32.9687C10.6582 32.9687 10.6582 11.1667 10.6582 9.63543C10.6582 8.10418 12.3683 7.57141 12.3683 7.57141H8.55991C3.29503 12.4646 0 19.4483 0 27.2028C0 30.1319 0.471625 32.9504 1.34017 35.5887H12.3682C10.5967 34.8544 10.6582 32.9687 10.6582 32.9687Z" fill="#1886EA"/>
<path d="M28.7657 44.6295C28.3127 44.6295 27.9454 44.9967 27.9454 45.4498V47.5055C27.9454 47.7724 27.72 47.9977 27.4532 47.9977H11.7715C11.5047 47.9977 11.2793 47.7724 11.2793 47.5055V45.4498C11.2793 44.9967 10.912 44.6295 10.459 44.6295C10.006 44.6295 9.63867 44.9967 9.63867 45.4498V47.5055C9.63867 47.6075 9.6483 47.7069 9.66219 47.805C10.4513 48.4621 11.2792 49.0741 12.1413 49.6383H27.4532C28.6293 49.6383 29.586 48.6815 29.586 47.5055V45.4498C29.586 44.9967 29.2188 44.6295 28.7657 44.6295Z" fill="#4B6BB2"/>
<path d="M19.6123 49.6383C19.1593 49.6383 18.792 49.2712 18.792 48.818V45.4498C18.792 44.9967 19.1593 44.6295 19.6123 44.6295C20.0653 44.6295 20.4326 44.9967 20.4326 45.4498V48.818C20.4326 49.2711 20.0653 49.6383 19.6123 49.6383Z" fill="#4B6BB2"/>
<path d="M42.7656 24.2227H36.4675C35.9893 24.2227 35.6016 24.6103 35.6016 25.0886V28.2733C35.6016 28.5307 35.7161 28.7748 35.9142 28.9393L39.4223 31.8535C39.7451 32.1217 40.1516 32.2685 40.5712 32.2685H45.9957C44.383 32.2681 43.8088 30.7281 43.8088 30.7281C43.8088 30.7281 42.4417 27.2828 41.8948 25.8882C41.3479 24.4937 42.7656 24.2227 42.7656 24.2227Z" fill="#4FABF7"/>
<path d="M28.7408 44.6299C28.2918 44.6434 27.9458 45.035 27.9458 45.4842V47.5056C27.9458 47.7763 27.7243 47.9978 27.4536 47.9978H24.5674C24.1144 47.9978 23.7471 48.3651 23.7471 48.8181C23.7471 49.2711 24.1144 49.6384 24.5674 49.6384H27.4536C28.6315 49.6384 29.5864 48.6836 29.5864 47.5056V45.4499C29.5864 44.9883 29.2054 44.6159 28.7408 44.6299Z" fill="#638ACE"/>
</svg>
