<svg width="24" height="24" viewBox="0 0 24 24" fill="none" xmlns="http://www.w3.org/2000/svg">
<path d="M20.8 3H3.2C1.98497 3 1 4.02335 1 5.28571V16.7143C1 17.9767 1.98497 19 3.2 19H20.8C22.015 19 23 17.9767 23 16.7143V5.28571C23 4.02335 22.015 3 20.8 3Z" fill="#949CAC"/>
<path d="M20.8 3H3.2C1.98497 3 1 4.05345 1 5.35294V7.70588L11.1327 12.5826C11.6808 12.8464 12.3192 12.8464 12.8673 12.5826L23 7.70588V5.35294C23 4.05345 22.015 3 20.8 3Z" fill="#394050"/>
<path fill-rule="evenodd" clip-rule="evenodd" d="M7.87868 0.87868C8.44129 0.31607 9.20435 0 10 0H14C14.7956 0 15.5587 0.31607 16.1213 0.87868C16.6839 1.44129 17 2.20435 17 3V5C17 5.55228 16.5523 6 16 6C15.4477 6 15 5.55228 15 5V3C15 2.73478 14.8946 2.48043 14.7071 2.29289C14.5196 2.10536 14.2652 2 14 2H10C9.73478 2 9.48043 2.10536 9.29289 2.29289C9.10536 2.48043 9 2.73478 9 3V5C9 5.55228 8.55228 6 8 6C7.44772 6 7 5.55228 7 5V3C7 2.20435 7.31607 1.44129 7.87868 0.87868Z" fill="#394050"/>
</svg>
