<svg width="88" height="88" viewBox="0 0 88 88" fill="none" xmlns="http://www.w3.org/2000/svg">
<g clip-path="url(#clip0)">
<path d="M20.8965 81.3562C20.2308 81.3562 19.6048 81.0969 19.1341 80.6261C18.6635 80.1557 18.4043 79.5298 18.4043 78.8641C18.4043 78.1984 18.6635 77.5725 19.1342 77.1019C20.1057 76.1301 21.6873 76.1301 22.6587 77.1019C23.1295 77.5725 23.3887 78.1984 23.3887 78.8641C23.3887 79.5298 23.1295 80.1557 22.6587 80.6263C22.1881 81.0969 21.5622 81.3562 20.8965 81.3562ZM20.8965 78.091C20.6985 78.091 20.5003 78.1663 20.3494 78.317C20.2033 78.4633 20.123 78.6573 20.123 78.8641C20.123 79.0709 20.2035 79.2647 20.3494 79.4108C20.4957 79.5573 20.6897 79.6375 20.8965 79.6375C21.1032 79.6375 21.2973 79.5571 21.4434 79.411C21.5897 79.2647 21.6699 79.0709 21.6699 78.8641C21.6699 78.6573 21.5895 78.4633 21.4436 78.317C21.2927 78.1663 21.0945 78.091 20.8965 78.091Z" fill="#00ECA2"/>
<path d="M83.0561 15.0602C70.9146 3.83463 46.4044 23.8221 29.6332 29.3975C21.3227 32.1602 9.61931 31.545 3.58597 38.9655C-3.22059 47.3368 1.76926 57.4883 8.14626 63.0277C23.9262 76.7351 46.0559 68.8334 62.2404 56.0464C72.2188 48.1626 97.7683 28.6627 83.0561 15.0602Z" fill="url(#paint0_linear)"/>
<path d="M32.7616 29.5797C32.1234 29.5797 31.4851 29.3368 30.9993 28.851C30.0276 27.8794 30.0276 26.2981 30.9993 25.3265C31.9708 24.3547 33.5524 24.3547 34.5238 25.3265C35.4956 26.2981 35.4956 27.8794 34.5238 28.851C34.0381 29.3368 33.3998 29.5797 32.7616 29.5797ZM32.7616 26.3155C32.5636 26.3155 32.3654 26.3907 32.2145 26.5415C31.913 26.8431 31.913 27.3338 32.2145 27.6355C32.5163 27.9369 33.0067 27.9369 33.3085 27.6355C33.61 27.3338 33.61 26.8431 33.3085 26.5415C33.1578 26.3909 32.9598 26.3155 32.7616 26.3155Z" fill="#6583FE"/>
<path opacity="0.1" d="M81.4002 54.912H82.7783C83.8466 54.912 84.7129 54.0458 84.7129 52.9776C84.7129 51.9092 83.8466 51.043 82.7783 51.043H77.3326V44.918C77.3326 44.5318 77.0196 44.2188 76.6334 44.2188H70.4072C70.7919 44.2162 71.1028 43.9043 71.1028 43.5189V41.331V38.5923C74.0568 36.5919 75.9983 33.2092 75.9983 29.3729C75.9983 23.2277 71.0167 18.2461 64.8715 18.2461C58.7262 18.2461 53.7446 23.2277 53.7446 29.3729C53.7446 32.5258 55.0581 35.37 57.1651 37.3947H46.8789C46.4927 37.3947 46.1797 37.7077 46.1797 38.0939C46.1797 37.7077 45.8667 37.3947 45.4805 37.3947H34.4178C34.0316 37.3947 33.7186 37.7077 33.7186 38.0939V43.5196C33.7186 43.9058 34.0316 44.2188 34.4178 44.2188H28.1872C27.801 44.2188 27.488 44.5318 27.488 44.918V51.043H21.8637V37.7464V37.7462H23.2193C23.7535 37.7462 24.1866 37.3132 24.1866 36.7789C24.1866 36.2447 23.7536 35.8116 23.2193 35.8116H18.3595V32.3514C18.3595 31.8172 17.9266 31.3841 17.3922 31.3841C16.8578 31.3841 16.4249 31.817 16.4249 32.3514V36.7789V36.779H15.7731V36.7789V30.0144C15.7731 29.4802 15.3402 29.0471 14.8058 29.0471C14.2715 29.0471 13.8385 29.48 13.8385 30.0144V36.7789C13.8385 36.7806 13.839 36.7821 13.839 36.7839C13.328 36.8098 12.9207 37.2287 12.9207 37.7462V40.4996H10.2059C9.44728 40.4996 8.77663 40.94 8.46141 41.5977C8.3887 41.7495 8.33491 41.913 8.30328 42.0852L6.65964 51.043H5.22173C4.15336 51.043 3.28711 51.9092 3.28711 52.9776C3.28711 54.046 4.15336 54.912 5.22173 54.912H6.59983V56.928C6.59983 59.768 7.61441 62.3706 9.29981 64.3949L5.00809 65.4229C4.48869 65.5471 4.16831 66.0693 4.29292 66.5889C4.39914 67.033 4.79634 67.3283 5.23394 67.3283V76.0697C5.23394 77.1381 6.10002 78.0041 7.16856 78.0041H80.832C81.9003 78.0041 82.7666 77.1381 82.7666 76.0697V67.3309H82.7676C83.2047 67.3309 83.6012 67.0325 83.7074 66.5887C83.8319 66.0691 83.5117 65.5472 82.9922 65.4227L78.7005 64.3947C80.3859 62.3704 81.4005 59.7679 81.4005 56.928V54.912H81.4002Z" fill="#2626BC"/>
<path d="M6.65918 47.0666H12.9202V36.5234H10.2056C9.27185 36.5234 8.47143 37.1905 8.30282 38.1088L6.65918 47.0666Z" fill="#FF5BA8"/>
<path d="M12.9207 39.2655V36.5234H10.2059C9.27212 36.5234 8.47169 37.1905 8.30309 38.1088L8.09082 39.2655H12.9207Z" fill="#FE2C8F"/>
<path d="M21.8639 47.0666H12.9209V33.77C12.9209 33.2359 13.354 32.8027 13.8882 32.8027H20.8968C21.4309 32.8027 21.8641 33.2359 21.8641 33.77V47.0666H21.8639Z" fill="#D2DEFF"/>
<path d="M12.9209 35.0742H21.8639V37.8955H12.9209V35.0742Z" fill="#9FB0FE"/>
<path d="M12.9209 39.9355H21.8639V42.7569H12.9209V39.9355Z" fill="#9FB0FE"/>
<path d="M69.7216 64.6298H18.278C11.8282 64.6298 6.59961 59.4012 6.59961 52.9515V50.9355H81.3999V52.9515C81.3999 59.4012 76.1713 64.6298 69.7216 64.6298Z" fill="#D2DEFF"/>
<path d="M81.2503 54.7833C81.3453 54.186 81.4001 53.5754 81.4001 52.9515V50.9355H6.59961V52.9515C6.59961 53.5755 6.65444 54.186 6.74948 54.7833H81.2503Z" fill="#B7C5FF"/>
<path d="M7.33203 57.0273C8.98581 61.4672 13.2621 64.6302 18.2781 64.6302H69.7217C74.7377 64.6302 79.0139 61.4672 80.6677 57.0273H7.33203Z" fill="#FF5BA8"/>
<path d="M82.7661 62.3884V72.094C82.7661 73.1624 81.9 74.0285 80.8314 74.0285H7.16802C6.09965 74.0285 5.2334 73.1624 5.2334 72.094V62.3884L14.0239 60.2817C14.6178 60.1405 15.235 60.1405 15.8269 60.2817L23.7179 62.1717C24.3098 62.313 24.927 62.313 25.519 62.1717L33.408 60.2817C34 60.1405 34.6191 60.1405 35.211 60.2817L43.1001 62.1717C43.692 62.313 44.3092 62.313 44.903 62.1717L52.7902 60.2817C53.3842 60.1405 54.0012 60.1405 54.5932 60.2817L62.4822 62.1717C63.0742 62.313 63.6914 62.313 64.2852 62.1717L72.1743 60.2817C72.7662 60.1405 73.3834 60.1405 73.9753 60.2817L82.7661 62.3884Z" fill="#9FB0FE"/>
<path d="M82.7783 50.9355H5.22173C4.15336 50.9355 3.28711 50.0692 3.28711 49.001C3.28711 47.9327 4.15336 47.0664 5.22173 47.0664H82.7783C83.8466 47.0664 84.7129 47.9327 84.7129 49.001C84.7129 50.0692 83.8466 50.9355 82.7783 50.9355Z" fill="#8399FE"/>
<path d="M46.1799 34.1191V39.5449C46.1799 39.9311 45.8669 40.2441 45.4807 40.2441H34.4179C34.0317 40.2441 33.7188 39.9311 33.7188 39.5449V34.1191C33.7188 33.7329 34.0317 33.4199 34.4179 33.4199H45.4807C45.8669 33.4199 46.1799 33.7331 46.1799 34.1191Z" fill="#97FFD2"/>
<path d="M35.7441 35.2832H44.1545V38.3775H35.7441V35.2832Z" fill="#01ECA5"/>
<path d="M58.6408 34.1172V39.5429C58.6408 39.9291 58.3278 40.2421 57.9416 40.2421H46.8789C46.4927 40.2421 46.1797 39.9291 46.1797 39.5429V34.1172C46.1797 33.731 46.4927 33.418 46.8789 33.418H57.9416C58.3278 33.418 58.6408 33.7311 58.6408 34.1172Z" fill="#8399FE"/>
<path d="M48.2051 35.2832H56.6155V38.3775H48.2051V35.2832Z" fill="#6583FE"/>
<path d="M71.1029 34.1184V39.5427C71.1029 39.9296 70.7896 40.243 70.4027 40.243H59.341C58.9541 40.243 58.6406 39.9296 58.6406 39.5427V34.1184C58.6406 33.7315 58.9541 33.418 59.341 33.418H70.4027C70.7894 33.418 71.1029 33.7315 71.1029 34.1184Z" fill="#FF7EB8"/>
<path d="M71.1029 34.1184V37.3548C69.3213 38.5677 67.1701 39.2758 64.8544 39.2758C62.5523 39.2758 60.4147 38.5775 58.6406 37.378V34.1184C58.6406 33.7315 58.9541 33.418 59.341 33.418H70.4027C70.7894 33.418 71.1029 33.7315 71.1029 34.1184Z" fill="#FF5BA8"/>
<path d="M60.666 35.2832H69.0764V38.3775H60.666V35.2832Z" fill="#FE2C8F"/>
<path d="M39.9494 40.9414V46.3671C39.9494 46.7533 39.6364 47.0663 39.2502 47.0663H28.1875C27.8013 47.0663 27.4883 46.7533 27.4883 46.3671V40.9414C27.4883 40.5552 27.8013 40.2422 28.1875 40.2422H39.2502C39.6364 40.2422 39.9494 40.5552 39.9494 40.9414Z" fill="#FF7EB8"/>
<path d="M29.5137 42.1074H37.924V45.2017H29.5137V42.1074Z" fill="#FF5BA8"/>
<path d="M52.4104 40.9414V46.3671C52.4104 46.7533 52.0974 47.0663 51.7112 47.0663H40.6484C40.2622 47.0663 39.9492 46.7533 39.9492 46.3671V40.9414C39.9492 40.5552 40.2622 40.2422 40.6484 40.2422H51.7112C52.0972 40.2422 52.4104 40.5552 52.4104 40.9414Z" fill="#97FFD2"/>
<path d="M41.9746 42.1074H50.385V45.2017H41.9746V42.1074Z" fill="#01ECA5"/>
<path d="M64.8722 40.9414V46.3671C64.8722 46.7533 64.5593 47.0663 64.1731 47.0663H53.1103C52.7241 47.0663 52.4111 46.7533 52.4111 46.3671V40.9414C52.4111 40.5552 52.7241 40.2422 53.1103 40.2422H64.1731C64.5593 40.2422 64.8722 40.5552 64.8722 40.9414Z" fill="#FF7EB8"/>
<path d="M54.4365 42.1074H62.8468V45.2017H54.4365V42.1074Z" fill="#FF5BA8"/>
<path d="M77.3332 40.9414V46.3671C77.3332 46.7533 77.0202 47.0663 76.634 47.0663H65.5713C65.1851 47.0663 64.8721 46.7533 64.8721 46.3671V40.9414C64.8721 40.5552 65.1851 40.2422 65.5713 40.2422H76.634C77.0202 40.2422 77.3332 40.5552 77.3332 40.9414Z" fill="#8399FE"/>
<path d="M66.8975 42.1074H75.3078V45.2017H66.8975V42.1074Z" fill="#6583FE"/>
<path d="M64.872 36.5232C71.0172 36.5232 75.9988 31.5416 75.9988 25.3964C75.9988 19.2512 71.0172 14.2695 64.872 14.2695C58.7268 14.2695 53.7451 19.2512 53.7451 25.3964C53.7451 31.5416 58.7268 36.5232 64.872 36.5232Z" fill="#01ECA5"/>
<path d="M82.2598 51.7948H82.7785C84.3192 51.7948 85.5725 50.5415 85.5725 49.001C85.5725 47.4603 84.3192 46.207 82.7785 46.207H78.192V40.9416C78.192 40.0822 77.4928 39.383 76.6334 39.383H71.9613V35.0533C74.9282 32.8693 76.8579 29.3546 76.8579 25.3964C76.8579 18.7871 71.4809 13.4102 64.8717 13.4102C58.2626 13.4102 52.8856 18.7871 52.8856 25.3964C52.8856 29.3543 54.8151 32.869 57.7815 35.053V39.3829H47.0395V34.2778H52.2444C52.7191 34.2778 53.1037 33.8932 53.1037 33.4185C53.1037 32.9437 52.7191 32.5591 52.2444 32.5591H46.8791C46.6275 32.5591 46.3903 32.6204 46.1797 32.7268C45.9692 32.6204 45.732 32.5591 45.4804 32.5591H34.418C33.5586 32.5591 32.8594 33.2583 32.8594 34.1176V39.383H28.1873C27.328 39.383 26.6288 40.0822 26.6288 40.9416V46.207H13.7801V33.7698C13.7801 33.7101 13.8284 33.6618 13.888 33.6618H20.8964C20.956 33.6618 21.0043 33.7101 21.0043 33.7698V42.0387C21.0043 42.5134 21.389 42.898 21.8637 42.898C22.3384 42.898 22.7231 42.5134 22.7231 42.0387V33.7698C22.7231 33.7333 22.7197 33.6978 22.7176 33.6618H23.2191C23.6938 33.6618 24.0785 33.2772 24.0785 32.8025C24.0785 32.3277 23.6938 31.9431 23.2191 31.9431H18.2514V28.3748C18.2514 27.9001 17.8668 27.5154 17.392 27.5154C16.9173 27.5154 16.5327 27.9001 16.5327 28.3748V31.9431H15.6652V26.038C15.6652 25.5633 15.2806 25.1786 14.8058 25.1786C14.3311 25.1786 13.9465 25.5633 13.9465 26.038V31.9431H13.8878C12.8807 31.9431 12.0612 32.7626 12.0612 33.7698V35.664H10.2059C8.85707 35.664 7.70138 36.627 7.458 37.9537L5.94344 46.2072H5.22174C3.68105 46.2072 2.42773 47.4605 2.42773 49.0011C2.42773 50.5417 3.68105 51.795 5.22174 51.795H5.74045V52.9515C5.74045 55.8007 6.69642 58.5227 8.45161 60.7326L5.03336 61.5513C4.57188 61.6618 4.28725 62.1257 4.39794 62.587C4.4923 62.9814 4.84464 63.2465 5.23291 63.2465C5.29908 63.2465 5.36645 63.2387 5.43366 63.2226L14.2254 61.1171C14.6836 61.0073 15.1683 61.0073 15.6272 61.1171L23.5171 63.0067C24.2378 63.1796 24.9997 63.1796 25.7201 63.0067L33.6088 61.1171C34.0674 61.0073 34.5524 61.0073 35.011 61.1171L42.8998 63.0067C43.6205 63.1796 44.3823 63.1796 45.1029 63.0067L52.9913 61.1171C53.4499 61.0073 53.9349 61.0073 54.3935 61.1171L62.2819 63.0067C63.0025 63.1796 63.7643 63.1796 64.4849 63.0067L72.3738 61.1171C72.8327 61.0073 73.3174 61.0073 73.776 61.1171L82.5659 63.2226C83.0277 63.3336 83.4914 63.0485 83.6018 62.5872C83.7124 62.1255 83.4278 61.6618 82.9663 61.5513L79.5482 60.7325C81.3033 58.5225 82.2592 55.8005 82.2592 52.9515V51.7948H82.2598ZM64.0121 41.1018V46.2068H53.2699V41.1018H64.0121ZM40.8088 41.1018H51.5508V46.2068H40.8088V41.1018ZM76.4732 46.2068H65.731V41.1018H76.4732V46.2068ZM70.2426 39.3829H59.5006V36.1069C61.1176 36.9211 62.9412 37.3826 64.8717 37.3826C66.802 37.3826 68.6258 36.9211 70.2426 36.1071V39.3829ZM54.6042 25.3964C54.6042 19.735 59.2101 15.1289 64.8715 15.1289C70.5329 15.1289 75.139 19.735 75.139 25.3964C75.139 31.0578 70.5329 35.6638 64.8715 35.6638C59.2101 35.6638 54.6042 31.0578 54.6042 25.3964ZM34.5782 34.2778H45.3204V39.3829H34.5782V34.2778ZM28.3475 41.1018H39.0897V46.2068H28.3475V41.1018ZM9.14857 38.2638C9.24224 37.7531 9.68705 37.3826 10.2059 37.3826H12.0613V46.207H7.69089L9.14857 38.2638ZM4.14649 49.001C4.14649 48.4082 4.62894 47.9257 5.22174 47.9257H6.65861C6.6593 47.9257 6.65981 47.9259 6.6605 47.9259C6.66119 47.9259 6.66171 47.9257 6.66239 47.9257H82.7783C83.3711 47.9257 83.8536 48.4082 83.8536 49.001C83.8536 49.5938 83.3711 50.0761 82.7783 50.0761H81.4002H6.59966H5.22156C4.62894 50.0761 4.14649 49.5938 4.14649 49.001ZM80.541 52.9512C80.541 55.6823 79.5214 58.2771 77.6702 60.2822L74.1772 59.4455C73.4565 59.2726 72.6947 59.2726 71.9741 59.4455L64.0852 61.3351C63.6263 61.4449 63.1416 61.4449 62.683 61.3351L54.7946 59.4455C54.074 59.2726 53.3122 59.2726 52.5915 59.4455L44.7032 61.3351C44.2446 61.4449 43.7596 61.4449 43.301 61.3351L35.4121 59.4455C34.6914 59.2726 33.9297 59.2726 33.209 59.4455L25.3201 61.3351C24.8619 61.4449 24.3772 61.4449 23.9183 61.3351L16.0284 59.4455C15.3077 59.2726 14.5456 59.2726 13.8256 59.4455L10.3309 60.2823C8.47946 58.2772 7.45989 55.6823 7.45989 52.951V51.7945H80.5417V52.9512H80.541Z" fill="#2626BC"/>
<path d="M69.5634 23.2186C69.5634 20.5836 67.3909 18.456 64.7392 18.5292C62.2181 18.5988 60.1908 20.6774 60.1807 23.1994C60.1767 24.1981 60.4849 25.1247 61.0133 25.8872C61.6227 26.7665 62.1557 27.6963 62.5974 28.6708L64.5321 32.9402C64.6644 33.2324 65.0795 33.2324 65.212 32.9402L67.1614 28.6384C67.6012 27.668 68.1406 26.7476 68.7433 25.8689C69.2605 25.1149 69.5634 24.2021 69.5634 23.2186Z" fill="#FF7EB8"/>
<path d="M64.856 25.9639C66.3529 25.9639 67.5664 24.7504 67.5664 23.2534C67.5664 21.7565 66.3529 20.543 64.856 20.543C63.359 20.543 62.1455 21.7565 62.1455 23.2534C62.1455 24.7504 63.359 25.9639 64.856 25.9639Z" fill="white"/>
<path d="M82.7659 65.1375V67.0991C82.6904 67.0991 82.6169 67.0914 82.5414 67.074L73.7509 64.9674C73.3078 64.8629 72.8417 64.8629 72.3986 64.9674L64.5095 66.8575C63.7725 67.0335 62.9948 67.0335 62.2578 66.8575L54.3687 64.9674C53.9258 64.8629 53.4595 64.8629 53.0164 64.9674L45.1273 66.8575C44.3903 67.0335 43.6126 67.0335 42.8754 66.8575L34.9845 64.9674C34.5434 64.8629 34.0752 64.8629 33.6342 64.9674L25.7451 66.8575C25.0081 67.0335 24.2285 67.0335 23.4913 66.8575L15.6023 64.9674C15.1592 64.8629 14.6912 64.8629 14.25 64.9674L5.45787 67.074C5.38241 67.0914 5.30696 67.1012 5.2334 67.1012V65.1377L13.7995 63.0871C14.5365 62.9111 15.3161 62.9111 16.0512 63.0871L23.9422 64.9772C24.3851 65.0817 24.8514 65.0817 25.2945 64.9772L33.1835 63.0871C33.9205 62.9111 34.6983 62.9111 35.4353 63.0871L43.3243 64.9772C43.7674 65.0817 44.2355 65.0817 44.6767 64.9772L52.5657 63.0871C53.3027 62.9111 54.0824 62.9111 54.8195 63.0871L62.7086 64.9772C63.1496 65.0817 63.6178 65.0817 64.0588 64.9772L71.9479 63.0871C72.6849 62.9111 73.4645 62.9111 74.2017 63.0871L82.7659 65.1375Z" fill="#B7C5FF"/>
<path d="M25.5371 26.6699C25.3172 26.6699 25.0971 26.586 24.9295 26.4181L23.9043 25.393L22.879 26.4181C22.5437 26.7537 21.9992 26.7537 21.6639 26.4181C21.3282 26.0826 21.3282 25.5384 21.6639 25.2029L23.2967 23.5701C23.632 23.2344 24.1765 23.2344 24.5118 23.5701L26.1446 25.2029C26.4803 25.5384 26.4803 26.0826 26.1446 26.4181C25.9771 26.586 25.7569 26.6699 25.5371 26.6699Z" fill="#FF7EB8"/>
<path d="M30.9629 20.0703C30.743 20.0703 30.5229 19.9864 30.3553 19.8185L29.33 18.7934L28.3048 19.8185C27.9695 20.1541 27.425 20.1541 27.0896 19.8185C26.754 19.483 26.754 18.9388 27.0896 18.6033L28.7225 16.9705C29.0578 16.6348 29.6023 16.6348 29.9376 16.9705L31.5704 18.6033C31.9061 18.9388 31.9061 19.483 31.5704 19.8185C31.4029 19.9864 31.1829 20.0703 30.9629 20.0703Z" fill="#00ECA2"/>
<path d="M80.4937 37.3354C79.8555 37.3354 79.2174 37.0925 78.7316 36.6066C77.76 35.635 77.76 34.054 78.7316 33.0823C79.7031 32.1104 81.2845 32.1107 82.2559 33.0823C83.2277 34.054 83.2277 35.635 82.2559 36.6066C81.7702 37.0925 81.1321 37.3354 80.4937 37.3354ZM80.4937 34.0713C80.2959 34.0713 80.0977 34.1466 79.9468 34.2973C79.6453 34.599 79.6453 35.0895 79.9468 35.3911C80.2488 35.6928 80.739 35.6924 81.0406 35.3911C81.3421 35.0895 81.3421 34.599 81.0406 34.2973C80.8899 34.1468 80.6917 34.0713 80.4937 34.0713Z" fill="#FF7EB8"/>
</g>
<defs>
<linearGradient id="paint0_linear" x1="25.3824" y1="70.3886" x2="59.4754" y2="7.87152" gradientUnits="userSpaceOnUse">
<stop offset="0.0112" stop-color="#DAFCED"/>
<stop offset="0.3814" stop-color="#E7F0ED"/>
<stop offset="1" stop-color="#FFD9EC"/>
</linearGradient>
<clipPath id="clip0">
<rect width="88" height="88" fill="white"/>
</clipPath>
</defs>
</svg>
