<svg width="24" height="24" viewBox="0 0 24 24" fill="none" xmlns="http://www.w3.org/2000/svg">
<g clip-path="url(#clip0_4202:15000)">
<path d="M6.39861 9.38306V15.7646H3.65625V9.60535C3.65625 9.48248 3.75513 9.38306 3.87707 9.38306H6.39861Z" fill="url(#paint0_linear_4202:15000)"/>
<path d="M9.14167 7.04553V15.7647H6.39893V7.04553C6.39893 6.92267 6.4978 6.82324 6.61975 6.82324H8.92085C9.04279 6.82324 9.14167 6.92267 9.14167 7.04553Z" fill="url(#paint1_linear_4202:15000)"/>
<path d="M11.884 9.60535V15.7646H9.1416V9.38306H11.6631C11.7851 9.38306 11.884 9.48248 11.884 9.60535Z" fill="url(#paint2_linear_4202:15000)"/>
<path d="M14.6262 12.0542V15.7647H11.8838V11.8319H14.4053C14.5273 11.8319 14.6262 11.9315 14.6262 12.0542Z" fill="url(#paint3_linear_4202:15000)"/>
<path d="M3.65625 11.4386H6.39861V12.1575H3.65625V11.4386Z" fill="url(#paint4_linear_4202:15000)"/>
<path d="M6.39893 11.4386H9.14167V12.1575H6.39893V11.4386Z" fill="url(#paint5_linear_4202:15000)"/>
<path d="M6.39893 13.8707H9.14167V14.5898H6.39893V13.8707Z" fill="url(#paint6_linear_4202:15000)"/>
<path d="M3.65625 13.8707H6.39861V14.5898H3.65625V13.8707Z" fill="url(#paint7_linear_4202:15000)"/>
<path d="M9.1416 13.8707H11.884V14.5898H9.1416V13.8707Z" fill="url(#paint8_linear_4202:15000)"/>
<path d="M14.6265 13.8718V14.5887C14.6199 14.5896 14.6136 14.5896 14.6069 14.5896H11.8843V13.8707H14.6069C14.6136 13.8707 14.6199 13.8707 14.6265 13.8718Z" fill="url(#paint9_linear_4202:15000)"/>
<path d="M9.1416 11.4386H11.884V12.1575H9.1416V11.4386Z" fill="url(#paint10_linear_4202:15000)"/>
<path d="M22.7504 11.9381H17.123C16.8343 11.9381 16.6001 12.1721 16.6001 12.4609V13.6236H23.2734V12.4609C23.2734 12.1721 23.0394 11.9381 22.7504 11.9381V11.9381Z" fill="#5078FB"/>
<path d="M6.39893 9.00623H9.14167V9.72509H6.39893V9.00623Z" fill="url(#paint11_linear_4202:15000)"/>
<path d="M23.9751 14.2252C23.9751 14.2252 23.6486 15.2676 23.3102 16.3397C22.9618 17.442 22.6003 18.5754 22.5683 18.6378L21.4949 18.6278L19.253 18.6076L18.047 18.5966L15.91 18.5769H15.9094L14.6046 18.565L12.5621 18.5463L11.1672 18.5333L9.21291 18.5155L7.73122 18.5016L5.86079 18.4849L4.29854 18.4705L2.50777 18.4536L1.5461 18.445L0.999708 16.7143L0.13838 13.9849C0.0698984 13.7678 0.232313 13.5464 0.460096 13.5464H3.99385C4.27657 13.5464 4.5287 13.7247 4.62318 13.9912L5.07234 15.2593C5.16682 15.5259 5.41896 15.7041 5.70168 15.7041H14.8103C15.0803 15.7041 15.3233 15.5421 15.4268 15.2929L15.9838 13.9571C16.0874 13.7084 16.3304 13.5464 16.5998 13.5464H23.4785C23.8308 13.5464 24.082 13.8892 23.9751 14.2252V14.2252Z" fill="#0538E0"/>
<path d="M17.4272 9.06055H22.4467V11.938H17.4272V9.06055Z" fill="url(#paint12_linear_4202:15000)"/>
<path d="M21.4955 7.90247H18.3783C17.679 7.90247 17.1123 8.46936 17.1123 9.16846H22.7613C22.7613 8.46936 22.1946 7.90247 21.4955 7.90247V7.90247Z" fill="#5078FB"/>
<path d="M18.7029 11.1974C18.5042 11.1974 18.3433 11.0364 18.3433 10.838V10.2685C18.3433 10.07 18.5042 9.90906 18.7029 9.90906C18.9014 9.90906 19.0623 10.07 19.0623 10.2685V10.838C19.0623 11.0364 18.9014 11.1974 18.7029 11.1974Z" fill="#0538E0"/>
<path d="M19.8868 11.1974C19.6883 11.1974 19.5273 11.0364 19.5273 10.838V10.2685C19.5273 10.07 19.6883 9.90906 19.8868 9.90906C20.0855 9.90906 20.2464 10.07 20.2464 10.2685V10.838C20.2464 11.0364 20.0855 11.1974 19.8868 11.1974Z" fill="#0538E0"/>
<path d="M21.0987 11.1974C20.9002 11.1974 20.7393 11.0364 20.7393 10.838V10.2685C20.7393 10.07 20.9002 9.90906 21.0987 9.90906C21.2974 9.90906 21.4583 10.07 21.4583 10.2685V10.838C21.4583 11.0364 21.2974 11.1974 21.0987 11.1974Z" fill="#0538E0"/>
<path d="M0 19.2538C0 19.3001 0.0366211 19.3378 0.0827637 19.3404C0.849061 19.3825 0.876709 20.0091 1.69629 20.0091C2.54444 20.0091 2.54444 19.3382 3.39258 19.3382C4.24073 19.3382 4.24073 20.0091 5.08887 20.0091C5.93702 20.0091 5.93702 19.3382 6.78516 19.3382C7.63331 19.3382 7.63331 20.0091 8.48145 20.0091C9.3296 20.0091 9.3296 19.3382 10.1779 19.3382C11.0259 19.3382 11.0259 20.0091 11.874 20.0091C12.7222 20.0091 12.7222 19.3382 13.5703 19.3382C14.4185 19.3382 14.4185 20.0091 15.2666 20.0091C16.1149 20.0091 16.1149 19.3382 16.9631 19.3382C17.8114 19.3382 17.8114 20.0091 18.6596 20.0091C19.5079 20.0091 19.5079 19.3382 20.356 19.3382C21.2044 19.3382 21.2044 20.0091 22.0529 20.0091C22.8726 20.0091 22.9001 19.3825 23.6666 19.3404C23.7129 19.3378 23.7495 19.3001 23.7495 19.2538V17.6014C23.7495 17.5518 23.7076 17.5115 23.6578 17.5145C22.8999 17.561 22.8695 18.1828 22.0529 18.1828C21.2044 18.1828 21.2044 17.5117 20.356 17.5117C19.5079 17.5117 19.5079 18.1828 18.6596 18.1828C17.8114 18.1828 17.8114 17.5117 16.9631 17.5117C16.1149 17.5117 16.1149 18.1828 15.2666 18.1828C14.4185 18.1828 14.4185 17.5117 13.5703 17.5117C12.7222 17.5117 12.7222 18.1828 11.874 18.1828C11.0261 18.1828 11.0261 17.5117 10.1779 17.5117C9.3296 17.5117 9.3296 18.1828 8.48145 18.1828C7.63331 18.1828 7.63331 17.5117 6.78516 17.5117C5.93702 17.5117 5.93702 18.1828 5.08887 18.1828C4.24073 18.1828 4.24073 17.5117 3.39258 17.5117C2.54444 17.5117 2.54444 18.1828 1.69629 18.1828C0.879822 18.1828 0.849244 17.561 0.0915528 17.5145C0.0419312 17.5115 0 17.5518 0 17.6014V19.2538Z" fill="url(#paint13_linear_4202:15000)"/>
</g>
<defs>
<linearGradient id="paint0_linear_4202:15000" x1="5.02743" y1="9.38258" x2="5.02743" y2="15.768" gradientUnits="userSpaceOnUse">
<stop offset="1.0825e-07" stop-color="#FECC2B"/>
<stop offset="1" stop-color="#FC9A13"/>
</linearGradient>
<linearGradient id="paint1_linear_4202:15000" x1="7.77027" y1="15.7647" x2="2.85932" y2="10.5878" gradientUnits="userSpaceOnUse">
<stop stop-color="#FFD52A"/>
<stop offset="1" stop-color="#FFFC49"/>
</linearGradient>
<linearGradient id="paint2_linear_4202:15000" x1="10.5128" y1="9.38258" x2="10.5128" y2="15.768" gradientUnits="userSpaceOnUse">
<stop offset="1.0825e-07" stop-color="#FECC2B"/>
<stop offset="1" stop-color="#FC9A13"/>
</linearGradient>
<linearGradient id="paint3_linear_4202:15000" x1="13.2549" y1="15.7646" x2="11.7174" y2="12.0802" gradientUnits="userSpaceOnUse">
<stop stop-color="#FFD52A"/>
<stop offset="1" stop-color="#FFFC49"/>
</linearGradient>
<linearGradient id="paint4_linear_4202:15000" x1="5.02743" y1="12.1573" x2="5.02743" y2="11.4388" gradientUnits="userSpaceOnUse">
<stop offset="3.2476e-07" stop-color="#FE9045"/>
<stop offset="1" stop-color="#EA581F"/>
</linearGradient>
<linearGradient id="paint5_linear_4202:15000" x1="7.7703" y1="11.4385" x2="7.7703" y2="12.1578" gradientUnits="userSpaceOnUse">
<stop offset="1.0825e-07" stop-color="#FECC2B"/>
<stop offset="1" stop-color="#FC9A13"/>
</linearGradient>
<linearGradient id="paint6_linear_4202:15000" x1="7.7703" y1="13.8707" x2="7.7703" y2="14.5901" gradientUnits="userSpaceOnUse">
<stop offset="1.0825e-07" stop-color="#FECC2B"/>
<stop offset="1" stop-color="#FC9A13"/>
</linearGradient>
<linearGradient id="paint7_linear_4202:15000" x1="5.02743" y1="14.5896" x2="5.02743" y2="13.871" gradientUnits="userSpaceOnUse">
<stop offset="3.2476e-07" stop-color="#FE9045"/>
<stop offset="1" stop-color="#EA581F"/>
</linearGradient>
<linearGradient id="paint8_linear_4202:15000" x1="10.5128" y1="14.5896" x2="10.5128" y2="13.871" gradientUnits="userSpaceOnUse">
<stop offset="3.2476e-07" stop-color="#FE9045"/>
<stop offset="1" stop-color="#EA581F"/>
</linearGradient>
<linearGradient id="paint9_linear_4202:15000" x1="13.2554" y1="13.8707" x2="13.2554" y2="14.59" gradientUnits="userSpaceOnUse">
<stop offset="1.0825e-07" stop-color="#FECC2B"/>
<stop offset="1" stop-color="#FC9A13"/>
</linearGradient>
<linearGradient id="paint10_linear_4202:15000" x1="10.5128" y1="12.1573" x2="10.5128" y2="11.4388" gradientUnits="userSpaceOnUse">
<stop offset="3.2476e-07" stop-color="#FE9045"/>
<stop offset="1" stop-color="#EA581F"/>
</linearGradient>
<linearGradient id="paint11_linear_4202:15000" x1="7.7703" y1="9.00617" x2="7.7703" y2="9.72547" gradientUnits="userSpaceOnUse">
<stop offset="1.0825e-07" stop-color="#FECC2B"/>
<stop offset="1" stop-color="#FC9A13"/>
</linearGradient>
<linearGradient id="paint12_linear_4202:15000" x1="19.9369" y1="11.938" x2="19.4232" y2="8.85849" gradientUnits="userSpaceOnUse">
<stop stop-color="#FFD52A"/>
<stop offset="1" stop-color="#FFFC49"/>
</linearGradient>
<linearGradient id="paint13_linear_4202:15000" x1="11.8748" y1="15.4306" x2="12.037" y2="21.1144" gradientUnits="userSpaceOnUse">
<stop stop-color="#0F5EF9"/>
<stop offset="1" stop-color="#2FECE6"/>
</linearGradient>
<clipPath id="clip0_4202:15000">
<rect width="24" height="24" fill="white"/>
</clipPath>
</defs>
</svg>
