<svg width="24" height="24" viewBox="0 0 24 24" fill="none" xmlns="http://www.w3.org/2000/svg">
<path d="M2.0625 15.75H5.0625V18.75H2.0625V15.75Z" fill="#00A7E6"/>
<path d="M3.75 16.5H3.375C3.16789 16.5 3 16.6679 3 16.875V17.25C3 17.4571 3.16789 17.625 3.375 17.625H3.75C3.95711 17.625 4.125 17.4571 4.125 17.25V16.875C4.125 16.6679 3.95711 16.5 3.75 16.5Z" fill="#66D6FF"/>
<path d="M16.2322 4.5H19.7678L22.125 19.5H13.875L16.2322 4.5Z" fill="#66D6FF"/>
<path d="M12.75 19.5H23.25V23.25H12.75V19.5Z" fill="#00A7E6"/>
<path d="M21.75 21H21.375C21.1679 21 21 21.1679 21 21.375V21.75C21 21.9571 21.1679 22.125 21.375 22.125H21.75C21.9571 22.125 22.125 21.9571 22.125 21.75V21.375C22.125 21.1679 21.9571 21 21.75 21Z" fill="#063EF9"/>
<path d="M19.5 21H19.125C18.9179 21 18.75 21.1679 18.75 21.375V21.75C18.75 21.9571 18.9179 22.125 19.125 22.125H19.5C19.7071 22.125 19.875 21.9571 19.875 21.75V21.375C19.875 21.1679 19.7071 21 19.5 21Z" fill="#063EF9"/>
<path d="M16.875 21H16.5C16.2929 21 16.125 21.1679 16.125 21.375V21.75C16.125 21.9571 16.2929 22.125 16.5 22.125H16.875C17.0821 22.125 17.25 21.9571 17.25 21.75V21.375C17.25 21.1679 17.0821 21 16.875 21Z" fill="#063EF9"/>
<path d="M14.625 21H14.25C14.0429 21 13.875 21.1679 13.875 21.375V21.75C13.875 21.9571 14.0429 22.125 14.25 22.125H14.625C14.8321 22.125 15 21.9571 15 21.75V21.375C15 21.1679 14.8321 21 14.625 21Z" fill="#063EF9"/>
<path d="M14.48 15.6496L22.0126 18.7864L21.8694 17.8748L15.074 15.0451L21.0969 12.9601L20.8951 11.6753L15.9942 9.73657L20.3214 8.0247L20.1462 6.91057L16.0584 5.61682L16.0554 5.62282L15.935 6.3897L19.4836 7.51282L15.5116 9.08445L15.3185 10.3122L20.4759 12.3522L14.6829 14.3577L14.48 15.6496Z" fill="#063EF9"/>
<path d="M7.875 4.6875H8.625V8.625H7.875V4.6875Z" fill="#063EF9"/>
<path d="M7.125 8.25H9.375V9.75H7.125V8.25Z" fill="#063EF9"/>
<path d="M6 9.75H10.5V12.75H6V9.75Z" fill="#66D6FF"/>
<path d="M8.30461 4.12501L8.17627 3.38965L17.9838 0.757329C18.0319 0.746957 18.0818 0.748615 18.1292 0.762155C18.1765 0.775695 18.2198 0.8007 18.2551 0.834954C18.2936 0.872712 18.3241 0.917878 18.3447 0.967728C18.3653 1.01758 18.3755 1.07108 18.3749 1.12501V3.75001H17.721V1.5824L8.30461 4.12501Z" fill="#063EF9"/>
<path d="M3.27878 22.5779C3.40068 22.4401 3.54957 22.3288 3.71623 22.2509C3.8829 22.173 4.06378 22.1301 4.24768 22.125C5.1221 22.125 5.1221 22.875 5.99652 22.875C6.87169 22.875 6.8717 22.125 7.74687 22.125C7.94147 22.1344 8.13217 22.1829 8.30753 22.2678C8.48289 22.3527 8.63931 22.4721 8.76739 22.6189C9.10208 22.4163 9.3571 22.105 9.48985 21.737L10.9899 18.375H1.125L2.625 21.737C2.74788 22.0797 2.97691 22.3743 3.27878 22.5779Z" fill="#063EF9"/>
<path d="M9.49841 23.2499C9.29025 23.2508 9.084 23.2101 8.89176 23.1302C8.69952 23.0504 8.52516 22.9329 8.37891 22.7848C8.29982 22.6952 8.2026 22.6235 8.09369 22.5744C7.98478 22.5253 7.86667 22.4999 7.74719 22.4999C7.62772 22.4999 7.50961 22.5253 7.4007 22.5744C7.29179 22.6235 7.19456 22.6952 7.11548 22.7848C6.96883 22.9322 6.79449 23.0492 6.60248 23.129C6.41046 23.2088 6.20457 23.2499 5.99663 23.2499C5.78868 23.2499 5.5828 23.2087 5.39081 23.1288C5.19883 23.0489 5.02452 22.9319 4.87793 22.7844C4.79911 22.695 4.70217 22.6234 4.59353 22.5743C4.4849 22.5253 4.36706 22.4999 4.24786 22.4999C4.12866 22.4999 4.01083 22.5253 3.90219 22.5743C3.79356 22.6234 3.69661 22.695 3.6178 22.7844C3.47121 22.9319 3.29689 23.049 3.10489 23.1289C2.91289 23.2088 2.70698 23.2499 2.49902 23.2499C2.29106 23.2499 2.08516 23.2088 1.89315 23.1289C1.70115 23.049 1.52684 22.9319 1.38025 22.7844C1.30116 22.6953 1.20413 22.6239 1.09552 22.5748C0.986908 22.5258 0.869165 22.5003 0.75 22.4999V21.7499C0.958084 21.749 1.16424 21.7898 1.35636 21.8697C1.54848 21.9496 1.7227 22.0672 1.86877 22.2153C1.94763 22.3048 2.04461 22.3764 2.15327 22.4255C2.26194 22.4745 2.3798 22.4999 2.49902 22.4999C2.61825 22.4999 2.73611 22.4745 2.84478 22.4255C2.95344 22.3764 3.05042 22.3048 3.12927 22.2153C3.27583 22.0678 3.45011 21.9508 3.64208 21.8709C3.83406 21.791 4.03993 21.7499 4.24786 21.7499C4.4558 21.7499 4.66167 21.791 4.85365 21.8709C5.04562 21.9508 5.2199 22.0678 5.36646 22.2153C5.44538 22.3048 5.54243 22.3764 5.65118 22.4255C5.75992 22.4746 5.87786 22.4999 5.99716 22.4999C6.11645 22.4999 6.23438 22.4744 6.34309 22.4253C6.45181 22.3762 6.54882 22.3045 6.62769 22.215C6.77448 22.0676 6.94894 21.9506 7.14106 21.8708C7.33317 21.791 7.53916 21.7499 7.74719 21.7499C7.95523 21.7499 8.16121 21.791 8.35333 21.8708C8.54544 21.9506 8.7199 22.0676 8.8667 22.215C8.94582 22.3045 9.04308 22.3762 9.15202 22.4254C9.26096 22.4745 9.37909 22.4999 9.4986 22.4999C9.6181 22.4999 9.73624 22.4745 9.84518 22.4254C9.95412 22.3762 10.0514 22.3045 10.1305 22.215C10.2768 22.0668 10.4511 21.9494 10.6433 21.8695C10.8356 21.7897 11.0418 21.749 11.25 21.7499V22.4999C11.1306 22.5002 11.0126 22.5258 10.9037 22.5749C10.7949 22.624 10.6976 22.6955 10.6183 22.7848C10.472 22.933 10.2976 23.0504 10.1053 23.1303C9.91295 23.2102 9.70664 23.2508 9.49841 23.2499Z" fill="#66D6FF"/>
<path d="M7.875 3.375H22.875V4.875H7.875V3.375Z" fill="#00A7E6"/>
</svg>
