<svg width="24" height="24" viewBox="0 0 24 24" fill="none" xmlns="http://www.w3.org/2000/svg">
<path d="M2 3H13.6905C14.6898 3 15.5 3.81015 15.5 4.80952C15.5 5.8089 16.3102 6.61905 17.3095 6.61905H22C23.1046 6.61905 24 7.51448 24 8.61905V19.8286C24 20.4045 23.7615 20.9568 23.3368 21.364C22.9122 21.7712 22.3363 22 21.7358 22H2.26415C1.66366 22 1.08776 21.7712 0.663154 21.364C0.238544 20.9568 0 20.4045 0 19.8286V6.61905V5C0 3.89543 0.89543 3 2 3Z" fill="url(#paint0_linear_4202:14965)"/>
<path d="M2 3H9.51123C10.5106 3 11.3208 3.81015 11.3208 4.80952C11.3208 5.8089 12.1309 6.61905 13.1303 6.61905H22C23.1046 6.61905 24 7.51448 24 8.61905V19.8286C24 20.4045 23.7615 20.9568 23.3368 21.364C22.9122 21.7712 22.3363 22 21.7358 22H2.26415C1.66366 22 1.08776 21.7712 0.663154 21.364C0.238544 20.9568 0 20.4045 0 19.8286V6.61905V5C0 3.89543 0.895433 3 2 3Z" fill="url(#paint1_linear_4202:14965)"/>
<defs>
<linearGradient id="paint0_linear_4202:14965" x1="-8.04663e-09" y1="8.795" x2="24.4385" y2="11.5371" gradientUnits="userSpaceOnUse">
<stop stop-color="#FF14BC"/>
<stop offset="1" stop-color="#E5051F"/>
</linearGradient>
<linearGradient id="paint1_linear_4202:14965" x1="-8.04663e-09" y1="8.795" x2="24.4385" y2="11.5371" gradientUnits="userSpaceOnUse">
<stop stop-color="#FF4C4C"/>
<stop offset="1" stop-color="#FE6794"/>
</linearGradient>
</defs>
</svg>
