<svg width="88" height="88" viewBox="0 0 88 88" fill="none" xmlns="http://www.w3.org/2000/svg">
<g clip-path="url(#clip0_1440_7617)">
<path d="M62.704 7.81427C50.8277 3.16763 34.3817 4.93295 25.2933 13.23C18.8762 19.0884 23.8428 20.7582 28.2179 31.478C31.3844 39.2365 0 38.1686 0 52.1881C0 68.3957 22.7306 65.3235 31.1659 67.1787C44.0627 70.0153 55.3137 80.6265 69.0932 79.2276C81.0892 78.0097 85.6625 68.5963 87.3307 57.8048C90.4386 37.6996 82.8054 15.6793 62.704 7.81427Z" fill="url(#paint0_linear_1440_7617)"/>
<path opacity="0.1" d="M63.8944 13.9529H24.0984C22.2009 13.9529 20.6609 15.4912 20.6609 17.3904V59.2028C19.7149 59.2067 18.9492 59.9743 18.9492 60.9212V63.8568C18.9492 65.1489 19.6357 66.2776 20.6609 66.9077V75.8519C20.6609 77.7512 22.2009 79.2894 24.0984 79.2894H63.8944C65.7936 79.2894 67.3319 77.7512 67.3319 75.8519V17.3904C67.3319 15.4912 65.7936 13.9529 63.8944 13.9529Z" fill="#2626BC"/>
<path d="M67.3321 13.0935V71.5551C67.3321 73.4543 65.7938 74.9926 63.8946 74.9926H24.0986C22.2011 74.9926 20.6611 73.4543 20.6611 71.5551V13.0935C20.6611 11.1943 22.2011 9.65601 24.0986 9.65601H63.8946C65.7938 9.65601 67.3321 11.1943 67.3321 13.0935Z" fill="#FF7EB8"/>
<path d="M62.0916 19.7363V63.0505C62.0916 64.991 60.543 66.5688 58.6163 66.6238C58.6507 66.6255 58.685 66.6307 58.7194 66.6307H22.5294C21.8454 66.6307 21.2043 66.4382 20.6611 66.1048V58.3945H25.9033V19.7363C25.9033 18.7859 26.6716 18.0176 27.6221 18.0176H60.3729C61.3216 18.0176 62.0916 18.7859 62.0916 19.7363Z" fill="#FF5BA8"/>
<path d="M62.0916 16.249V59.5632C62.0916 61.5381 60.488 63.1417 58.5132 63.1417H25.9033V16.249C25.9033 15.2986 26.6716 14.5303 27.6221 14.5303H60.3729C61.3216 14.5303 62.0916 15.2986 62.0916 16.249Z" fill="white"/>
<path d="M54.4898 57.292C54.4671 57.292 54.4446 57.291 54.4217 57.2891C54.1301 57.2635 53.8776 57.076 53.7688 56.8041L52.9287 54.7038C52.9116 54.6611 52.8709 54.6336 52.825 54.6336C52.3964 54.6336 52.0488 54.2861 52.0488 53.8575C52.0488 53.4288 52.3964 53.0813 52.825 53.0813C53.5094 53.0813 54.1158 53.4919 54.37 54.1273L54.6397 54.8017L57.4079 50.3414C57.6339 49.977 58.1126 49.8651 58.4766 50.0912C58.8408 50.3172 58.9529 50.7957 58.7267 51.1601L55.1486 56.9252C55.0068 57.1545 54.7566 57.292 54.4898 57.292Z" fill="#01ECA5"/>
<path d="M32.0327 53.712H30.0527C29.578 53.712 29.1934 53.3272 29.1934 52.8527C29.1934 52.3781 29.578 51.9933 30.0527 51.9933H32.0327C32.5075 51.9933 32.8921 52.3781 32.8921 52.8527C32.8921 53.3272 32.5073 53.712 32.0327 53.712Z" fill="#FF7EB8"/>
<path d="M55.2924 14.5303V17.9317C55.2924 18.8804 54.5224 19.6504 53.5737 19.6504H34.4199C33.4712 19.6504 32.7012 18.8804 32.7012 17.9317V14.5303H55.2924Z" fill="#D2DEFF"/>
<path d="M53.574 17.3248H34.4209C33.4716 17.3248 32.7021 16.5553 32.7021 15.6061V9.65576H55.2927V15.6061C55.2927 16.5553 54.5232 17.3248 53.574 17.3248Z" fill="#8399FE"/>
<path d="M63.8941 75.8521H24.0986C21.7293 75.8521 19.8018 73.9245 19.8018 71.5552V46.9614C19.8018 46.4869 20.1866 46.102 20.6611 46.102C21.1357 46.102 21.5205 46.4869 21.5205 46.9614V71.555C21.5205 72.9766 22.6771 74.1331 24.0986 74.1331H63.8941C65.3156 74.1331 66.4722 72.9766 66.4722 71.555V13.0933C66.4722 11.6717 65.3156 10.5151 63.8941 10.5151H51.5832C51.1086 10.5151 50.7238 10.1303 50.7238 9.65576C50.7238 9.18121 51.1086 8.79639 51.5832 8.79639H63.8941C66.2633 8.79639 68.1909 10.724 68.1909 13.0933V71.5552C68.1909 73.9245 66.2633 75.8521 63.8941 75.8521Z" fill="#2626BC"/>
<path d="M20.6611 42.7931C20.1866 42.7931 19.8018 42.4083 19.8018 41.9337V13.0933C19.8018 10.724 21.7293 8.79639 24.0986 8.79639H46.5555C47.03 8.79639 47.4149 9.18121 47.4149 9.65576C47.4149 10.1303 47.03 10.5151 46.5555 10.5151H24.0986C22.6771 10.5151 21.5205 11.6717 21.5205 13.0933V41.9337C21.5205 42.4083 21.1359 42.7931 20.6611 42.7931Z" fill="#2626BC"/>
<path d="M58.7194 63.1418H22.5294C20.5528 63.1418 18.9492 61.5382 18.9492 59.5599V56.6243C18.9492 55.675 19.7187 54.9055 20.668 54.9055H53.4205C54.3697 54.9055 55.1392 55.675 55.1392 56.6243V59.5599C55.1392 61.5382 56.7428 63.1418 58.7194 63.1418Z" fill="#D2DEFF"/>
<path d="M38.4505 15.3335C38.8946 15.3335 39.2545 14.9735 39.2545 14.5295C39.2545 14.0854 38.8946 13.7255 38.4505 13.7255C38.0065 13.7255 37.6465 14.0854 37.6465 14.5295C37.6465 14.9735 38.0065 15.3335 38.4505 15.3335Z" fill="#B7C5FF"/>
<path d="M35.9066 15.3335C36.3506 15.3335 36.7106 14.9735 36.7106 14.5295C36.7106 14.0854 36.3506 13.7255 35.9066 13.7255C35.4625 13.7255 35.1025 14.0854 35.1025 14.5295C35.1025 14.9735 35.4625 15.3335 35.9066 15.3335Z" fill="#B7C5FF"/>
<path d="M52.0872 15.3335C52.5313 15.3335 52.8913 14.9735 52.8913 14.5295C52.8913 14.0854 52.5313 13.7255 52.0872 13.7255C51.6432 13.7255 51.2832 14.0854 51.2832 14.5295C51.2832 14.9735 51.6432 15.3335 52.0872 15.3335Z" fill="#B7C5FF"/>
<path d="M49.5433 15.3335C49.9873 15.3335 50.3473 14.9735 50.3473 14.5295C50.3473 14.0854 49.9873 13.7255 49.5433 13.7255C49.0992 13.7255 48.7393 14.0854 48.7393 14.5295C48.7393 14.9735 49.0992 15.3335 49.5433 15.3335Z" fill="#B7C5FF"/>
<path d="M54.4898 38.356C54.4671 38.356 54.4446 38.355 54.4217 38.3531C54.1301 38.3275 53.8776 38.14 53.7688 37.8681L52.9287 35.7677C52.9116 35.7251 52.8709 35.6976 52.825 35.6976C52.3964 35.6976 52.0488 35.3501 52.0488 34.9214C52.0488 34.4928 52.3964 34.1452 52.825 34.1452C53.5094 34.1452 54.1158 34.5558 54.37 35.1913L54.6397 35.8657L57.4079 31.4054C57.6339 31.041 58.1126 30.9291 58.4766 31.1551C58.8408 31.3811 58.9529 31.8596 58.7267 32.224L55.1486 37.9894C55.0068 38.2185 54.7566 38.356 54.4898 38.356Z" fill="#01ECA5"/>
<path d="M39.7671 38.2188H30.0527C29.578 38.2188 29.1934 37.8339 29.1934 37.3594C29.1934 36.8848 29.578 36.5 30.0527 36.5H39.7671C40.2418 36.5 40.6265 36.8848 40.6265 37.3594C40.6265 37.8339 40.2417 38.2188 39.7671 38.2188Z" fill="#8399FE"/>
<path d="M47.6323 38.2188H43.9336C43.4589 38.2188 43.0742 37.8339 43.0742 37.3594C43.0742 36.8848 43.4589 36.5 43.9336 36.5H47.6323C48.1071 36.5 48.4917 36.8848 48.4917 37.3594C48.4917 37.8339 48.1071 38.2188 47.6323 38.2188Z" fill="#8399FE"/>
<path d="M32.0327 34.7758H30.0527C29.578 34.7758 29.1934 34.3909 29.1934 33.9164C29.1934 33.4418 29.578 33.057 30.0527 33.057H32.0327C32.5075 33.057 32.8921 33.4418 32.8921 33.9164C32.8921 34.3909 32.5073 34.7758 32.0327 34.7758Z" fill="#01ECA5"/>
<path d="M54.4898 47.8241C54.4671 47.8241 54.4446 47.8231 54.4217 47.8212C54.1301 47.7956 53.8776 47.6081 53.7688 47.3362L52.9287 45.2359C52.9116 45.1932 52.8709 45.1657 52.825 45.1657C52.3964 45.1657 52.0488 44.8182 52.0488 44.3896C52.0488 43.9609 52.3964 43.6134 52.825 43.6134C53.5094 43.6134 54.1158 44.024 54.37 44.6594L54.6397 45.3338L57.4079 40.8735C57.6339 40.5091 58.1126 40.3973 58.4766 40.6233C58.8408 40.8493 58.9529 41.3278 58.7267 41.6922L55.1486 47.4575C55.0068 47.6866 54.7566 47.8241 54.4898 47.8241Z" fill="#01ECA5"/>
<path d="M39.7671 47.687H30.0527C29.578 47.687 29.1934 47.3022 29.1934 46.8276C29.1934 46.3531 29.578 45.9683 30.0527 45.9683H39.7671C40.2418 45.9683 40.6265 46.3531 40.6265 46.8276C40.6265 47.3022 40.2417 47.687 39.7671 47.687Z" fill="#8399FE"/>
<path d="M47.6323 47.687H43.9336C43.4589 47.687 43.0742 47.3022 43.0742 46.8276C43.0742 46.3531 43.4589 45.9683 43.9336 45.9683H47.6323C48.1071 45.9683 48.4917 46.3531 48.4917 46.8276C48.4917 47.3022 48.1071 47.687 47.6323 47.687Z" fill="#8399FE"/>
<path d="M32.0327 44.2442H30.0527C29.578 44.2442 29.1934 43.8593 29.1934 43.3848C29.1934 42.9102 29.578 42.5254 30.0527 42.5254H32.0327C32.5075 42.5254 32.8921 42.9102 32.8921 43.3848C32.8921 43.8593 32.5073 44.2442 32.0327 44.2442Z" fill="#FF7EB8"/>
<path d="M39.7803 23.1141L40.9951 26.0173L39.7803 28.9204C39.574 29.4134 40.0716 29.9075 40.5632 29.6975L47.8981 26.5645C48.38 26.3588 48.38 25.6756 47.8981 25.4699L40.5632 22.3369C40.0716 22.1271 39.574 22.6212 39.7803 23.1141Z" fill="#8399FE"/>
<path d="M43.7668 26.5729L40.1094 28.1359L40.9953 26.0171L40.1084 23.8982L43.7668 25.4612C44.2231 25.6563 44.2231 26.3789 43.7668 26.5729Z" fill="#6583FE"/>
<path d="M15.4695 36.4075C14.8313 36.4075 14.1931 36.1645 13.7072 35.6788C12.7356 34.707 12.7356 33.1259 13.7072 32.1543C14.6788 31.1827 16.2601 31.1825 17.2317 32.1543C18.2033 33.1261 18.2033 34.7072 17.2317 35.6788C16.746 36.1645 16.1078 36.4075 15.4695 36.4075ZM15.4696 33.1433C15.2715 33.1433 15.0735 33.2186 14.9227 33.3695C14.6211 33.6709 14.6211 34.1616 14.9227 34.4633C15.2242 34.7649 15.7151 34.7649 16.0165 34.4633C16.3182 34.1618 16.3182 33.6711 16.0165 33.3695C15.8658 33.2187 15.6676 33.1433 15.4696 33.1433Z" fill="#FF7EB8"/>
<path d="M63.8103 82.7055C63.1446 82.7055 62.5188 82.4463 62.048 81.9754C61.0764 81.0038 61.0764 79.4227 62.048 78.4511C63.0197 77.4795 64.6009 77.4793 65.5725 78.4511C66.5441 79.4228 66.5441 81.0039 65.5725 81.9755C65.1019 82.4463 64.4761 82.7055 63.8103 82.7055ZM63.8105 79.4402C63.6123 79.4402 63.4143 79.5155 63.2635 79.6664C62.9621 79.9679 62.9621 80.4586 63.2635 80.7602C63.4096 80.9065 63.6039 80.9867 63.8105 80.9867C64.017 80.9867 64.2113 80.9063 64.3574 80.7602C64.6588 80.4586 64.6588 79.9679 64.3574 79.6662C64.2064 79.5157 64.0085 79.4402 63.8105 79.4402Z" fill="#6583FE"/>
<path d="M57.0791 81.7814C56.8591 81.7814 56.6392 81.6976 56.4713 81.5298L55.4462 80.5048L54.4212 81.5298C54.0855 81.8653 53.5415 81.8653 53.2059 81.5298C52.8702 81.1941 52.8702 80.65 53.2059 80.3145L54.8387 78.6817C55.1743 78.3462 55.7183 78.3462 56.054 78.6817L57.6868 80.3145C58.0225 80.6502 58.0225 81.1943 57.6868 81.5298C57.5189 81.6976 57.2991 81.7814 57.0791 81.7814Z" fill="#00ECA2"/>
<path d="M15.4697 27.3195C15.2497 27.3195 15.0299 27.2357 14.8619 27.0679L13.8369 26.0428L12.8118 27.0679C12.4761 27.4034 11.9322 27.4034 11.5965 27.0679C11.2608 26.7322 11.2608 26.1881 11.5965 25.8526L13.2293 24.2198C13.565 23.8843 14.1089 23.8843 14.4446 24.2198L16.0774 25.8526C16.4131 26.1882 16.4131 26.7324 16.0774 27.0679C15.9095 27.2355 15.6897 27.3195 15.4697 27.3195Z" fill="#6583FE"/>
<path d="M72.9609 8.84639C72.7409 8.84639 72.5211 8.76251 72.3532 8.59476L71.3281 7.5697L70.303 8.59476C69.9674 8.93026 69.4234 8.93026 69.0877 8.59476C68.752 8.25909 68.752 7.71493 69.0877 7.37943L70.7205 5.74662C71.0562 5.41112 71.6002 5.41112 71.9358 5.74662L73.5687 7.37943C73.9043 7.7151 73.9043 8.25926 73.5687 8.59476C73.4007 8.76251 73.1807 8.84639 72.9609 8.84639Z" fill="#00ECA2"/>
</g>
<defs>
<linearGradient id="paint0_linear_1440_7617" x1="72.3343" y1="12.3554" x2="31.2562" y2="76.121" gradientUnits="userSpaceOnUse">
<stop offset="0.0112" stop-color="#DAFCED"/>
<stop offset="0.3814" stop-color="#E7F0ED"/>
<stop offset="1" stop-color="#FFD9EC"/>
</linearGradient>
<clipPath id="clip0_1440_7617">
<rect width="88" height="88" fill="white"/>
</clipPath>
</defs>
</svg>
