<svg width="24" height="21" viewBox="0 0 24 21" fill="none" xmlns="http://www.w3.org/2000/svg">
<path d="M19.2 6H4.8C3.80589 6 3 6.95939 3 8.14286V18.8571C3 20.0406 3.80589 21 4.8 21H19.2C20.1941 21 21 20.0406 21 18.8571V8.14286C21 6.95939 20.1941 6 19.2 6Z" fill="#4DE401"/>
<path d="M20.9566 6.18588L12.8392 0.395923C12.5043 0.15709 12.0574 0.14763 11.7128 0.372082L2.82222 6.16203C1.98846 6.70502 2.37297 8 3.36794 8H20.3759C21.3491 8 21.7489 6.751 20.9566 6.18588Z" fill="#4DE401"/>
<path d="M5 12C5 10.8954 5.89543 10 7 10H17C18.1046 10 19 10.8954 19 12V21H5V12Z" fill="#226501"/>
<path d="M10.6 17H7.4C7.17909 17 7 17.2558 7 17.5714V20.4286C7 20.7442 7.17909 21 7.4 21H10.6C10.8209 21 11 20.7442 11 20.4286V17.5714C11 17.2558 10.8209 17 10.6 17Z" fill="url(#paint0_linear_4202:14977)"/>
<path d="M15.5 17H11.5C11.2239 17 11 17.2558 11 17.5714V20.4286C11 20.7442 11.2239 21 11.5 21H15.5C15.7761 21 16 20.7442 16 20.4286V17.5714C16 17.2558 15.7761 17 15.5 17Z" fill="url(#paint1_linear_4202:14977)"/>
<path d="M10.6 12H7.4C7.17909 12 7 12.3198 7 12.7143V16.2857C7 16.6802 7.17909 17 7.4 17H10.6C10.8209 17 11 16.6802 11 16.2857V12.7143C11 12.3198 10.8209 12 10.6 12Z" fill="url(#paint2_linear_4202:14977)"/>
<defs>
<linearGradient id="paint0_linear_4202:14977" x1="9" y1="21.0038" x2="9" y2="16.9985" gradientUnits="userSpaceOnUse">
<stop offset="1.0825e-07" stop-color="#FECC2B"/>
<stop offset="1" stop-color="#FC9A13"/>
</linearGradient>
<linearGradient id="paint1_linear_4202:14977" x1="13.4999" y1="16.5428" x2="15.6589" y2="20.6708" gradientUnits="userSpaceOnUse">
<stop stop-color="#FFAC66"/>
<stop offset="0.39658" stop-color="#FF7500"/>
<stop offset="0.9375" stop-color="#E56900"/>
</linearGradient>
<linearGradient id="paint2_linear_4202:14977" x1="8.99991" y1="11.4285" x2="12.2198" y2="15.3687" gradientUnits="userSpaceOnUse">
<stop stop-color="#FFAC66"/>
<stop offset="0.39658" stop-color="#FF7500"/>
<stop offset="0.9375" stop-color="#E56900"/>
</linearGradient>
</defs>
</svg>
