<svg width="24" height="24" viewBox="0 0 24 24" fill="none" xmlns="http://www.w3.org/2000/svg">
<path d="M20.8 3H3.2C1.98497 3 1 4.02335 1 5.28571V16.7143C1 17.9767 1.98497 19 3.2 19H20.8C22.015 19 23 17.9767 23 16.7143V5.28571C23 4.02335 22.015 3 20.8 3Z" fill="url(#paint0_linear_4202:14972)"/>
<path fill-rule="evenodd" clip-rule="evenodd" d="M10 0C9.20435 0 8.44129 0.31607 7.87868 0.87868C7.31607 1.44129 7 2.20435 7 3H3.2C1.98497 3 1 4.05345 1 5.35294V7.70588L11.1327 12.5826C11.6808 12.8464 12.3192 12.8464 12.8673 12.5826L23 7.70588V5.35294C23 4.05345 22.015 3 20.8 3H17C17 2.20435 16.6839 1.44129 16.1213 0.87868C15.5587 0.31607 14.7956 0 14 0H10ZM15 3C15 2.73478 14.8946 2.48043 14.7071 2.29289C14.5196 2.10536 14.2652 2 14 2H10C9.73478 2 9.48043 2.10536 9.29289 2.29289C9.10536 2.48043 9 2.73478 9 3H15Z" fill="url(#paint1_linear_4202:14972)"/>
<defs>
<linearGradient id="paint0_linear_4202:14972" x1="12" y1="19.0151" x2="12" y2="2.99388" gradientUnits="userSpaceOnUse">
<stop offset="1.0825e-07" stop-color="#FECC2B"/>
<stop offset="1" stop-color="#FC9A13"/>
</linearGradient>
<linearGradient id="paint1_linear_4202:14972" x1="12" y1="12.7781" x2="12" y2="0.00405668" gradientUnits="userSpaceOnUse">
<stop offset="3.2476e-07" stop-color="#FE9045"/>
<stop offset="1" stop-color="#EA581F"/>
</linearGradient>
</defs>
</svg>
