<svg width="20" height="24" viewBox="0 0 20 24" fill="none" xmlns="http://www.w3.org/2000/svg">
<path d="M17.9375 4.70001C16.1101 1.7762 12.9054 0 9.45752 0H2.5C1.83696 0 1.20107 0.252856 0.732233 0.702944C0.263392 1.15303 0 1.76348 0 2.4V21.6C0 22.2365 0.263392 22.847 0.732233 23.2971C1.20107 23.7471 1.83696 24 2.5 24H17.5C18.163 24 18.7989 23.7471 19.2678 23.2971C19.7366 22.847 20 22.2365 20 21.6V10.868C20 8.99376 19.4733 7.15729 18.48 5.56797L17.9375 4.70001Z" fill="#394050"/>
<path d="M15 6.66667C15 2.98477 12.0152 0 8.33333 0H2.5C1.83696 0 1.20107 0.252856 0.732233 0.702944C0.263392 1.15303 0 1.76348 0 2.4V21.6C0 22.2365 0.263392 22.847 0.732233 23.2971C1.20107 23.7471 1.83696 24 2.5 24H17.5C18.163 24 18.7989 23.7471 19.2678 23.2971C19.7366 22.847 20 22.2365 20 21.6V12.1667C20 9.86548 18.1345 8 15.8333 8C15.3731 8 15 7.6269 15 7.16667V6.66667Z" fill="#949CAC"/>
<rect x="4" y="7" width="7" height="2" rx="1" fill="#394050"/>
<rect x="4" y="11" width="12" height="2" rx="1" fill="#394050"/>
<rect x="4" y="15" width="12" height="2" rx="1" fill="#394050"/>
</svg>
