<svg width="25" height="24" viewBox="0 0 25 24" fill="none" xmlns="http://www.w3.org/2000/svg">
<path d="M13.7549 0H5.25488C4.59184 0 3.95596 0.252856 3.48712 0.702944C3.01827 1.15303 2.75488 1.76348 2.75488 2.4V21.6C2.75488 22.2365 3.01827 22.847 3.48712 23.2971C3.95596 23.7471 4.59184 24 5.25488 24H20.2549C20.9179 24 21.5538 23.7471 22.0226 23.2971C22.4915 22.847 22.7549 22.2365 22.7549 21.6V8L13.7549 0Z" fill="#FFE55D"/>
<path d="M7.75488 17.9583V12.0417H9.73673C10.1876 12.0417 10.5808 12.1194 10.9164 12.275C11.2572 12.4306 11.5403 12.6417 11.7658 12.9083C11.9965 13.175 12.1695 13.4889 12.2848 13.85C12.4002 14.2056 12.4578 14.5861 12.4578 14.9917C12.4578 15.4417 12.3923 15.85 12.2612 16.2167C12.1354 16.5778 11.9545 16.8889 11.7186 17.15C11.4826 17.4056 11.1969 17.6056 10.8613 17.75C10.5258 17.8889 10.1509 17.9583 9.73673 17.9583H7.75488ZM11.5613 14.9917C11.5613 14.6806 11.5193 14.3944 11.4355 14.1333C11.3568 13.8722 11.2388 13.65 11.0816 13.4667C10.9243 13.2778 10.7329 13.1306 10.5074 13.025C10.282 12.9194 10.0251 12.8667 9.73673 12.8667H8.6357V17.1333H9.73673C10.0303 17.1333 10.2899 17.0806 10.5153 16.975C10.746 16.8639 10.9374 16.7139 11.0894 16.525C11.2467 16.3306 11.3647 16.1028 11.4433 15.8417C11.522 15.5806 11.5613 15.2972 11.5613 14.9917Z" fill="#767676"/>
<path d="M16.0731 18C15.6746 18 15.3102 17.9167 14.9799 17.75C14.6549 17.5778 14.3744 17.3528 14.1384 17.075C13.9025 16.7917 13.719 16.4694 13.5879 16.1083C13.4621 15.7472 13.3992 15.3778 13.3992 15C13.3992 14.6056 13.4673 14.2278 13.6037 13.8667C13.74 13.5056 13.9261 13.1861 14.162 12.9083C14.4032 12.6306 14.6863 12.4111 15.0114 12.25C15.3417 12.0833 15.7008 12 16.0888 12C16.4873 12 16.8491 12.0889 17.1741 12.2667C17.5044 12.4389 17.7849 12.6667 18.0156 12.95C18.2516 13.2333 18.4324 13.5556 18.5583 13.9167C18.6893 14.2722 18.7549 14.6361 18.7549 15.0083C18.7549 15.4028 18.6867 15.7806 18.5504 16.1417C18.4193 16.5028 18.2332 16.8222 17.992 17.1C17.7509 17.3722 17.4651 17.5917 17.1348 17.7583C16.8097 17.9194 16.4558 18 16.0731 18ZM14.2957 15C14.2957 15.2778 14.3377 15.5472 14.4216 15.8083C14.5054 16.0694 14.6234 16.3 14.7755 16.5C14.9327 16.7 15.1215 16.8611 15.3417 16.9833C15.5619 17.1 15.8083 17.1583 16.081 17.1583C16.3641 17.1583 16.6131 17.0972 16.8281 16.975C17.0483 16.8472 17.2344 16.6806 17.3865 16.475C17.5385 16.2694 17.6539 16.0389 17.7325 15.7833C17.8111 15.5278 17.8505 15.2667 17.8505 15C17.8505 14.7167 17.8085 14.4472 17.7246 14.1917C17.6407 13.9306 17.5202 13.7028 17.3629 13.5083C17.2108 13.3083 17.0247 13.15 16.8045 13.0333C16.5895 12.9111 16.3484 12.85 16.081 12.85C15.7978 12.85 15.5462 12.9139 15.326 13.0417C15.1058 13.1639 14.9196 13.325 14.7676 13.525C14.6155 13.725 14.4976 13.9556 14.4137 14.2167C14.3351 14.4722 14.2957 14.7333 14.2957 15Z" fill="#767676"/>
<path d="M13.7549 0V8H22.7549" fill="#FFB45D"/>
</svg>
