<svg width="95" height="100" viewBox="0 0 95 100" fill="none" xmlns="http://www.w3.org/2000/svg">
<path d="M84.7458 20.339H81.356V34.8911L74.5764 28.1114V20.339H71.1865V93.2203H74.5764V87.1428L81.8524 94.4189L84.7458 94.9153V20.339ZM74.5764 60.0242L81.356 66.8038V75.5691L74.5764 68.7894V60.0242ZM74.5764 55.2301V46.4648L81.356 53.2445V62.0097L74.5764 55.2301ZM81.356 39.6852V48.4504L74.5764 41.6708V32.9055L81.356 39.6852ZM74.5764 73.5835L81.356 80.3631V89.1284L74.5764 82.3487V73.5835Z" fill="#B2B1B4"/>
<path d="M72.8813 0H76.2712V11.8644H72.8813V0Z" fill="#959494"/>
<path d="M79.6611 3.38983H83.051V10.1695H79.6611V3.38983Z" fill="#959494"/>
<path d="M10.1694 5.08475H13.5593V13.5593H10.1694V5.08475Z" fill="#959494"/>
<path d="M11.8641 57.6271C10.2134 57.6279 8.6191 57.0265 7.38024 55.9356C6.14138 54.8447 5.34308 53.3392 5.1351 51.7017C4.92712 50.0641 5.32373 48.4069 6.25054 47.0409C7.17736 45.675 8.5707 44.6941 10.1692 44.2822V20.339H13.559V45.7627C13.559 46.2122 13.3805 46.6433 13.0626 46.9612C12.7448 47.2791 12.3137 47.4576 11.8641 47.4576C11.1937 47.4576 10.5383 47.6564 9.98084 48.0289C9.42339 48.4014 8.9889 48.9308 8.73234 49.5502C8.47577 50.1696 8.40864 50.8512 8.53943 51.5088C8.67023 52.1663 8.99308 52.7704 9.46716 53.2444C9.94124 53.7185 10.5452 54.0414 11.2028 54.1722C11.8604 54.303 12.542 54.2358 13.1614 53.9793C13.7808 53.7227 14.3102 53.2882 14.6827 52.7307C15.0552 52.1733 15.254 51.5179 15.254 50.8475H18.6438C18.6418 52.6449 17.9268 54.3682 16.6558 55.6392C15.3849 56.9102 13.6616 57.6251 11.8641 57.6271Z" fill="#959494"/>
<path d="M16.9492 8.47458H20.339V13.5593H16.9492V8.47458Z" fill="#959494"/>
<path d="M5.08472 66.1017H32.2034V83.0508H5.08472V66.1017Z" fill="#F8BC1E"/>
<path d="M10.1694 71.1864H13.5593V77.9661H10.1694V71.1864Z" fill="#F79726"/>
<path d="M16.9492 71.1864H20.339V77.9661H16.9492V71.1864Z" fill="#F79726"/>
<path d="M23.7288 71.1864H27.1186V77.9661H23.7288V71.1864Z" fill="#F79726"/>
<path d="M25.4238 49.1525H52.5425V66.1017H25.4238V49.1525Z" fill="#0093B9"/>
<path d="M30.5085 54.2373H33.8984V61.017H30.5085V54.2373Z" fill="#067B98"/>
<path d="M37.2881 54.2373H40.6779V61.017H37.2881V54.2373Z" fill="#067B98"/>
<path d="M44.0679 54.2373H47.4577V61.017H44.0679V54.2373Z" fill="#067B98"/>
<path d="M32.2034 66.1017H59.322V83.0508H32.2034V66.1017Z" fill="#EB5849"/>
<path d="M37.2881 71.1864H40.6779V77.9661H37.2881V71.1864Z" fill="#D4342F"/>
<path d="M44.0679 71.1864H47.4577V77.9661H44.0679V71.1864Z" fill="#D4342F"/>
<path d="M50.8474 71.1864H54.2372V77.9661H50.8474V71.1864Z" fill="#D4342F"/>
<path d="M62.7119 93.2203H93.2204V100H62.7119V93.2203Z" fill="#808080"/>
<path d="M83.0508 10.1695H94.9152V20.339L86.4406 23.7288H83.0508V10.1695Z" fill="#B2B1B4"/>
<path d="M72.8814 15.2542V11.8644H5.08481C4.63529 11.8644 4.20418 12.043 3.88632 12.3608C3.56846 12.6787 3.38989 13.1098 3.38989 13.5593V20.339C3.38989 20.7885 3.56846 21.2196 3.88632 21.5375C4.20418 21.8553 4.63529 22.0339 5.08481 22.0339H72.8814V18.6441H65.109L61.7191 15.2542H72.8814ZM34.6005 15.2542H43.3657L46.7556 18.6441H37.9903L34.6005 15.2542ZM33.1962 18.6441H24.431L21.0412 15.2542H29.8064L33.1962 18.6441ZM6.77972 15.2542H16.2471L19.6369 18.6441H6.77972V15.2542ZM60.3149 18.6441H51.5496L48.1598 15.2542H56.9251L60.3149 18.6441Z" fill="#B2B1B4"/>
<path d="M27.1187 83.0508H54.2373V100H27.1187V83.0508Z" fill="#0093B9"/>
<path d="M32.2034 88.1356H35.5932V94.9153H32.2034V88.1356Z" fill="#067B98"/>
<path d="M38.9832 88.1356H42.373V94.9153H38.9832V88.1356Z" fill="#067B98"/>
<path d="M45.7627 88.1356H49.1525V94.9153H45.7627V88.1356Z" fill="#067B98"/>
<path d="M0 83.0508H27.1186V100H0V83.0508Z" fill="#EB5849"/>
<path d="M5.08472 88.1356H8.47455V94.9153H5.08472V88.1356Z" fill="#D4342F"/>
<path d="M11.8645 88.1356H15.2543V94.9153H11.8645V88.1356Z" fill="#D4342F"/>
<path d="M18.644 88.1356H22.0339V94.9153H18.644V88.1356Z" fill="#D4342F"/>
<path d="M10.1694 5.08475H13.5593V8.47458H10.1694V5.08475Z" fill="#EB5849"/>
<path d="M69.4915 8.47458H86.4406V25.4237H69.4915V8.47458Z" fill="#808080"/>
<path d="M72.8813 0H76.2712V3.38983H72.8813V0Z" fill="#EB5849"/>
</svg>
