<svg width="56" height="56" viewBox="0 0 56 56" fill="none" xmlns="http://www.w3.org/2000/svg">
<g clip-path="url(#clip0_1726:737)">
<circle cx="28" cy="28" r="28" fill="#7456FD"/>
<path d="M50.9688 13.9563V44.4116C49.4059 46.6486 47.5246 48.6465 45.3906 50.3398C40.614 54.1301 14.447 53.7633 9.51562 49.4258C7.82852 47.9419 6.32144 46.2582 5.03125 44.4116V13.9563C5.03125 13.3522 5.52092 12.8625 6.125 12.8625H49.875C50.4791 12.8625 50.9688 13.3522 50.9688 13.9563Z" fill="#E9F3FE"/>
<path d="M9.40625 12.8625C8.80217 12.8625 8.3125 13.1972 8.3125 13.6101V48.3036C7.10544 47.1098 6.00633 45.8073 5.03125 44.4116V13.6101C5.03125 13.1972 5.52092 12.8625 6.125 12.8625H9.40625Z" fill="#C8E2FD"/>
<path d="M50.9688 8.48755V13.9563H5.03125V8.48755C5.03125 7.27939 6.01059 6.30005 7.21875 6.30005H48.7812C49.9894 6.30005 50.9688 7.27939 50.9688 8.48755Z" fill="#76B6FA"/>
<path d="M10.5 6.30005C9.29184 6.30005 8.3125 7.27939 8.3125 8.48755V13.9563H5.03125V8.48755C5.03125 7.27939 6.01059 6.30005 7.21875 6.30005H10.5Z" fill="#55A4F9"/>
<path d="M8.75 10.1282C8.75 10.7323 8.26033 11.2219 7.65625 11.2219C7.05217 11.2219 6.5625 10.7323 6.5625 10.1282C6.5625 9.5241 7.05217 9.03442 7.65625 9.03442C8.26033 9.03442 8.75 9.5241 8.75 10.1282ZM15.3125 9.03442C14.7084 9.03442 14.2188 9.5241 14.2188 10.1282C14.2188 10.7323 14.7084 11.2219 15.3125 11.2219C15.9166 11.2219 16.4062 10.7323 16.4062 10.1282C16.4062 9.5241 15.9166 9.03442 15.3125 9.03442ZM11.4844 9.03442C10.8803 9.03442 10.3906 9.5241 10.3906 10.1282C10.3906 10.7323 10.8803 11.2219 11.4844 11.2219C12.0885 11.2219 12.5781 10.7323 12.5781 10.1282C12.5781 9.5241 12.0885 9.03442 11.4844 9.03442Z" fill="#1380E2"/>
<path d="M49.2188 10.1282C49.2188 10.7323 48.7291 11.2219 48.125 11.2219H19.6875C19.0834 11.2219 18.5938 10.7323 18.5938 10.1282C18.5938 9.5241 19.0834 9.03442 19.6875 9.03442H48.125C48.7291 9.03442 49.2188 9.5241 49.2188 10.1282Z" fill="#FFF5F5"/>
<path d="M13.3438 28.2844H42.6562C44.4685 28.2844 45.9375 29.7534 45.9375 31.5657C45.9375 33.3779 44.4685 34.8469 42.6562 34.8469H13.3438C11.5315 34.8469 10.0625 33.3779 10.0625 31.5657C10.0625 29.7534 11.5315 28.2844 13.3438 28.2844ZM10.0625 20.3C10.0625 22.1123 11.5315 23.5813 13.3438 23.5813H42.6562C44.4685 23.5813 45.9375 22.1123 45.9375 20.3C45.9375 18.4878 44.4685 17.0188 42.6562 17.0188H13.3438C11.5315 17.0188 10.0625 18.4878 10.0625 20.3ZM42.6562 38.675H13.3438C11.5315 38.675 10.0625 40.1441 10.0625 41.9563V49.2368C10.0625 49.6588 10.255 50.058 10.5852 50.3206C15.3657 54.1224 21.4176 56.3938 28 56.3938C34.8248 56.3938 41.0793 53.9521 45.9375 49.8946V41.9563C45.9375 40.1441 44.4685 38.675 42.6562 38.675Z" fill="#C8E2FD"/>
<path d="M13.3438 27.7375H42.6562C44.7671 27.7375 46.4844 29.4548 46.4844 31.5657C46.4844 33.6765 44.7671 35.3938 42.6562 35.3938H13.3438C11.2329 35.3938 9.51562 33.6765 9.51562 31.5657C9.51562 29.4548 11.2329 27.7375 13.3438 27.7375ZM42.6562 34.3C44.164 34.3 45.3906 33.0734 45.3906 31.5657C45.3906 30.0579 44.164 28.8313 42.6562 28.8313H13.3438C11.836 28.8313 10.6094 30.0579 10.6094 31.5657C10.6094 33.0734 11.836 34.3 13.3438 34.3H42.6562ZM42.6562 24.1282H13.3438C11.2329 24.1282 9.51562 22.4109 9.51562 20.3C9.51562 18.1892 11.2329 16.4719 13.3438 16.4719H42.6562C44.7671 16.4719 46.4844 18.1892 46.4844 20.3C46.4844 22.4109 44.7671 24.1282 42.6562 24.1282ZM13.3438 17.5657C11.836 17.5657 10.6094 18.7923 10.6094 20.3C10.6094 21.8078 11.836 23.0344 13.3438 23.0344H42.6562C44.164 23.0344 45.3906 21.8078 45.3906 20.3C45.3906 18.7923 44.164 17.5657 42.6562 17.5657H13.3438ZM42.6562 38.1282H13.3438C11.2329 38.1282 9.51562 39.8455 9.51562 41.9563V49.4258C9.8723 49.7395 10.237 50.0444 10.6094 50.3398V41.9563C10.6094 40.4486 11.836 39.2219 13.3438 39.2219H42.6562C44.164 39.2219 45.3906 40.4486 45.3906 41.9563V50.3398C45.763 50.0443 46.1277 49.7395 46.4844 49.4258V41.9563C46.4844 39.8455 44.7671 38.1282 42.6562 38.1282Z" fill="white"/>
<path d="M26.5234 43.2825H13.9453C13.4923 43.2825 13.125 42.9152 13.125 42.4622C13.125 42.0091 13.4923 41.6418 13.9453 41.6418H26.5234C26.9765 41.6418 27.3438 42.0091 27.3438 42.4622C27.3438 42.9152 26.9765 43.2825 26.5234 43.2825ZM19.6875 45.47C19.6875 45.0169 19.3202 44.6497 18.8672 44.6497H13.9453C13.4923 44.6497 13.125 45.0169 13.125 45.47C13.125 45.923 13.4923 46.2903 13.9453 46.2903H18.8672C19.3202 46.2903 19.6875 45.923 19.6875 45.47ZM27.3438 31.5657C27.3438 31.1126 26.9765 30.7454 26.5234 30.7454H13.9453C13.4923 30.7454 13.125 31.1126 13.125 31.5657C13.125 32.0187 13.4923 32.386 13.9453 32.386H26.5234C26.9765 32.386 27.3438 32.0187 27.3438 31.5657ZM22.9688 20.3547C22.9688 19.9017 22.6015 19.5344 22.1484 19.5344H13.9453C13.4923 19.5344 13.125 19.9017 13.125 20.3547C13.125 20.8078 13.4923 21.175 13.9453 21.175H22.1484C22.6015 21.175 22.9688 20.8078 22.9688 20.3547Z" fill="#A7D0FC"/>
<path d="M14.8264 49.418C14.8264 49.8878 14.4456 50.2687 13.9757 50.2687C13.5058 50.2687 13.125 49.8878 13.125 49.418C13.125 48.9481 13.5058 48.5673 13.9757 48.5673C14.4455 48.5673 14.8264 48.9482 14.8264 49.418ZM16.9531 48.5673C16.4834 48.5673 16.1024 48.9481 16.1024 49.418C16.1024 49.8878 16.4832 50.2687 16.9531 50.2687C17.423 50.2687 17.8038 49.8878 17.8038 49.418C17.8038 48.9482 17.4229 48.5673 16.9531 48.5673ZM19.9305 48.5673C19.4608 48.5673 19.0798 48.9481 19.0798 49.418C19.0798 49.8878 19.4607 50.2687 19.9305 50.2687C20.4004 50.2687 20.7812 49.8878 20.7812 49.418C20.7812 48.9482 20.4004 48.5673 19.9305 48.5673Z" fill="#76B6FA"/>
<path d="M28.7456 56.1102C26.7739 56.1102 24.8518 55.8995 22.9989 55.5021C22.7604 55.2131 22.6172 54.8427 22.6172 54.4388V32.1536C22.6172 31.2304 23.3654 30.4822 24.2886 30.4822H50.9194C51.8426 30.4822 52.5908 31.2304 52.5908 32.1536V42.1083C47.9226 50.4614 38.9942 56.1102 28.7456 56.1102Z" fill="#ECD833"/>
<path d="M28.7457 56.1102C28.2008 56.1102 27.6602 56.0923 27.1235 56.061C26.3923 55.8825 25.8486 55.2248 25.8486 54.4388V32.1536C25.8486 31.2304 26.5968 30.4822 27.52 30.4822H50.9195C51.8427 30.4822 52.5909 31.2304 52.5909 32.1536V42.1083C47.9227 50.4614 38.9943 56.1102 28.7457 56.1102Z" fill="#F6E738"/>
<path d="M28.7536 49.8068V51.6531C28.7536 52.2686 28.2548 52.7674 27.6393 52.7674H25.793C25.1775 52.7674 24.6787 52.2686 24.6787 51.6531V49.8068C24.6787 49.1913 25.1775 48.6925 25.793 48.6925H27.6393C28.2548 48.6925 28.7536 49.1913 28.7536 49.8068ZM33.2424 48.6925H31.396C30.7806 48.6925 30.2818 49.1913 30.2818 49.8068V51.6531C30.2818 52.2686 30.7806 52.7674 31.396 52.7674H33.2424C33.8579 52.7674 34.3567 52.2686 34.3567 51.6531V49.8068C34.3567 49.1913 33.8579 48.6925 33.2424 48.6925ZM38.8455 48.6925H36.9991C36.3837 48.6925 35.8849 49.1913 35.8849 49.8068V51.6531C35.8849 52.2686 36.3837 52.7674 36.9991 52.7674H38.8455C39.4609 52.7674 39.9597 52.2686 39.9597 51.6531V49.8068C39.9597 49.1913 39.4609 48.6925 38.8455 48.6925Z" fill="#ECC32E"/>
<path d="M32.4803 40.1444L31.4169 40.7151C31.289 40.7843 31.1149 40.8226 30.9338 40.8226C30.556 40.8226 30.25 40.6585 30.25 40.4557V30.4822C30.25 30.4208 30.3001 30.3707 30.3614 30.3707H44.8468C44.9082 30.3707 44.9582 30.4208 44.9582 30.4822V40.4557C44.9582 40.6585 44.6522 40.8226 44.2744 40.8226C44.0934 40.8226 43.9193 40.7843 43.7909 40.7151L42.728 40.1444C42.5112 40.0278 42.1565 40.0278 41.9397 40.1444L41.1767 40.554C40.8564 40.7259 40.422 40.8226 39.9689 40.8226C39.5162 40.8226 39.0814 40.7259 38.761 40.554L37.998 40.1444C37.7813 40.0278 37.427 40.0278 37.2102 40.1444L36.4472 40.554C36.1269 40.7259 35.692 40.8226 35.2394 40.8226C34.7863 40.8226 34.3519 40.7259 34.0315 40.554L33.2685 40.1444C33.0513 40.0278 32.697 40.0278 32.4803 40.1444Z" fill="#FDF7BD"/>
<path d="M32.5129 32.7108H42.6944C42.8176 32.7108 42.9173 32.8105 42.9173 32.9337V34.1594C42.9173 34.2825 42.8176 34.3822 42.6944 34.3822H32.5129C32.3897 34.3822 32.29 34.2825 32.29 34.1594V32.9337C32.29 32.8105 32.3897 32.7108 32.5129 32.7108ZM32.29 35.9979V37.2236C32.29 37.3467 32.3897 37.4464 32.5129 37.4464H39.0592C39.1823 37.4464 39.282 37.3467 39.282 37.2236V35.9979C39.282 35.8747 39.1823 35.775 39.0592 35.775H32.5129C32.3897 35.775 32.29 35.8747 32.29 35.9979Z" fill="#F9D19A"/>
</g>
<defs>
<clipPath id="clip0_1726:737">
<rect width="56" height="56" fill="white"/>
</clipPath>
</defs>
</svg>
