<svg width="24" height="22" viewBox="0 0 24 22" fill="none" xmlns="http://www.w3.org/2000/svg">
<path d="M19.2 6.5H4.8C3.80589 6.5 3 7.45939 3 8.64286V19.3571C3 20.5406 3.80589 21.5 4.8 21.5H19.2C20.1941 21.5 21 20.5406 21 19.3571V8.64286C21 7.45939 20.1941 6.5 19.2 6.5Z" fill="#949CAC"/>
<path d="M20.9566 6.68588L12.8392 0.895923C12.5043 0.65709 12.0574 0.64763 11.7128 0.872082L2.82222 6.66203C1.98846 7.20502 2.37297 8.5 3.36794 8.5H20.3759C21.3491 8.5 21.7489 7.251 20.9566 6.68588Z" fill="#6A7282"/>
<path d="M5 12.5C5 11.3954 5.89543 10.5 7 10.5H17C18.1046 10.5 19 11.3954 19 12.5V21.5H5V12.5Z" fill="#394050"/>
<path d="M10.6 17.5H7.4C7.17909 17.5 7 17.7558 7 18.0714V20.9286C7 21.2442 7.17909 21.5 7.4 21.5H10.6C10.8209 21.5 11 21.2442 11 20.9286V18.0714C11 17.7558 10.8209 17.5 10.6 17.5Z" fill="#747E94"/>
<path d="M15.5 17.5H11.5C11.2239 17.5 11 17.7558 11 18.0714V20.9286C11 21.2442 11.2239 21.5 11.5 21.5H15.5C15.7761 21.5 16 21.2442 16 20.9286V18.0714C16 17.7558 15.7761 17.5 15.5 17.5Z" fill="#8A93A7"/>
<path d="M10.6 12.5H7.4C7.17909 12.5 7 12.8198 7 13.2143V16.7857C7 17.1802 7.17909 17.5 7.4 17.5H10.6C10.8209 17.5 11 17.1802 11 16.7857V13.2143C11 12.8198 10.8209 12.5 10.6 12.5Z" fill="#8A93A7"/>
</svg>
