<svg width="25" height="24" viewBox="0 0 25 24" fill="none" xmlns="http://www.w3.org/2000/svg">
<path d="M10.8304 0H2.84783C2.22514 0 1.62796 0.252856 1.18766 0.702944C0.747359 1.15303 0.5 1.76348 0.5 2.4V21.6C0.5 22.2365 0.747359 22.847 1.18766 23.2971C1.62796 23.7471 2.22514 24 2.84783 24H16.9348C17.5575 24 18.1546 23.7471 18.5949 23.2971C19.0352 22.847 19.2826 22.2365 19.2826 21.6V8L10.8304 0Z" fill="#FFE55D" fill-opacity="0.5"/>
<path d="M10.9348 0V7.63636H19.2826" fill="#FFB45D" fill-opacity="0.49"/>
<path d="M21.4391 7.63635L24.5 10.8364L16.0826 19.6364H13.0217V16.4364L21.4391 7.63635Z" fill="#F79726"/>
</svg>
