<svg width="56" height="56" viewBox="0 0 56 56" fill="none" xmlns="http://www.w3.org/2000/svg">
<g clip-path="url(#clip0_1726:755)">
<path fill-rule="evenodd" clip-rule="evenodd" d="M0.000923631 28C0.000308268 27.9241 0 27.8481 0 27.772C0 12.434 12.536 0 28 0C43.464 0 56 12.434 56 27.772C56 27.848 55.9997 27.9239 55.9991 27.9998C55.9997 28.0758 56 28.1518 56 28.228C56 43.566 43.464 56 28 56C12.536 56 -2.72066e-06 43.566 0 28.228C0 28.1519 0.000308268 28.0759 0.000923631 28Z" fill="#EB5757"/>
<path d="M46.0271 4.97705L56.7336 13.7192C57.0069 13.9425 57.0069 14.3595 56.7336 14.5823L46.0271 23.3245C45.6628 23.6217 45.1174 23.3628 45.1174 22.8931V18.608H18.4966C17.5734 18.608 16.8252 17.8598 16.8252 16.9366V11.3653C16.8252 10.4421 17.5734 9.69393 18.4966 9.69393H45.1174V5.40882C45.1174 4.93918 45.6628 4.6802 46.0271 4.97705Z" fill="#0CC33C"/>
<path d="M46.0271 4.97705L55.1788 12.45L47.7093 18.5488C47.5635 18.6676 47.3455 18.5641 47.3455 18.3765V17.3227C47.3455 16.7077 46.8467 16.2084 46.2312 16.2084H18.4966C17.5734 16.2084 16.8252 15.4602 16.8252 14.537V11.3653C16.8252 10.4421 17.5734 9.69393 18.4966 9.69393H45.1174V5.40882C45.1174 4.93918 45.6628 4.6802 46.0271 4.97705Z" fill="#49CB5C"/>
<path d="M28.4135 55.9358C26.4418 55.9358 24.5197 55.7251 22.6668 55.3277C22.4283 55.0387 22.2851 54.6683 22.2851 54.2644V31.9792C22.2851 31.056 23.0333 30.3078 23.9565 30.3078H50.5873C51.5105 30.3078 52.2587 31.056 52.2587 31.9792V41.934C47.5905 50.287 38.6621 55.9358 28.4135 55.9358ZM34.542 25.2936V3.00843C34.542 2.08524 33.7937 1.33704 32.8706 1.33704H6.23975C5.31657 1.33704 4.56836 2.08524 4.56836 3.00843V25.2936C4.56836 26.2168 5.31657 26.965 6.23975 26.965H32.8706C33.7937 26.965 34.542 26.2168 34.542 25.2936Z" fill="#ECD833"/>
<path d="M28.4136 55.9358C27.8687 55.9358 27.3281 55.9179 26.7914 55.8866C26.0602 55.7081 25.5165 55.0505 25.5165 54.2644V31.9792C25.5165 31.056 26.2647 30.3078 27.1879 30.3078H50.5874C51.5106 30.3078 52.2588 31.056 52.2588 31.9792V41.934C47.5906 50.287 38.6622 55.9358 28.4136 55.9358ZM34.542 25.2936V3.00843C34.542 2.08524 33.7938 1.33704 32.8707 1.33704H9.47119C8.54801 1.33704 7.7998 2.08524 7.7998 3.00843V25.2936C7.7998 26.2168 8.54801 26.965 9.47119 26.965H32.8707C33.7938 26.965 34.542 26.2168 34.542 25.2936Z" fill="#F6E738"/>
<path d="M28.4215 49.6324V51.4787C28.4215 52.0942 27.9227 52.593 27.3072 52.593H25.4609C24.8454 52.593 24.3466 52.0942 24.3466 51.4787V49.6324C24.3466 49.0169 24.8454 48.5181 25.4609 48.5181H27.3072C27.9227 48.5181 28.4215 49.0169 28.4215 49.6324ZM32.9103 48.5181H31.0639C30.4485 48.5181 29.9497 49.0169 29.9497 49.6324V51.4787C29.9497 52.0942 30.4485 52.593 31.0639 52.593H32.9103C33.5258 52.593 34.0246 52.0942 34.0246 51.4787V49.6324C34.0246 49.0169 33.5258 48.5181 32.9103 48.5181ZM38.5134 48.5181H36.667C36.0516 48.5181 35.5528 49.0169 35.5528 49.6324V51.4787C35.5528 52.0942 36.0516 52.593 36.667 52.593H38.5134C39.1288 52.593 39.6276 52.0942 39.6276 51.4787V49.6324C39.6276 49.0169 39.1288 48.5181 38.5134 48.5181ZM10.7048 20.6616V22.508C10.7048 23.1234 10.206 23.6222 9.59051 23.6222H7.74414C7.12869 23.6222 6.62988 23.1234 6.62988 22.508V20.6616C6.62988 20.0462 7.12869 19.5474 7.74414 19.5474H9.59051C10.206 19.5474 10.7048 20.0462 10.7048 20.6616ZM15.1936 19.5474H13.3472C12.7318 19.5474 12.233 20.0462 12.233 20.6616V22.508C12.233 23.1234 12.7318 23.6222 13.3472 23.6222H15.1936C15.809 23.6222 16.3078 23.1234 16.3078 22.508V20.6616C16.3078 20.0462 15.809 19.5474 15.1936 19.5474ZM20.7967 19.5474H18.9503C18.3348 19.5474 17.836 20.0462 17.836 20.6616V22.508C17.836 23.1234 18.3348 23.6222 18.9503 23.6222H20.7967C21.4121 23.6222 21.9109 23.1234 21.9109 22.508V20.6616C21.9109 20.0462 21.4121 19.5474 20.7967 19.5474Z" fill="#ECC32E"/>
<path d="M32.1482 39.9701L31.0848 40.5407C30.9569 40.6099 30.7828 40.6482 30.6017 40.6482C30.2239 40.6482 29.9179 40.4841 29.9179 40.2813V30.3078C29.9179 30.2464 29.968 30.1963 30.0293 30.1963H44.5147C44.5761 30.1963 44.6261 30.2464 44.6261 30.3078V40.2813C44.6261 40.4841 44.3201 40.6482 43.9423 40.6482C43.7613 40.6482 43.5872 40.6099 43.4588 40.5407L42.3959 39.9701C42.1791 39.8534 41.8244 39.8534 41.6076 39.9701L40.8446 40.3796C40.5243 40.5516 40.0899 40.6482 39.6368 40.6482C39.1841 40.6482 38.7493 40.5516 38.4289 40.3796L37.6659 39.9701C37.4492 39.8534 37.0949 39.8534 36.8781 39.9701L36.1151 40.3796C35.7947 40.5516 35.3599 40.6482 34.9073 40.6482C34.4542 40.6482 34.0198 40.5516 33.6994 40.3796L32.9364 39.9701C32.7192 39.8534 32.3649 39.8534 32.1482 39.9701ZM14.4314 10.9993L13.3681 11.5699C13.2401 11.6391 13.066 11.6774 12.885 11.6774C12.5072 11.6774 12.2012 11.5133 12.2012 11.3105V1.33701C12.2012 1.27564 12.2512 1.22559 12.3126 1.22559H26.798C26.8593 1.22559 26.9094 1.27564 26.9094 1.33701V11.3105C26.9094 11.5133 26.6034 11.6774 26.2256 11.6774C26.0445 11.6774 25.8704 11.6391 25.742 11.5699L24.6791 10.9993C24.4624 10.8827 24.1076 10.8827 23.8909 10.9993L23.1279 11.4089C22.8075 11.5808 22.3731 11.6774 21.92 11.6774C21.4674 11.6774 21.0325 11.5808 20.7122 11.4089L19.9492 10.9993C19.7324 10.8827 19.3781 10.8827 19.1614 10.9993L18.3984 11.4089C18.078 11.5808 17.6432 11.6774 17.1905 11.6774C16.7374 11.6774 16.303 11.5808 15.9827 11.4089L15.2197 10.9993C15.0025 10.8827 14.6482 10.8827 14.4314 10.9993Z" fill="#FDF7BD"/>
<path d="M32.1808 32.5363H42.3623C42.4855 32.5363 42.5852 32.636 42.5852 32.7592V33.9848C42.5852 34.108 42.4855 34.2077 42.3623 34.2077H32.1808C32.0576 34.2077 31.9579 34.108 31.9579 33.9848V32.7592C31.9579 32.636 32.0576 32.5363 32.1808 32.5363ZM31.9579 35.8234V37.0491C31.9579 37.1722 32.0576 37.2719 32.1808 37.2719H38.7271C38.8502 37.2719 38.9499 37.1722 38.9499 37.0491V35.8234C38.9499 35.7002 38.8502 35.6005 38.7271 35.6005H32.1808C32.0576 35.6005 31.9579 35.7002 31.9579 35.8234ZM14.4641 3.56555H24.6456C24.7688 3.56555 24.8685 3.66523 24.8685 3.7884V5.01409C24.8685 5.13727 24.7688 5.23694 24.6456 5.23694H14.4641C14.3409 5.23694 14.2412 5.13727 14.2412 5.01409V3.7884C14.2412 3.66523 14.3409 3.56555 14.4641 3.56555ZM14.2412 6.85262V8.0783C14.2412 8.20148 14.3409 8.30116 14.4641 8.30116H21.0103C21.1335 8.30116 21.2332 8.20148 21.2332 8.0783V6.85262C21.2332 6.72944 21.1335 6.62977 21.0103 6.62977H14.4641C14.3409 6.62977 14.2412 6.72944 14.2412 6.85262Z" fill="#F9D19A"/>
<path d="M16.4062 41.1031C16.4062 45.6336 12.7335 49.3063 8.20312 49.3063C3.6727 49.3063 0 45.6336 0 41.1031C0 36.5727 3.6727 32.9 8.20312 32.9C12.7335 32.9 16.4062 36.5727 16.4062 41.1031Z" fill="#27AE60"/>
<path d="M16.4062 41.1031C16.4062 42.6961 15.9522 44.183 15.1665 45.4415C13.908 46.2273 12.4211 46.6813 10.8281 46.6813C6.2977 46.6813 2.625 43.0086 2.625 38.4781C2.625 36.8852 3.07902 35.3983 3.86477 34.1398C5.12323 33.354 6.61019 32.9 8.20312 32.9C12.7335 32.9 16.4062 36.5727 16.4062 41.1031Z" fill="#28E176"/>
<g clip-path="url(#clip1_1726:755)">
<path d="M11.3314 38.5L7.48145 42.35L5.73145 40.6" stroke="white" stroke-width="2" stroke-linecap="round" stroke-linejoin="round"/>
</g>
</g>
<defs>
<clipPath id="clip0_1726:755">
<rect width="56" height="56" fill="white"/>
</clipPath>
<clipPath id="clip1_1726:755">
<rect width="8.4" height="8.4" fill="white" transform="translate(4.33105 36.4)"/>
</clipPath>
</defs>
</svg>
