<svg width="88" height="78" viewBox="0 0 88 78" fill="none" xmlns="http://www.w3.org/2000/svg">
<path d="M62.704 5.63702C50.8277 0.99038 34.3817 2.75571 25.2933 11.0528C18.8762 16.9112 23.8428 18.5809 28.2179 29.3008C31.3844 37.0592 0 35.9914 0 50.0109C0 66.2185 22.7306 63.1462 31.1659 65.0014C44.0627 67.8381 55.3137 78.4493 69.0932 77.0504C81.0892 75.8325 85.6625 66.4191 87.3307 55.6276C90.4386 35.5223 82.8054 13.502 62.704 5.63702Z" fill="url(#paint0_linear)"/>
<g opacity="0.1">
<path opacity="0.1" d="M81.7282 63.1652L81.7281 47.765C81.7281 46.8145 80.9581 46.0462 80.0093 46.0462H75.7949V31.4821C75.7949 30.9078 75.3295 30.4424 74.7553 30.4424H44.1407C43.5666 30.4424 43.1012 30.9078 43.1012 31.4821V46.0462H38.7713V25.6172C38.7713 24.6684 38.0013 23.8984 37.0526 23.8984H22.5721C18.5726 23.8984 15.1024 26.6588 14.2018 30.5569L9.28737 51.8288C8.88725 51.5138 8.42267 51.3299 7.92527 51.3299C6.43425 51.3299 5.22545 52.953 5.22545 54.9554C5.22545 56.8694 6.33078 58.4331 7.73053 58.5677L6.66852 63.1652H6.27148C5.32222 63.1652 4.55273 63.9347 4.55273 64.8839V68.1738C4.55273 69.123 5.32222 69.8925 6.27148 69.8925H11.8382C12.6872 72.7149 15.3049 74.7715 18.404 74.7715C21.503 74.7715 24.1207 72.7151 24.9698 69.8925H65.5216C66.3707 72.7149 68.9883 74.7715 72.0874 74.7715C75.1865 74.7715 77.8041 72.7151 78.6532 69.8925H81.7284C82.6777 69.8925 83.4471 69.123 83.4471 68.1738V64.8839C83.447 63.9347 82.6773 63.1652 81.7282 63.1652Z" fill="#2626BC"/>
<g opacity="0.1">
<path opacity="0.1" d="M58.2762 23.1211L74.1965 27.2279C74.7525 27.3712 75.3194 27.0369 75.4629 26.4809L79.5697 10.5606C79.713 10.0046 79.3787 9.43778 78.8227 9.29444L62.9024 5.18748C62.3464 5.04414 61.7796 5.37844 61.6361 5.93445L57.5293 21.8547C57.3859 22.4107 57.7204 22.9776 58.2762 23.1211Z" fill="#2626BC"/>
<path opacity="0.1" d="M48.7793 26.2645C48.7793 26.7393 49.1641 27.1239 49.6387 27.1239C50.1132 27.1239 50.498 26.7393 50.498 26.2645C50.498 23.5582 52.2292 21.1894 54.8056 20.3697C55.2578 20.2259 55.5079 19.7427 55.364 19.2904C55.2201 18.838 54.7367 18.5884 54.2846 18.7319C50.9917 19.7792 48.7793 22.8062 48.7793 26.2645Z" fill="#2626BC"/>
<path opacity="0.1" d="M45.8426 27.1237C46.3171 27.1237 46.702 26.7391 46.702 26.2644C46.702 22.1081 49.3605 18.4702 53.3174 17.2115C53.7697 17.0677 54.0197 16.5845 53.8759 16.1322C53.732 15.6799 53.2487 15.4302 52.7965 15.5737C48.1232 17.0601 44.9834 21.3565 44.9834 26.2644C44.9832 26.7389 45.3681 27.1237 45.8426 27.1237Z" fill="#2626BC"/>
</g>
</g>
<path d="M60.5815 44.6649H44.1401C43.566 44.6649 43.1006 44.1995 43.1006 43.6254V27.184C43.1006 26.61 43.566 26.1445 44.1401 26.1445H60.5815C61.1557 26.1445 61.6212 26.61 61.6212 27.184V43.6254C61.6212 44.1995 61.1557 44.6649 60.5815 44.6649Z" fill="#FFA8CF"/>
<path d="M59.0225 28.7422V42.0649H45.6997V28.7422H59.0225Z" fill="#FF5BA8"/>
<path d="M57.4963 29.9512L45.7002 41.7473V29.9512H57.4963Z" fill="#FF7EB8"/>
<path d="M57.8153 34.7911V42.0673H49.0557L56.767 34.357C57.1539 33.9699 57.8153 34.2441 57.8153 34.7911Z" fill="#FF7EB8"/>
<path d="M58.7568 27.1699L60.5943 29.0074L46.2844 43.3173L44.4469 41.4798L58.7568 27.1699Z" fill="#FFA8CF"/>
<path d="M74.7543 44.6649H58.3129C57.7389 44.6649 57.2734 44.1995 57.2734 43.6254V27.184C57.2734 26.61 57.7389 26.1445 58.3129 26.1445H74.7543C75.3286 26.1445 75.794 26.61 75.794 27.184V43.6254C75.794 44.1995 75.3286 44.6649 74.7543 44.6649Z" fill="#FFA8CF"/>
<path d="M73.1953 28.7422V42.0649H59.8726V28.7422H73.1953Z" fill="#FF5BA8"/>
<path d="M71.6692 29.9512L59.873 41.7473V29.9512H71.6692Z" fill="#FF7EB8"/>
<path d="M71.9881 34.7911V42.0673H63.2285L70.9399 34.357C71.3268 33.9699 71.9881 34.2441 71.9881 34.7911Z" fill="#FF7EB8"/>
<path d="M72.9277 27.1699L74.7652 29.0074L60.4552 43.3173L58.6178 41.4798L72.9277 27.1699Z" fill="#FFA8CF"/>
<path d="M74.1965 22.931L58.2762 18.8242C57.7202 18.6809 57.3859 18.1139 57.5293 17.5578L61.6361 1.63758C61.7794 1.08156 62.3464 0.747263 62.9024 0.890607L78.8227 4.99739C79.3787 5.14073 79.713 5.70775 79.5697 6.26376L75.4629 22.184C75.3194 22.7399 74.7525 23.0743 74.1965 22.931Z" fill="#FFA8CF"/>
<path d="M76.6533 7.10547L73.3226 20.0019L60.4263 16.6712L63.7569 3.77479L76.6533 7.10547Z" fill="#FF5BA8"/>
<path d="M74.8844 7.91325L60.5156 16.3891L63.4621 4.9668L74.8844 7.91325Z" fill="#FF7EB8"/>
<path d="M73.9848 12.6815L72.1674 19.727L63.6855 17.5391L73.0783 11.9992C73.5495 11.7213 74.1215 12.1518 73.9848 12.6815Z" fill="#FF7EB8"/>
<path d="M74.4557 23.8252C74.2991 23.8252 74.1403 23.8058 73.9818 23.7649L58.0615 19.6581C57.0478 19.3965 56.4358 18.3587 56.697 17.345L60.804 1.42454C61.0654 0.41082 62.103 -0.200712 63.1171 0.0601945L79.0373 4.16698C80.0511 4.42874 80.6631 5.46652 80.4018 6.48007L76.2949 22.4005C76.0742 23.2559 75.3009 23.8252 74.4557 23.8252ZM74.411 22.1006C74.507 22.1255 74.6057 22.0674 74.6305 21.9712L78.7372 6.0509C78.762 5.95465 78.7039 5.85616 78.6075 5.83124L62.6874 1.72463C62.5913 1.70005 62.4928 1.7578 62.4679 1.85405L58.3611 17.7743C58.3364 17.8706 58.3945 17.9691 58.4907 17.9938L74.411 22.1006Z" fill="#2626BC"/>
<path d="M76.7969 5.52344L78.1171 7.76111L60.6902 18.0432L59.3699 15.8055L76.7969 5.52344Z" fill="#FFA8CF"/>
<path d="M81.7271 43.4681V60.5869H6.27051L14.2008 26.26C15.1014 22.3619 18.5716 19.6016 22.5711 19.6016H37.0516C38.0004 19.6016 38.7704 20.3716 38.7704 21.3203V41.7494H80.0083C80.9571 41.7494 81.7271 42.5177 81.7271 43.4681Z" fill="#02FFB3"/>
<path d="M81.7282 44.804V43.4688C81.7282 42.5183 80.9582 41.75 80.0095 41.75H38.7715C38.7715 43.4368 40.1389 44.804 41.8255 44.804H81.7282Z" fill="#00D890"/>
<path d="M26.8936 37.5645H28.8588V58.8687H26.8936V37.5645Z" fill="#01ECA5"/>
<path d="M32.2637 37.5645H34.2289V58.8687H32.2637V37.5645Z" fill="#01ECA5"/>
<path d="M14.6569 24.8594C14.4679 25.3071 14.314 25.775 14.2021 26.2614L11.1943 39.2843H27.1409C28.0902 39.2843 28.8596 38.5148 28.8596 37.5656V26.5781C28.8596 25.6289 28.0902 24.8594 27.1409 24.8594H14.6569Z" fill="#B7C5FF"/>
<path d="M27.2896 24.8652L12.8721 39.2826H16.8841L28.8599 27.3069V26.5763C28.8599 25.6772 28.1691 24.9405 27.2896 24.8652Z" fill="#D2DEFF"/>
<path d="M20.4102 39.282H27.1406C28.0899 39.282 28.8594 38.5125 28.8594 37.5633V30.8184C26.0372 33.6338 23.2234 36.4578 20.4102 39.282Z" fill="#D2DEFF"/>
<path d="M38.7709 24.8574V39.2829H33.9824C33.032 39.2829 32.2637 38.5129 32.2637 37.5641V26.5762C32.2637 25.6274 33.032 24.8574 33.9824 24.8574H38.7709Z" fill="#B7C5FF"/>
<path d="M32.8224 38.8313C34.8093 36.8422 36.7931 34.85 38.7709 32.8516V26.2129C36.6039 28.395 34.4351 30.5754 32.2637 32.7531V37.5654C32.2637 38.0669 32.4797 38.5171 32.8224 38.8313Z" fill="#D2DEFF"/>
<path d="M37.5777 24.8574H33.9824C33.032 24.8574 32.2637 25.6274 32.2637 26.5762V30.1924C34.0388 28.4178 35.8096 26.6391 37.5777 24.8574Z" fill="#D2DEFF"/>
<path d="M81.7271 51.8926V60.5877H6.27051L8.27973 51.8926H81.7271Z" fill="#01ECA5"/>
<path d="M26.8945 51.8926H28.8591V58.869H26.8945V51.8926Z" fill="#00D890"/>
<path d="M32.2646 51.8926H34.2292V58.869H32.2646V51.8926Z" fill="#00D890"/>
<path d="M79.1269 50.66H81.7284V44.8047H79.1269C77.5101 44.8047 76.1992 46.1154 76.1992 47.7324C76.1994 49.3491 77.5101 50.66 79.1269 50.66Z" fill="#FF7EB8"/>
<path d="M81.7284 65.5965H6.27148C5.32222 65.5965 4.55273 64.827 4.55273 63.8777V60.5879C4.55273 59.6386 5.32222 58.8691 6.27148 58.8691H81.7282C82.6775 58.8691 83.447 59.6386 83.447 60.5879V63.8777C83.4471 64.8268 82.6775 65.5965 81.7284 65.5965Z" fill="#D2DEFF"/>
<path d="M4.55273 62.8105V63.8775C4.55273 64.8268 5.32222 65.5963 6.27148 65.5963H81.7282C82.6775 65.5963 83.447 64.8268 83.447 63.8775V62.8105H4.55273Z" fill="#B7C5FF"/>
<path d="M18.4035 70.4749C22.1903 70.4749 25.2601 67.4051 25.2601 63.6183C25.2601 59.8315 22.1903 56.7617 18.4035 56.7617C14.6167 56.7617 11.5469 59.8315 11.5469 63.6183C11.5469 67.4051 14.6167 70.4749 18.4035 70.4749Z" fill="#6583FE"/>
<path d="M18.4039 66.7239C20.1188 66.7239 21.509 65.3337 21.509 63.6188C21.509 61.9039 20.1188 60.5137 18.4039 60.5137C16.689 60.5137 15.2988 61.9039 15.2988 63.6188C15.2988 65.3337 16.689 66.7239 18.4039 66.7239Z" fill="#D2DEFF"/>
<path d="M72.0871 70.4749C75.8739 70.4749 78.9437 67.4051 78.9437 63.6183C78.9437 59.8315 75.8739 56.7617 72.0871 56.7617C68.3003 56.7617 65.2305 59.8315 65.2305 63.6183C65.2305 67.4051 68.3003 70.4749 72.0871 70.4749Z" fill="#6583FE"/>
<path d="M72.0875 66.7239C73.8024 66.7239 75.1926 65.3337 75.1926 63.6188C75.1926 61.9039 73.8024 60.5137 72.0875 60.5137C70.3726 60.5137 68.9824 61.9039 68.9824 63.6188C68.9824 65.3337 70.3726 66.7239 72.0875 66.7239Z" fill="#D2DEFF"/>
<path d="M78.4291 55.316C77.8492 55.316 77.3789 54.8459 77.3789 54.2658V54.2416C77.3789 53.6615 77.8492 53.1914 78.4291 53.1914C79.009 53.1914 79.4792 53.6615 79.4792 54.2416V54.2658C79.4792 54.8457 79.009 55.316 78.4291 55.316Z" fill="#DCFDEE"/>
<path d="M49.6387 22.827C49.1641 22.827 48.7793 22.4423 48.7793 21.9676C48.7793 18.5095 50.9917 15.4824 54.2846 14.435C54.7367 14.2917 55.2201 14.5411 55.364 14.9934C55.5079 15.4458 55.2578 15.9289 54.8056 16.0728C52.2292 16.8925 50.498 19.2613 50.498 21.9676C50.498 22.4421 50.1132 22.827 49.6387 22.827Z" fill="#2626BC"/>
<path d="M45.8428 22.8287C45.3682 22.8287 44.9834 22.4441 44.9834 21.9694C44.9834 17.0613 48.1234 12.7651 52.7965 11.2787C53.2487 11.1354 53.732 11.385 53.8759 11.8372C54.0197 12.2895 53.7697 12.7727 53.3174 12.9165C49.3605 14.1752 46.702 17.8131 46.702 21.9694C46.7022 22.4439 46.3173 22.8287 45.8428 22.8287Z" fill="#2626BC"/>
<path d="M7.92578 47.0352H11.6737C13.676 47.0352 15.2992 48.6583 15.2992 50.6607C15.2992 52.663 13.676 54.2862 11.6737 54.2862H7.92578V47.0352Z" fill="#FF7EB8"/>
<path d="M7.92578 51.3496V54.2852H11.6737C13.4394 54.2852 14.9036 53.0209 15.226 51.3496H7.92578Z" fill="#FF5BA8"/>
<path d="M7.9254 54.2862C9.41646 54.2862 10.6252 52.663 10.6252 50.6607C10.6252 48.6584 9.41646 47.0352 7.9254 47.0352C6.43433 47.0352 5.22559 48.6584 5.22559 50.6607C5.22559 52.663 6.43433 54.2862 7.9254 54.2862Z" fill="#FFDBED"/>
<path d="M81.7282 58.0093H77.3786C77.3782 58.0093 77.3779 58.0093 77.3776 58.0093C75.995 56.7046 74.1336 55.9022 72.0872 55.9022C70.0409 55.9022 68.1795 56.7046 66.7969 58.0093H23.6965C23.6958 58.0093 23.6951 58.0094 23.6945 58.0094C22.3119 56.7046 20.4505 55.9022 18.404 55.9022C16.3576 55.9022 14.4962 56.7046 13.1137 58.0093H7.74892L8.41081 55.1439H11.6732C14.1461 55.1439 16.1581 53.132 16.1581 50.6589C16.1581 48.1859 14.1461 46.174 11.6732 46.174H10.4829L15.0388 26.4528C15.8539 22.9249 18.9519 20.4609 22.5728 20.4609H37.0521C37.5259 20.4609 37.9114 20.8465 37.9114 21.3203V41.7487C37.9114 42.2234 38.2963 42.6081 38.7708 42.6081H80.0097C80.4835 42.6081 80.869 42.9936 80.869 43.4674V53.962C80.869 54.4367 81.2539 54.8213 81.7284 54.8213C82.2029 54.8213 82.5878 54.4367 82.5878 53.962V43.4674C82.5878 42.0459 81.4312 40.8893 80.0097 40.8893H76.6543V27.1855C76.6543 26.1383 75.8025 25.2865 74.7554 25.2865H58.314C57.267 25.2865 56.4152 26.1383 56.4152 27.1855V40.8893H43.9608V27.1854C43.9608 27.086 44.0415 27.0052 44.1409 27.0052H52.494C52.9686 27.0052 53.3534 26.6206 53.3534 26.1459C53.3534 25.6712 52.9686 25.2865 52.494 25.2865H44.1409C43.0938 25.2865 42.242 26.1383 42.242 27.1854V40.8893H39.6304V21.3203C39.6304 19.8987 38.4738 18.7422 37.0522 18.7422H22.573C18.1472 18.7422 14.3606 21.7538 13.3644 26.0661L8.71898 46.174H7.92527C5.96263 46.174 4.36608 48.1859 4.36608 50.6589C4.36608 52.594 5.3437 54.2466 6.70925 54.8741L5.98102 58.0268C4.69591 58.1717 3.69336 59.2641 3.69336 60.5874V63.8772C3.69336 65.2988 4.84991 66.4554 6.27148 66.4554H11.2308C12.3638 69.3097 15.1511 71.3344 18.404 71.3344C21.6569 71.3344 24.4443 69.3099 25.5772 66.4554H64.9139C66.0469 69.3097 68.8342 71.3344 72.0871 71.3344C75.34 71.3344 78.1274 69.3099 79.2603 66.4554H81.7279C83.1495 66.4554 84.306 65.2988 84.306 63.8772V60.5874C84.3064 59.1656 83.1498 58.0093 81.7282 58.0093ZM58.1337 27.1855C58.1337 27.0862 58.2145 27.0052 58.3139 27.0052H74.7553C74.8546 27.0052 74.9354 27.0862 74.9354 27.1855V40.8893H58.1336V27.1855H58.1337ZM10.7239 47.8927H11.6733C13.1987 47.8927 14.4395 49.1336 14.4395 50.659C14.4395 52.1842 13.1986 53.4252 11.6733 53.4252H10.7239C11.1998 52.6624 11.4846 51.7021 11.4846 50.6589C11.4846 49.6157 11.1997 48.6555 10.7239 47.8927ZM7.92544 47.8927C8.923 47.8927 9.76588 49.1594 9.76588 50.6589C9.76588 52.1585 8.923 53.4252 7.92544 53.4252C6.9277 53.4252 6.085 52.1585 6.085 50.6589C6.08483 49.1596 6.9277 47.8927 7.92544 47.8927ZM10.688 63.6184C10.688 63.9982 10.7167 64.3714 10.77 64.7366H6.27131C5.79745 64.7366 5.41194 64.3511 5.41194 63.8772V60.5874C5.41194 60.1135 5.79745 59.728 6.27131 59.728H11.7445C11.0742 60.8712 10.688 62.2001 10.688 63.6184ZM18.404 69.6155C15.0971 69.6155 12.4067 66.9253 12.4067 63.6182C12.4067 60.3112 15.0971 57.6208 18.404 57.6208C21.7108 57.6208 24.4012 60.3112 24.4012 63.6182C24.4012 66.9253 21.7108 69.6155 18.404 69.6155ZM64.3713 63.6184C64.3713 63.9982 64.4 64.3714 64.4532 64.7366H26.0378C26.0911 64.3714 26.1198 63.9982 26.1198 63.6184C26.1198 62.2003 25.7334 60.8712 25.0631 59.728H65.4278C64.7575 60.8712 64.3713 62.2001 64.3713 63.6184ZM72.0872 69.6155C68.7804 69.6155 66.09 66.9253 66.09 63.6182C66.09 60.3112 68.7804 57.6208 72.0872 57.6208C75.3941 57.6208 78.0845 60.3112 78.0845 63.6182C78.0845 66.9253 75.3941 69.6155 72.0872 69.6155ZM82.5876 63.8771C82.5876 64.3509 82.2021 64.7365 81.7282 64.7365H79.7212C79.7745 64.3712 79.8032 63.9981 79.8032 63.6182C79.8032 62.2001 79.4169 60.871 78.7465 59.7278H81.7282C82.2021 59.7278 82.5876 60.1134 82.5876 60.5872V63.8771Z" fill="#2626BC"/>
<path d="M20.0264 42.069C20.0264 41.511 20.4787 41.0586 21.0368 41.0586H23.6149C24.173 41.0586 24.6254 41.511 24.6254 42.069C24.6254 42.6271 24.173 43.0795 23.6149 43.0795H21.0368C20.4787 43.0795 20.0264 42.6271 20.0264 42.069Z" fill="#00D890"/>
<path d="M72.7288 54.2537H65.5898C65.1153 54.2537 64.7305 53.8689 64.7305 53.3944V50.3008C64.7305 49.8262 65.1153 49.4414 65.5898 49.4414H72.7288C73.2034 49.4414 73.5882 49.8262 73.5882 50.3008V53.3944C73.5882 53.8691 73.2036 54.2537 72.7288 54.2537Z" fill="white"/>
<path d="M81.7273 19.521C81.0891 19.521 80.4509 19.2782 79.965 18.7923C78.9934 17.8207 78.9934 16.2396 79.965 15.268C80.9366 14.296 82.5179 14.2962 83.4895 15.268C84.4611 16.2396 84.4611 17.8207 83.4895 18.7923C83.0038 19.2782 82.3656 19.521 81.7273 19.521ZM81.7274 16.2571C81.5293 16.2571 81.3313 16.3324 81.1805 16.4831C80.8791 16.7848 80.8791 17.2753 81.1805 17.5769C81.4818 17.8784 81.9727 17.8784 82.2743 17.5769C82.5758 17.2753 82.5758 16.7848 82.2743 16.4831C82.1234 16.3324 81.9254 16.2571 81.7274 16.2571Z" fill="#00ECA2"/>
<path d="M39.5448 76.2321C38.9066 76.2321 38.2684 75.9893 37.7825 75.5034C36.8108 74.5318 36.8108 72.9505 37.7825 71.9789C38.7542 71.0069 40.3354 71.0071 41.307 71.9789C42.2788 72.9505 42.2788 74.5318 41.307 75.5034C40.8211 75.9893 40.183 76.2321 39.5448 76.2321ZM39.5448 72.968C39.3466 72.968 39.1486 73.0433 38.9979 73.1941C38.6962 73.4957 38.6962 73.9864 38.9979 74.288C39.2992 74.5893 39.79 74.5897 40.0917 74.288C40.3933 73.9864 40.3933 73.4957 40.0917 73.1941C39.941 73.0435 39.7428 72.968 39.5448 72.968Z" fill="#FF7EB8"/>
<path d="M18.1335 16.6767C17.4678 16.6767 16.8419 16.4173 16.3713 15.9466C15.3997 14.9749 15.3997 13.3939 16.3713 12.4223C17.3429 11.4503 18.9241 11.4505 19.8958 12.4223C20.8674 13.3939 20.8674 14.9749 19.8958 15.9466C19.4252 16.4173 18.7994 16.6767 18.1335 16.6767ZM18.1337 13.4114C17.9355 13.4114 17.7375 13.4867 17.5868 13.6374C17.2853 13.9391 17.2853 14.4296 17.5868 14.7312C17.7329 14.8775 17.9271 14.9578 18.1337 14.9578C18.3403 14.9578 18.5345 14.8773 18.6806 14.7312C18.9822 14.4296 18.9822 13.9391 18.6806 13.6374C18.5299 13.4869 18.3317 13.4114 18.1337 13.4114Z" fill="#FF7EB8"/>
<path d="M33.8974 72.9687C33.6774 72.9687 33.4576 72.8848 33.2897 72.7169L32.2646 71.6918L31.2395 72.7169C30.9039 73.0526 30.3599 73.0526 30.0242 72.7169C29.6885 72.3814 29.6885 71.8373 30.0242 71.5018L31.657 69.8689C31.9927 69.5333 32.5367 69.5333 32.8724 69.8689L34.5052 71.5018C34.8408 71.8373 34.8408 72.3814 34.5052 72.7169C34.3372 72.8848 34.1174 72.9687 33.8974 72.9687Z" fill="#6583FE"/>
<path d="M54.5839 7.32808C54.3639 7.32808 54.1441 7.24421 53.9762 7.07629L52.9511 6.05122L51.9261 7.07629C51.5904 7.41196 51.0464 7.41196 50.7107 7.07629C50.3751 6.74079 50.3751 6.19663 50.7107 5.86113L52.3436 4.22832C52.6792 3.89264 53.2232 3.89264 53.5589 4.22832L55.1917 5.86113C55.5274 6.19663 55.5274 6.74079 55.1917 7.07629C55.0238 7.24421 54.8039 7.32808 54.5839 7.32808Z" fill="#6583FE"/>
<defs>
<linearGradient id="paint0_linear" x1="37.0795" y1="30.8146" x2="65.7826" y2="83.7521" gradientUnits="userSpaceOnUse">
<stop stop-color="#C6D1FF"/>
<stop offset="0.5834" stop-color="#E6D5F4"/>
<stop offset="0.997" stop-color="#FFD9EC"/>
</linearGradient>
</defs>
</svg>
