<svg width="80" height="80" viewBox="0 0 80 80" fill="none" xmlns="http://www.w3.org/2000/svg">
<path d="M9.28641 62.8102C8.69781 63.5148 7.59859 63.478 7.07641 62.7228C2.61391 56.2694 0 48.44 0 40C0 17.9086 17.9086 0 40 0C62.0914 0 80 17.9086 80 40C80 48.4439 77.3836 56.2767 72.9173 62.7319C72.3981 63.4823 71.3055 63.5191 70.7206 62.8186C63.3831 54.0295 52.3445 48.4375 40 48.4375C27.6594 48.4375 16.6239 54.0259 9.28641 62.8102Z" fill="#FFB52D"/>
<path d="M72.1875 36.5625C72.1875 54.3392 57.7767 68.75 40 68.75C22.2233 68.75 7.8125 54.3392 7.8125 36.5625C7.8125 18.7858 22.2233 4.375 40 4.375C57.7767 4.375 72.1875 18.7858 72.1875 36.5625Z" fill="#FFC14F"/>
<path d="M11.8418 29.6877H8.7168C8.28539 29.6877 7.93555 29.3378 7.93555 28.9064C7.93555 28.475 8.28539 28.1252 8.7168 28.1252H11.8418C12.2732 28.1252 12.623 28.475 12.623 28.9064C12.623 29.3378 12.2732 29.6877 11.8418 29.6877ZM14.1463 26.7914C14.4515 26.4863 14.4515 25.9918 14.1463 25.6866L11.9366 23.4769C11.6315 23.1718 11.137 23.1718 10.8318 23.4769C10.5266 23.7821 10.5266 24.2766 10.8318 24.5818L13.0415 26.7914C13.3465 27.0966 13.8412 27.0966 14.1463 26.7914ZM13.0413 31.211C12.7362 30.9058 12.2416 30.9058 11.9365 31.211L9.7268 33.4207C9.42164 33.7258 9.42164 34.2203 9.7268 34.5255C10.032 34.8307 10.5265 34.8307 10.8316 34.5255L13.0413 32.3158C13.3465 32.0107 13.3465 31.516 13.0413 31.211ZM68.2813 29.6877H71.4063C71.8377 29.6877 72.1876 29.3378 72.1876 28.9064C72.1876 28.475 71.8377 28.1252 71.4063 28.1252H68.2813C67.8499 28.1252 67.5001 28.475 67.5001 28.9064C67.5001 29.3378 67.8499 29.6877 68.2813 29.6877ZM67.0816 26.7914L69.2913 24.5818C69.5965 24.2766 69.5965 23.7821 69.2913 23.4769C68.9862 23.1718 68.4916 23.1718 68.1865 23.4769L65.9768 25.6866C65.6716 25.9918 65.6716 26.4863 65.9768 26.7914C66.282 27.0966 66.7766 27.0966 67.0816 26.7914ZM67.0816 32.3158L69.2913 34.5255C69.5965 34.8307 70.091 34.8307 70.3962 34.5255C70.7013 34.2203 70.7013 33.7258 70.3962 33.4207L68.1865 31.211C67.8813 30.9058 67.3868 30.9058 67.0816 31.211C66.7766 31.516 66.7766 32.0107 67.0816 32.3158Z" fill="#FFF5F5"/>
<path d="M13.6847 70.1255C11.1345 67.8961 8.87 65.348 6.95312 62.5434V44.5312C6.95312 43.2369 8.0025 42.1875 9.29688 42.1875H28.125V63.5298C28.125 71.0066 19.3136 75.0466 13.6847 70.1255Z" fill="#51489A"/>
<path d="M73.0469 44.7425V62.5436C71.2317 65.1994 69.1048 67.6252 66.7188 69.7681C59.6358 76.1299 24.8117 71.0653 24.3267 67.4392C24.0497 65.3677 23.9062 63.2489 23.9062 61.0938C23.9062 54.3198 25.3233 47.9069 27.8517 42.1875H70.7031C71.9975 42.1875 73.0469 43.3314 73.0469 44.7425Z" fill="#6A61B4"/>
<path d="M66.7188 67.9688V69.7681C65.6538 70.7247 64.5372 71.6248 63.3738 72.4641C63.0561 72.6931 62.6723 72.8127 62.2806 72.8127H17.7592C17.3319 72.8127 16.917 72.6745 16.5709 72.4241C15.4273 71.5961 14.3292 70.7094 13.2812 69.7681V67.9688C13.2812 66.6744 14.3306 65.625 15.625 65.625H64.375C65.6694 65.625 66.7188 66.6744 66.7188 67.9688Z" fill="#0A3575"/>
<path d="M66.7188 47.6562V50.7812C66.7188 52.0756 65.6694 53.125 64.375 53.125H15.625C14.3306 53.125 13.2812 52.0756 13.2812 50.7812V47.6562C13.2812 46.3619 14.3306 45.3125 15.625 45.3125H64.375C65.6694 45.3125 66.7188 46.3619 66.7188 47.6562Z" fill="#0A3575"/>
<path d="M63.4375 72.4177C56.8511 77.1877 48.7541 79.9999 40 79.9999C31.2459 79.9999 23.1489 77.1877 16.5625 72.4177C16.5625 70.9447 17.7566 69.7505 19.2297 69.7505H60.7703C62.2434 69.7505 63.4375 70.9447 63.4375 72.4177Z" fill="#A7D0FC"/>
<path d="M63.4375 68.75V72.4178C62.9534 72.7684 62.4613 73.1083 61.9611 73.4375H18.0389C17.5389 73.1084 17.0466 72.7684 16.5625 72.4178V68.75H63.4375Z" fill="#76B6FA"/>
<path d="M32.1875 57.1094C32.1875 56.4622 32.7122 55.9375 33.3594 55.9375H46.6406C47.2878 55.9375 47.8125 56.4622 47.8125 57.1094C47.8125 57.7566 47.2878 58.2812 46.6406 58.2812H33.3594C32.7122 58.2812 32.1875 57.7566 32.1875 57.1094ZM46.6406 60.625H33.3594C32.7122 60.625 32.1875 61.1497 32.1875 61.7969C32.1875 62.4441 32.7122 62.9688 33.3594 62.9688H46.6406C47.2878 62.9688 47.8125 62.4441 47.8125 61.7969C47.8125 61.1497 47.2878 60.625 46.6406 60.625Z" fill="#453D83"/>
<path d="M53.9931 57.1528C53.9931 57.8241 53.4491 58.3681 52.7778 58.3681C52.1066 58.3681 51.5625 57.8239 51.5625 57.1528C51.5625 56.4816 52.1066 55.9375 52.7778 55.9375C53.4491 55.9375 53.9931 56.4816 53.9931 57.1528Z" fill="#C8E2FD"/>
<path d="M58.2465 57.1528C58.2465 57.8239 57.7025 58.3681 57.0312 58.3681C56.36 58.3681 55.8159 57.8241 55.8159 57.1528C55.8159 56.4816 56.36 55.9375 57.0312 55.9375C57.7025 55.9375 58.2465 56.4816 58.2465 57.1528ZM61.2847 55.9375C60.6136 55.9375 60.0694 56.4816 60.0694 57.1528C60.0694 57.8239 60.6134 58.3681 61.2847 58.3681C61.9559 58.3681 62.5 57.8241 62.5 57.1528C62.5 56.4816 61.9559 55.9375 61.2847 55.9375Z" fill="#FFF5F5"/>
<path d="M63.4375 5.46875V49.2188C63.4375 49.6502 63.0877 50 62.6562 50H19.5312C19.0998 50 18.75 49.6502 18.75 49.2188V5.46875C18.75 5.03734 19.0998 4.6875 19.5312 4.6875H62.6562C63.0877 4.6875 63.4375 5.03734 63.4375 5.46875Z" fill="#E9F3FE"/>
<path d="M21.0938 50H17.3438C16.9123 50 16.5625 49.6242 16.5625 49.1609V5.52656C16.5625 5.06312 16.9123 4.6875 17.3438 4.6875H21.0938V50Z" fill="#C8E2FD"/>
<path d="M24.8438 24.7656C24.8438 24.1184 25.3684 23.5938 26.0156 23.5938H53.9844C54.6316 23.5938 55.1562 24.1184 55.1562 24.7656C55.1562 25.4128 54.6316 25.9375 53.9844 25.9375H26.0156C25.3684 25.9375 24.8438 25.4128 24.8438 24.7656ZM35.4137 19.5312H44.5862C45.2334 19.5312 45.7581 19.0066 45.7581 18.3594C45.7581 17.7122 45.2334 17.1875 44.5862 17.1875H35.4137C34.7666 17.1875 34.2419 17.7122 34.2419 18.3594C34.2419 19.0066 34.7666 19.5312 35.4137 19.5312ZM46.4658 38.2812H33.5341C32.8869 38.2812 32.3622 38.8059 32.3622 39.4531C32.3622 40.1003 32.8869 40.625 33.5341 40.625H46.4658C47.113 40.625 47.6377 40.1003 47.6377 39.4531C47.6377 38.8059 47.1131 38.2812 46.4658 38.2812ZM53.9844 33.3855H26.0156C25.3684 33.3855 24.8438 33.9102 24.8438 34.5573C24.8438 35.2045 25.3684 35.7292 26.0156 35.7292H53.9844C54.6316 35.7292 55.1562 35.2045 55.1562 34.5573C55.1562 33.9102 54.6316 33.3855 53.9844 33.3855ZM29.7748 28.4895C29.1277 28.4895 28.603 29.0142 28.603 29.6614C28.603 30.3086 29.1277 30.8333 29.7748 30.8333H50.225C50.8722 30.8333 51.3969 30.3086 51.3969 29.6614C51.3969 29.0142 50.8722 28.4895 50.225 28.4895H29.7748Z" fill="#A7D0FC"/>
</svg>
