<svg width="80" height="80" viewBox="0 0 80 80" fill="none" xmlns="http://www.w3.org/2000/svg">
<path d="M10.2148 64.6464C9.31672 64.8617 8.37906 64.5177 7.82953 63.7753C2.90953 57.1289 0 48.9042 0 40C0 17.9086 17.9086 0 40 0C62.0914 0 80 17.9086 80 40C80 48.943 77.0652 57.2005 72.1061 63.8619C71.5938 64.5502 70.7242 64.8723 69.8898 64.6716C60.7536 62.472 50.64 61.25 40 61.25C29.4006 61.25 19.3237 62.4628 10.2148 64.6464Z" fill="#7456FD"/>
<path d="M72.1875 42.2938V43.3026C72.1875 45.5109 70.3973 47.301 68.1891 47.301H11.8109C9.60266 47.301 7.8125 45.5109 7.8125 43.3026V42.2938C7.8125 40.0856 9.60266 38.2954 11.8109 38.2954H68.1891C70.3973 38.2954 72.1875 40.0856 72.1875 42.2938Z" fill="#F29500"/>
<path d="M69.0625 21.875V49.5478C69.0625 59.29 61.165 67.1875 51.4228 67.1875H28.5772C18.835 67.1875 10.9375 59.29 10.9375 49.5478V4.6875H45.3125L69.0625 21.875Z" fill="#C8E2FD"/>
<path d="M26.183 67.0262C17.5733 65.8581 10.9375 58.478 10.9375 49.5478V4.6875H15.9375V50.3528C15.9375 57.635 20.1039 63.9441 26.183 67.0262Z" fill="#A7D0FC"/>
<path d="M39.0627 13.4377C39.0627 13.8691 38.7128 14.2189 38.2814 14.2189H35.1564C34.725 14.2189 34.3752 13.8691 34.3752 13.4377C34.3752 13.0063 34.725 12.6564 35.1564 12.6564H38.2814C38.7128 12.6564 39.0627 13.0063 39.0627 13.4377ZM36.1664 9.11301C36.4716 8.80785 36.4716 8.31332 36.1664 8.00816C35.8613 7.70301 35.3668 7.70301 35.0616 8.00816L32.8519 10.2179C32.5468 10.523 32.5468 11.0175 32.8519 11.3227C33.1571 11.6279 33.6516 11.6279 33.9568 11.3227L36.1664 9.11301ZM35.0616 15.7422C34.7564 15.4371 34.2619 15.4371 33.9568 15.7422C33.6516 16.0474 33.6516 16.5419 33.9568 16.8471L36.1664 19.0568C36.4716 19.3619 36.9661 19.3619 37.2713 19.0568C37.5764 18.7516 37.5764 18.2571 37.2713 17.9519L35.0616 15.7422Z" fill="white"/>
<path d="M69.0626 21.875L44.7685 19.0502C43.3882 18.8897 42.4498 17.5702 42.7514 16.2136L45.3126 4.6875L69.0626 21.875Z" fill="#E9F3FE"/>
<path d="M31.2731 26.1719C31.2731 25.5247 31.7978 25 32.445 25H47.555C48.2022 25 48.7269 25.5247 48.7269 26.1719C48.7269 26.8191 48.2022 27.3438 47.555 27.3438H32.445C31.7978 27.3438 31.2731 26.8191 31.2731 26.1719ZM23.0469 33.75H56.9531C57.6003 33.75 58.125 33.2253 58.125 32.5781C58.125 31.9309 57.6003 31.4062 56.9531 31.4062H23.0469C22.3997 31.4062 21.875 31.9309 21.875 32.5781C21.875 33.2253 22.3997 33.75 23.0469 33.75ZM56.9531 41.198H23.0469C22.3997 41.198 21.875 41.7227 21.875 42.3698C21.875 43.017 22.3997 43.5417 23.0469 43.5417H56.9531C57.6003 43.5417 58.125 43.017 58.125 42.3698C58.125 41.7227 57.6003 41.198 56.9531 41.198ZM26.8061 36.302C26.1589 36.302 25.6342 36.8267 25.6342 37.4739C25.6342 38.1211 26.1589 38.6458 26.8061 38.6458H53.1938C53.8409 38.6458 54.3656 38.1211 54.3656 37.4739C54.3656 36.8267 53.8409 36.302 53.1938 36.302H26.8061ZM49.4345 46.0938H30.5655C29.9183 46.0938 29.3936 46.6184 29.3936 47.2656C29.3936 47.9128 29.9183 48.4375 30.5655 48.4375H49.4347C50.0819 48.4375 50.6066 47.9128 50.6066 47.2656C50.6064 46.6184 50.0819 46.0938 49.4345 46.0938Z" fill="#86BEFB"/>
<path d="M31.25 11.7188C31.25 18.1908 26.0033 23.4375 19.5312 23.4375C13.0592 23.4375 7.8125 18.1908 7.8125 11.7188C7.8125 5.24672 13.0592 0 19.5312 0C26.0033 0 31.25 5.24672 31.25 11.7188Z" fill="#27AE60"/>
<path d="M31.25 11.7188C31.25 13.9944 30.6014 16.1186 29.4789 17.9164C27.6811 19.0389 25.5569 19.6875 23.2812 19.6875C16.8092 19.6875 11.5625 14.4408 11.5625 7.96875C11.5625 5.69312 12.2111 3.56891 13.3336 1.77109C15.1314 0.648594 17.2556 0 19.5312 0C26.0033 0 31.25 5.24672 31.25 11.7188Z" fill="#28E176"/>
<path d="M14.6542 70.9466C12.0877 68.842 9.78766 66.4245 7.8125 63.7524V42.2941C7.8125 42.2914 7.8125 42.2888 7.8125 42.2861L38.0219 64.4483C39.1992 65.312 40.8006 65.312 41.9781 64.4483L72.1875 42.2861V42.2941V63.7524C70.2123 66.4245 67.9123 68.842 65.3458 70.9466C58.4458 76.6045 21.5542 76.6045 14.6542 70.9466Z" fill="#FFC14F"/>
<path d="M15.9375 48.247V70.3387C15.9375 70.9951 15.1734 71.3704 14.6647 70.9555C14.6611 70.9527 14.6577 70.9498 14.6541 70.947C12.0877 68.8423 9.78766 66.4248 7.8125 63.7526V42.2943C7.81547 42.2927 7.81594 42.2926 7.81891 42.291L15.9375 48.247Z" fill="#FFB52D"/>
<path d="M65.3454 70.9462C58.4454 76.6042 49.619 79.9998 39.9996 79.9998C30.3802 79.9998 21.5538 76.6042 14.6538 70.9462L38.0216 53.8031C39.199 52.9393 40.8004 52.9393 41.9777 53.8031L65.3454 70.9462Z" fill="#FFF04A"/>
<path d="M44.0757 55.3423L18.7699 73.9071C17.3341 73.0062 15.9594 72.0167 14.6538 70.9462L38.0216 53.8031C39.199 52.9393 40.8004 52.9393 41.9777 53.8031L44.0757 55.3423Z" fill="#FFEA06"/>
</svg>
