<svg width="80" height="80" viewBox="0 0 80 80" fill="none" xmlns="http://www.w3.org/2000/svg">
<g clip-path="url(#clip0)">
<path d="M9.52609 62.9948C8.89609 63.7352 7.74469 63.68 7.18797 62.8831C2.6575 56.3992 0 48.51 0 40C0 17.9086 17.9086 0 40 0C62.0914 0 80 17.9086 80 40C80 48.497 77.3505 56.3753 72.8327 62.8538C72.2663 63.6659 71.0931 63.7211 70.4506 62.9677C63.1139 54.3628 52.1942 48.9062 40 48.9062C27.793 48.9062 16.863 54.3744 9.52609 62.9948Z" fill="#F29500"/>
<path d="M72.8125 19.375V62.8826C70.5798 66.0783 67.8923 68.9325 64.8438 71.3514C58.02 76.7661 20.6386 76.2422 13.5938 70.0458C11.1836 67.9259 9.03062 65.5206 7.1875 62.8826V19.375C7.1875 18.512 7.88703 17.8125 8.75 17.8125H71.25C72.113 17.8125 72.8125 18.512 72.8125 19.375Z" fill="#E9F3FE"/>
<path d="M13.4375 17.8125C12.5745 17.8125 11.875 18.2906 11.875 18.8805V68.4425C10.1506 66.7372 8.58047 64.8764 7.1875 62.8825V18.8805C7.1875 18.2906 7.88703 17.8125 8.75 17.8125H13.4375Z" fill="#C8E2FD"/>
<path d="M72.8125 11.5625V19.375H7.1875V11.5625C7.1875 9.83656 8.58656 8.4375 10.3125 8.4375H69.6875C71.4134 8.4375 72.8125 9.83656 72.8125 11.5625Z" fill="#76B6FA"/>
<path d="M15 8.4375C13.2741 8.4375 11.875 9.83656 11.875 11.5625V19.375H7.1875V11.5625C7.1875 9.83656 8.58656 8.4375 10.3125 8.4375H15Z" fill="#55A4F9"/>
<path d="M12.5 13.9062C12.5 14.7692 11.8005 15.4688 10.9375 15.4688C10.0745 15.4688 9.375 14.7692 9.375 13.9062C9.375 13.0433 10.0745 12.3438 10.9375 12.3438C11.8005 12.3438 12.5 13.0433 12.5 13.9062ZM21.875 12.3438C21.012 12.3438 20.3125 13.0433 20.3125 13.9062C20.3125 14.7692 21.012 15.4688 21.875 15.4688C22.738 15.4688 23.4375 14.7692 23.4375 13.9062C23.4375 13.0433 22.738 12.3438 21.875 12.3438ZM16.4062 12.3438C15.5433 12.3438 14.8438 13.0433 14.8438 13.9062C14.8438 14.7692 15.5433 15.4688 16.4062 15.4688C17.2692 15.4688 17.9688 14.7692 17.9688 13.9062C17.9688 13.0433 17.2692 12.3438 16.4062 12.3438Z" fill="#1380E2"/>
<path d="M70.3125 13.9062C70.3125 14.7692 69.613 15.4688 68.75 15.4688H28.125C27.262 15.4688 26.5625 14.7692 26.5625 13.9062C26.5625 13.0433 27.262 12.3438 28.125 12.3438H68.75C69.613 12.3438 70.3125 13.0433 70.3125 13.9062Z" fill="#FFF5F5"/>
<path d="M19.0625 39.8438H60.9375C63.5264 39.8438 65.625 41.9423 65.625 44.5313C65.625 47.1202 63.5264 49.2188 60.9375 49.2188H19.0625C16.4736 49.2188 14.375 47.1202 14.375 44.5313C14.375 41.9423 16.4736 39.8438 19.0625 39.8438ZM14.375 28.4375C14.375 31.0264 16.4736 33.125 19.0625 33.125H60.9375C63.5264 33.125 65.625 31.0264 65.625 28.4375C65.625 25.8486 63.5264 23.75 60.9375 23.75H19.0625C16.4736 23.75 14.375 25.8486 14.375 28.4375ZM60.9375 54.6875H19.0625C16.4736 54.6875 14.375 56.7861 14.375 59.375V69.7758C14.375 70.3786 14.65 70.9489 15.1217 71.3241C21.9509 76.7552 30.5966 80 40 80C49.7497 80 58.6847 76.5119 65.625 70.7155V59.375C65.625 56.7861 63.5264 54.6875 60.9375 54.6875Z" fill="#C8E2FD"/>
<path d="M19.0625 39.0625H60.9375C63.953 39.0625 66.4062 41.5158 66.4062 44.5312C66.4062 47.5467 63.953 50 60.9375 50H19.0625C16.047 50 13.5938 47.5467 13.5938 44.5312C13.5938 41.5158 16.047 39.0625 19.0625 39.0625ZM60.9375 48.4375C63.0914 48.4375 64.8438 46.6852 64.8438 44.5312C64.8438 42.3773 63.0914 40.625 60.9375 40.625H19.0625C16.9086 40.625 15.1562 42.3773 15.1562 44.5312C15.1562 46.6852 16.9086 48.4375 19.0625 48.4375H60.9375ZM60.9375 33.9062H19.0625C16.047 33.9062 13.5938 31.453 13.5938 28.4375C13.5938 25.422 16.047 22.9688 19.0625 22.9688H60.9375C63.953 22.9688 66.4062 25.422 66.4062 28.4375C66.4062 31.453 63.953 33.9062 60.9375 33.9062ZM19.0625 24.5312C16.9086 24.5312 15.1562 26.2836 15.1562 28.4375C15.1562 30.5914 16.9086 32.3438 19.0625 32.3438H60.9375C63.0914 32.3438 64.8438 30.5914 64.8438 28.4375C64.8438 26.2836 63.0914 24.5312 60.9375 24.5312H19.0625ZM60.9375 53.9062H19.0625C16.047 53.9062 13.5938 56.3595 13.5938 59.375V70.0458C14.1033 70.4939 14.6242 70.9294 15.1562 71.3514V59.375C15.1562 57.2211 16.9086 55.4688 19.0625 55.4688H60.9375C63.0914 55.4688 64.8438 57.2211 64.8438 59.375V71.3514C65.3758 70.9292 65.8967 70.4939 66.4062 70.0458V59.375C66.4062 56.3595 63.953 53.9062 60.9375 53.9062Z" fill="white"/>
<path d="M37.8906 61.2695H19.9219C19.2747 61.2695 18.75 60.7448 18.75 60.0977C18.75 59.4505 19.2747 58.9258 19.9219 58.9258H37.8906C38.5378 58.9258 39.0625 59.4505 39.0625 60.0977C39.0625 60.7448 38.5378 61.2695 37.8906 61.2695ZM28.125 64.3945C28.125 63.7473 27.6003 63.2227 26.9531 63.2227H19.9219C19.2747 63.2227 18.75 63.7473 18.75 64.3945C18.75 65.0417 19.2747 65.5664 19.9219 65.5664H26.9531C27.6003 65.5664 28.125 65.0417 28.125 64.3945ZM39.0625 44.5313C39.0625 43.8841 38.5378 43.3594 37.8906 43.3594H19.9219C19.2747 43.3594 18.75 43.8841 18.75 44.5313C18.75 45.1784 19.2747 45.7031 19.9219 45.7031H37.8906C38.5378 45.7031 39.0625 45.1784 39.0625 44.5313ZM32.8125 28.5156C32.8125 27.8684 32.2878 27.3438 31.6406 27.3438H19.9219C19.2747 27.3438 18.75 27.8684 18.75 28.5156C18.75 29.1628 19.2747 29.6875 19.9219 29.6875H31.6406C32.2878 29.6875 32.8125 29.1628 32.8125 28.5156Z" fill="#A7D0FC"/>
<path d="M21.1806 70.0346C21.1806 70.7059 20.6366 71.25 19.9653 71.25C19.2941 71.25 18.75 70.7059 18.75 70.0346C18.75 69.3634 19.2941 68.8193 19.9653 68.8193C20.6364 68.8193 21.1806 69.3636 21.1806 70.0346ZM24.2188 68.8193C23.5477 68.8193 23.0034 69.3634 23.0034 70.0346C23.0034 70.7059 23.5475 71.25 24.2188 71.25C24.89 71.25 25.4341 70.7059 25.4341 70.0346C25.4341 69.3636 24.8898 68.8193 24.2188 68.8193ZM28.4722 68.8193C27.8011 68.8193 27.2569 69.3634 27.2569 70.0346C27.2569 70.7059 27.8009 71.25 28.4722 71.25C29.1434 71.25 29.6875 70.7059 29.6875 70.0346C29.6875 69.3636 29.1434 68.8193 28.4722 68.8193Z" fill="#76B6FA"/>
<path d="M56.8991 33.7234L50.5018 57.5984C50.3609 58.1247 49.8199 58.4369 49.2938 58.2959C48.7677 58.155 48.4554 57.6141 48.5963 57.0878L54.9937 33.2128C55.1346 32.6865 55.6755 32.3743 56.2016 32.5153C56.7277 32.6564 57.0401 33.1973 56.8991 33.7234Z" fill="#958FCA"/>
<path d="M55.1366 48.6843L53.9211 53.2205C53.6979 54.0541 52.841 54.5487 52.0075 54.3254L48.9285 53.5004C48.0949 53.2771 47.6003 52.4202 47.8236 51.5868L49.0391 47.0505C49.2624 46.2169 50.1193 45.7224 50.9529 45.9457L54.0319 46.7707C54.8654 46.994 55.3599 47.8509 55.1366 48.6843Z" fill="#8078BF"/>
<path d="M68.8917 4.97211L64.807 20.2162L64.6345 20.8599L54.7739 18.0255L54.9814 17.2512L58.983 2.31695C59.4297 0.649921 61.1433 -0.339454 62.8103 0.107264L66.6819 1.14461C68.3491 1.59148 69.3384 3.30492 68.8917 4.97211Z" fill="#453D83"/>
<path d="M68.8912 4.97244L64.8066 20.2165L58.5469 18.1138L62.5251 3.26666C62.9719 1.59963 64.6853 0.610253 66.3525 1.05697L66.6814 1.1451C68.3486 1.59181 69.338 3.30525 68.8912 4.97244Z" fill="#51489A"/>
<path d="M64.8072 20.2161L57.2523 48.4111C56.8056 50.0781 55.092 51.0675 53.425 50.6207L49.5533 49.5834C47.8862 49.1367 46.8969 47.4231 47.3436 45.7561L54.8984 17.5611C55.3451 15.8941 57.0586 14.9047 58.7258 15.3514L62.5973 16.3887C64.2645 16.8355 65.2537 18.5491 64.8072 20.2161Z" fill="#5F55AF"/>
<path d="M64.8068 20.2164L57.252 48.4114C56.8053 50.0784 55.0917 51.0678 53.4247 50.6211L53.0958 50.533C51.4287 50.0863 50.4394 48.3727 50.8861 46.7056L59.2497 15.4922L62.597 16.3891C64.2642 16.8358 65.2534 18.5494 64.8068 20.2164Z" fill="#6A61B4"/>
<path d="M53.6348 65.6362H62.1113C65.5631 65.6362 68.3613 68.4345 68.3613 71.8862C68.3613 75.3379 65.5631 78.1362 62.1113 78.1362H53.6348C50.183 78.1362 47.3848 75.3379 47.3848 71.8862C47.3848 68.4345 50.183 65.6362 53.6348 65.6362Z" fill="#5DB33A"/>
<path d="M58.4395 65.6362H64.6334C68.0851 65.6362 70.8834 68.4345 70.8834 71.8862C70.8834 75.3379 68.0851 78.1362 64.6334 78.1362H58.4395C54.9877 78.1362 52.1895 75.3379 52.1895 71.8862C52.1895 68.4345 54.9876 65.6362 58.4395 65.6362Z" fill="#6DC54A"/>
<path d="M66.6967 71.8866C66.6967 72.0937 66.6145 72.2925 66.4678 72.4391L63.8228 75.0839C63.6703 75.2364 63.4703 75.3127 63.2705 75.3127C63.0706 75.3127 62.8705 75.2364 62.7181 75.0839C62.413 74.7788 62.413 74.2841 62.7181 73.9791L64.0294 72.6678H52.3521C51.9205 72.6678 51.5708 72.318 51.5708 71.8866C51.5708 71.4551 51.9205 71.1053 52.3521 71.1053H64.0295L62.7183 69.794C62.4131 69.4889 62.4131 68.9942 62.7183 68.6892C63.0231 68.3842 63.5181 68.3842 63.823 68.6892L66.468 71.3342C66.6145 71.4806 66.6967 71.6794 66.6967 71.8866Z" fill="white"/>
</g>
<defs>
<clipPath id="clip0">
<rect width="80" height="80" fill="white"/>
</clipPath>
</defs>
</svg>
