<svg width="80" height="80" viewBox="0 0 80 80" fill="none" xmlns="http://www.w3.org/2000/svg">
<g clip-path="url(#clip0)">
<path d="M0.794922 32.025C4.49148 13.7545 20.6393 0 39.9998 0C58.8051 0 74.5796 12.9772 78.8562 30.4648C79.0504 31.2592 78.4443 32.025 77.6265 32.025H0.794922Z" fill="#5DB33A"/>
<path d="M1.18102 30.3125H78.8187C79.5849 33.3928 79.994 36.6142 79.9998 39.9303C80.0371 61.8216 62.2963 79.7806 40.4062 79.998C29.7254 80.1039 19.9982 76.0233 12.7654 69.2966C11.856 68.4506 11.3366 67.2664 11.3366 66.0245V47.2278C11.3366 41.0714 6.34586 36.0806 0.189453 36.0806C0.380703 34.1127 0.714766 32.1866 1.18102 30.3125Z" fill="#5CA33B"/>
<path d="M65.625 21.3762V67.8125C65.625 68.6755 64.9255 69.375 64.0625 69.375H12.85C4.94781 62.0677 0 51.6117 0 40C0 37.838 0 32.9534 0 32.5V21.3764C0 17.337 3.27453 14.0625 7.31391 14.0625H58.3112C62.3505 14.0625 65.625 17.337 65.625 21.3762Z" fill="#C8E2FD"/>
<path d="M6.25 20C5.38703 20 4.6875 20.6995 4.6875 21.5625V58.8058C1.69578 53.1998 0 46.798 0 40C0 39.4767 0 21.5625 0 21.5625C0 20.6995 0.699531 20 1.5625 20H6.25Z" fill="#A7D0FC"/>
<path d="M8.90625 31.6602C8.90625 31.013 9.43094 30.4883 10.0781 30.4883H39.9442C40.5914 30.4883 41.1161 31.013 41.1161 31.6602C41.1161 32.3073 40.5914 32.832 39.9442 32.832H10.0781C9.43094 32.832 8.90625 32.3073 8.90625 31.6602ZM59.7656 30.4883H47.2433C46.5961 30.4883 46.0714 31.013 46.0714 31.6602C46.0714 32.3073 46.5961 32.832 47.2433 32.832H59.7656C60.4128 32.832 60.9375 32.3073 60.9375 31.6602C60.9375 31.013 60.4128 30.4883 59.7656 30.4883ZM10.0781 37.2525H22.6005C23.2477 37.2525 23.7723 36.7278 23.7723 36.0806C23.7723 35.4334 23.2477 34.9088 22.6005 34.9088H10.0781C9.43094 34.9088 8.90625 35.4334 8.90625 36.0806C8.90625 36.7278 9.43094 37.2525 10.0781 37.2525ZM33.2031 39.3294H10.0781C9.43094 39.3294 8.90625 39.8541 8.90625 40.5013C8.90625 41.1484 9.43094 41.6731 10.0781 41.6731H33.2031C33.8503 41.6731 34.375 41.1484 34.375 40.5013C34.375 39.8541 33.8503 39.3294 33.2031 39.3294ZM22.3638 43.75H10.0781C9.43094 43.75 8.90625 44.2747 8.90625 44.9219C8.90625 45.5691 9.43094 46.0938 10.0781 46.0938H22.3638C23.0109 46.0938 23.5356 45.5691 23.5356 44.9219C23.5356 44.2747 23.0109 43.75 22.3638 43.75ZM47.3772 34.9088H29.8995C29.2523 34.9088 28.7277 35.4334 28.7277 36.0806C28.7277 36.7278 29.2523 37.2525 29.8995 37.2525H47.3772C48.0244 37.2525 48.5491 36.7278 48.5491 36.0806C48.5491 35.4334 48.0244 34.9088 47.3772 34.9088ZM10.1216 58.3506C9.45031 58.3506 8.90625 58.8947 8.90625 59.5659C8.90625 60.2372 9.45031 60.7812 10.1216 60.7812C10.7927 60.7812 11.3369 60.2372 11.3369 59.5659C11.3369 58.8947 10.7927 58.3506 10.1216 58.3506ZM14.375 58.3506C13.7039 58.3506 13.1597 58.8947 13.1597 59.5659C13.1597 60.2372 13.7039 60.7812 14.375 60.7812C15.0461 60.7812 15.5903 60.2372 15.5903 59.5659C15.5903 58.8947 15.0461 58.3506 14.375 58.3506ZM18.6284 58.3506C17.9573 58.3506 17.4131 58.8947 17.4131 59.5659C17.4131 60.2372 17.9572 60.7812 18.6284 60.7812C19.2997 60.7812 19.8438 60.2372 19.8438 59.5659C19.8438 58.8947 19.2997 58.3506 18.6284 58.3506Z" fill="#86BEFB"/>
<path d="M65.625 13.75V21.5625H0V13.75C0 12.0241 1.39906 10.625 3.125 10.625H62.5C64.2259 10.625 65.625 12.0241 65.625 13.75Z" fill="#76B6FA"/>
<path d="M7.8125 10.625C6.08656 10.625 4.6875 12.0241 4.6875 13.75V21.5625H0V13.75C0 12.0241 1.39906 10.625 3.125 10.625H7.8125Z" fill="#55A4F9"/>
<path d="M19.375 16.097V16.0909C19.375 15.2296 20.0731 14.5315 20.9344 14.5315H61.5656C62.4269 14.5315 63.125 15.2296 63.125 16.0909V16.097C63.125 16.9582 62.4269 17.6563 61.5656 17.6563H20.9344C20.0731 17.6563 19.375 16.9582 19.375 16.097Z" fill="#FFF5F5"/>
<path d="M5.3125 16.0938C5.3125 16.9567 4.61297 17.6562 3.75 17.6562C2.88703 17.6562 2.1875 16.9567 2.1875 16.0938C2.1875 15.2308 2.88703 14.5312 3.75 14.5312C4.61297 14.5312 5.3125 15.2308 5.3125 16.0938ZM9.21875 14.5312C8.35578 14.5312 7.65625 15.2308 7.65625 16.0938C7.65625 16.9567 8.35578 17.6562 9.21875 17.6562C10.0817 17.6562 10.7812 16.9567 10.7812 16.0938C10.7812 15.2308 10.0817 14.5312 9.21875 14.5312ZM14.6875 14.5312C13.8245 14.5312 13.125 15.2308 13.125 16.0938C13.125 16.9567 13.8245 17.6562 14.6875 17.6562C15.5505 17.6562 16.25 16.9567 16.25 16.0938C16.25 15.2308 15.5505 14.5312 14.6875 14.5312Z" fill="#1380E2"/>
<path d="M73.75 73.4659H29.6875C27.9616 73.4659 26.5625 72.0669 26.5625 70.3409V40C26.5625 38.2741 27.9616 36.875 29.6875 36.875H73.75C75.4759 36.875 76.875 38.2741 76.875 40V70.3409C76.875 72.0667 75.4759 73.4659 73.75 73.4659Z" fill="#7456FD"/>
<path d="M34.375 73.4659H29.6875C27.9616 73.4659 26.5625 72.0669 26.5625 70.3409V40C26.5625 38.2741 27.9616 36.875 29.6875 36.875H34.375C32.6491 36.875 31.25 38.2741 31.25 40V70.3409C31.25 72.0667 32.6491 73.4659 34.375 73.4659Z" fill="#684BEC"/>
<g style="mix-blend-mode:multiply">
<circle cx="57" cy="64" r="6" fill="#B9B9B9"/>
</g>
<g style="mix-blend-mode:multiply">
<circle cx="66" cy="64" r="6" fill="#949494"/>
</g>
<rect x="29" y="44" width="46" height="6" fill="#3D019F"/>
</g>
<defs>
<clipPath id="clip0">
<rect width="80" height="80" fill="white"/>
</clipPath>
</defs>
</svg>
