<svg width="20" height="20" viewBox="0 0 20 20" fill="none" xmlns="http://www.w3.org/2000/svg">
<path d="M1 5.52737C1 4.09303 2.46531 3.12499 3.78465 3.68772L10 6.33871V12.9194V19.5L2.21535 16.1797C1.47828 15.8653 1 15.1413 1 14.34V5.52737Z" fill="#949CAC"/>
<path d="M19 5.52737C19 4.09303 17.5347 3.12499 16.2153 3.68772L10 6.33871V12.9194V19.5L17.7847 16.1797C18.5217 15.8653 19 15.1413 19 14.34V5.52737Z" fill="#AFB7C8"/>
<path d="M1.1606 4.96424C0.741524 4.79661 0.741523 4.20339 1.1606 4.03576L9.25722 0.797113C9.73404 0.606384 10.266 0.606384 10.7428 0.797113L18.8394 4.03576C19.2585 4.20339 19.2585 4.79661 18.8394 4.96424L10.7428 8.20289C10.266 8.39362 9.73404 8.39362 9.25722 8.20289L1.1606 4.96424Z" fill="#394050"/>
</svg>
