<svg width="24" height="24" viewBox="0 0 24 24" fill="none" xmlns="http://www.w3.org/2000/svg">
<rect width="24" height="24" rx="2" fill="#FFD6AE"/>
<path d="M8.39141 7.08446C8.68912 6.61929 8.55336 6.00085 8.08819 5.70314C7.62302 5.40543 7.00458 5.54118 6.70686 6.00636L8.39141 7.08446ZM5.45459 9.81814L4.61232 9.27908C4.41532 9.58689 4.40192 9.97764 4.57736 10.2982C4.7528 10.6188 5.08915 10.8181 5.45459 10.8181V9.81814ZM18.5455 10.8181C19.0978 10.8181 19.5455 10.3704 19.5455 9.81814C19.5455 9.26585 19.0978 8.81814 18.5455 8.81814V10.8181ZM6.70686 6.00636L4.61232 9.27908L6.29686 10.3572L8.39141 7.08446L6.70686 6.00636ZM5.45459 10.8181H18.5455V8.81814H5.45459V10.8181Z" fill="#FF8500"/>
<path d="M16.154 16.9155C15.8563 17.3807 15.992 17.9992 16.4572 18.2969C16.9224 18.5946 17.5408 18.4588 17.8385 17.9936L16.154 16.9155ZM19.0908 14.1819L19.9331 14.7209C20.1301 14.4131 20.1435 14.0224 19.968 13.7018C19.7926 13.3812 19.4563 13.1819 19.0908 13.1819L19.0908 14.1819ZM5.99991 13.1819C5.44762 13.1819 4.99991 13.6296 4.99991 14.1819C4.99991 14.7342 5.44762 15.1819 5.99991 15.1819L5.99991 13.1819ZM17.8385 17.9936L19.9331 14.7209L18.2485 13.6428L16.154 16.9155L17.8385 17.9936ZM19.0908 13.1819L5.99991 13.1819L5.99991 15.1819L19.0908 15.1819L19.0908 13.1819Z" fill="#FF8500"/>
</svg>
