<svg width="32" height="32" viewBox="0 0 32 32" fill="none" xmlns="http://www.w3.org/2000/svg">
<g clip-path="url(#clip0)">
<path d="M16.0002 6.66658C17.4729 6.66658 18.6668 5.47268 18.6668 3.99992C18.6668 2.52716 17.4729 1.33325 16.0002 1.33325C14.5274 1.33325 13.3335 2.52716 13.3335 3.99992C13.3335 5.47268 14.5274 6.66658 16.0002 6.66658Z" fill="#FFAC00"/>
<path d="M19.169 28.2982C19.169 30.3427 17.5116 32.0001 15.4671 32.0001C13.4226 32.0001 11.7651 30.3427 11.7651 28.2982V27.2751H19.169V28.2982Z" fill="#FFAC00"/>
<path d="M25.7142 20.304C25.7142 20.372 25.7338 20.4388 25.7707 20.4978L27.9435 23.9651C27.9805 24.0241 28 24.091 28 24.159V26.6912C28 27.2668 27.4883 27.7334 26.8571 27.7334H5.14288C4.51166 27.7334 4 27.2668 4 26.6912V24.159C4 24.091 4.01945 24.0242 4.05643 23.9651L6.22919 20.4978C6.26624 20.4388 6.28569 20.372 6.28569 20.304V12.6798C6.28569 7.77861 10.6098 3.7409 15.9847 3.73341C22.6182 3.72417 25.8569 9.85596 25.7142 12.5916V20.304Z" fill="#FFE55D"/>
<path d="M4.00014 24.6667C4.00014 24.6667 4 24.7155 4 24.8083V25.3333H28V24.8083C28 24.7155 28 24.6667 28 24.5437V24.3695H4L4.00014 24.6667Z" fill="#FF8500"/>
</g>
<defs>
<clipPath id="clip0">
<rect width="32" height="32" fill="white"/>
</clipPath>
</defs>
</svg>
