<svg width="25" height="24" viewBox="0 0 25 24" fill="none" xmlns="http://www.w3.org/2000/svg">
<path d="M17.4972 2H19.7472C20.3439 2 20.9162 2.25754 21.3382 2.71596C21.7601 3.17438 21.9972 3.79614 21.9972 4.44444V21.5556C21.9972 22.2039 21.7601 22.8256 21.3382 23.284C20.9162 23.7425 20.3439 24 19.7472 24H6.24719C5.65046 24 5.07816 23.7425 4.6562 23.284C4.23425 22.8256 3.99719 22.2039 3.99719 21.5556V4.44444C3.99719 3.79614 4.23425 3.17438 4.6562 2.71596C5.07816 2.25754 5.65046 2 6.24719 2H8.49719" fill="#5FD791"/>
<path d="M16.7472 0H9.24719C8.55684 0 7.99719 0.559644 7.99719 1.25V3.75C7.99719 4.44036 8.55684 5 9.24719 5H16.7472C17.4375 5 17.9972 4.44036 17.9972 3.75V1.25C17.9972 0.559644 17.4375 0 16.7472 0Z" fill="#27AE60"/>
<path d="M15.9972 15H8.99719" stroke="white" stroke-width="2" stroke-linecap="round" stroke-linejoin="round"/>
<path d="M15.9972 19H8.99719" stroke="white" stroke-width="2" stroke-linecap="round" stroke-linejoin="round"/>
<path d="M10.9972 10H9.99719H8.99719" stroke="white" stroke-width="2" stroke-linecap="round" stroke-linejoin="round"/>
</svg>
