<svg width="99" height="100" viewBox="0 0 99 100" fill="none" xmlns="http://www.w3.org/2000/svg">
<path d="M42.3729 0V8.47458H35.5933V13.5593L49.1526 25.4237L62.7119 13.5593V8.47458H55.9322V0H42.3729Z" fill="#27AE60"/>
<path d="M77.9662 0V8.47458H71.1865V13.5593L84.7458 25.4237L98.3052 13.5593V8.47458H91.5255V0H77.9662Z" fill="#27AE60"/>
<path d="M6.77966 0V61.017H0V66.1017L13.5593 77.9661L27.1186 66.1017V61.017H20.339V0H6.77966Z" fill="#27AE60"/>
<path d="M33.8982 32.2034H94.9151V86.4407H33.8982V32.2034Z" fill="#F8BC1E"/>
<path d="M74.5762 59.322H84.7457V69.4915H74.5762V59.322Z" fill="#F9DA62"/>
<path d="M94.9154 61.017H92.373C91.6987 61.017 91.052 61.2848 90.5753 61.7616C90.0985 62.2384 89.8306 62.885 89.8306 63.5593V67.8612C89.8303 71.4402 88.4085 74.8724 85.8778 77.4031C83.3471 79.9338 79.9148 81.3557 76.3359 81.3559H68.6442C67.9699 81.3559 67.3232 81.6238 66.8464 82.1006C66.3697 82.5774 66.1018 83.224 66.1018 83.8983V86.4407H94.9154V61.017Z" fill="#F5A922"/>
<path d="M86.4407 77.9661H89.8305V81.3559H86.4407V77.9661Z" fill="#F79726"/>
<path d="M74.5762 32.2034H84.7457V42.3729H74.5762V32.2034Z" fill="#F9DA62"/>
<path d="M94.9154 33.8983H92.373C91.6987 33.8983 91.052 34.1662 90.5753 34.6429C90.0985 35.1197 89.8306 35.7664 89.8306 36.4407V40.7426C89.8303 44.3215 88.4085 47.7538 85.8778 50.2845C83.3471 52.8152 79.9148 54.237 76.3359 54.2373H68.6442C67.9699 54.2373 67.3232 54.5051 66.8464 54.9819C66.3697 55.4587 66.1018 56.1054 66.1018 56.7797V59.322H94.9154V33.8983Z" fill="#F5A922"/>
<path d="M86.4407 50.8475H89.8305V54.2373H86.4407V50.8475Z" fill="#F79726"/>
<path d="M44.0679 59.322H54.2374V69.4915H44.0679V59.322Z" fill="#F9DA62"/>
<path d="M64.4068 61.017H61.8644C61.1902 61.017 60.5435 61.2848 60.0667 61.7616C59.5899 62.2384 59.3221 62.885 59.3221 63.5593V67.8612C59.3218 71.4402 57.8999 74.8724 55.3693 77.4031C52.8386 79.9338 49.4063 81.3557 45.8274 81.3559H38.1356C37.4614 81.3559 36.8147 81.6238 36.3379 82.1006C35.8611 82.5774 35.5933 83.224 35.5933 83.8983V86.4407H64.4068V61.017Z" fill="#F5A922"/>
<path d="M55.9321 77.9661H59.322V81.3559H55.9321V77.9661Z" fill="#F79726"/>
<path d="M44.0679 32.2034H54.2374V42.3729H44.0679V32.2034Z" fill="#F9DA62"/>
<path d="M64.4068 33.8983H61.8644C61.1902 33.8983 60.5435 34.1662 60.0667 34.6429C59.5899 35.1197 59.3221 35.7664 59.3221 36.4407V40.7426C59.3218 44.3215 57.8999 47.7538 55.3693 50.2845C52.8386 52.8152 49.4063 54.237 45.8274 54.2373H38.1356C37.4614 54.2373 36.8147 54.5051 36.3379 54.9819C35.8611 55.4587 35.5933 56.1054 35.5933 56.7797V59.322H64.4068V33.8983Z" fill="#F5A922"/>
<path d="M55.9321 50.8475H59.322V54.2373H55.9321V50.8475Z" fill="#F79726"/>
<path d="M6.77954 89.8305H16.949V100H6.77954V89.8305Z" fill="#A17835"/>
<path d="M6.77954 89.8305H16.949V96.6102H6.77954V89.8305Z" fill="#8B6639"/>
<path d="M44.0679 89.8305H54.2374V100H44.0679V89.8305Z" fill="#A17835"/>
<path d="M44.0679 89.8305H54.2374V96.6102H44.0679V89.8305Z" fill="#8B6639"/>
<path d="M81.356 89.8305H91.5254V100H81.356V89.8305Z" fill="#A17835"/>
<path d="M81.356 89.8305H91.5254V96.6102H81.356V89.8305Z" fill="#8B6639"/>
<path d="M0 86.4407H98.3051V93.2203H0V86.4407Z" fill="#A17835"/>
</svg>
