<svg width="100" height="100" viewBox="0 0 100 100" fill="none" xmlns="http://www.w3.org/2000/svg">
<path d="M56.8972 25.8621V17.2414H63.7938V12.069L50.0006 0L36.2075 12.069V17.2414H43.1041V25.8621H56.8972Z" fill="#2F80ED"/>
<path d="M20.6897 25.8621V17.2414H27.5862V12.069L13.7931 0L0 12.069V17.2414H6.89656V25.8621H20.6897Z" fill="#2F80ED"/>
<path d="M93.1033 79.3105V17.2414H99.9998V12.069L86.2067 0L72.4136 12.069V17.2414H79.3101V79.3105H93.1033Z" fill="#2F80ED"/>
<path d="M3.44873 31.0345H65.5178V86.207H3.44873V31.0345Z" fill="#F8BC1E"/>
<path d="M44.8276 58.6207H55.1725V68.9656H44.8276V58.6207Z" fill="#F9DA62"/>
<path d="M65.5179 60.345H62.9317C62.2458 60.345 61.588 60.6174 61.103 61.1025C60.618 61.5875 60.3455 62.2453 60.3455 62.9312V67.3073C60.3452 70.9479 58.8988 74.4394 56.3245 77.0137C53.7502 79.588 50.2587 81.0344 46.6181 81.0347H38.7937C38.1078 81.0347 37.45 81.3071 36.965 81.7921C36.48 82.2771 36.2075 82.935 36.2075 83.6209V86.2071H65.5179V60.345Z" fill="#F5A922"/>
<path d="M56.8965 77.5863H60.3448V81.0346H56.8965V77.5863Z" fill="#F79726"/>
<path d="M44.8276 31.0345H55.1725V41.3794H44.8276V31.0345Z" fill="#F9DA62"/>
<path d="M65.5179 32.7588H62.9317C62.2458 32.7588 61.588 33.0312 61.103 33.5162C60.618 34.0013 60.3455 34.6591 60.3455 35.345V39.7211C60.3452 43.3617 58.8988 46.8531 56.3245 49.4275C53.7502 52.0018 50.2587 53.4482 46.6181 53.4484H38.7937C38.1078 53.4484 37.45 53.7209 36.965 54.2059C36.48 54.6909 36.2075 55.3487 36.2075 56.0347V58.6209H65.5179V32.7588Z" fill="#F5A922"/>
<path d="M56.8965 50.0001H60.3448V53.4484H56.8965V50.0001Z" fill="#F79726"/>
<path d="M13.7925 58.6207H24.1373V68.9656H13.7925V58.6207Z" fill="#F9DA62"/>
<path d="M34.4827 60.345H31.8965C31.2106 60.345 30.5528 60.6174 30.0678 61.1025C29.5828 61.5875 29.3103 62.2453 29.3103 62.9312V67.3073C29.31 70.9479 27.8637 74.4394 25.2894 77.0137C22.715 79.588 19.2236 81.0344 15.5829 81.0347H7.75857C7.07267 81.0347 6.41486 81.3071 5.92985 81.7921C5.44484 82.2771 5.17236 82.935 5.17236 83.6209V86.2071H34.4827V60.345Z" fill="#F5A922"/>
<path d="M25.8623 77.5863H29.3106V81.0346H25.8623V77.5863Z" fill="#F79726"/>
<path d="M13.7925 31.0345H24.1373V41.3794H13.7925V31.0345Z" fill="#F9DA62"/>
<path d="M34.4827 32.7588H31.8965C31.2106 32.7588 30.5528 33.0312 30.0678 33.5162C29.5828 34.0013 29.3103 34.6591 29.3103 35.345V39.7211C29.31 43.3617 27.8637 46.8531 25.2894 49.4275C22.715 52.0018 19.2236 53.4482 15.5829 53.4484H7.75857C7.07267 53.4484 6.41486 53.7209 5.92985 54.2059C5.44484 54.6909 5.17236 55.3487 5.17236 56.0347V58.6209H34.4827V32.7588Z" fill="#F5A922"/>
<path d="M25.8623 50.0001H29.3106V53.4484H25.8623V50.0001Z" fill="#F79726"/>
<path d="M6.89648 89.6552H17.2413V100H6.89648V89.6552Z" fill="#A17835"/>
<path d="M6.89648 89.6552H17.2413V96.5518H6.89648V89.6552Z" fill="#8B6639"/>
<path d="M44.8276 89.6552H55.1725V100H44.8276V89.6552Z" fill="#A17835"/>
<path d="M44.8276 89.6552H55.1725V96.5518H44.8276V89.6552Z" fill="#8B6639"/>
<path d="M82.7588 89.6552H93.1036V100H82.7588V89.6552Z" fill="#A17835"/>
<path d="M82.7588 89.6552H93.1036V96.5518H82.7588V89.6552Z" fill="#8B6639"/>
<path d="M0 86.2069H100V93.1035H0V86.2069Z" fill="#A17835"/>
</svg>
