<svg width="56" height="56" viewBox="0 0 56 56" fill="none" xmlns="http://www.w3.org/2000/svg">
<path d="M28 56C42.7995 56 54.7969 44.0026 54.7969 29.2031C54.7969 14.4036 42.7995 2.40625 28 2.40625C13.2005 2.40625 1.20312 14.4036 1.20312 29.2031C1.20312 44.0026 13.2005 56 28 56Z" fill="#B3DAFE"/>
<path d="M44.7059 43.0938H11.2634L10.9375 43.2031V47.3594C10.9375 48.2654 11.6721 49 12.5781 49H43.4219C44.3279 49 45.0625 48.2654 45.0625 47.3594V43.2031L44.7059 43.0938Z" fill="#B5ADD5"/>
<path d="M43.4219 0H12.5781C11.6721 0 10.9375 0.734562 10.9375 1.64062V4.92188L11.5099 5.03125H44.4974L45.0625 4.92188V1.64062C45.0625 0.734562 44.3279 0 43.4219 0Z" fill="#B5ADD5"/>
<path d="M16.4062 4.92188V1.64062C16.4062 0.734562 17.1408 0 18.0469 0H12.5781C11.6721 0 10.9375 0.734562 10.9375 1.64062V4.92188H16.4062Z" fill="#A79BC6"/>
<path d="M16.4062 47.3594V43.2031H10.9375V47.3594C10.9375 48.2654 11.6721 49 12.5781 49H18.0469C17.1408 49 16.4062 48.2654 16.4062 47.3594Z" fill="#A79BC6"/>
<path d="M31.3359 3.39062H24.6641C24.211 3.39062 23.8438 3.02345 23.8438 2.57031C23.8438 2.11717 24.211 1.75 24.6641 1.75H31.3359C31.789 1.75 32.1562 2.11717 32.1562 2.57031C32.1562 3.02345 31.789 3.39062 31.3359 3.39062Z" fill="#9182B0"/>
<path d="M45.0625 4.92188V43.2031H10.9375V4.92188H45.0625Z" fill="#F3F0FF"/>
<path d="M10.9375 4.92188H16.4062V17.1719H10.9375V4.92188Z" fill="#E2DEFF"/>
<path d="M10.9375 37.9531H16.4062V43.2031H10.9375V37.9531Z" fill="#E2DEFF"/>
<path d="M31.9375 32.8671C31.9375 32.5047 32.2324 32.2097 32.5948 32.2097H38.018V18.0167C38.018 17.5501 37.6398 17.1719 37.1732 17.1719H8.28231C7.81572 17.1719 7.4375 17.5501 7.4375 18.0167V37.1084C7.4375 37.575 7.81572 37.9532 8.28231 37.9532H31.9375V32.8671Z" fill="#0182FC"/>
<path d="M12.0312 37.1083V18.0167C12.0312 17.5501 12.4095 17.1719 12.8761 17.1719H8.28231C7.81572 17.1719 7.4375 17.5501 7.4375 18.0167V37.1084C7.4375 37.575 7.81572 37.9532 8.28231 37.9532H12.8761C12.4095 37.9531 12.0312 37.5749 12.0312 37.1083Z" fill="#0172FB"/>
<path d="M34.5892 29.5859H29.3699C29.0679 29.5859 28.823 29.341 28.823 29.0391V26.0859C28.823 25.784 29.0679 25.5391 29.3699 25.5391H34.5892C34.8912 25.5391 35.1361 25.784 35.1361 26.0859V29.0391C35.1361 29.341 34.8912 29.5859 34.5892 29.5859Z" fill="#F3F0FF"/>
<path d="M12.043 34.7412C12.7428 34.7412 13.3101 34.1739 13.3101 33.4741C13.3101 32.7743 12.7428 32.207 12.043 32.207C11.3432 32.207 10.7759 32.7743 10.7759 33.4741C10.7759 34.1739 11.3432 34.7412 12.043 34.7412Z" fill="#B3DAFE"/>
<path d="M15.5911 34.7412C16.2909 34.7412 16.8582 34.1739 16.8582 33.4741C16.8582 32.7743 16.2909 32.207 15.5911 32.207C14.8913 32.207 14.324 32.7743 14.324 33.4741C14.324 34.1739 14.8913 34.7412 15.5911 34.7412Z" fill="#B3DAFE"/>
<path d="M22.2959 27.1797H11.1396C10.6866 27.1797 10.3193 26.8125 10.3193 26.3594C10.3193 25.9062 10.6866 25.5391 11.1396 25.5391H22.2959C22.7489 25.5391 23.1162 25.9062 23.1162 26.3594C23.1162 26.8125 22.7489 27.1797 22.2959 27.1797Z" fill="#26A6FE"/>
<path d="M16.8271 29.5859H11.1396C10.6866 29.5859 10.3193 29.2188 10.3193 28.7656C10.3193 28.3125 10.6866 27.9453 11.1396 27.9453H16.8271C17.2802 27.9453 17.6475 28.3125 17.6475 28.7656C17.6475 29.2188 17.2802 29.5859 16.8271 29.5859Z" fill="#26A6FE"/>
<path d="M35.854 32.2097V29.4975C35.854 27.1037 37.8015 25.1562 40.1952 25.1562C42.5889 25.1562 44.5364 27.1038 44.5364 29.4975V32.2097H46.7239V29.4975C46.7239 25.8975 43.7952 22.9688 40.1952 22.9688C36.5952 22.9688 33.6665 25.8975 33.6665 29.4975V32.2097H35.854Z" fill="#B5ADD5"/>
<path d="M47.7958 44.2072H32.5948C32.1713 44.2072 31.8281 43.8639 31.8281 43.4405V32.8683C31.8281 32.4448 32.1715 32.1016 32.5948 32.1016H47.7958C48.2193 32.1016 48.5625 32.4449 48.5625 32.8683V43.4405C48.5625 43.8639 48.2192 44.2072 47.7958 44.2072Z" fill="#FAC600"/>
<path d="M36.2031 43.4405V32.8683C36.2031 32.4448 36.5465 32.1016 36.9698 32.1016H32.5948C32.1713 32.1016 31.8281 32.4449 31.8281 32.8683V43.4405C31.8281 43.864 32.1715 44.2072 32.5948 44.2072H36.9698C36.5465 44.2072 36.2031 43.8639 36.2031 43.4405Z" fill="#E8B800"/>
<path d="M40.1953 40.5234C39.4402 40.5234 38.8281 39.9114 38.8281 39.1562V36.9688C38.8281 36.2136 39.4402 35.6016 40.1953 35.6016C40.9504 35.6016 41.5625 36.2136 41.5625 36.9688V39.1562C41.5625 39.9114 40.9504 40.5234 40.1953 40.5234Z" fill="#9182B0"/>
<path d="M29.6588 46.7031H26.3416C25.8885 46.7031 25.5212 46.3358 25.5212 45.8828C25.5212 45.4298 25.8885 45.0625 26.3416 45.0625H29.6588C30.1118 45.0625 30.4791 45.4298 30.4791 45.8828C30.4791 46.3358 30.1118 46.7031 29.6588 46.7031Z" fill="#F3F0FF"/>
<path d="M17.1172 15.2578C19.3824 15.2578 21.2188 13.4215 21.2188 11.1562C21.2188 8.89102 19.3824 7.05469 17.1172 7.05469C14.852 7.05469 13.0156 8.89102 13.0156 11.1562C13.0156 13.4215 14.852 15.2578 17.1172 15.2578Z" fill="#4FC123"/>
<path d="M16.2969 11.1562C16.2969 9.4745 17.3095 8.02998 18.7578 7.39692C18.2553 7.1773 17.7007 7.05469 17.1172 7.05469C14.8519 7.05469 13.0156 8.89098 13.0156 11.1562C13.0156 13.4215 14.8519 15.2578 17.1172 15.2578C17.7007 15.2578 18.2553 15.1352 18.7578 14.9156C17.3095 14.2825 16.2969 12.838 16.2969 11.1562Z" fill="#47A920"/>
<path d="M16.8898 13.4345C16.6799 13.4345 16.4699 13.3544 16.3098 13.1943L14.5811 11.4656C14.2607 11.1452 14.2607 10.6258 14.5811 10.3055C14.9014 9.98523 15.4209 9.98523 15.7411 10.3055L16.8897 11.4541L18.7324 9.61128C19.0528 9.29103 19.5722 9.29103 19.8925 9.61128C20.2128 9.93175 20.2128 10.4511 19.8925 10.7714L17.4697 13.1942C17.3097 13.3543 17.0998 13.4345 16.8898 13.4345Z" fill="white"/>
<path d="M34.5968 10.6094H23.5259C23.0728 10.6094 22.7056 10.2422 22.7056 9.78906C22.7056 9.33592 23.0728 8.96875 23.5259 8.96875H34.5967C35.0498 8.96875 35.417 9.33592 35.417 9.78906C35.417 10.2422 35.0499 10.6094 34.5968 10.6094Z" fill="#4FC123"/>
<path d="M37.1978 13.3438H23.5259C23.0728 13.3438 22.7056 12.9766 22.7056 12.5234C22.7056 12.0703 23.0728 11.7031 23.5259 11.7031H37.1978C37.6508 11.7031 38.0181 12.0703 38.0181 12.5234C38.0181 12.9766 37.6508 13.3438 37.1978 13.3438Z" fill="#4FC123"/>
<path d="M33.8516 3.39062C34.3046 3.39062 34.6719 3.02336 34.6719 2.57031C34.6719 2.11727 34.3046 1.75 33.8516 1.75C33.3985 1.75 33.0312 2.11727 33.0312 2.57031C33.0312 3.02336 33.3985 3.39062 33.8516 3.39062Z" fill="#9182B0"/>
</svg>
