<svg width="88" height="88" viewBox="0 0 88 88" fill="none" xmlns="http://www.w3.org/2000/svg">
<g clip-path="url(#clip0)">
<path d="M62.704 9.31671C50.8277 4.67007 34.3817 6.4354 25.2933 14.7325C18.8762 20.5908 23.8428 22.2606 28.2179 32.9805C31.3844 40.7391 0 39.6712 0 53.6907C0 69.8984 22.7306 66.8261 31.1659 68.6813C44.0627 71.5179 55.3137 82.1292 69.0932 80.7303C81.0892 79.5124 85.6625 70.0989 87.3307 59.3074C90.4386 39.2022 82.8054 17.1817 62.704 9.31671Z" fill="url(#paint0_linear)"/>
<g opacity="0.1">
<path opacity="0.1" d="M40.7264 53.6162C36.6619 53.7285 33.3933 57.0797 33.377 61.1457C33.3705 62.756 33.8676 64.25 34.7194 65.4791C35.7018 66.8969 36.5613 68.3959 37.2734 69.9671L40.1633 76.3445H39.9373C39.4628 76.3445 39.0779 76.7291 39.0779 77.2039C39.0779 77.6786 39.4628 78.0632 39.9373 78.0632H42.061C42.5355 78.0632 42.9204 77.6786 42.9204 77.2039C42.9204 76.7291 42.5355 76.3445 42.061 76.3445H41.7179L44.6316 69.9146C45.3405 68.3501 46.2102 66.8663 47.182 65.4497C48.0161 64.234 48.5042 62.7624 48.5042 61.1767C48.5041 56.9284 45.0014 53.4982 40.7264 53.6162Z" fill="#2626BC"/>
<path opacity="0.1" d="M76.8723 45.692C77.7064 44.4764 78.1945 43.0048 78.1945 41.419C78.1945 37.1706 74.6919 33.7404 70.4168 33.8584C66.3523 33.9707 63.0838 37.3219 63.0674 41.3879C63.0609 42.9982 63.558 44.4922 64.4098 45.7212C65.3922 47.139 66.2518 48.6381 66.9639 50.2092L69.8536 56.5867H69.5126C69.038 56.5867 68.6532 56.9713 68.6532 57.4461C68.6532 57.9208 69.038 58.3054 69.5126 58.3054H71.6655C72.14 58.3054 72.5249 57.9208 72.5249 57.4461C72.5249 56.9713 72.14 56.5867 71.6655 56.5867H71.4084L74.322 50.1568C75.0308 48.5922 75.9005 47.1085 76.8723 45.692Z" fill="#2626BC"/>
<path opacity="0.1" d="M12.372 34.8821L16.5909 44.1925C16.8796 44.8298 17.7847 44.8298 18.0735 44.1925L22.3244 34.8113C23.2833 32.695 24.4598 30.688 25.7741 28.7721C25.9859 28.4634 26.1811 28.1425 26.3587 27.8106C27.3679 28.1936 28.4616 28.405 29.6052 28.405C34.6618 28.405 38.7608 24.3059 38.7608 19.2494C38.7608 14.1928 34.6618 10.0938 29.6052 10.0938C26.5201 10.0938 23.7935 11.6212 22.1347 13.9596C20.6231 13.1542 18.8864 12.7152 17.0424 12.7662C11.5448 12.918 7.12382 17.4509 7.10165 22.9505C7.09288 25.1287 7.76508 27.1491 8.91733 28.8118C10.2466 30.7294 11.4092 32.757 12.372 34.8821Z" fill="#2626BC"/>
<path opacity="0.1" d="M62.4381 82.9442C67.4288 82.1352 70.8188 77.4335 70.0098 72.4427C69.2007 67.452 64.499 64.062 59.5083 64.871C54.5175 65.6801 51.1275 70.3818 51.9366 75.3725C52.7456 80.3633 57.4473 83.7533 62.4381 82.9442Z" fill="#2626BC"/>
<path opacity="0.1" d="M30.5898 56.5898H29.5586C29.084 56.5898 28.6992 56.9745 28.6992 57.4492C28.6992 57.9239 29.084 58.3086 29.5586 58.3086H30.5898C31.0644 58.3086 31.4492 57.9239 31.4492 57.4492C31.4492 56.9745 31.0644 56.5898 30.5898 56.5898Z" fill="#2626BC"/>
<path opacity="0.1" d="M12.3402 57.3376C11.6262 57.6204 10.9401 57.9817 10.3014 58.4119C9.90761 58.6769 9.80345 59.2109 10.0685 59.6047C10.2345 59.8511 10.5057 59.9842 10.7821 59.9842C10.9471 59.9842 11.1142 59.9367 11.2613 59.8374C11.7977 59.4761 12.3735 59.1729 12.9728 58.9357C13.414 58.7609 13.6302 58.2616 13.4556 57.8204C13.281 57.3792 12.7814 57.1635 12.3402 57.3376Z" fill="#2626BC"/>
<path opacity="0.1" d="M29.318 76.3438H27.1943C26.7198 76.3438 26.335 76.7284 26.335 77.2031C26.335 77.6778 26.7198 78.0625 27.1943 78.0625H29.318C29.7926 78.0625 30.1774 77.6778 30.1774 77.2031C30.1774 76.7284 29.7926 76.3438 29.318 76.3438Z" fill="#2626BC"/>
<path opacity="0.1" d="M16.5758 76.3445H16.29C16.2891 76.3445 16.2884 76.3445 16.2876 76.3445C15.7276 76.3445 15.1668 76.2927 14.6211 76.1905C14.1544 76.1037 13.7056 76.4105 13.6183 76.8771C13.531 77.3437 13.8385 77.7927 14.305 77.88C14.9547 78.0015 15.6217 78.063 16.2874 78.063H16.2903H16.576C17.0505 78.063 17.4353 77.6784 17.4353 77.2037C17.4353 76.7289 17.0503 76.3445 16.5758 76.3445Z" fill="#2626BC"/>
<path opacity="0.1" d="M18.9401 56.5898H16.8164C16.3419 56.5898 15.957 56.9745 15.957 57.4492C15.957 57.9239 16.3419 58.3086 16.8164 58.3086H18.9401C19.4146 58.3086 19.7995 57.9239 19.7995 57.4492C19.7995 56.9745 19.4146 56.5898 18.9401 56.5898Z" fill="#2626BC"/>
<path opacity="0.1" d="M22.9469 76.3438H20.8232C20.3487 76.3438 19.9639 76.7284 19.9639 77.2031C19.9639 77.6778 20.3487 78.0625 20.8232 78.0625H22.9469C23.4215 78.0625 23.8063 77.6778 23.8063 77.2031C23.8063 76.7284 23.4217 76.3438 22.9469 76.3438Z" fill="#2626BC"/>
<path opacity="0.1" d="M25.3112 56.5898H23.1875C22.713 56.5898 22.3281 56.9745 22.3281 57.4492C22.3281 57.9239 22.713 58.3086 23.1875 58.3086H25.3112C25.7857 58.3086 26.1706 57.9239 26.1706 57.4492C26.1706 56.9745 25.7857 56.5898 25.3112 56.5898Z" fill="#2626BC"/>
<path opacity="0.1" d="M7.31172 68.1852C7.26703 67.7127 6.84748 67.3638 6.37534 67.4104C5.90286 67.4551 5.55601 67.8741 5.60053 68.3466C5.67289 69.1135 5.82843 69.8732 6.06253 70.6045C6.1794 70.9694 6.51714 71.2022 6.88083 71.2022C6.96762 71.2022 7.05597 71.1889 7.14294 71.1611C7.59497 71.0164 7.84419 70.5327 7.6993 70.0807C7.50301 69.4667 7.37239 68.8291 7.31172 68.1852Z" fill="#2626BC"/>
<path opacity="0.1" d="M11.0812 74.6901C10.5546 74.3168 10.0664 73.8855 9.63057 73.4084C9.31054 73.0583 8.7669 73.0337 8.41644 73.3538C8.06599 73.674 8.04158 74.2174 8.36161 74.5679C8.88016 75.1354 9.46076 75.6481 10.0872 76.0922C10.2381 76.1991 10.4116 76.2505 10.5834 76.2505C10.8526 76.2505 11.1178 76.1245 11.2852 75.8882C11.5599 75.5008 11.4684 74.9644 11.0812 74.6901Z" fill="#2626BC"/>
<path opacity="0.1" d="M8.31418 61.4358C7.90959 61.1872 7.38039 61.3142 7.1322 61.7187C6.72949 62.3749 6.3976 63.0758 6.14546 63.8013C5.98974 64.2495 6.22693 64.7394 6.67535 64.8949C6.76868 64.9274 6.86373 64.9427 6.9574 64.9427C7.31318 64.9427 7.64593 64.7201 7.76917 64.3652C7.98057 63.7564 8.25935 63.1684 8.59726 62.6176C8.84545 62.2133 8.71878 61.6841 8.31418 61.4358Z" fill="#2626BC"/>
<path opacity="0.1" d="M35.6891 76.3438H33.5654C33.0909 76.3438 32.7061 76.7284 32.7061 77.2031C32.7061 77.6778 33.0909 78.0625 33.5654 78.0625H35.6891C36.1637 78.0625 36.5485 77.6778 36.5485 77.2031C36.5485 76.7284 36.1637 76.3438 35.6891 76.3438Z" fill="#2626BC"/>
<path opacity="0.1" d="M47.3574 76.3438H46.3262C45.8516 76.3438 45.4668 76.7284 45.4668 77.2031C45.4668 77.6778 45.8516 78.0625 46.3262 78.0625H47.3574C47.832 78.0625 48.2168 77.6778 48.2168 77.2031C48.2168 76.7284 47.8321 76.3438 47.3574 76.3438Z" fill="#2626BC"/>
<path opacity="0.1" d="M81.0211 48.3156C81.4195 48.0576 81.5333 47.5254 81.2753 47.127C81.0641 46.8008 80.8249 46.4892 80.5641 46.201C80.2458 45.8488 79.7023 45.8216 79.3503 46.1401C78.9983 46.4584 78.971 47.0019 79.2893 47.3539C79.4885 47.5741 79.6712 47.8121 79.8326 48.0614C79.9971 48.3154 80.2731 48.4538 80.5548 48.4538C80.7149 48.4536 80.8768 48.4091 81.0211 48.3156Z" fill="#2626BC"/>
<path opacity="0.1" d="M81.6283 50.8443C81.1553 50.796 80.7351 51.142 80.688 51.6142C80.6261 52.2355 80.4607 52.8364 80.1966 53.4006C79.9953 53.8305 80.1804 54.3422 80.6103 54.5433C80.7282 54.5986 80.8521 54.6247 80.9743 54.6247C81.2974 54.6247 81.607 54.4417 81.7531 54.1297C82.1001 53.389 82.3172 52.6001 82.3985 51.7847C82.4452 51.3125 82.1006 50.8916 81.6283 50.8443Z" fill="#2626BC"/>
<path opacity="0.1" d="M56.5947 58.3086H58.7476C59.2222 58.3086 59.607 57.9239 59.607 57.4492C59.607 56.9745 59.2222 56.5898 58.7476 56.5898H56.5947C56.1202 56.5898 55.7354 56.9745 55.7354 57.4492C55.7354 57.9239 56.1202 58.3086 56.5947 58.3086Z" fill="#2626BC"/>
<path opacity="0.1" d="M63.0537 58.3086H65.2066C65.6812 58.3086 66.066 57.9239 66.066 57.4492C66.066 56.9745 65.6812 56.5898 65.2066 56.5898H63.0537C62.5792 56.5898 62.1943 56.9745 62.1943 57.4492C62.1943 57.9239 62.579 58.3086 63.0537 58.3086Z" fill="#2626BC"/>
<path opacity="0.1" d="M77.6391 56.0152C77.081 56.2919 76.4841 56.4707 75.8648 56.5463C75.3937 56.6037 75.0584 57.0322 75.1158 57.5033C75.1691 57.9392 75.5396 58.2589 75.9678 58.2589C76.0025 58.2589 76.0375 58.2566 76.0729 58.2523C76.8859 58.1532 77.6698 57.9187 78.4029 57.555C78.8281 57.3441 79.0017 56.8283 78.791 56.4033C78.5801 55.9782 78.0645 55.8048 77.6391 56.0152Z" fill="#2626BC"/>
<path opacity="0.1" d="M53.1426 57.4492C53.1426 56.9745 52.7578 56.5898 52.2832 56.5898H51.252C50.7774 56.5898 50.3926 56.9745 50.3926 57.4492C50.3926 57.9239 50.7774 58.3086 51.252 58.3086H52.2832C52.7578 58.3086 53.1426 57.9239 53.1426 57.4492Z" fill="#2626BC"/>
<path opacity="0.1" d="M22.5244 43.8125C22.0499 43.8125 21.665 44.1972 21.665 44.6719C21.665 45.1466 22.0499 45.5312 22.5244 45.5312H23.5557C24.0302 45.5312 24.415 45.1466 24.415 44.6719C24.415 44.1972 24.0302 43.8125 23.5557 43.8125H22.5244Z" fill="#2626BC"/>
<path opacity="0.1" d="M34.0312 43.8125C33.5567 43.8125 33.1719 44.1972 33.1719 44.6719C33.1719 45.1466 33.5567 45.5312 34.0312 45.5312H36.1262C36.6008 45.5312 36.9856 45.1466 36.9856 44.6719C36.9856 44.1972 36.6008 43.8125 36.1262 43.8125H34.0312Z" fill="#2626BC"/>
<path opacity="0.1" d="M27.7461 43.8125C27.2715 43.8125 26.8867 44.1972 26.8867 44.6719C26.8867 45.1466 27.2715 45.5312 27.7461 45.5312H29.8411C30.3156 45.5312 30.7005 45.1466 30.7005 44.6719C30.7005 44.1972 30.3156 43.8125 29.8411 43.8125H27.7461Z" fill="#2626BC"/>
<path opacity="0.1" d="M48.6966 43.8125H46.6016C46.127 43.8125 45.7422 44.1972 45.7422 44.6719C45.7422 45.1466 46.127 45.5312 46.6016 45.5312H48.6966C49.1711 45.5312 49.5559 45.1466 49.5559 44.6719C49.5559 44.1972 49.1711 43.8125 48.6966 43.8125Z" fill="#2626BC"/>
<path opacity="0.1" d="M52.8867 45.5312H54.9817C55.4563 45.5312 55.8411 45.1466 55.8411 44.6719C55.8411 44.1972 55.4563 43.8125 54.9817 43.8125H52.8867C52.4122 43.8125 52.0273 44.1972 52.0273 44.6719C52.0273 45.1466 52.4122 45.5312 52.8867 45.5312Z" fill="#2626BC"/>
<path opacity="0.1" d="M40.3164 45.5312H42.4114C42.8859 45.5312 43.2708 45.1466 43.2708 44.6719C43.2708 44.1972 42.8859 43.8125 42.4114 43.8125H40.3164C39.8419 43.8125 39.457 44.1972 39.457 44.6719C39.457 45.1466 39.8419 45.5312 40.3164 45.5312Z" fill="#2626BC"/>
<path opacity="0.1" d="M59.1719 45.5312H60.2031C60.6777 45.5312 61.0625 45.1466 61.0625 44.6719C61.0625 44.1972 60.6777 43.8125 60.2031 43.8125H59.1719C58.6973 43.8125 58.3125 44.1972 58.3125 44.6719C58.3125 45.1466 58.6972 45.5312 59.1719 45.5312Z" fill="#2626BC"/>
</g>
<path d="M27.5633 18.6952C27.5633 12.9489 22.8256 8.30917 17.0434 8.46884C11.5458 8.62061 7.1248 13.1535 7.10262 18.6531C7.09386 20.8313 7.76606 22.8517 8.91831 24.5144C10.2472 26.432 11.4098 28.4596 12.3728 30.5849L16.5917 39.8953C16.8804 40.5326 17.7855 40.5326 18.0743 39.8953L22.3253 30.514C23.2841 28.3978 24.4606 26.3908 25.775 24.4749C26.903 22.8304 27.5633 20.8399 27.5633 18.6952Z" fill="#FF7EB8"/>
<path d="M27.5641 18.6953C27.5641 20.8403 26.9041 22.8306 25.7749 24.4755C25.2249 25.2781 24.6955 26.098 24.1988 26.935C21.9266 25.2695 20.4502 22.5797 20.4502 19.5461C20.4502 16.2392 22.2033 13.3431 24.8296 11.7344C26.526 13.5597 27.5641 16.0072 27.5641 18.6953Z" fill="#FF5BA8"/>
<path d="M17.2967 25.0563C20.7684 25.0563 23.5827 22.242 23.5827 18.7704C23.5827 15.2987 20.7684 12.4844 17.2967 12.4844C13.8251 12.4844 11.0107 15.2987 11.0107 18.7704C11.0107 22.242 13.8251 25.0563 17.2967 25.0563Z" fill="white"/>
<path d="M23.5835 18.7702C23.5835 20.6866 22.7275 22.4019 21.3749 23.5534C20.7819 22.3434 20.4502 20.9839 20.4502 19.5453C20.4502 17.6959 20.9985 15.9738 21.9421 14.5352C22.963 15.6523 23.5835 17.1391 23.5835 18.7702Z" fill="#FFDBED"/>
<path d="M48.5041 56.88C48.5041 52.6316 45.0014 49.2013 40.7264 49.3194C36.6619 49.4316 33.3933 52.7828 33.377 56.8489C33.3705 58.4592 33.8676 59.9529 34.7194 61.1822C35.7018 62.6 36.5613 64.0991 37.2734 65.6702L40.3926 72.5536C40.6061 73.0247 41.2752 73.0247 41.4887 72.5536L44.6316 65.6178C45.3406 64.0532 46.2102 62.5692 47.182 61.1528C48.016 59.9373 48.5041 58.4657 48.5041 56.88Z" fill="#FF7EB8"/>
<path d="M40.9139 61.3062C43.3273 61.3062 45.2838 59.3498 45.2838 56.9363C45.2838 54.5229 43.3273 52.5664 40.9139 52.5664C38.5004 52.5664 36.5439 54.5229 36.5439 56.9363C36.5439 59.3498 38.5004 61.3062 40.9139 61.3062Z" fill="white"/>
<path d="M78.1945 37.1222C78.1945 32.8738 74.6919 29.4435 70.4168 29.5616C66.3523 29.6738 63.0838 33.025 63.0674 37.0911C63.0609 38.7014 63.558 40.1951 64.4098 41.4244C65.3922 42.8422 66.2518 44.3413 66.9639 45.9124L70.083 52.7958C70.2965 53.2669 70.9656 53.2669 71.1791 52.7958L74.322 45.8599C75.031 44.2954 75.9007 42.8114 76.8725 41.395C77.7062 40.1795 78.1945 38.7079 78.1945 37.1222Z" fill="#FF7EB8"/>
<path d="M70.6043 41.5484C73.0177 41.5484 74.9742 39.592 74.9742 37.1785C74.9742 34.7651 73.0177 32.8086 70.6043 32.8086C68.1909 32.8086 66.2344 34.7651 66.2344 37.1785C66.2344 39.592 68.1909 41.5484 70.6043 41.5484Z" fill="white"/>
<path d="M30.5898 54.0078H29.5586C29.084 54.0078 28.6992 53.6232 28.6992 53.1484C28.6992 52.6737 29.084 52.2891 29.5586 52.2891H30.5898C31.0644 52.2891 31.4492 52.6737 31.4492 53.1484C31.4492 53.6232 31.0644 54.0078 30.5898 54.0078Z" fill="#2626BC"/>
<path d="M46.813 50.8418C45.169 49.2425 42.9988 48.3979 40.7027 48.4603C36.2076 48.5845 32.5357 52.3458 32.5176 56.8452C32.5106 58.5809 33.0276 60.2498 34.0131 61.6716C34.981 63.0683 35.8146 64.5328 36.4907 66.0247L39.3327 72.2966C39.1754 72.4523 39.0778 72.668 39.0778 72.9069C39.0778 73.3816 39.4626 73.7663 39.9372 73.7663H42.0608C42.5354 73.7663 42.9202 73.3816 42.9202 72.9069C42.9202 72.6285 42.7856 72.3834 42.5803 72.2264L45.4141 65.9724C46.0642 64.538 46.8742 63.1205 47.8905 61.6389C48.854 60.2344 49.3635 58.5889 49.3635 56.8801C49.3635 54.5859 48.4577 52.4414 46.813 50.8418ZM46.4732 60.6666C45.3992 62.2321 44.5407 63.7356 43.8485 65.2629L40.9404 71.6807L38.056 65.3153C37.3374 63.7293 36.4522 62.1742 35.4256 60.6926C34.6419 59.5617 34.2306 58.2336 34.2362 56.8521C34.2507 53.2709 37.1727 50.277 40.75 50.1782C40.8141 50.1764 40.8778 50.1754 40.9418 50.1754C42.6988 50.1754 44.3518 50.8452 45.6145 52.0736C46.9237 53.347 47.6447 55.0539 47.6447 56.8797C47.6447 58.2401 47.2396 59.5495 46.4732 60.6666Z" fill="#2626BC"/>
<path d="M16.5756 72.0474H16.2901C15.729 72.0474 15.1673 71.9955 14.6211 71.8934C14.1541 71.8072 13.7055 72.1136 13.6183 72.5801C13.531 73.0467 13.8385 73.4957 14.305 73.583C14.9554 73.7047 15.6233 73.7662 16.2901 73.7662H16.5756C17.0502 73.7662 17.435 73.3815 17.435 72.9068C17.435 72.4321 17.0503 72.0474 16.5756 72.0474Z" fill="#2626BC"/>
<path d="M12.3401 53.0408C11.6261 53.3235 10.94 53.6848 10.3013 54.115C9.90756 54.38 9.80341 54.914 10.0686 55.3078C10.2346 55.5543 10.5059 55.6873 10.7822 55.6873C10.9472 55.6873 11.1143 55.6398 11.2616 55.5405C11.7978 55.1792 12.3736 54.876 12.973 54.6389C13.4142 54.4641 13.6304 53.9648 13.4558 53.5236C13.2808 53.0824 12.7813 52.8667 12.3401 53.0408Z" fill="#2626BC"/>
<path d="M11.0812 70.3932C10.5546 70.0199 10.0664 69.5887 9.63057 69.1115C9.31053 68.7614 8.76689 68.7369 8.41644 69.0569C8.06599 69.3771 8.04158 69.9206 8.36161 70.271C8.88016 70.8385 9.46075 71.3513 10.0872 71.7954C10.2381 71.9023 10.4116 71.9537 10.5834 71.9537C10.8526 71.9537 11.1178 71.8277 11.2852 71.5914C11.5597 71.204 11.4684 70.6675 11.0812 70.3932Z" fill="#2626BC"/>
<path d="M7.31172 63.8883C7.26703 63.4156 6.84731 63.0674 6.37534 63.1135C5.90286 63.1582 5.55601 63.5772 5.60053 64.0497C5.67289 64.8166 5.82843 65.5763 6.06253 66.3076C6.1794 66.6725 6.51714 66.9052 6.88083 66.9052C6.96762 66.9052 7.05597 66.892 7.14294 66.8641C7.59497 66.7194 7.84419 66.2358 7.6993 65.7837C7.50284 65.1698 7.37239 64.5321 7.31172 63.8883Z" fill="#2626BC"/>
<path d="M8.31436 57.1388C7.90976 56.8904 7.38056 57.0173 7.13237 57.4217C6.72984 58.0778 6.39778 58.7787 6.14547 59.5042C5.98975 59.9524 6.22693 60.4423 6.67518 60.598C6.76851 60.6305 6.86373 60.6457 6.95723 60.6457C7.31301 60.6457 7.64559 60.4232 7.769 60.0684C7.98058 59.4595 8.25936 58.8713 8.59726 58.3206C8.84545 57.9164 8.71878 57.3872 8.31436 57.1388Z" fill="#2626BC"/>
<path d="M25.3112 52.2891H23.1875C22.713 52.2891 22.3281 52.6737 22.3281 53.1484C22.3281 53.6232 22.713 54.0078 23.1875 54.0078H25.3112C25.7857 54.0078 26.1706 53.6232 26.1706 53.1484C26.1706 52.6737 25.7857 52.2891 25.3112 52.2891Z" fill="#2626BC"/>
<path d="M29.318 72.0469H27.1943C26.7198 72.0469 26.335 72.4315 26.335 72.9062C26.335 73.381 26.7198 73.7656 27.1943 73.7656H29.318C29.7926 73.7656 30.1774 73.381 30.1774 72.9062C30.1774 72.4315 29.7926 72.0469 29.318 72.0469Z" fill="#2626BC"/>
<path d="M35.6891 72.0469H33.5654C33.0909 72.0469 32.7061 72.4315 32.7061 72.9062C32.7061 73.381 33.0909 73.7656 33.5654 73.7656H35.6891C36.1637 73.7656 36.5485 73.381 36.5485 72.9062C36.5485 72.4315 36.1637 72.0469 35.6891 72.0469Z" fill="#2626BC"/>
<path d="M18.9401 52.2891H16.8164C16.3419 52.2891 15.957 52.6737 15.957 53.1484C15.957 53.6232 16.3419 54.0078 16.8164 54.0078H18.9401C19.4146 54.0078 19.7995 53.6232 19.7995 53.1484C19.7995 52.6737 19.4148 52.2891 18.9401 52.2891Z" fill="#2626BC"/>
<path d="M22.9469 72.0469H20.8232C20.3487 72.0469 19.9639 72.4315 19.9639 72.9062C19.9639 73.381 20.3487 73.7656 20.8232 73.7656H22.9469C23.4215 73.7656 23.8063 73.381 23.8063 72.9062C23.8063 72.4315 23.4215 72.0469 22.9469 72.0469Z" fill="#2626BC"/>
<path d="M47.3574 73.7656H46.3262C45.8516 73.7656 45.4668 73.381 45.4668 72.9062C45.4668 72.4315 45.8516 72.0469 46.3262 72.0469H47.3574C47.832 72.0469 48.2168 72.4315 48.2168 72.9062C48.2168 73.381 47.832 73.7656 47.3574 73.7656Z" fill="#2626BC"/>
<path d="M80.5548 44.1528C80.2731 44.1528 79.9971 44.0143 79.8326 43.7604C79.6711 43.511 79.4884 43.273 79.2893 43.053C78.971 42.701 78.9983 42.1575 79.3503 41.8392C79.7023 41.5209 80.2456 41.5481 80.5641 41.9001C80.8247 42.1881 81.0639 42.4996 81.2752 42.8261C81.5332 43.2245 81.4194 43.7566 81.021 44.0146C80.8768 44.1083 80.7149 44.1528 80.5548 44.1528Z" fill="#2626BC"/>
<path d="M70.3931 28.7022C65.8981 28.8265 62.2263 32.588 62.2081 37.0873C62.201 38.8233 62.7182 40.4922 63.7036 41.9136C64.6717 43.3108 65.5053 44.7755 66.1811 46.2668L68.9918 52.4696C68.7873 52.6267 68.6534 52.8711 68.6534 53.1489C68.6534 53.6236 69.0382 54.0083 69.5128 54.0083H71.6657C72.1402 54.0083 72.525 53.6236 72.525 53.1489C72.525 52.8995 72.4171 52.6769 72.2475 52.52L75.1047 46.2146C75.7551 44.7794 76.5651 43.362 77.5811 41.8811C78.5446 40.4765 79.0541 38.831 79.0541 37.122C79.0541 34.8282 78.1483 32.6839 76.5038 31.0841C74.8598 29.4848 72.6916 28.6421 70.3931 28.7022ZM76.1638 40.9085C75.0901 42.4734 74.2316 43.9771 73.5391 45.5051L70.631 51.9229L67.7466 45.5575C67.0281 43.972 66.1432 42.4168 65.1162 40.9346C64.3326 39.804 63.9213 38.4759 63.9268 37.0944C63.9413 33.513 66.8633 30.5191 70.4405 30.4203C70.5047 30.4186 70.5682 30.4175 70.632 30.4175C72.3893 30.4175 74.0425 31.0875 75.3053 32.3159C76.6143 33.5893 77.3353 35.296 77.3353 37.1219C77.3353 38.4823 76.9302 39.7916 76.1638 40.9085Z" fill="#2626BC"/>
<path d="M58.7486 52.2891H56.5957C56.1212 52.2891 55.7363 52.6737 55.7363 53.1484C55.7363 53.6232 56.1212 54.0078 56.5957 54.0078H58.7486C59.2232 54.0078 59.608 53.6232 59.608 53.1484C59.608 52.6737 59.2232 52.2891 58.7486 52.2891Z" fill="#2626BC"/>
<path d="M65.2076 52.2891H63.0547C62.5801 52.2891 62.1953 52.6737 62.1953 53.1484C62.1953 53.6232 62.5801 54.0078 63.0547 54.0078H65.2076C65.6821 54.0078 66.067 53.6232 66.067 53.1484C66.067 52.6737 65.6821 52.2891 65.2076 52.2891Z" fill="#2626BC"/>
<path d="M81.6294 46.547C81.1588 46.5018 80.7362 46.8447 80.6891 47.3168C80.6271 47.9381 80.4617 48.5392 80.1975 49.1033C79.9963 49.5331 80.1814 50.0448 80.6112 50.2459C80.7292 50.3012 80.8531 50.3274 80.9753 50.3274C81.2984 50.3274 81.6079 50.1443 81.754 49.8324C82.1011 49.0917 82.3181 48.3028 82.3994 47.4873C82.4464 47.0152 82.1017 46.5942 81.6294 46.547Z" fill="#2626BC"/>
<path d="M77.6399 51.7183C77.0819 51.995 76.4849 52.1738 75.8655 52.2496C75.3944 52.3072 75.0591 52.7357 75.1168 53.2068C75.1701 53.6425 75.5407 53.9622 75.9688 53.9622C76.0037 53.9622 76.0388 53.9599 76.0742 53.9556C76.8873 53.8563 77.6712 53.6217 78.4039 53.2582C78.8291 53.0473 79.0027 52.5315 78.792 52.1064C78.5813 51.6814 78.0655 51.508 77.6399 51.7183Z" fill="#2626BC"/>
<path d="M52.2832 54.0078H51.252C50.7774 54.0078 50.3926 53.6232 50.3926 53.1484C50.3926 52.6737 50.7774 52.2891 51.252 52.2891H52.2832C52.7578 52.2891 53.1426 52.6737 53.1426 53.1484C53.1426 53.6232 52.7579 54.0078 52.2832 54.0078Z" fill="#2626BC"/>
<path d="M23.5557 41.2305H22.5244C22.0499 41.2305 21.665 40.8458 21.665 40.3711C21.665 39.8964 22.0499 39.5117 22.5244 39.5117H23.5557C24.0302 39.5117 24.415 39.8964 24.415 40.3711C24.415 40.8458 24.0302 41.2305 23.5557 41.2305Z" fill="#2626BC"/>
<path d="M54.9819 41.2305H52.8868C52.4122 41.2305 52.0274 40.8458 52.0274 40.3711C52.0274 39.8964 52.4122 39.5117 52.8868 39.5117H54.9819C55.4565 39.5117 55.8413 39.8964 55.8413 40.3711C55.8413 40.8458 55.4565 41.2305 54.9819 41.2305ZM48.6966 41.2305H46.6016C46.1271 41.2305 45.7423 40.8458 45.7423 40.3711C45.7423 39.8964 46.1271 39.5117 46.6016 39.5117H48.6966C49.1712 39.5117 49.556 39.8964 49.556 40.3711C49.556 40.8458 49.1712 41.2305 48.6966 41.2305ZM42.4115 41.2305H40.3165C39.842 41.2305 39.4571 40.8458 39.4571 40.3711C39.4571 39.8964 39.842 39.5117 40.3165 39.5117H42.4115C42.886 39.5117 43.2709 39.8964 43.2709 40.3711C43.2709 40.8458 42.886 41.2305 42.4115 41.2305ZM36.1262 41.2305H34.0312C33.5567 41.2305 33.1718 40.8458 33.1718 40.3711C33.1718 39.8964 33.5567 39.5117 34.0312 39.5117H36.1262C36.6008 39.5117 36.9856 39.8964 36.9856 40.3711C36.9856 40.8458 36.6009 41.2305 36.1262 41.2305ZM29.8411 41.2305H27.7461C27.2715 41.2305 26.8867 40.8458 26.8867 40.3711C26.8867 39.8964 27.2715 39.5117 27.7461 39.5117H29.8411C30.3156 39.5117 30.7005 39.8964 30.7005 40.3711C30.7005 40.8458 30.3156 41.2305 29.8411 41.2305Z" fill="#2626BC"/>
<path d="M60.2031 41.2305H59.1719C58.6973 41.2305 58.3125 40.8458 58.3125 40.3711C58.3125 39.8964 58.6973 39.5117 59.1719 39.5117H60.2031C60.6777 39.5117 61.0625 39.8964 61.0625 40.3711C61.0625 40.8458 60.6778 41.2305 60.2031 41.2305Z" fill="#2626BC"/>
<path d="M29.6048 24.1081C34.6613 24.1081 38.7604 20.009 38.7604 14.9525C38.7604 9.89598 34.6613 5.79688 29.6048 5.79688C24.5483 5.79688 20.4492 9.89598 20.4492 14.9525C20.4492 20.009 24.5483 24.1081 29.6048 24.1081Z" fill="#01ECA5"/>
<path d="M31.8372 16.1983C32.5209 15.5847 32.9542 14.6973 32.9542 13.7085C32.9542 11.8617 31.4518 10.3594 29.605 10.3594C27.7582 10.3594 26.2559 11.8617 26.2559 13.7085C26.2559 14.6973 26.6892 15.5847 27.3729 16.1983C26.6892 16.8119 26.2559 17.6993 26.2559 18.6881C26.2559 19.1626 26.6407 19.5475 27.1152 19.5475C27.5898 19.5475 27.9746 19.1626 27.9746 18.6881C27.9746 17.7892 28.7059 17.0577 29.605 17.0577C30.5041 17.0577 31.2354 17.789 31.2354 18.6881C31.2354 19.1626 31.6203 19.5475 32.0948 19.5475C32.5693 19.5475 32.9542 19.1626 32.9542 18.6881C32.9542 17.6993 32.5209 16.8119 31.8372 16.1983ZM27.9746 13.7085C27.9746 12.8096 28.7059 12.0781 29.605 12.0781C30.5041 12.0781 31.2354 12.8095 31.2354 13.7085C31.2354 14.6076 30.5041 15.3389 29.605 15.3389C28.7059 15.3389 27.9746 14.6076 27.9746 13.7085Z" fill="white"/>
<path d="M29.6052 4.9375C26.5008 4.9375 23.722 6.35719 21.8836 8.58142C20.3663 7.89908 18.6977 7.56375 17.0187 7.60998C14.1358 7.68973 11.4314 8.87773 9.40375 10.9555C7.37683 13.0328 6.25397 15.7653 6.24228 18.6499C6.233 20.9351 6.9138 23.1325 8.21094 25.0042C9.53077 26.9088 10.6674 28.9058 11.589 30.9398L15.8078 40.2504C16.0825 40.8563 16.6665 41.2329 17.332 41.2329C17.9973 41.2329 18.5814 40.8565 18.8558 40.2502L23.1068 30.869C23.5171 29.9634 23.9949 29.0272 24.5272 28.086C24.7608 27.673 24.6154 27.1486 24.2022 26.915C23.7892 26.6818 23.2648 26.827 23.0312 27.2402C22.4738 28.2255 21.9726 29.208 21.5414 30.1598L17.3318 39.4495L13.1547 30.2305C12.1905 28.1023 11.0025 26.0147 9.62392 24.0252C8.52839 22.4443 7.95347 20.5881 7.96138 18.6569C7.98148 13.6512 12.0661 9.46623 17.0665 9.32822C18.3816 9.29109 19.6863 9.53516 20.8898 10.0286C20.0645 11.4839 19.5906 13.1634 19.5906 14.9525C19.5906 20.4748 24.0832 24.9676 29.6056 24.9676C35.1279 24.9676 39.6206 20.4748 39.6206 14.9525C39.6206 9.43014 35.1276 4.9375 29.6052 4.9375ZM29.6052 23.2487C25.0306 23.2487 21.309 19.5271 21.309 14.9523C21.309 10.3779 25.0306 6.65608 29.6052 6.65608C34.1799 6.65608 37.9015 10.3777 37.9015 14.9523C37.9015 19.5269 34.1799 23.2487 29.6052 23.2487Z" fill="#2626BC"/>
<path d="M60.9925 78.7643C66.049 78.7643 70.1481 74.6652 70.1481 69.6087C70.1481 64.5522 66.049 60.4531 60.9925 60.4531C55.936 60.4531 51.8369 64.5522 51.8369 69.6087C51.8369 74.6652 55.936 78.7643 60.9925 78.7643Z" fill="#6583FE"/>
<path d="M63.2249 70.8546C63.9086 70.241 64.3419 69.3536 64.3419 68.3648C64.3419 66.518 62.8395 65.0156 60.9927 65.0156C59.1459 65.0156 57.6436 66.518 57.6436 68.3648C57.6436 69.3536 58.0769 70.241 58.7606 70.8546C58.0769 71.4682 57.6436 72.3555 57.6436 73.3443C57.6436 73.8189 58.0284 74.2037 58.5029 74.2037C58.9775 74.2037 59.3623 73.8189 59.3623 73.3443C59.3623 72.4454 60.0936 71.7139 60.9927 71.7139C61.8918 71.7139 62.6231 72.4453 62.6231 73.3443C62.6231 73.8189 63.008 74.2037 63.4825 74.2037C63.957 74.2037 64.3419 73.8189 64.3419 73.3443C64.3419 72.3555 63.9086 71.4682 63.2249 70.8546ZM59.3625 68.3648C59.3625 67.4659 60.0938 66.7344 60.9929 66.7344C61.892 66.7344 62.6233 67.4657 62.6233 68.3648C62.6233 69.2639 61.892 69.9952 60.9929 69.9952C60.0938 69.9952 59.3625 69.2639 59.3625 68.3648Z" fill="white"/>
<path d="M60.9925 79.6232C55.4702 79.6232 50.9775 75.1306 50.9775 69.6082C50.9775 65.1507 53.9713 61.1891 58.2578 59.9741C58.7145 59.8449 59.1896 60.1101 59.319 60.5666C59.4484 61.0231 59.183 61.4983 58.7265 61.6277C55.1761 62.6339 52.6963 65.9157 52.6963 69.6082C52.6963 74.1827 56.4179 77.9045 60.9925 77.9045C65.5671 77.9045 69.2889 74.1829 69.2889 69.6082C69.2889 65.9275 66.8193 62.6487 63.2833 61.6348C62.8269 61.5038 62.5633 61.0281 62.6941 60.5717C62.8249 60.1154 63.3005 59.8519 63.757 59.9824C68.0262 61.2065 71.0079 65.1646 71.0079 69.6081C71.0077 75.1306 66.5149 79.6232 60.9925 79.6232Z" fill="#2626BC"/>
<path d="M42.0273 33.1054C41.8073 33.1054 41.5875 33.0215 41.4195 32.8536L40.3945 31.8286L39.3694 32.8536C39.0338 33.1893 38.4898 33.1893 38.1541 32.8536C37.8184 32.5181 37.8184 31.974 38.1541 31.6385L39.7869 30.0057C40.1226 29.67 40.6666 29.67 41.0022 30.0057L42.635 31.6385C42.9707 31.974 42.9707 32.5181 42.635 32.8536C42.4671 33.0214 42.2473 33.1054 42.0273 33.1054Z" fill="#FF7EB8"/>
<path d="M46.9169 25.7851C46.6969 25.7851 46.4771 25.7012 46.3092 25.5333L45.2841 24.5083L44.2591 25.5333C43.9234 25.869 43.3794 25.869 43.0437 25.5333C42.7081 25.1978 42.7081 24.6537 43.0437 24.3182L44.6766 22.6853C45.0122 22.3497 45.5562 22.3497 45.8919 22.6853L47.5247 24.3182C47.8604 24.6537 47.8604 25.1978 47.5247 25.5333C47.3568 25.7011 47.1369 25.7851 46.9169 25.7851Z" fill="#6583FE"/>
<path d="M8.72353 40.0691C8.05769 40.0691 7.43189 39.8098 6.96113 39.339C5.98952 38.3674 5.98952 36.7863 6.96113 35.8147C7.93274 34.8431 9.51399 34.8429 10.4856 35.8147C11.4572 36.7863 11.4572 38.3674 10.4856 39.339C10.0152 39.8098 9.38921 40.0691 8.72353 40.0691ZM8.72353 36.8038C8.52553 36.8038 8.32736 36.8791 8.17663 37.0299C7.87516 37.3315 7.87516 37.822 8.17663 38.1237C8.32272 38.2699 8.51694 38.3502 8.72353 38.3502C8.93013 38.3502 9.12435 38.2698 9.27027 38.1237C9.57191 37.822 9.57191 37.3315 9.27027 37.0299C9.11971 36.8791 8.92171 36.8038 8.72353 36.8038Z" fill="#00ECA2"/>
<path d="M74.9743 82.8842C74.3362 82.8844 73.698 82.6414 73.2121 82.1555C72.2405 81.1839 72.2405 79.6028 73.2121 78.6312C74.1837 77.6594 75.765 77.6594 76.7366 78.6312C77.2073 79.1018 77.4665 79.7276 77.4665 80.3934C77.4665 81.0591 77.2073 81.6849 76.7364 82.1556C76.2508 82.6414 75.6125 82.8842 74.9743 82.8842ZM74.9743 79.6203C74.7763 79.6203 74.5782 79.6956 74.4274 79.8463C74.126 80.148 74.126 80.6385 74.4274 80.9401C74.7289 81.2416 75.2196 81.2416 75.5211 80.9401C75.6673 80.7939 75.7476 80.5998 75.7476 80.3932C75.7476 80.1866 75.6672 79.9924 75.5211 79.8463V79.8462C75.3705 79.6956 75.1725 79.6203 74.9743 79.6203Z" fill="#00ECA2"/>
<path d="M75.1094 62.943C74.4712 62.9432 73.833 62.7002 73.3471 62.2143C72.8764 61.7437 72.6172 61.1177 72.6172 60.452C72.6172 59.7864 72.8764 59.1604 73.3473 58.6896C74.3188 57.718 75.8998 57.718 76.8716 58.6898V58.6896V58.6898C77.3424 59.1604 77.6016 59.7864 77.6016 60.452C77.6016 61.1177 77.3424 61.7437 76.8714 62.2144C76.3857 62.7002 75.7475 62.943 75.1094 62.943ZM75.1094 59.6789C74.9114 59.6789 74.7132 59.7542 74.5625 59.905C74.4162 60.0512 74.3359 60.2453 74.3359 60.452C74.3359 60.6588 74.4164 60.8529 74.5625 60.9989C74.8641 61.3008 75.3548 61.3006 75.6563 60.9991C75.8025 60.8528 75.8828 60.6588 75.8828 60.452C75.8828 60.2453 75.8024 60.0512 75.6563 59.9051V59.905C75.5055 59.7542 75.3074 59.6789 75.1094 59.6789Z" fill="#FF7EB8"/>
</g>
<defs>
<linearGradient id="paint0_linear" x1="88.2941" y1="17.1198" x2="21.2663" y2="70.2265" gradientUnits="userSpaceOnUse">
<stop stop-color="#C6D1FF"/>
<stop offset="0.5834" stop-color="#E6D5F4"/>
<stop offset="0.997" stop-color="#FFD9EC"/>
</linearGradient>
<clipPath id="clip0">
<rect width="88" height="88" fill="white"/>
</clipPath>
</defs>
</svg>
