<svg width="24" height="24" viewBox="0 0 24 24" fill="none" xmlns="http://www.w3.org/2000/svg">
<g clip-path="url(#clip0)">
<path d="M6.39886 9.38281V15.7644H3.65649V9.6051C3.65649 9.48224 3.75537 9.38281 3.87732 9.38281H6.39886Z" fill="#949CAC"/>
<path d="M9.14167 7.04553V15.7647H6.39893V7.04553C6.39893 6.92267 6.4978 6.82324 6.61975 6.82324H8.92085C9.04279 6.82324 9.14167 6.92267 9.14167 7.04553Z" fill="#B7C1D6"/>
<path d="M11.884 9.6051V15.7644H9.1416V9.38281H11.6631C11.7851 9.38281 11.884 9.48224 11.884 9.6051Z" fill="#949CAC"/>
<path d="M14.6264 12.0543V15.7648H11.884V11.832H14.4056C14.5275 11.832 14.6264 11.9316 14.6264 12.0543Z" fill="#B7C1D6"/>
<path d="M3.65649 11.4385H6.39886V12.1573H3.65649V11.4385Z" fill="#5E687D"/>
<path d="M6.39893 11.4385H9.14167V12.1573H6.39893V11.4385Z" fill="#949CAC"/>
<path d="M6.39893 13.8706H9.14167V14.5896H6.39893V13.8706Z" fill="#949CAC"/>
<path d="M3.65649 13.8706H6.39886V14.5896H3.65649V13.8706Z" fill="#5E687D"/>
<path d="M9.1416 13.8706H11.884V14.5896H9.1416V13.8706Z" fill="#5E687D"/>
<path d="M14.6265 13.8717V14.5886C14.6199 14.5895 14.6136 14.5895 14.6069 14.5895H11.8843V13.8706H14.6069C14.6136 13.8706 14.6199 13.8706 14.6265 13.8717Z" fill="#949CAC"/>
<path d="M9.1416 11.4385H11.884V12.1573H9.1416V11.4385Z" fill="#5E687D"/>
<path d="M22.7502 11.938H17.1228C16.834 11.938 16.5999 12.172 16.5999 12.4608V13.6235H23.2731V12.4608C23.2731 12.172 23.0391 11.938 22.7502 11.938Z" fill="#717A8B"/>
<path d="M6.39893 9.00635H9.14167V9.72521H6.39893V9.00635Z" fill="#949CAC"/>
<path d="M23.9753 14.2252C23.9753 14.2252 23.6488 15.2676 23.3104 16.3397C22.962 17.442 22.6005 18.5754 22.5685 18.6378L21.4951 18.6278L19.2532 18.6076L18.0473 18.5966L15.9102 18.5769H15.9097L14.6049 18.565L12.5623 18.5463L11.1674 18.5333L9.21315 18.5155L7.73146 18.5016L5.86104 18.4849L4.29878 18.4705L2.50801 18.4536L1.54634 18.445L0.999953 16.7143L0.138624 13.9849C0.0701426 13.7678 0.232557 13.5464 0.46034 13.5464H3.99409C4.27681 13.5464 4.52895 13.7247 4.62343 13.9912L5.07259 15.2593C5.16707 15.5259 5.41921 15.7041 5.70192 15.7041H14.8105C15.0806 15.7041 15.3236 15.5421 15.427 15.2929L15.984 13.9571C16.0877 13.7084 16.3306 13.5464 16.6 13.5464H23.4787C23.831 13.5464 24.0822 13.8892 23.9753 14.2252Z" fill="#394050"/>
<path d="M17.427 9.06055H22.4465V11.938H17.427V9.06055Z" fill="#B7C1D6"/>
<path d="M21.4955 7.90234H18.3783C17.679 7.90234 17.1123 8.46924 17.1123 9.16834H22.7613C22.7613 8.46924 22.1946 7.90234 21.4955 7.90234Z" fill="#717A8B"/>
<path d="M18.7026 11.1975C18.504 11.1975 18.343 11.0366 18.343 10.8381V10.2686C18.343 10.0701 18.504 9.90918 18.7026 9.90918C18.9011 9.90918 19.0621 10.0701 19.0621 10.2686V10.8381C19.0621 11.0366 18.9011 11.1975 18.7026 11.1975Z" fill="#394050"/>
<path d="M19.8865 11.1975C19.6881 11.1975 19.5271 11.0366 19.5271 10.8381V10.2686C19.5271 10.0701 19.6881 9.90918 19.8865 9.90918C20.0852 9.90918 20.2462 10.0701 20.2462 10.2686V10.8381C20.2462 11.0366 20.0852 11.1975 19.8865 11.1975Z" fill="#394050"/>
<path d="M21.0987 11.1975C20.9002 11.1975 20.7393 11.0366 20.7393 10.8381V10.2686C20.7393 10.0701 20.9002 9.90918 21.0987 9.90918C21.2974 9.90918 21.4583 10.0701 21.4583 10.2686V10.8381C21.4583 11.0366 21.2974 11.1975 21.0987 11.1975Z" fill="#394050"/>
<path d="M0 19.2538C0 19.3001 0.0366211 19.3378 0.0827637 19.3404C0.849061 19.3825 0.876709 20.0091 1.69629 20.0091C2.54444 20.0091 2.54444 19.3382 3.39258 19.3382C4.24073 19.3382 4.24073 20.0091 5.08887 20.0091C5.93702 20.0091 5.93702 19.3382 6.78516 19.3382C7.63331 19.3382 7.63331 20.0091 8.48145 20.0091C9.32959 20.0091 9.32959 19.3382 10.1779 19.3382C11.0259 19.3382 11.0259 20.0091 11.874 20.0091C12.7222 20.0091 12.7222 19.3382 13.5703 19.3382C14.4185 19.3382 14.4185 20.0091 15.2666 20.0091C16.1149 20.0091 16.1149 19.3382 16.9631 19.3382C17.8114 19.3382 17.8114 20.0091 18.6596 20.0091C19.5079 20.0091 19.5079 19.3382 20.356 19.3382C21.2044 19.3382 21.2044 20.0091 22.0529 20.0091C22.8726 20.0091 22.9001 19.3825 23.6666 19.3404C23.7129 19.3378 23.7495 19.3001 23.7495 19.2538V17.6014C23.7495 17.5518 23.7076 17.5115 23.6578 17.5145C22.8999 17.561 22.8695 18.1828 22.0529 18.1828C21.2044 18.1828 21.2044 17.5117 20.356 17.5117C19.5079 17.5117 19.5079 18.1828 18.6596 18.1828C17.8114 18.1828 17.8114 17.5117 16.9631 17.5117C16.1149 17.5117 16.1149 18.1828 15.2666 18.1828C14.4185 18.1828 14.4185 17.5117 13.5703 17.5117C12.7222 17.5117 12.7222 18.1828 11.874 18.1828C11.0261 18.1828 11.0261 17.5117 10.1779 17.5117C9.32959 17.5117 9.32959 18.1828 8.48145 18.1828C7.63331 18.1828 7.63331 17.5117 6.78516 17.5117C5.93702 17.5117 5.93702 18.1828 5.08887 18.1828C4.24073 18.1828 4.24073 17.5117 3.39258 17.5117C2.54444 17.5117 2.54444 18.1828 1.69629 18.1828C0.879822 18.1828 0.849244 17.561 0.0915528 17.5145C0.0419312 17.5115 0 17.5518 0 17.6014V19.2538Z" fill="#B7C1D6"/>
</g>
<defs>
<clipPath id="clip0">
<rect width="24" height="24" fill="white"/>
</clipPath>
</defs>
</svg>
