<svg width="24" height="24" viewBox="0 0 24 24" fill="none" xmlns="http://www.w3.org/2000/svg">
<path d="M13 0H4.5C3.83696 0 3.20107 0.252856 2.73223 0.702944C2.26339 1.15303 2 1.76348 2 2.4V21.6C2 22.2365 2.26339 22.847 2.73223 23.2971C3.20107 23.7471 3.83696 24 4.5 24H19.5C20.163 24 20.7989 23.7471 21.2678 23.2971C21.7366 22.847 22 22.2365 22 21.6V8L13 0Z" fill="#2F80ED"/>
<path d="M13 0V8H22" fill="#92C0FF"/>
<path d="M9.6871 15.589C9.6871 15.8447 9.61972 16.0799 9.48497 16.2945C9.35486 16.5091 9.15971 16.6804 8.89949 16.8082C8.64393 16.9361 8.33261 17 7.96552 17C7.41257 17 6.9572 16.8676 6.59941 16.6027C6.24162 16.3379 6.04647 15.968 6.01394 15.4932H7.28247C7.30106 15.6758 7.36611 15.8196 7.47763 15.9247C7.59379 16.0297 7.74016 16.0822 7.91673 16.0822C8.07007 16.0822 8.19088 16.0411 8.27917 15.9589C8.36746 15.8767 8.4116 15.7671 8.4116 15.6301C8.4116 15.5068 8.36978 15.4041 8.28614 15.3219C8.20715 15.2397 8.10724 15.1735 7.98643 15.1233C7.86562 15.0685 7.69834 15.0046 7.4846 14.9315C7.17327 14.8265 6.91771 14.726 6.7179 14.6301C6.52275 14.5297 6.35314 14.3836 6.2091 14.1918C6.0697 13.9954 6 13.742 6 13.4315C6 13.1438 6.07435 12.895 6.22304 12.6849C6.37173 12.4749 6.57618 12.3151 6.83639 12.2055C7.10125 12.0913 7.40328 12.0342 7.74248 12.0342C8.29079 12.0342 8.72525 12.1621 9.04586 12.4178C9.37113 12.6735 9.55467 13.0251 9.59649 13.4726H8.30705C8.28382 13.3128 8.22341 13.1872 8.12583 13.0959C8.0329 13 7.90512 12.9521 7.74248 12.9521C7.60309 12.9521 7.48924 12.9886 7.40096 13.0616C7.31732 13.1347 7.2755 13.242 7.2755 13.3836C7.2755 13.4977 7.31267 13.5959 7.38702 13.6781C7.46601 13.7557 7.56359 13.8196 7.67975 13.8699C7.79592 13.9201 7.9632 13.984 8.18159 14.0616C8.49756 14.1667 8.75545 14.2717 8.95525 14.3767C9.15506 14.4772 9.32698 14.6256 9.47103 14.8219C9.61507 15.0183 9.6871 15.274 9.6871 15.589Z" fill="white"/>
<path d="M11.5379 15.2534V16.9521H10.346V12.1096H12.2767C12.8622 12.1096 13.3083 12.2534 13.6149 12.5411C13.9216 12.8242 14.0749 13.2078 14.0749 13.6918C14.0749 13.9932 14.0052 14.2626 13.8658 14.5C13.7311 14.7329 13.529 14.9178 13.2595 15.0548C12.99 15.1872 12.6624 15.2534 12.2767 15.2534H11.5379ZM12.1443 14.3151C12.6229 14.3151 12.8622 14.1073 12.8622 13.6918C12.8622 13.2671 12.6229 13.0548 12.1443 13.0548H11.5379V14.3151H12.1443Z" fill="white"/>
<path d="M14.4872 16.0205C15.9648 14.984 16.7036 14.1598 16.7036 13.5479C16.7036 13.1735 16.5386 12.9863 16.2087 12.9863C16.0229 12.9863 15.8858 13.0502 15.7975 13.1781C15.7139 13.3059 15.6674 13.5046 15.6581 13.774H14.4941C14.522 13.1849 14.7032 12.742 15.0378 12.4452C15.3723 12.1484 15.7952 12 16.3063 12C16.8407 12 17.2426 12.1324 17.5121 12.3973C17.7863 12.6621 17.9233 13.0068 17.9233 13.4315C17.9233 13.9018 17.7398 14.363 17.3727 14.8151C17.0056 15.2626 16.5665 15.6416 16.0554 15.9521H18V16.8973H14.4872V16.0205Z" fill="white"/>
</svg>
