<svg width="24" height="24" viewBox="0 0 24 24" fill="none" xmlns="http://www.w3.org/2000/svg">
<path d="M20.0727 15.2727C19.9275 15.6018 19.8842 15.9668 19.9484 16.3206C20.0125 16.6745 20.1812 17.0011 20.4327 17.2582L20.4982 17.3236C20.701 17.5263 20.862 17.7669 20.9718 18.0318C21.0816 18.2966 21.1381 18.5805 21.1381 18.8673C21.1381 19.154 21.0816 19.4379 20.9718 19.7028C20.862 19.9676 20.701 20.2083 20.4982 20.4109C20.2956 20.6138 20.0549 20.7747 19.7901 20.8845C19.5252 20.9943 19.2413 21.0508 18.9545 21.0508C18.6678 21.0508 18.3839 20.9943 18.119 20.8845C17.8542 20.7747 17.6135 20.6138 17.4109 20.4109L17.3455 20.3455C17.0884 20.094 16.7618 19.9253 16.4079 19.8611C16.054 19.7969 15.689 19.8402 15.36 19.9855C15.0373 20.1237 14.7622 20.3534 14.5683 20.646C14.3745 20.9387 14.2705 21.2817 14.2691 21.6327V21.8182C14.2691 22.3968 14.0392 22.9518 13.6301 23.361C13.2209 23.7701 12.6659 24 12.0873 24C11.5086 24 10.9537 23.7701 10.5445 23.361C10.1353 22.9518 9.90545 22.3968 9.90545 21.8182V21.72C9.89701 21.3589 9.78013 21.0087 9.57001 20.7149C9.35989 20.4212 9.06626 20.1974 8.72727 20.0727C8.39824 19.9275 8.03324 19.8842 7.67936 19.9484C7.32547 20.0125 6.99892 20.1812 6.74182 20.4327L6.67636 20.4982C6.47373 20.701 6.2331 20.862 5.96823 20.9718C5.70336 21.0816 5.41945 21.1381 5.13273 21.1381C4.846 21.1381 4.56209 21.0816 4.29722 20.9718C4.03235 20.862 3.79172 20.701 3.58909 20.4982C3.38623 20.2956 3.2253 20.0549 3.11551 19.7901C3.00571 19.5252 2.94919 19.2413 2.94919 18.9545C2.94919 18.6678 3.00571 18.3839 3.11551 18.119C3.2253 17.8542 3.38623 17.6135 3.58909 17.4109L3.65455 17.3455C3.90604 17.0884 4.07475 16.7618 4.13891 16.4079C4.20308 16.054 4.15976 15.689 4.01455 15.36C3.87626 15.0373 3.64664 14.7622 3.35396 14.5683C3.06128 14.3745 2.71831 14.2705 2.36727 14.2691H2.18182C1.60316 14.2691 1.04821 14.0392 0.63904 13.6301C0.22987 13.2209 0 12.6659 0 12.0873C0 11.5086 0.22987 10.9537 0.63904 10.5445C1.04821 10.1353 1.60316 9.90545 2.18182 9.90545H2.28C2.64108 9.89701 2.99128 9.78013 3.28505 9.57001C3.57883 9.35989 3.8026 9.06626 3.92727 8.72727C4.07249 8.39824 4.11581 8.03324 4.05164 7.67936C3.98748 7.32547 3.81877 6.99892 3.56727 6.74182L3.50182 6.67636C3.29896 6.47373 3.13803 6.2331 3.02823 5.96823C2.91844 5.70336 2.86192 5.41945 2.86192 5.13273C2.86192 4.846 2.91844 4.56209 3.02823 4.29722C3.13803 4.03235 3.29896 3.79172 3.50182 3.58909C3.70445 3.38623 3.94508 3.2253 4.20995 3.11551C4.47482 3.00571 4.75873 2.94919 5.04545 2.94919C5.33218 2.94919 5.61609 3.00571 5.88096 3.11551C6.14583 3.2253 6.38646 3.38623 6.58909 3.58909L6.65455 3.65455C6.91165 3.90604 7.2382 4.07475 7.59208 4.13891C7.94597 4.20308 8.31096 4.15976 8.64 4.01455H8.72727C9.04993 3.87626 9.32511 3.64664 9.51894 3.35396C9.71277 3.06128 9.81678 2.71831 9.81818 2.36727V2.18182C9.81818 1.60316 10.0481 1.04821 10.4572 0.63904C10.8664 0.22987 11.4213 0 12 0C12.5787 0 13.1336 0.22987 13.5428 0.63904C13.9519 1.04821 14.1818 1.60316 14.1818 2.18182V2.28C14.1832 2.63104 14.2872 2.97401 14.4811 3.26669C14.6749 3.55937 14.9501 3.78899 15.2727 3.92727C15.6018 4.07249 15.9668 4.11581 16.3206 4.05164C16.6745 3.98748 17.0011 3.81877 17.2582 3.56727L17.3236 3.50182C17.5263 3.29896 17.7669 3.13803 18.0318 3.02823C18.2966 2.91844 18.5805 2.86192 18.8673 2.86192C19.154 2.86192 19.4379 2.91844 19.7028 3.02823C19.9676 3.13803 20.2083 3.29896 20.4109 3.50182C20.6138 3.70445 20.7747 3.94508 20.8845 4.20995C20.9943 4.47482 21.0508 4.75873 21.0508 5.04545C21.0508 5.33218 20.9943 5.61609 20.8845 5.88096C20.7747 6.14583 20.6138 6.38646 20.4109 6.58909L20.3455 6.65455C20.094 6.91165 19.9253 7.2382 19.8611 7.59208C19.7969 7.94597 19.8402 8.31096 19.9855 8.64V8.72727C20.1237 9.04993 20.3534 9.32511 20.646 9.51894C20.9387 9.71277 21.2817 9.81678 21.6327 9.81818H21.8182C22.3968 9.81818 22.9518 10.0481 23.361 10.4572C23.7701 10.8664 24 11.4213 24 12C24 12.5787 23.7701 13.1336 23.361 13.5428C22.9518 13.9519 22.3968 14.1818 21.8182 14.1818H21.72C21.369 14.1832 21.026 14.2872 20.7333 14.4811C20.4406 14.6749 20.211 14.9501 20.0727 15.2727Z" fill="#27AE60"/>
<path d="M12 16C14.2091 16 16 14.2091 16 12C16 9.79086 14.2091 8 12 8C9.79086 8 8 9.79086 8 12C8 14.2091 9.79086 16 12 16Z" fill="white"/>
</svg>
