<svg width="122" height="85" viewBox="0 0 122 85" fill="none" xmlns="http://www.w3.org/2000/svg">
<path d="M89.3788 50.7409L86.769 22.0342H109.959L112.569 50.7409H89.3788Z" fill="#5DB9D2"/>
<path d="M0.5 73.889H121.407V51.6668C121.407 50.1934 120.822 48.7803 119.78 47.7384C118.738 46.6966 117.325 46.1112 115.852 46.1112H91.7775V25.7409H115.852V18.3335L82.5183 14.6298V47.9631H6.5C3.18629 47.9631 0.5 50.6494 0.5 53.9631V73.889Z" fill="#0093B9"/>
<path d="M75.1108 73.8891C75.1108 68.9777 77.0619 64.2674 80.5348 60.7946C84.0077 57.3217 88.7179 55.3706 93.6294 55.3706C98.5408 55.3706 103.251 57.3217 106.724 60.7946C110.197 64.2674 112.148 68.9777 112.148 73.8891H75.1108Z" fill="#067B98"/>
<path d="M12 73.8891C12 68.9777 13.9511 64.2674 17.4239 60.7946C20.8968 57.3217 25.6071 55.3706 30.5185 55.3706C35.4299 55.3706 40.1402 57.3217 43.6131 60.7946C47.086 64.2674 49.037 68.9777 49.037 73.8891H12Z" fill="#067B98"/>
<path d="M93.6292 85.0001C99.7657 85.0001 104.74 80.0254 104.74 73.8889C104.74 67.7524 99.7657 62.7778 93.6292 62.7778C87.4927 62.7778 82.5181 67.7524 82.5181 73.8889C82.5181 80.0254 87.4927 85.0001 93.6292 85.0001Z" fill="#4E4E4F"/>
<path d="M30.5183 85.0001C36.6548 85.0001 41.6294 80.0254 41.6294 73.8889C41.6294 67.7524 36.6548 62.7778 30.5183 62.7778C24.3818 62.7778 19.4072 67.7524 19.4072 73.8889C19.4072 80.0254 24.3818 85.0001 30.5183 85.0001Z" fill="#4E4E4F"/>
<path d="M93.6295 77.5927C95.675 77.5927 97.3332 75.9345 97.3332 73.889C97.3332 71.8435 95.675 70.1853 93.6295 70.1853C91.584 70.1853 89.9258 71.8435 89.9258 73.889C89.9258 75.9345 91.584 77.5927 93.6295 77.5927Z" fill="#C9C9C8"/>
<path d="M30.5186 77.5927C32.5641 77.5927 34.2223 75.9345 34.2223 73.889C34.2223 71.8435 32.5641 70.1853 30.5186 70.1853C28.4731 70.1853 26.8149 71.8435 26.8149 73.889C26.8149 75.9345 28.4731 77.5927 30.5186 77.5927Z" fill="#C9C9C8"/>
<path d="M7 0H83V48H7V0Z" fill="#EB5849"/>
<path d="M64 47.9631H67.7037V73.889H64V47.9631Z" fill="#067B98"/>
<path d="M114 46.1112V55.3705H121.407V51.6668C121.407 50.1934 120.822 48.7803 119.78 47.7384C118.738 46.6966 117.325 46.1112 115.852 46.1112H114Z" fill="#F8BC1E"/>
<path d="M91.7773 46.1112H95.481V55.3705H91.7773V46.1112Z" fill="#067B98"/>
<path d="M71.4067 5.37051H75.1104V42.4075H71.4067V5.37051Z" fill="#D4342F"/>
<path d="M63.9995 5.37051H67.7032V42.4075H63.9995V5.37051Z" fill="#D4342F"/>
<path d="M56.5923 5.3705H60.296V42.4075H56.5923V5.3705Z" fill="#D4342F"/>
<path d="M49 5.3705H52.7037V42.4075H49V5.3705Z" fill="#D4342F"/>
<path d="M42 5.3705H45.7037V42.4075H42V5.3705Z" fill="#D4342F"/>
<path d="M35 5.3705H38.7037V42.4075H35V5.3705Z" fill="#D4342F"/>
<path d="M28 5.3705H31.7037V42.4075H28V5.3705Z" fill="#D4342F"/>
<path d="M21 5.3705H24.7037V42.4075H21V5.3705Z" fill="#D4342F"/>
<path d="M14 5.3705H17.7037V42.4075H14V5.3705Z" fill="#D4342F"/>
<path d="M115.852 60.9261H121.407V64.6298H115.852V60.9261Z" fill="#067B98"/>
</svg>
