<svg width="28" height="21" viewBox="0 0 28 21" fill="none" xmlns="http://www.w3.org/2000/svg">
<rect width="28" height="19.25" fill="#EEF3F8"/>
<rect width="15.75" height="12.25" fill="#41479B"/>
<rect x="15.75" width="12.25" height="1.75" fill="#DC251C"/>
<rect x="15.75" y="3.5" width="12.25" height="1.75" fill="#DC251C"/>
<rect x="15.75" y="7" width="12.25" height="1.75" fill="#DC251C"/>
<rect x="15.75" y="10.5" width="12.25" height="1.75" fill="#DC251C"/>
<rect y="14" width="28" height="1.75" fill="#DC251C"/>
<rect y="17.5" width="28" height="1.75" fill="#DC251C"/>
<rect x="1.75" y="1.75" width="1.75" height="1.75" fill="#C5D0EC"/>
<rect x="5.25" y="1.75" width="1.75" height="1.75" fill="#C5D0EC"/>
<rect x="8.75" y="1.75" width="1.75" height="1.75" fill="#C5D0EC"/>
<rect x="12.25" y="1.75" width="1.75" height="1.75" fill="#C5D0EC"/>
<rect x="1.75" y="5.25" width="1.75" height="1.75" fill="#C5D0EC"/>
<rect x="5.25" y="5.25" width="1.75" height="1.75" fill="#C5D0EC"/>
<rect x="8.75" y="5.25" width="1.75" height="1.75" fill="#C5D0EC"/>
<rect x="3.5" y="7" width="1.75" height="1.75" fill="#C5D0EC"/>
<rect x="7" y="7" width="1.75" height="1.75" fill="#C5D0EC"/>
<rect x="10.5" y="7" width="1.75" height="1.75" fill="#C5D0EC"/>
<rect x="3.5" y="3.5" width="1.75" height="1.75" fill="#C5D0EC"/>
<rect x="7" y="3.5" width="1.75" height="1.75" fill="#C5D0EC"/>
<rect x="10.5" y="3.5" width="1.75" height="1.75" fill="#C5D0EC"/>
<rect x="12.25" y="5.25" width="1.75" height="1.75" fill="#C5D0EC"/>
<rect x="1.75" y="8.75" width="1.75" height="1.75" fill="#C5D0EC"/>
<rect x="5.25" y="8.75" width="1.75" height="1.75" fill="#C5D0EC"/>
<rect x="8.75" y="8.75" width="1.75" height="1.75" fill="#C5D0EC"/>
<rect x="12.25" y="8.75" width="1.75" height="1.75" fill="#C5D0EC"/>
</svg>
