<svg width="19" height="16" viewBox="0 0 19 16" fill="none" xmlns="http://www.w3.org/2000/svg">
<path d="M15.4538 16L3.0001 16C1.34325 16 9.73922e-05 14.6569 9.7537e-05 13L9.84113e-05 3C9.85561e-05 1.34315 1.34324 4.86129e-07 3.0001 6.30976e-07L15.4538 1.71971e-06C16.023 1.76947e-06 16.5689 0.210716 16.9715 0.585789C17.374 0.960861 17.6001 1.46957 17.6001 2L17.6001 14C17.6001 14.5304 17.374 15.0391 16.9714 15.4142C16.5689 15.7893 16.023 16 15.4538 16Z" fill="#949CAC"/>
<path d="M8.80005 9.20019C8.80005 8.09562 9.69548 7.2002 10.8 7.2002H17.4C17.9523 7.2002 18.4 7.64791 18.4 8.2002V11.0002C18.4 11.5525 17.9523 12.0002 17.4 12.0002H10.8C9.69548 12.0002 8.80005 11.1048 8.80005 10.0002V9.20019Z" fill="#394050"/>
<path d="M0 2C0 0.895431 0.895431 0 2 0H15.6C16.7046 0 17.6 0.895431 17.6 2V4H2C0.895432 4 0 3.10457 0 2Z" fill="#394050"/>
</svg>
